<?xml version="1.0" encoding="UTF-8"?><svg id="Layer_1" xmlns="http://www.w3.org/2000/svg" viewBox="0 0 492 542"><defs><style>.cls-1{fill:#5852b6;}.cls-2{fill:#efefef;}.cls-3{font-size:13.41px;}.cls-3,.cls-4{font-family:Sora-SemiBold, Sora;font-weight:600;}.cls-5{font-size:7px;}.cls-5,.cls-6{font-family:Sora-Medium, Sora;font-weight:500;}.cls-7{fill:#ed7879;}.cls-8{fill:#edf8e8;}.cls-9{fill:#f2c145;}.cls-10{stroke:#b7b7b7;}.cls-10,.cls-11{fill:none;stroke-linecap:round;stroke-linejoin:round;}.cls-4,.cls-12{fill:#090909;}.cls-4,.cls-6{font-size:9px;}.cls-13{fill:#fff;}.cls-14{fill:#b6eeff;}.cls-11{stroke:#7c7c7c;}.cls-15{fill:#fdf4f1;}.cls-16{fill:#9196bb;opacity:.6;}.cls-17{fill:#88d6e2;}.cls-18{fill:#1a1a1a;}.cls-6{fill:#b7b7b7;}</style></defs><rect class="cls-13" x="1.5" y="1.5" width="489" height="539"/><path class="cls-18" d="M489,3v536H3V3h486M492,0H0v542h492V0h0Z"/><rect class="cls-8" x="295.74" y="260.05" width="143.42" height="245.81" rx="10.09" ry="10.09"/><rect class="cls-13" x="41.06" y="209.79" width="408.2" height="29.69"/><text class="cls-4" transform="translate(63.56 228.24)"><tspan x="0" y="0">Lead source</tspan></text><text class="cls-6" transform="translate(150.36 228.24)"><tspan x="0" y="0">Tags</tspan></text><text class="cls-6" transform="translate(209.24 228.24)"><tspan x="0" y="0">Channels</tspan></text><text class="cls-6" transform="translate(285.5 228.24)"><tspan x="0" y="0">Status</tspan></text><text class="cls-6" transform="translate(356.56 228.24)"><tspan x="0" y="0">Stage</tspan></text><rect class="cls-12" x="63.56" y="235.52" width="20.45" height="2.98" rx="1.49" ry="1.49"/><polyline class="cls-10" points="411.39 229.62 406.65 224.89 411.39 220.15"/><polyline class="cls-11" points="422.65 220.15 427.39 224.89 422.65 229.62"/><rect class="cls-15" x="63.56" y="270.66" width="135.61" height="27.35"/><rect class="cls-15" x="51.26" y="260.05" width="225.16" height="245.81" rx="10.64" ry="10.64"/><text class="cls-3" transform="translate(66.89 288.87)"><tspan x="0" y="0">Qualification rate</tspan></text><text class="cls-3" transform="translate(309.49 288.87)"><tspan x="0" y="0">Recent Activity</tspan></text><text class="cls-5" transform="translate(321.02 316.61)"><tspan x="0" y="0">WEBSITE</tspan><tspan x="0" y="14.4">SMS</tspan><tspan x="0" y="28.8">SOCIAL</tspan></text><rect class="cls-7" x="309.49" y="310.84" width="5.58" height="5.58" rx="2.79" ry="2.79"/><rect class="cls-9" x="309.49" y="326.49" width="5.58" height="5.58" rx="2.79" ry="2.79"/><rect class="cls-1" x="309.49" y="340.46" width="5.58" height="5.58" rx="2.79" ry="2.79"/><rect class="cls-14" x="51.26" y="40.14" width="387.91" height="153.67" rx="10.64" ry="10.64"/><polygon class="cls-17" points="378.83 82.23 386.51 78.44 387.74 69.97 393.72 76.1 402.16 74.65 398.17 82.23 402.16 89.81 393.72 88.36 387.74 94.5 386.51 86.02 378.83 82.23"/><path class="cls-17" d="M295.04,87.6h-2.07s.17,4.63.17,4.63l-5.45-4.63h-10.58c-1.41,0-2.56-1.15-2.56-2.56v-10.25c0-1.41,1.15-2.56,2.56-2.56h17.93c1.41,0,2.56,1.15,2.56,2.56v10.25c0,1.41-1.15,2.56-2.56,2.56Z"/><path class="cls-17" d="M392.84,140.56h-3.74v2.46c-1.05.27-2.03.71-2.9,1.31l-1.82-1.82-2.64,2.64,1.9,1.9c-.53.86-.92,1.81-1.13,2.82h-2.72v3.74h2.72c.21,1.02.61,1.96,1.13,2.82l-1.9,1.9,2.64,2.64,1.82-1.82c.87.6,1.85,1.04,2.9,1.31v2.46h3.74v-2.32c1.14-.2,2.21-.61,3.16-1.19l1.56,1.56,2.64-2.64-1.48-1.48c.66-.96,1.15-2.06,1.4-3.24h2.04v-3.74h-2.04c-.25-1.18-.73-2.28-1.4-3.24l1.48-1.48-2.64-2.64-1.56,1.56c-.95-.58-2.02-.99-3.16-1.19v-2.32ZM396.03,151.75c0,2.6-2.11,4.71-4.71,4.71s-4.71-2.11-4.71-4.71,2.11-4.71,4.71-4.71,4.71,2.11,4.71,4.71Z"/><rect class="cls-17" x="171.94" y="151.75" width="4.64" height="7.32"/><rect class="cls-17" x="179.35" y="144.43" width="4.64" height="14.64"/><rect class="cls-17" x="186.75" y="149.61" width="4.64" height="9.46"/><path class="cls-17" d="M295.74,144.56h-19.32s9.66,7.82,9.66,7.82l9.66-7.82ZM286.08,154.54l-10.68-8.64v13.04s21.36,0,21.36,0v-13.04s-10.68,8.64-10.68,8.64Z"/><path class="cls-17" d="M177.16,91.4v-4.35h-4.35v4.35h4.35ZM177.16,84.41v-4.35h-4.35v4.35h4.35ZM172.81,77.42h4.35v-4.35h-4.35v4.35ZM183.84,91.4v-4.35h-4.35v4.35h4.35ZM183.84,84.41v-4.35h-4.35v4.35h4.35ZM183.84,77.42v-4.35h-4.35v4.35h4.35ZM190.53,91.4v-4.35h-4.35v4.35h4.35ZM190.53,84.41v-4.35h-4.35v4.35h4.35ZM190.53,77.42v-4.35h-4.35v4.35h4.35Z"/><rect class="cls-13" x="130.75" y="40.7" width=".61" height="153.12"/><rect class="cls-13" x="233.62" y="63.1" width=".61" height="35.43"/><rect class="cls-13" x="336.49" y="63.1" width=".61" height="35.43"/><rect class="cls-13" x="233.62" y="136.45" width=".61" height="35.43"/><rect class="cls-13" x="336.49" y="136.45" width=".61" height="35.43"/><rect class="cls-13" x="130.75" y="116.96" width="308.41" height=".61"/><path class="cls-17" d="M102.53,96.79h-23.98c-4.78,0-8.66,3.88-8.66,8.66v23.05c0,4.71,3.77,8.52,8.45,8.64v-6.03c0-3.76,1.75-5.71,4.44-7.92,2.04,1.91,4.75,3.1,7.75,3.1s5.72-1.19,7.75-3.1c2.69,2.21,4.44,4.16,4.44,7.92v6.03c4.68-.11,8.45-3.93,8.45-8.64v-23.05c0-4.78-3.88-8.66-8.66-8.66ZM97.2,115.01c0,3.68-2.98,6.66-6.66,6.66-3.68,0-6.66-2.98-6.66-6.66v-1.14c0-3.68,2.98-6.66,6.66-6.66s6.66,2.98,6.66,6.66v1.14Z"/><path class="cls-7" d="M332.1,437.54c-3.27,0-5.81,2.9-5.33,6.14,2.97,20.36,20.51,36,41.7,36,8.83,0,17.03-2.72,23.8-7.37,2.7-1.85,3.1-5.68.88-8.08l-23.08-24.96c-1.02-1.1-2.45-1.73-3.95-1.73h-34.01Z"/><path class="cls-1" d="M312.6,431.52c-.34,3.2,2.12,6.01,5.35,6.01h45.14c2.97,0,5.38-2.41,5.38-5.38v-45.14c0-3.22-2.81-5.69-6.01-5.35-26.23,2.79-47.06,23.63-49.85,49.85Z"/><path class="cls-9" d="M374.48,388.79c-3.2-.39-6.01,2.13-6.01,5.35v41.3c0,1.35.51,2.66,1.43,3.65l27.17,29.39.85.92c2.19,2.36,5.96,2.31,8.04-.15,7.24-8.56,11.62-19.62,11.62-31.71,0-25.09-18.81-45.79-43.1-48.75Z"/><circle class="cls-13" cx="368.46" cy="437.54" r="21.95"/><circle class="cls-2" cx="368.46" cy="437.54" r="11.53"/><path class="cls-16" d="M80.63,393.18h-4.13c-.61,0-1.1-.49-1.1-1.1h0c0-.61.49-1.1,1.1-1.1h4.13c.61,0,1.1.49,1.1,1.1h0c0,.61-.49,1.1-1.1,1.1Z"/><path class="cls-16" d="M80.63,406.86h-4.13c-.61,0-1.1-.49-1.1-1.1h0c0-.61.49-1.1,1.1-1.1h4.13c.61,0,1.1.49,1.1,1.1h0c0,.61-.49,1.1-1.1,1.1Z"/><path class="cls-16" d="M80.63,420.54h-4.13c-.61,0-1.1-.49-1.1-1.1h0c0-.61.49-1.1,1.1-1.1h4.13c.61,0,1.1.49,1.1,1.1h0c0,.61-.49,1.1-1.1,1.1Z"/><path class="cls-16" d="M80.63,434.21h-4.13c-.61,0-1.1-.49-1.1-1.1h0c0-.61.49-1.1,1.1-1.1h4.13c.61,0,1.1.49,1.1,1.1h0c0,.61-.49,1.1-1.1,1.1Z"/><path class="cls-16" d="M80.63,447.89h-4.13c-.61,0-1.1-.49-1.1-1.1h0c0-.61.49-1.1,1.1-1.1h4.13c.61,0,1.1.49,1.1,1.1h0c0,.61-.49,1.1-1.1,1.1Z"/><path class="cls-16" d="M80.63,461.57h-4.13c-.61,0-1.1-.49-1.1-1.1h0c0-.61.49-1.1,1.1-1.1h4.13c.61,0,1.1.49,1.1,1.1h0c0,.61-.49,1.1-1.1,1.1Z"/><path class="cls-16" d="M80.63,475.25h-4.13c-.61,0-1.1-.49-1.1-1.1h0c0-.61.49-1.1,1.1-1.1h4.13c.61,0,1.1.49,1.1,1.1h0c0,.61-.49,1.1-1.1,1.1Z"/><path class="cls-16" d="M80.63,325.84h-4.13c-.61,0-1.1-.49-1.1-1.1h0c0-.61.49-1.1,1.1-1.1h4.13c.61,0,1.1.49,1.1,1.1h0c0,.61-.49,1.1-1.1,1.1Z"/><path class="cls-16" d="M80.63,339.52h-4.13c-.61,0-1.1-.49-1.1-1.1h0c0-.61.49-1.1,1.1-1.1h4.13c.61,0,1.1.49,1.1,1.1h0c0,.61-.49,1.1-1.1,1.1Z"/><path class="cls-16" d="M80.63,353.2h-4.13c-.61,0-1.1-.49-1.1-1.1h0c0-.61.49-1.1,1.1-1.1h4.13c.61,0,1.1.49,1.1,1.1h0c0,.61-.49,1.1-1.1,1.1Z"/><path class="cls-16" d="M80.63,366.87h-4.13c-.61,0-1.1-.49-1.1-1.1h0c0-.61.49-1.1,1.1-1.1h4.13c.61,0,1.1.49,1.1,1.1h0c0,.61-.49,1.1-1.1,1.1Z"/><path class="cls-16" d="M80.63,380.55h-4.13c-.61,0-1.1-.49-1.1-1.1h0c0-.61.49-1.1,1.1-1.1h4.13c.61,0,1.1.49,1.1,1.1h0c0,.61-.49,1.1-1.1,1.1Z"/><path class="cls-16" d="M170.52,483v-4.13c0-.61.49-1.1,1.1-1.1h0c.61,0,1.1.49,1.1,1.1v4.13c0,.61-.49,1.1-1.1,1.1h0c-.61,0-1.1-.49-1.1-1.1Z"/><path class="cls-16" d="M156.84,483v-4.13c0-.61.49-1.1,1.1-1.1h0c.61,0,1.1.49,1.1,1.1v4.13c0,.61-.49,1.1-1.1,1.1h0c-.61,0-1.1-.49-1.1-1.1Z"/><path class="cls-16" d="M143.17,483v-4.13c0-.61.49-1.1,1.1-1.1h0c.61,0,1.1.49,1.1,1.1v4.13c0,.61-.49,1.1-1.1,1.1h0c-.61,0-1.1-.49-1.1-1.1Z"/><path class="cls-16" d="M129.49,483v-4.13c0-.61.49-1.1,1.1-1.1h0c.61,0,1.1.49,1.1,1.1v4.13c0,.61-.49,1.1-1.1,1.1h0c-.61,0-1.1-.49-1.1-1.1Z"/><path class="cls-16" d="M115.81,483v-4.13c0-.61.49-1.1,1.1-1.1h0c.61,0,1.1.49,1.1,1.1v4.13c0,.61-.49,1.1-1.1,1.1h0c-.61,0-1.1-.49-1.1-1.1Z"/><path class="cls-16" d="M102.13,483v-4.13c0-.61.49-1.1,1.1-1.1h0c.61,0,1.1.49,1.1,1.1v4.13c0,.61-.49,1.1-1.1,1.1h0c-.61,0-1.1-.49-1.1-1.1Z"/><path class="cls-16" d="M88.46,483v-4.13c0-.61.49-1.1,1.1-1.1h0c.61,0,1.1.49,1.1,1.1v4.13c0,.61-.49,1.1-1.1,1.1h0c-.61,0-1.1-.49-1.1-1.1Z"/><path class="cls-16" d="M252.59,483v-4.13c0-.61.49-1.1,1.1-1.1h0c.61,0,1.1.49,1.1,1.1v4.13c0,.61-.49,1.1-1.1,1.1h0c-.61,0-1.1-.49-1.1-1.1Z"/><path class="cls-16" d="M238.91,483v-4.13c0-.61.49-1.1,1.1-1.1h0c.61,0,1.1.49,1.1,1.1v4.13c0,.61-.49,1.1-1.1,1.1h0c-.61,0-1.1-.49-1.1-1.1Z"/><path class="cls-16" d="M225.23,483v-4.13c0-.61.49-1.1,1.1-1.1h0c.61,0,1.1.49,1.1,1.1v4.13c0,.61-.49,1.1-1.1,1.1h0c-.61,0-1.1-.49-1.1-1.1Z"/><path class="cls-16" d="M211.55,483v-4.13c0-.61.49-1.1,1.1-1.1h0c.61,0,1.1.49,1.1,1.1v4.13c0,.61-.49,1.1-1.1,1.1h0c-.61,0-1.1-.49-1.1-1.1Z"/><path class="cls-16" d="M197.88,483v-4.13c0-.61.49-1.1,1.1-1.1h0c.61,0,1.1.49,1.1,1.1v4.13c0,.61-.49,1.1-1.1,1.1h0c-.61,0-1.1-.49-1.1-1.1Z"/><path class="cls-16" d="M184.2,483v-4.13c0-.61.49-1.1,1.1-1.1h0c.61,0,1.1.49,1.1,1.1v4.13c0,.61-.49,1.1-1.1,1.1h0c-.61,0-1.1-.49-1.1-1.1Z"/><path class="cls-14" d="M93.59,459.11c-.19,0-.38-.05-.56-.15-.65-.37-.93-1.31-.62-2.1,8.27-20.85,20.76-34.69,35.18-38.97,12.98-3.85,26.46.06,39,11.32,10.71,9.62,18.76,13.49,25.31,12.17,8.07-1.62,13.93-10.94,21.31-23.93,13.18-23.2,18.8-23.76,19.79-23.63.72.09,1.24.86,1.17,1.73-.08.87-.74,1.47-1.44,1.4.06,0-5.03.59-17.35,22.27-7.76,13.65-13.95,23.45-23.05,25.27-7.31,1.47-15.99-2.59-27.31-12.76-11.88-10.67-24.61-14.4-36.8-10.78-13.64,4.05-25.52,17.28-33.45,37.26-.22.57-.7.9-1.19.9Z"/><path class="cls-7" d="M153.89,458.75c-1.98,0-4.21-.7-6.75-2.3-7.16-4.5-12.61-11.43-17.88-18.14-9.24-11.76-17.96-22.86-35-20.21-.83.12-1.59-.58-1.7-1.57-.11-.99.48-1.91,1.31-2.04,18.58-2.87,28.24,9.43,37.59,21.32,5.1,6.49,10.37,13.2,17.08,17.41,8.48,5.33,11.93-1.18,17.8-14.1,4.74-10.45,10.64-23.46,22.56-27.94,24.26-9.12,48.1,3.19,49.1,3.71.76.4,1.11,1.48.78,2.39-.34.92-1.23,1.33-1.99.94-.24-.13-23.83-12.28-46.98-3.57-10.75,4.04-16.1,15.82-20.81,26.21-4.15,9.14-8.12,17.88-15.11,17.88Z"/></svg>