<?xml version="1.0" encoding="UTF-8"?><svg id="Layer_1" xmlns="http://www.w3.org/2000/svg" viewBox="0 0 205 120"><defs><style>.cls-1{font-family:Sora-Bold, Sora;font-size:41.27px;font-weight:700;}.cls-2{font-family:Sora-SemiBold, Sora;font-size:10px;font-weight:600;}.cls-3{fill:#5f78e6;}.cls-4{fill:#fff;}.cls-5{fill:#9bc9db;}.cls-6{fill:#303233;font-family:Sora-Medium, Sora;font-size:8px;font-weight:500;}</style></defs><rect class="cls-4" width="205" height="120" rx="10" ry="10"/><rect class="cls-4" x="119.37" y="76.43" width="24.38" height="15.09"/><rect class="cls-4" x="119.37" y="96.33" width="48.74" height="10.98"/><text class="cls-6" transform="translate(119.37 105.52)"><tspan x="0" y="0">Total Leads</tspan></text><text class="cls-6" transform="translate(119.37 88.02)"><tspan x="0" y="0">Converted Leads</tspan></text><text class="cls-2" transform="translate(11.9 18.05)"><tspan x="0" y="0">Converted leads</tspan></text><circle class="cls-5" cx="46.15" cy="71.45" r="34.9" transform="translate(-23.83 23.1) rotate(-22.5)"/><path class="cls-4" d="M53.64,72.47c.04-.33.08-.67.08-1.01,0-.52-.05-1.03-.15-1.53-.05-.25-.11-.49-.19-.73-.1-.31-.22-.62-.36-.91-.38-.82-.89-1.56-1.52-2.19-1.15-1.15-2.66-1.92-4.35-2.14-.33-.04-.66-.07-1-.07h0c-4.18,0-7.57,3.39-7.57,7.57s3.39,7.57,7.57,7.57c3.76,0,6.87-2.75,7.46-6.34.01-.07.02-.14.03-.22Z"/><rect class="cls-3" x="106.41" y="80.11" width="8.93" height="8.93" rx="2.85" ry="2.85"/><rect class="cls-5" x="106.41" y="97.35" width="8.93" height="8.93" rx="2.85" ry="2.85"/><text class="cls-1" transform="translate(102.5 65.54)"><tspan x="0" y="0">14%</tspan></text><path class="cls-3" d="M46.15,36.53v16.16c0,1.5,1.11,2.75,2.59,2.99,4.02.66,7.53,2.82,9.95,5.89,1.05,1.34,3.03,1.5,4.32.39l12.18-10.48c1.23-1.06,1.43-2.92.4-4.17-6.32-7.7-15.6-12.88-26.1-13.79-1.79-.16-3.34,1.22-3.34,3.01Z"/></svg>