<svg width="626" height="1122" viewBox="0 0 626 1122" fill="none" xmlns="http://www.w3.org/2000/svg">
<path d="M345.606 441.85C418.622 305.083 488.073 175.016 557.481 44.949C562.151 36.2552 566.82 27.5191 571.448 18.8253C578.41 5.76351 589.108 -4.03286 603.753 1.64988C617.635 7.03577 627.908 18.1892 625.701 36.0856C622.092 65.5171 619.248 95.0334 615.937 124.507C596.409 297.831 576.881 471.155 557.311 644.478C548.991 718.142 540.501 791.805 532.265 865.511C530.737 878.997 526.576 890.66 512.737 895.536C498.983 900.414 488.2 894.349 478.606 884.722C418.155 824.205 357.577 763.773 297.041 703.341C293.603 699.906 289.867 696.768 284.475 691.848C267.452 722.171 251.024 751.348 234.68 780.567C176.521 884.68 118.363 988.835 60.204 1092.99C57.7843 1097.32 55.2372 1101.56 52.775 1105.84C45.1338 1119.2 33.4596 1124.92 18.8563 1120.56C3.74353 1116.02 -1.26575 1103.72 0.262503 1088.83C3.99824 1052.32 7.98868 1015.81 12.0216 979.293C29.8512 818.565 47.7658 657.879 65.6378 497.151C74.4678 417.847 83.1279 338.543 92.1276 259.282C93.7408 245.202 95.5237 230.698 112.504 225.482C128.806 220.478 139.206 229.553 149.565 239.943C209.464 299.994 269.617 359.832 329.474 419.967C334.908 425.438 338.771 432.436 345.691 441.935L345.606 441.85Z" fill="#FFF4E6"/>
</svg>
