<svg xmlns="http://www.w3.org/2000/svg" xmlns:xlink="http://www.w3.org/1999/xlink" width="628" zoomAndPan="magnify" viewBox="0 0 470.87997 470.999988" height="628" preserveAspectRatio="xMidYMid meet" version="1.0"><defs><clipPath id="d1ed06e878"><path d="M 0 0.0585938 L 470.761719 0.0585938 L 470.761719 470.9375 L 0 470.9375 Z M 0 0.0585938 " clip-rule="nonzero"/></clipPath><clipPath id="ef8e14378a"><path d="M 94 47.148438 L 470.761719 47.148438 L 470.761719 423.550781 L 94 423.550781 Z M 94 47.148438 " clip-rule="nonzero"/></clipPath></defs><g clip-path="url(#d1ed06e878)"><path fill="#ffffff" d="M 0 0.0585938 L 470.878906 0.0585938 L 470.878906 470.941406 L 0 470.941406 Z M 0 0.0585938 " fill-opacity="1" fill-rule="nonzero"/><path fill="#ffffff" d="M 0 0.0585938 L 470.878906 0.0585938 L 470.878906 470.941406 L 0 470.941406 Z M 0 0.0585938 " fill-opacity="1" fill-rule="nonzero"/></g><g clip-path="url(#ef8e14378a)"><path fill="#000000" d="M 282.460938 423.5625 C 178.589844 423.5625 94.089844 339.128906 94.089844 235.339844 C 94.089844 131.550781 178.589844 47.117188 282.460938 47.117188 C 386.332031 47.117188 470.832031 131.550781 470.832031 235.339844 C 470.832031 339.128906 386.332031 423.5625 282.460938 423.5625 Z M 282.460938 59.335938 C 185.332031 59.335938 106.320312 138.296875 106.320312 235.339844 C 106.320312 332.382812 185.339844 411.34375 282.460938 411.34375 C 379.589844 411.34375 458.601562 332.382812 458.601562 235.339844 C 458.601562 138.296875 379.582031 59.335938 282.460938 59.335938 Z M 282.460938 59.335938 " fill-opacity="1" fill-rule="nonzero"/></g><path fill="#000000" d="M 282.460938 402.414062 C 190.265625 402.414062 115.253906 327.460938 115.253906 235.339844 C 115.253906 143.214844 190.265625 68.265625 282.460938 68.265625 C 374.65625 68.265625 449.664062 143.214844 449.664062 235.339844 C 449.65625 327.460938 374.65625 402.414062 282.460938 402.414062 Z M 282.460938 80.480469 C 197.007812 80.480469 127.484375 149.949219 127.484375 235.339844 C 127.484375 320.726562 197.007812 390.195312 282.460938 390.195312 C 367.914062 390.195312 437.4375 320.726562 437.4375 235.339844 C 437.425781 149.949219 367.90625 80.480469 282.460938 80.480469 Z M 282.460938 80.480469 " fill-opacity="1" fill-rule="nonzero"/><path fill="#000000" d="M 280.242188 109.925781 C 276.867188 109.925781 274.128906 107.1875 274.128906 103.816406 L 274.128906 74.394531 C 274.128906 71.023438 276.867188 68.285156 280.242188 68.285156 C 283.617188 68.285156 286.355469 71.023438 286.355469 74.394531 L 286.355469 103.816406 C 286.355469 107.1875 283.628906 109.925781 280.242188 109.925781 Z M 280.242188 109.925781 " fill-opacity="1" fill-rule="nonzero"/><path fill="#000000" d="M 443.53125 239.242188 L 414.085938 239.242188 C 410.710938 239.242188 407.972656 236.507812 407.972656 233.132812 C 407.972656 229.761719 410.710938 227.023438 414.085938 227.023438 L 443.53125 227.023438 C 446.90625 227.023438 449.644531 229.761719 449.644531 233.132812 C 449.644531 236.507812 446.90625 239.242188 443.53125 239.242188 Z M 443.53125 239.242188 " fill-opacity="1" fill-rule="nonzero"/><path fill="#000000" d="M 284.667969 402.394531 C 281.292969 402.394531 278.554688 399.65625 278.554688 396.285156 L 278.554688 366.863281 C 278.554688 363.492188 281.292969 360.753906 284.667969 360.753906 C 288.042969 360.753906 290.78125 363.492188 290.78125 366.863281 L 290.78125 396.285156 C 290.78125 399.65625 288.042969 402.394531 284.667969 402.394531 Z M 284.667969 402.394531 " fill-opacity="1" fill-rule="nonzero"/><path fill="#000000" d="M 150.824219 240.046875 L 121.378906 240.046875 C 118.003906 240.046875 115.265625 237.3125 115.265625 233.9375 C 115.265625 230.566406 118.003906 227.832031 121.378906 227.832031 L 150.824219 227.832031 C 154.199219 227.832031 156.9375 230.566406 156.9375 233.9375 C 156.9375 237.3125 154.199219 240.046875 150.824219 240.046875 Z M 150.824219 240.046875 " fill-opacity="1" fill-rule="nonzero"/><path fill="#000000" d="M 280.242188 226.972656 C 276.867188 226.972656 274.128906 224.234375 274.128906 220.863281 L 274.128906 148.191406 C 274.128906 144.816406 276.867188 142.082031 280.242188 142.082031 C 283.617188 142.082031 286.355469 144.816406 286.355469 148.191406 L 286.355469 220.863281 C 286.355469 224.246094 283.628906 226.972656 280.242188 226.972656 Z M 280.242188 226.972656 " fill-opacity="1" fill-rule="nonzero"/><path fill="#000000" d="M 353.871094 240.527344 L 293.816406 240.527344 C 290.441406 240.527344 287.703125 237.789062 287.703125 234.417969 C 287.703125 231.042969 290.441406 228.308594 293.816406 228.308594 L 353.871094 228.308594 C 357.25 228.308594 359.988281 231.042969 359.988281 234.417969 C 359.988281 237.789062 357.25 240.527344 353.871094 240.527344 Z M 353.871094 240.527344 " fill-opacity="1" fill-rule="nonzero"/><path fill="#000000" d="M 280.242188 254.078125 C 269.394531 254.078125 260.5625 245.257812 260.5625 234.417969 C 260.5625 223.578125 269.394531 214.753906 280.242188 214.753906 C 291.089844 214.753906 299.921875 223.578125 299.921875 234.417969 C 299.921875 245.257812 291.101562 254.078125 280.242188 254.078125 Z M 280.242188 226.972656 C 276.132812 226.972656 272.792969 230.3125 272.792969 234.417969 C 272.792969 238.519531 276.132812 241.863281 280.242188 241.863281 C 284.351562 241.863281 287.695312 238.519531 287.695312 234.417969 C 287.695312 230.3125 284.351562 226.972656 280.242188 226.972656 Z M 280.242188 226.972656 " fill-opacity="1" fill-rule="nonzero"/><path fill="#000000" d="M 195.320312 401.4375 L 57.980469 401.4375 C 54.605469 401.4375 51.867188 398.703125 51.867188 395.328125 C 51.867188 391.957031 54.605469 389.21875 57.980469 389.21875 L 195.320312 389.21875 C 198.695312 389.21875 201.433594 391.957031 201.433594 395.328125 C 201.433594 398.703125 198.695312 401.4375 195.320312 401.4375 Z M 195.320312 81.457031 L 57.980469 81.457031 C 54.605469 81.457031 51.867188 78.722656 51.867188 75.347656 C 51.867188 71.976562 54.605469 69.238281 57.980469 69.238281 L 195.320312 69.238281 C 198.695312 69.238281 201.433594 71.976562 201.433594 75.347656 C 201.433594 78.722656 198.695312 81.457031 195.320312 81.457031 Z M 195.320312 81.457031 " fill-opacity="1" fill-rule="nonzero"/><path fill="#000000" d="M 108.101562 122.429688 L 32.921875 122.429688 C 29.546875 122.429688 26.808594 119.691406 26.808594 116.320312 C 26.808594 112.945312 29.546875 110.210938 32.921875 110.210938 L 108.101562 110.210938 C 111.476562 110.210938 114.214844 112.945312 114.214844 116.320312 C 114.214844 119.691406 111.476562 122.429688 108.101562 122.429688 Z M 108.101562 122.429688 " fill-opacity="1" fill-rule="nonzero"/><path fill="#000000" d="M 99.75 161.640625 L 53.726562 161.640625 C 50.351562 161.640625 47.613281 158.902344 47.613281 155.53125 C 47.613281 152.15625 50.351562 149.421875 53.726562 149.421875 L 99.75 149.421875 C 103.125 149.421875 105.863281 152.15625 105.863281 155.53125 C 105.863281 158.902344 103.125 161.640625 99.75 161.640625 Z M 99.75 161.640625 " fill-opacity="1" fill-rule="nonzero"/><path fill="#000000" d="M 81.363281 205.695312 L 6.183594 205.695312 C 2.808594 205.695312 0.0703125 202.960938 0.0703125 199.585938 C 0.0703125 196.214844 2.808594 193.476562 6.183594 193.476562 L 81.363281 193.476562 C 84.738281 193.476562 87.476562 196.214844 87.476562 199.585938 C 87.476562 202.960938 84.738281 205.695312 81.363281 205.695312 Z M 81.363281 205.695312 " fill-opacity="1" fill-rule="nonzero"/><path fill="#000000" d="M 81.363281 274.402344 L 6.183594 274.402344 C 2.808594 274.402344 0.0703125 271.664062 0.0703125 268.292969 C 0.0703125 264.917969 2.808594 262.183594 6.183594 262.183594 L 81.363281 262.183594 C 84.738281 262.183594 87.476562 264.917969 87.476562 268.292969 C 87.476562 271.664062 84.738281 274.402344 81.363281 274.402344 Z M 81.363281 274.402344 " fill-opacity="1" fill-rule="nonzero"/><path fill="#000000" d="M 108.101562 357.667969 L 32.921875 357.667969 C 29.546875 357.667969 26.808594 354.933594 26.808594 351.558594 C 26.808594 348.1875 29.546875 345.449219 32.921875 345.449219 L 108.101562 345.449219 C 111.476562 345.449219 114.214844 348.1875 114.214844 351.558594 C 114.214844 354.933594 111.476562 357.667969 108.101562 357.667969 Z M 108.101562 357.667969 " fill-opacity="1" fill-rule="nonzero"/><path fill="#000000" d="M 99.75 318.457031 L 53.726562 318.457031 C 50.351562 318.457031 47.613281 315.722656 47.613281 312.347656 C 47.613281 308.976562 50.351562 306.238281 53.726562 306.238281 L 99.75 306.238281 C 103.125 306.238281 105.863281 308.976562 105.863281 312.347656 C 105.863281 315.722656 103.125 318.457031 99.75 318.457031 Z M 99.75 318.457031 " fill-opacity="1" fill-rule="nonzero"/></svg>