<svg xmlns="http://www.w3.org/2000/svg" xmlns:xlink="http://www.w3.org/1999/xlink" width="628" zoomAndPan="magnify" viewBox="0 0 470.87997 470.999988" height="628" preserveAspectRatio="xMidYMid meet" version="1.0"><defs><clipPath id="dd1bd763ec"><path d="M 0 0.0585938 L 470.761719 0.0585938 L 470.761719 470.9375 L 0 470.9375 Z M 0 0.0585938 " clip-rule="nonzero"/></clipPath><clipPath id="1948d9e499"><path d="M 53.445312 47.148438 L 248 47.148438 L 248 423.550781 L 53.445312 423.550781 Z M 53.445312 47.148438 " clip-rule="nonzero"/></clipPath><clipPath id="3a5e1a5619"><path d="M 160 128 L 417.101562 128 L 417.101562 343 L 160 343 Z M 160 128 " clip-rule="nonzero"/></clipPath></defs><g clip-path="url(#dd1bd763ec)"><path fill="#ffffff" d="M 0 0.0585938 L 470.878906 0.0585938 L 470.878906 470.941406 L 0 470.941406 Z M 0 0.0585938 " fill-opacity="1" fill-rule="nonzero"/><path fill="#ffffff" d="M 0 0.0585938 L 470.878906 0.0585938 L 470.878906 470.941406 L 0 470.941406 Z M 0 0.0585938 " fill-opacity="1" fill-rule="nonzero"/></g><path fill="#545454" d="M 235.0625 208.199219 C 234.121094 205.75 231.796875 204.117188 229.160156 204.117188 C 226.527344 204.117188 224.203125 205.75 223.261719 208.199219 L 204.4375 258.402344 C 203.242188 261.664062 204.875 265.242188 208.136719 266.496094 C 211.402344 267.691406 214.980469 266.058594 216.234375 262.796875 L 219.433594 254.324219 L 238.953125 254.324219 L 242.152344 262.796875 C 243.09375 265.304688 245.476562 266.875 248.050781 266.875 C 248.804688 266.875 249.558594 266.75 250.246094 266.496094 C 253.511719 265.304688 255.144531 261.664062 253.886719 258.402344 Z M 224.140625 241.773438 L 229.226562 228.28125 L 234.308594 241.773438 Z M 224.140625 241.773438 " fill-opacity="1" fill-rule="nonzero"/><path fill="#545454" d="M 266.816406 204.117188 C 263.363281 204.117188 260.539062 206.941406 260.539062 210.394531 L 260.539062 260.597656 C 260.539062 264.050781 263.363281 266.875 266.816406 266.875 C 270.265625 266.875 273.089844 264.050781 273.089844 260.597656 L 273.089844 210.394531 C 273.089844 206.941406 270.265625 204.117188 266.816406 204.117188 Z M 266.816406 204.117188 " fill-opacity="1" fill-rule="nonzero"/><g clip-path="url(#1948d9e499)"><path fill="#545454" d="M 241.714844 342.183594 C 182.910156 342.183594 135.027344 294.300781 135.027344 235.496094 C 135.027344 176.695312 182.910156 128.8125 241.714844 128.8125 C 245.164062 128.8125 247.988281 125.988281 247.988281 122.535156 L 247.988281 53.503906 C 247.988281 50.050781 245.164062 47.226562 241.714844 47.226562 L 208.640625 47.226562 C 205.753906 47.226562 203.242188 49.171875 202.554688 51.996094 L 193.578125 88.019531 C 185.921875 90.53125 178.519531 93.542969 171.488281 97.121094 L 139.671875 78.042969 C 137.222656 76.535156 134.023438 76.972656 132.015625 78.984375 L 85.261719 125.734375 C 83.253906 127.746094 82.816406 130.945312 84.320312 133.390625 L 103.398438 165.210938 C 99.820312 172.238281 96.746094 179.644531 94.300781 187.300781 L 58.277344 196.273438 C 55.453125 196.964844 53.507812 199.472656 53.507812 202.359375 L 53.507812 268.507812 C 53.507812 271.394531 55.453125 273.902344 58.277344 274.59375 L 94.300781 283.566406 C 96.808594 291.222656 99.820312 298.628906 103.398438 305.65625 L 84.320312 337.476562 C 82.816406 339.921875 83.253906 343.125 85.261719 345.132812 L 132.015625 391.882812 C 134.023438 393.894531 137.222656 394.332031 139.671875 392.824219 L 171.488281 373.75 C 178.519531 377.324219 185.921875 380.398438 193.578125 382.847656 L 202.554688 418.871094 C 203.242188 421.695312 205.753906 423.640625 208.640625 423.640625 L 241.714844 423.640625 C 245.164062 423.640625 247.988281 420.816406 247.988281 417.363281 L 247.988281 348.332031 C 247.988281 344.878906 245.164062 342.054688 241.714844 342.054688 Z M 235.4375 411.214844 L 213.535156 411.214844 L 204.875 376.507812 C 204.308594 374.375 202.679688 372.679688 200.609375 371.992188 C 191.382812 369.230469 182.472656 365.589844 174.25 361.132812 C 172.304688 360.066406 169.921875 360.128906 168.039062 361.257812 L 137.414062 379.648438 L 97.5625 339.796875 L 115.949219 309.171875 C 117.078125 307.289062 117.140625 304.90625 116.074219 302.960938 C 111.621094 294.738281 107.980469 285.828125 105.21875 276.601562 C 104.589844 274.46875 102.898438 272.835938 100.699219 272.335938 L 65.996094 263.675781 L 65.996094 207.320312 L 100.699219 198.660156 C 102.832031 198.09375 104.527344 196.460938 105.21875 194.390625 C 107.980469 185.167969 111.621094 176.253906 116.074219 168.035156 C 117.140625 166.089844 117.078125 163.703125 115.949219 161.820312 L 97.5625 131.195312 L 137.414062 91.347656 L 168.039062 109.734375 C 169.921875 110.863281 172.304688 110.925781 174.25 109.859375 C 182.472656 105.402344 191.382812 101.761719 200.609375 99.003906 C 202.742188 98.375 204.375 96.679688 204.875 94.484375 L 213.535156 59.78125 L 235.4375 59.78125 L 235.4375 116.449219 C 172.617188 119.710938 122.476562 171.863281 122.476562 235.496094 C 122.476562 299.132812 172.617188 351.28125 235.4375 354.542969 Z M 235.4375 411.214844 " fill-opacity="1" fill-rule="nonzero"/></g><g clip-path="url(#3a5e1a5619)"><path fill="#545454" d="M 392.328125 210.394531 C 380.65625 210.394531 370.929688 218.425781 368.105469 229.222656 L 304.46875 229.222656 L 304.46875 204.117188 L 329.570312 204.117188 C 331.328125 204.117188 333.023438 203.367188 334.214844 202.046875 L 357.183594 176.882812 C 360.257812 178.199219 363.648438 179.015625 367.226562 179.015625 C 381.09375 179.015625 392.328125 167.78125 392.328125 153.914062 C 392.328125 140.042969 381.09375 128.8125 367.226562 128.8125 C 353.355469 128.8125 342.121094 140.042969 342.121094 153.914062 C 342.121094 159.625 344.132812 164.832031 347.332031 169.039062 L 326.808594 191.566406 L 304.46875 191.566406 L 304.46875 179.015625 C 304.46875 175.5625 301.644531 172.742188 298.195312 172.742188 L 285.640625 172.742188 L 285.640625 160.1875 C 285.640625 156.738281 282.820312 153.914062 279.367188 153.914062 C 275.914062 153.914062 273.089844 156.738281 273.089844 160.1875 L 273.089844 172.742188 L 247.988281 172.742188 L 247.988281 160.1875 C 247.988281 156.738281 245.164062 153.914062 241.714844 153.914062 C 238.261719 153.914062 235.4375 156.738281 235.4375 160.1875 L 235.4375 172.742188 L 210.335938 172.742188 L 210.335938 160.1875 C 210.335938 156.738281 207.511719 153.914062 204.058594 153.914062 C 200.609375 153.914062 197.785156 156.738281 197.785156 160.1875 L 197.785156 172.742188 L 185.234375 172.742188 C 181.78125 172.742188 178.957031 175.5625 178.957031 179.015625 L 178.957031 191.566406 L 166.40625 191.566406 C 162.953125 191.566406 160.128906 194.390625 160.128906 197.84375 C 160.128906 201.292969 162.953125 204.117188 166.40625 204.117188 L 178.957031 204.117188 L 178.957031 229.222656 L 166.40625 229.222656 C 162.953125 229.222656 160.128906 232.042969 160.128906 235.496094 C 160.128906 238.949219 162.953125 241.773438 166.40625 241.773438 L 178.957031 241.773438 L 178.957031 266.875 L 166.40625 266.875 C 162.953125 266.875 160.128906 269.699219 160.128906 273.148438 C 160.128906 276.601562 162.953125 279.425781 166.40625 279.425781 L 178.957031 279.425781 L 178.957031 291.976562 C 178.957031 295.429688 181.78125 298.253906 185.234375 298.253906 L 197.785156 298.253906 L 197.785156 310.804688 C 197.785156 314.253906 200.609375 317.078125 204.058594 317.078125 C 207.511719 317.078125 210.335938 314.253906 210.335938 310.804688 L 210.335938 298.253906 L 235.4375 298.253906 L 235.4375 310.804688 C 235.4375 314.253906 238.261719 317.078125 241.714844 317.078125 C 245.164062 317.078125 247.988281 314.253906 247.988281 310.804688 L 247.988281 298.253906 L 273.089844 298.253906 L 273.089844 310.804688 C 273.089844 314.253906 275.914062 317.078125 279.367188 317.078125 C 282.820312 317.078125 285.640625 314.253906 285.640625 310.804688 L 285.640625 298.253906 L 298.195312 298.253906 C 301.644531 298.253906 304.46875 295.429688 304.46875 291.976562 L 304.46875 279.425781 L 326.808594 279.425781 L 347.332031 301.957031 C 344.132812 306.160156 342.121094 311.367188 342.121094 317.078125 C 342.121094 330.949219 353.355469 342.183594 367.226562 342.183594 C 381.09375 342.183594 392.328125 330.949219 392.328125 317.078125 C 392.328125 303.210938 381.09375 291.976562 367.226562 291.976562 C 363.648438 291.976562 360.257812 292.730469 357.183594 294.109375 L 334.214844 268.945312 C 333.023438 267.628906 331.328125 266.875 329.570312 266.875 L 304.46875 266.875 L 304.46875 241.773438 L 368.105469 241.773438 C 370.929688 252.566406 380.65625 260.597656 392.328125 260.597656 C 406.195312 260.597656 417.429688 249.367188 417.429688 235.496094 C 417.429688 221.628906 406.195312 210.394531 392.328125 210.394531 Z M 367.226562 141.363281 C 374.128906 141.363281 379.777344 147.011719 379.777344 153.914062 C 379.777344 160.816406 374.128906 166.464844 367.226562 166.464844 C 360.320312 166.464844 354.675781 160.816406 354.675781 153.914062 C 354.675781 147.011719 360.320312 141.363281 367.226562 141.363281 Z M 379.777344 317.078125 C 379.777344 323.984375 374.128906 329.628906 367.226562 329.628906 C 360.320312 329.628906 354.675781 323.984375 354.675781 317.078125 C 354.675781 310.175781 360.320312 304.527344 367.226562 304.527344 C 374.128906 304.527344 379.777344 310.175781 379.777344 317.078125 Z M 291.917969 285.703125 L 191.507812 285.703125 L 191.507812 185.292969 L 291.917969 185.292969 Z M 392.328125 248.046875 C 385.425781 248.046875 379.777344 242.398438 379.777344 235.496094 C 379.777344 228.59375 385.425781 222.945312 392.328125 222.945312 C 399.230469 222.945312 404.878906 228.59375 404.878906 235.496094 C 404.878906 242.398438 399.230469 248.046875 392.328125 248.046875 Z M 392.328125 248.046875 " fill-opacity="1" fill-rule="nonzero"/></g></svg>