<svg xmlns="http://www.w3.org/2000/svg" xmlns:xlink="http://www.w3.org/1999/xlink" width="628" zoomAndPan="magnify" viewBox="0 0 470.87997 470.999988" height="628" preserveAspectRatio="xMidYMid meet" version="1.0"><defs><clipPath id="a500b7aaa1"><path d="M 0 0.0585938 L 470.761719 0.0585938 L 470.761719 470.9375 L 0 470.9375 Z M 0 0.0585938 " clip-rule="nonzero"/></clipPath><clipPath id="88e98ef2eb"><path d="M 282 204 L 417.101562 204 L 417.101562 343 L 282 343 Z M 282 204 " clip-rule="nonzero"/></clipPath><clipPath id="1c5d18641a"><path d="M 53.445312 204 L 189 204 L 189 343 L 53.445312 343 Z M 53.445312 204 " clip-rule="nonzero"/></clipPath><clipPath id="8d479920f2"><path d="M 141 47.148438 L 217 47.148438 L 217 123 L 141 123 Z M 141 47.148438 " clip-rule="nonzero"/></clipPath><clipPath id="52ddbcbc33"><path d="M 254 47.148438 L 330 47.148438 L 330 123 L 254 123 Z M 254 47.148438 " clip-rule="nonzero"/></clipPath><clipPath id="be2aa2e0f6"><path d="M 229 335 L 242 335 L 242 423.550781 L 229 423.550781 Z M 229 335 " clip-rule="nonzero"/></clipPath></defs><g clip-path="url(#a500b7aaa1)"><path fill="#ffffff" d="M 0 0.0585938 L 470.878906 0.0585938 L 470.878906 470.941406 L 0 470.941406 Z M 0 0.0585938 " fill-opacity="1" fill-rule="nonzero"/><path fill="#ffffff" d="M 0 0.0585938 L 470.878906 0.0585938 L 470.878906 470.941406 L 0 470.941406 Z M 0 0.0585938 " fill-opacity="1" fill-rule="nonzero"/></g><path fill="#545454" d="M 342.035156 197.84375 C 321.269531 197.84375 304.382812 180.957031 304.382812 160.1875 C 304.382812 139.421875 321.269531 122.535156 342.035156 122.535156 C 362.800781 122.535156 379.6875 139.421875 379.6875 160.1875 C 379.6875 180.957031 362.792969 197.84375 342.035156 197.84375 Z M 342.035156 135.085938 C 328.191406 135.085938 316.933594 146.34375 316.933594 160.1875 C 316.933594 174.03125 328.191406 185.292969 342.035156 185.292969 C 355.878906 185.292969 367.136719 174.03125 367.136719 160.1875 C 367.136719 146.34375 355.871094 135.085938 342.035156 135.085938 Z M 342.035156 135.085938 " fill-opacity="1" fill-rule="nonzero"/><path fill="#545454" d="M 379.6875 373.558594 C 376.222656 373.558594 373.414062 370.75 373.414062 367.285156 L 373.414062 248.046875 C 373.414062 244.582031 376.222656 241.773438 379.6875 241.773438 C 383.152344 241.773438 385.964844 244.582031 385.964844 248.046875 L 385.964844 367.285156 C 385.964844 370.75 383.152344 373.558594 379.6875 373.558594 Z M 379.6875 373.558594 " fill-opacity="1" fill-rule="nonzero"/><path fill="#545454" d="M 304.382812 398.664062 C 300.917969 398.664062 298.105469 395.851562 298.105469 392.386719 L 298.105469 248.046875 C 298.105469 244.582031 300.917969 241.773438 304.382812 241.773438 C 307.84375 241.773438 310.65625 244.582031 310.65625 248.046875 L 310.65625 392.386719 C 310.65625 395.851562 307.84375 398.664062 304.382812 398.664062 Z M 304.382812 398.664062 " fill-opacity="1" fill-rule="nonzero"/><path fill="#545454" d="M 342.035156 386.109375 C 338.570312 386.109375 335.757812 383.300781 335.757812 379.835938 L 335.757812 342.183594 C 335.757812 338.71875 338.570312 335.90625 342.035156 335.90625 C 345.5 335.90625 348.3125 338.71875 348.3125 342.183594 L 348.3125 379.835938 C 348.3125 383.300781 345.5 386.109375 342.035156 386.109375 Z M 342.035156 386.109375 " fill-opacity="1" fill-rule="nonzero"/><g clip-path="url(#88e98ef2eb)"><path fill="#545454" d="M 392.238281 342.183594 L 379.6875 342.183594 C 376.222656 342.183594 373.414062 339.371094 373.414062 335.90625 C 373.414062 332.441406 376.222656 329.628906 379.6875 329.628906 L 392.238281 329.628906 C 399.160156 329.628906 404.792969 324 404.792969 317.078125 L 404.792969 248.046875 C 404.792969 230.746094 390.714844 216.667969 373.414062 216.667969 L 310.683594 216.667969 C 304.015625 216.667969 297.730469 218.703125 292.496094 222.542969 C 289.695312 224.589844 285.773438 223.988281 283.722656 221.199219 C 281.671875 218.414062 282.273438 214.480469 285.066406 212.425781 C 292.464844 206.992188 301.324219 204.117188 310.683594 204.117188 L 373.414062 204.117188 C 397.636719 204.117188 417.34375 223.824219 417.34375 248.046875 L 417.34375 317.078125 C 417.34375 330.921875 406.078125 342.183594 392.238281 342.183594 Z M 392.238281 342.183594 " fill-opacity="1" fill-rule="nonzero"/></g><path fill="#545454" d="M 304.40625 342.183594 L 291.855469 342.183594 C 278.011719 342.183594 266.753906 330.921875 266.753906 317.078125 L 266.753906 304.527344 C 266.753906 301.0625 269.5625 298.253906 273.027344 298.253906 C 276.492188 298.253906 279.304688 301.0625 279.304688 304.527344 L 279.304688 317.078125 C 279.304688 324 284.933594 329.628906 291.855469 329.628906 L 304.40625 329.628906 C 307.871094 329.628906 310.683594 332.441406 310.683594 335.90625 C 310.683594 339.371094 307.871094 342.183594 304.40625 342.183594 Z M 304.40625 342.183594 " fill-opacity="1" fill-rule="nonzero"/><path fill="#545454" d="M 128.671875 197.84375 C 107.90625 197.84375 91.015625 180.957031 91.015625 160.1875 C 91.015625 139.421875 107.90625 122.535156 128.671875 122.535156 C 149.4375 122.535156 166.324219 139.421875 166.324219 160.1875 C 166.324219 180.957031 149.429688 197.84375 128.671875 197.84375 Z M 128.671875 135.085938 C 114.828125 135.085938 103.566406 146.34375 103.566406 160.1875 C 103.566406 174.03125 114.828125 185.292969 128.671875 185.292969 C 142.515625 185.292969 153.773438 174.03125 153.773438 160.1875 C 153.773438 146.34375 142.507812 135.085938 128.671875 135.085938 Z M 128.671875 135.085938 " fill-opacity="1" fill-rule="nonzero"/><path fill="#545454" d="M 91.015625 373.558594 C 87.554688 373.558594 84.742188 370.75 84.742188 367.285156 L 84.742188 248.046875 C 84.742188 244.582031 87.554688 241.773438 91.015625 241.773438 C 94.480469 241.773438 97.292969 244.582031 97.292969 248.046875 L 97.292969 367.285156 C 97.292969 370.75 94.480469 373.558594 91.015625 373.558594 Z M 91.015625 373.558594 " fill-opacity="1" fill-rule="nonzero"/><path fill="#545454" d="M 166.324219 398.664062 C 162.859375 398.664062 160.046875 395.851562 160.046875 392.386719 L 160.046875 248.046875 C 160.046875 244.582031 162.859375 241.773438 166.324219 241.773438 C 169.789062 241.773438 172.601562 244.582031 172.601562 248.046875 L 172.601562 392.386719 C 172.601562 395.851562 169.789062 398.664062 166.324219 398.664062 Z M 166.324219 398.664062 " fill-opacity="1" fill-rule="nonzero"/><path fill="#545454" d="M 128.671875 386.109375 C 125.207031 386.109375 122.394531 383.300781 122.394531 379.835938 L 122.394531 342.183594 C 122.394531 338.71875 125.207031 335.90625 128.671875 335.90625 C 132.132812 335.90625 134.945312 338.71875 134.945312 342.183594 L 134.945312 379.835938 C 134.945312 383.300781 132.132812 386.109375 128.671875 386.109375 Z M 128.671875 386.109375 " fill-opacity="1" fill-rule="nonzero"/><g clip-path="url(#1c5d18641a)"><path fill="#545454" d="M 91.015625 342.183594 L 78.464844 342.183594 C 64.621094 342.183594 53.363281 330.921875 53.363281 317.078125 L 53.363281 248.046875 C 53.363281 223.824219 73.070312 204.117188 97.292969 204.117188 L 160.066406 204.117188 C 169.410156 204.117188 178.292969 207.011719 185.746094 212.488281 C 188.539062 214.542969 189.140625 218.472656 187.089844 221.261719 C 185.039062 224.0625 181.101562 224.660156 178.316406 222.605469 C 173.03125 218.722656 166.71875 216.667969 160.066406 216.667969 L 97.292969 216.667969 C 79.992188 216.667969 65.914062 230.746094 65.914062 248.046875 L 65.914062 317.078125 C 65.914062 324 71.542969 329.628906 78.464844 329.628906 L 91.015625 329.628906 C 94.480469 329.628906 97.292969 332.441406 97.292969 335.90625 C 97.292969 339.371094 94.480469 342.183594 91.015625 342.183594 Z M 91.015625 342.183594 " fill-opacity="1" fill-rule="nonzero"/></g><path fill="#545454" d="M 178.894531 342.183594 L 166.34375 342.183594 C 162.878906 342.183594 160.066406 339.371094 160.066406 335.90625 C 160.066406 332.441406 162.878906 329.628906 166.34375 329.628906 L 178.894531 329.628906 C 185.816406 329.628906 191.445312 324 191.445312 317.078125 L 191.445312 304.527344 C 191.445312 301.0625 194.257812 298.253906 197.722656 298.253906 C 201.183594 298.253906 203.996094 301.0625 203.996094 304.527344 L 203.996094 317.078125 C 203.996094 330.921875 192.738281 342.183594 178.894531 342.183594 Z M 178.894531 342.183594 " fill-opacity="1" fill-rule="nonzero"/><g clip-path="url(#8d479920f2)"><path fill="#545454" d="M 178.957031 122.535156 C 158.191406 122.535156 141.304688 105.648438 141.304688 84.882812 C 141.304688 64.117188 158.191406 47.226562 178.957031 47.226562 C 199.722656 47.226562 216.609375 64.117188 216.609375 84.882812 C 216.609375 105.648438 199.722656 122.535156 178.957031 122.535156 Z M 178.957031 59.78125 C 165.113281 59.78125 153.855469 71.039062 153.855469 84.882812 C 153.855469 98.726562 165.113281 109.984375 178.957031 109.984375 C 192.800781 109.984375 204.058594 98.726562 204.058594 84.882812 C 204.058594 71.039062 192.800781 59.78125 178.957031 59.78125 Z M 178.957031 59.78125 " fill-opacity="1" fill-rule="nonzero"/></g><g clip-path="url(#52ddbcbc33)"><path fill="#545454" d="M 291.917969 122.535156 C 271.152344 122.535156 254.265625 105.648438 254.265625 84.882812 C 254.265625 64.117188 271.152344 47.226562 291.917969 47.226562 C 312.683594 47.226562 329.570312 64.117188 329.570312 84.882812 C 329.570312 105.648438 312.683594 122.535156 291.917969 122.535156 Z M 291.917969 59.78125 C 278.074219 59.78125 266.816406 71.039062 266.816406 84.882812 C 266.816406 98.726562 278.074219 109.984375 291.917969 109.984375 C 305.761719 109.984375 317.019531 98.726562 317.019531 84.882812 C 317.019531 71.039062 305.761719 59.78125 291.917969 59.78125 Z M 291.917969 59.78125 " fill-opacity="1" fill-rule="nonzero"/></g><path fill="#545454" d="M 235.4375 197.84375 C 214.671875 197.84375 197.785156 180.957031 197.785156 160.1875 C 197.785156 139.421875 214.671875 122.535156 235.4375 122.535156 C 256.203125 122.535156 273.089844 139.421875 273.089844 160.1875 C 273.089844 180.957031 256.203125 197.84375 235.4375 197.84375 Z M 235.4375 135.085938 C 221.59375 135.085938 210.335938 146.34375 210.335938 160.1875 C 210.335938 174.03125 221.59375 185.292969 235.4375 185.292969 C 249.28125 185.292969 260.539062 174.03125 260.539062 160.1875 C 260.539062 146.34375 249.28125 135.085938 235.4375 135.085938 Z M 235.4375 135.085938 " fill-opacity="1" fill-rule="nonzero"/><path fill="#545454" d="M 273.089844 411.214844 C 269.628906 411.214844 266.816406 408.402344 266.816406 404.9375 L 266.816406 310.804688 L 204.058594 310.804688 L 204.058594 404.9375 C 204.058594 408.402344 201.246094 411.214844 197.785156 411.214844 C 194.320312 411.214844 191.507812 408.402344 191.507812 404.9375 L 191.507812 304.527344 C 191.507812 301.0625 194.320312 298.253906 197.785156 298.253906 L 273.089844 298.253906 C 276.554688 298.253906 279.367188 301.0625 279.367188 304.527344 L 279.367188 404.9375 C 279.367188 408.402344 276.554688 411.214844 273.089844 411.214844 Z M 273.089844 411.214844 " fill-opacity="1" fill-rule="nonzero"/><g clip-path="url(#be2aa2e0f6)"><path fill="#545454" d="M 235.4375 423.765625 C 231.972656 423.765625 229.160156 420.953125 229.160156 417.488281 L 229.160156 342.183594 C 229.160156 338.71875 231.972656 335.90625 235.4375 335.90625 C 238.902344 335.90625 241.714844 338.71875 241.714844 342.183594 L 241.714844 417.488281 C 241.714844 420.953125 238.902344 423.765625 235.4375 423.765625 Z M 235.4375 423.765625 " fill-opacity="1" fill-rule="nonzero"/></g><path fill="#545454" d="M 285.640625 310.804688 L 185.234375 310.804688 C 171.386719 310.804688 160.128906 299.546875 160.128906 285.703125 L 160.128906 248.046875 C 160.128906 223.824219 179.835938 204.117188 204.058594 204.117188 L 266.816406 204.117188 C 291.039062 204.117188 310.746094 223.824219 310.746094 248.046875 L 310.746094 285.703125 C 310.746094 299.546875 299.488281 310.804688 285.640625 310.804688 Z M 204.058594 216.667969 C 186.757812 216.667969 172.679688 230.746094 172.679688 248.046875 L 172.679688 285.703125 C 172.679688 292.625 178.3125 298.253906 185.234375 298.253906 L 285.640625 298.253906 C 292.5625 298.253906 298.195312 292.625 298.195312 285.703125 L 298.195312 248.046875 C 298.195312 230.746094 284.117188 216.667969 266.816406 216.667969 Z M 204.058594 216.667969 " fill-opacity="1" fill-rule="nonzero"/><path fill="#545454" d="M 191.515625 279.425781 C 191.105469 279.425781 190.691406 279.386719 190.277344 279.300781 C 186.875 278.621094 184.675781 275.316406 185.359375 271.914062 L 191.632812 240.535156 C 192.3125 237.140625 195.601562 234.933594 199.019531 235.617188 C 202.421875 236.292969 204.625 239.601562 203.941406 243.003906 L 197.664062 274.378906 C 197.070312 277.359375 194.445312 279.425781 191.515625 279.425781 Z M 191.515625 279.425781 " fill-opacity="1" fill-rule="nonzero"/><path fill="#545454" d="M 266.816406 310.804688 C 266.011719 310.804688 265.195312 310.648438 264.40625 310.3125 L 189.097656 278.9375 C 186.335938 277.789062 184.773438 274.851562 185.359375 271.914062 L 189.230469 252.554688 C 189.5625 250.890625 190.554688 249.433594 191.980469 248.511719 C 193.402344 247.589844 195.140625 247.289062 196.792969 247.664062 L 271.308594 264.847656 L 266.941406 243.003906 C 266.261719 239.601562 268.464844 236.300781 271.859375 235.617188 C 275.261719 234.9375 278.570312 237.140625 279.246094 240.535156 L 285.523438 271.914062 C 285.945312 274.003906 285.273438 276.164062 283.742188 277.648438 C 282.210938 279.136719 280.039062 279.746094 277.960938 279.261719 L 200.269531 261.351562 L 198.675781 269.335938 L 269.230469 298.734375 C 272.433594 300.066406 273.9375 303.742188 272.609375 306.945312 C 271.605469 309.355469 269.269531 310.804688 266.816406 310.804688 Z M 266.816406 310.804688 " fill-opacity="1" fill-rule="nonzero"/></svg>