<svg xmlns="http://www.w3.org/2000/svg" xmlns:xlink="http://www.w3.org/1999/xlink" width="628" zoomAndPan="magnify" viewBox="0 0 470.87997 470.999988" height="628" preserveAspectRatio="xMidYMid meet" version="1.0"><defs><clipPath id="e07c66335b"><path d="M 0 0.0585938 L 470.761719 0.0585938 L 470.761719 470.9375 L 0 470.9375 Z M 0 0.0585938 " clip-rule="nonzero"/></clipPath><clipPath id="a894435c12"><path d="M 47.089844 47.148438 L 423.492188 47.148438 L 423.492188 423.550781 L 47.089844 423.550781 Z M 47.089844 47.148438 " clip-rule="nonzero"/></clipPath></defs><g clip-path="url(#e07c66335b)"><path fill="#ffffff" d="M 0 0.0585938 L 470.878906 0.0585938 L 470.878906 470.941406 L 0 470.941406 Z M 0 0.0585938 " fill-opacity="1" fill-rule="nonzero"/><path fill="#ffffff" d="M 0 0.0585938 L 470.878906 0.0585938 L 470.878906 470.941406 L 0 470.941406 Z M 0 0.0585938 " fill-opacity="1" fill-rule="nonzero"/></g><g clip-path="url(#a894435c12)"><path fill="#545454" d="M 167.265625 169.261719 C 185.398438 166.414062 201.234375 158.1875 213.523438 149.417969 L 257.351562 149.417969 C 269.640625 158.191406 285.472656 166.414062 303.605469 169.261719 C 307.453125 169.863281 310.238281 173.121094 310.238281 177.011719 L 310.238281 235.398438 C 310.238281 277.570312 267.425781 313.003906 235.4375 321.574219 C 203.445312 313.003906 160.636719 277.570312 160.636719 235.398438 L 160.636719 177.011719 C 160.636719 173.121094 163.417969 169.863281 167.265625 169.261719 Z M 118.28125 272.773438 C 116.058594 266.851562 110.34375 262.636719 103.644531 262.636719 C 95.011719 262.636719 88.011719 269.636719 88.011719 278.269531 C 88.011719 286.902344 95.011719 293.902344 103.644531 293.902344 C 110.34375 293.902344 116.058594 289.683594 118.28125 283.761719 L 165.832031 283.761719 C 163.394531 280.230469 161.171875 276.5625 159.207031 272.773438 Z M 235.4375 241.542969 C 230.402344 241.542969 226.320312 245.621094 226.320312 250.65625 C 226.320312 253.628906 227.742188 256.265625 229.941406 257.929688 L 229.941406 265.820312 C 229.941406 268.855469 232.402344 271.3125 235.4375 271.3125 C 238.46875 271.3125 240.929688 268.855469 240.929688 265.820312 L 240.929688 257.929688 C 243.128906 256.265625 244.550781 253.628906 244.550781 250.65625 C 244.550781 245.621094 240.472656 241.542969 235.4375 241.542969 Z M 198.15625 315.664062 C 194.324219 313.007812 190.644531 310.167969 187.171875 307.199219 L 187.171875 352.652344 C 181.246094 354.875 177.03125 360.589844 177.03125 367.289062 C 177.03125 375.921875 184.03125 382.921875 192.664062 382.921875 C 201.296875 382.921875 208.296875 375.921875 208.296875 367.289062 C 208.296875 360.589844 204.082031 354.875 198.15625 352.652344 Z M 278.207031 382.921875 C 286.84375 382.921875 293.839844 375.921875 293.839844 367.289062 C 293.839844 360.589844 289.625 354.875 283.703125 352.652344 L 283.703125 307.199219 C 280.226562 310.167969 276.546875 313.007812 272.714844 315.664062 L 272.714844 352.652344 C 266.792969 354.875 262.574219 360.589844 262.574219 367.289062 C 262.578125 375.921875 269.574219 382.921875 278.207031 382.921875 Z M 305.039062 283.761719 L 352.589844 283.761719 C 354.816406 289.683594 360.53125 293.898438 367.230469 293.898438 C 375.863281 293.898438 382.863281 286.902344 382.863281 278.269531 C 382.863281 269.632812 375.863281 262.636719 367.230469 262.636719 C 360.53125 262.636719 354.816406 266.851562 352.589844 272.773438 L 311.667969 272.773438 C 309.699219 276.5625 307.476562 280.230469 305.039062 283.761719 Z M 88.011719 192.722656 C 88.011719 184.089844 95.011719 177.09375 103.644531 177.09375 C 110.34375 177.09375 116.058594 181.308594 118.28125 187.230469 L 149.648438 187.230469 L 149.648438 198.21875 L 118.28125 198.21875 C 116.058594 204.140625 110.34375 208.355469 103.644531 208.355469 C 95.011719 208.355469 88.011719 201.359375 88.011719 192.722656 Z M 187.171875 151.945312 C 190.9375 150.289062 194.605469 148.394531 198.15625 146.308594 L 198.15625 118.34375 C 204.082031 116.117188 208.296875 110.402344 208.296875 103.703125 C 208.296875 95.070312 201.296875 88.070312 192.664062 88.070312 C 184.03125 88.070312 177.03125 95.070312 177.03125 103.703125 C 177.03125 110.402344 181.246094 116.117188 187.171875 118.34375 Z M 47.089844 235.496094 C 47.089844 226.863281 54.085938 219.863281 62.71875 219.863281 C 69.417969 219.863281 75.132812 224.078125 77.359375 230.003906 L 149.648438 230.003906 L 149.648438 235.398438 C 149.648438 237.277344 149.722656 239.140625 149.863281 240.988281 L 77.359375 240.988281 C 75.132812 246.910156 69.417969 251.128906 62.71875 251.128906 C 54.085938 251.128906 47.089844 244.128906 47.089844 235.496094 Z M 278.207031 88.070312 C 269.574219 88.070312 262.578125 95.070312 262.578125 103.703125 C 262.578125 110.402344 266.792969 116.117188 272.714844 118.339844 L 272.714844 146.308594 C 276.265625 148.394531 279.933594 150.289062 283.703125 151.945312 L 283.703125 118.339844 C 289.625 116.117188 293.839844 110.402344 293.839844 103.703125 C 293.839844 95.070312 286.839844 88.070312 278.207031 88.070312 Z M 321.222656 187.230469 L 352.589844 187.230469 C 354.816406 181.308594 360.53125 177.09375 367.230469 177.09375 C 375.863281 177.09375 382.863281 184.089844 382.863281 192.722656 C 382.863281 201.359375 375.863281 208.355469 367.230469 208.355469 C 360.53125 208.355469 354.816406 204.140625 352.589844 198.21875 L 321.222656 198.21875 Z M 235.4375 47.148438 C 244.070312 47.148438 251.066406 54.148438 251.066406 62.78125 C 251.066406 69.480469 246.851562 75.195312 240.929688 77.417969 L 240.929688 138.429688 L 229.941406 138.429688 L 229.941406 77.417969 C 224.019531 75.195312 219.804688 69.480469 219.804688 62.78125 C 219.804688 54.148438 226.804688 47.148438 235.4375 47.148438 Z M 423.785156 235.496094 C 423.785156 226.863281 416.785156 219.863281 408.152344 219.863281 C 401.453125 219.863281 395.738281 224.078125 393.515625 230.003906 L 321.222656 230.003906 L 321.222656 235.398438 C 321.222656 237.277344 321.152344 239.140625 321.011719 240.988281 L 393.515625 240.988281 C 395.738281 246.910156 401.453125 251.128906 408.152344 251.128906 C 416.785156 251.128906 423.785156 244.128906 423.785156 235.496094 Z M 235.4375 423.84375 C 244.070312 423.84375 251.066406 416.847656 251.066406 408.210938 C 251.066406 401.511719 246.851562 395.796875 240.929688 393.574219 L 240.929688 331.433594 C 239.109375 331.980469 237.269531 332.457031 235.4375 332.949219 C 233.601562 332.457031 231.761719 331.980469 229.941406 331.433594 L 229.941406 393.574219 C 224.019531 395.800781 219.804688 401.511719 219.804688 408.210938 C 219.804688 416.847656 226.804688 423.84375 235.4375 423.84375 Z M 206.539062 220 L 200.75 220 C 197.714844 220 195.253906 222.460938 195.253906 225.496094 L 195.253906 256.570312 C 195.253906 278.679688 213.324219 296.753906 235.4375 296.753906 C 257.546875 296.753906 275.617188 278.679688 275.617188 256.570312 L 275.617188 225.496094 C 275.617188 222.460938 273.160156 220 270.125 220 L 264.332031 220 L 264.332031 203.136719 C 264.332031 187.234375 251.339844 174.242188 235.4375 174.242188 C 219.53125 174.242188 206.539062 187.234375 206.539062 203.136719 Z M 253.347656 220 L 253.347656 203.136719 C 253.347656 193.296875 245.277344 185.226562 235.4375 185.226562 C 225.597656 185.226562 217.527344 193.296875 217.527344 203.136719 L 217.527344 220 Z M 253.347656 220 " fill-opacity="1" fill-rule="evenodd"/></g></svg>