<svg xmlns="http://www.w3.org/2000/svg" xmlns:xlink="http://www.w3.org/1999/xlink" width="628" zoomAndPan="magnify" viewBox="0 0 470.87997 470.999988" height="628" preserveAspectRatio="xMidYMid meet" version="1.0"><defs><clipPath id="9c6da71ee0"><path d="M 0 0.0585938 L 67 0.0585938 L 67 67 L 0 67 Z M 0 0.0585938 " clip-rule="nonzero"/></clipPath><clipPath id="a2591679e7"><path d="M 404 0.0585938 L 470.761719 0.0585938 L 470.761719 67 L 404 67 Z M 404 0.0585938 " clip-rule="nonzero"/></clipPath><clipPath id="d294fc0094"><path d="M 0 404 L 67 404 L 67 470.9375 L 0 470.9375 Z M 0 404 " clip-rule="nonzero"/></clipPath><clipPath id="ca58111d6a"><path d="M 404 404 L 470.761719 404 L 470.761719 470.9375 L 404 470.9375 Z M 404 404 " clip-rule="nonzero"/></clipPath></defs><path fill="#f8bf4f" d="M 25.75 186.203125 C 22.808594 195.402344 25.75 205.335938 33.84375 210.851562 L 42.304688 217.105469 L 67.320312 217.105469 L 42.671875 199.082031 C 38.625 196.136719 39.730469 192.089844 40.097656 190.988281 C 40.464844 189.882812 42.304688 185.835938 47.089844 185.835938 L 180.257812 185.835938 C 183.570312 185.835938 186.144531 183.628906 187.25 180.6875 L 228.449219 53.769531 C 229.921875 48.988281 234.335938 48.621094 235.441406 48.621094 C 236.542969 48.621094 240.957031 48.988281 242.429688 53.769531 L 283.632812 180.6875 C 284.734375 183.628906 287.308594 185.835938 290.621094 185.835938 L 423.792969 185.835938 C 428.574219 185.835938 430.414062 189.882812 430.78125 190.988281 C 431.148438 192.089844 432.253906 196.136719 428.207031 199.082031 L 320.417969 277.4375 C 317.84375 279.277344 316.742188 282.589844 317.84375 285.53125 L 359.046875 412.449219 C 360.515625 417.230469 357.207031 419.804688 356.472656 420.542969 C 355.367188 421.277344 351.6875 423.484375 347.640625 420.542969 L 239.855469 342.183594 C 238.382812 341.082031 236.910156 340.710938 235.441406 340.710938 C 233.96875 340.710938 232.496094 341.082031 231.027344 342.183594 L 123.238281 420.542969 C 119.191406 423.484375 115.511719 421.277344 114.410156 420.542969 C 113.304688 419.804688 110.363281 416.863281 111.832031 412.449219 L 142 320.109375 L 126.550781 320.109375 L 97.855469 408.035156 C 94.910156 417.230469 97.855469 427.164062 105.949219 432.679688 C 113.671875 438.566406 123.972656 438.566406 132.066406 432.679688 L 235.441406 357.265625 L 338.8125 432.3125 C 342.859375 435.257812 347.273438 436.726562 351.6875 436.726562 C 356.101562 436.726562 360.886719 435.257812 364.5625 432.3125 C 372.289062 426.425781 375.601562 416.863281 372.65625 407.664062 L 333.292969 286.265625 L 436.667969 211.21875 C 444.394531 205.335938 447.703125 195.769531 444.761719 186.574219 C 441.816406 177.375 433.355469 171.488281 423.792969 171.488281 L 296.140625 171.488281 L 256.410156 49.355469 C 253.464844 40.160156 245.003906 34.273438 235.441406 34.273438 C 225.875 34.273438 217.414062 40.160156 214.472656 49.355469 L 174.742188 171.121094 L 47.089844 171.121094 C 37.15625 171.121094 29.0625 177.007812 25.75 186.203125 Z M 25.75 186.203125 " fill-opacity="1" fill-rule="nonzero"/><path fill="#f8bf4f" d="M 7.359375 290.679688 C 3.3125 290.679688 0 293.992188 0 298.039062 C 0 302.085938 3.3125 305.394531 7.359375 305.394531 L 136.480469 305.394531 C 137.953125 311.648438 143.839844 316.433594 150.828125 316.433594 L 172.902344 316.433594 C 178.417969 316.433594 183.570312 313.121094 185.777344 308.339844 C 186.144531 308.339844 196.8125 308.339844 197.550781 308.339844 C 199.386719 309.441406 201.964844 310.914062 205.640625 312.019531 C 206.746094 312.386719 208.21875 312.386719 209.6875 312.386719 L 266.339844 312.386719 C 278.847656 312.386719 289.148438 302.085938 289.148438 289.578125 C 289.148438 288.84375 289.148438 288.472656 289.148438 287.738281 C 292.460938 283.691406 294.300781 278.910156 294.300781 273.390625 C 294.300781 272.289062 294.300781 271.183594 293.933594 270.082031 C 296.507812 266.402344 297.980469 261.988281 297.980469 257.203125 C 297.980469 255.734375 297.980469 254.628906 297.609375 253.527344 C 299.816406 249.847656 301.289062 245.800781 301.289062 241.386719 C 301.289062 229.246094 291.355469 219.679688 278.480469 219.679688 L 255.671875 219.679688 C 256.410156 215.265625 257.144531 210.851562 256.777344 208.277344 C 256.042969 200.917969 253.832031 181.789062 239.117188 175.167969 C 235.808594 173.695312 232.496094 172.960938 228.816406 172.960938 C 228.449219 172.960938 228.082031 172.960938 227.714844 172.960938 C 222.933594 173.328125 218.148438 175.167969 214.101562 178.480469 C 204.90625 186.203125 205.273438 196.875 205.640625 202.023438 C 205.640625 202.757812 205.640625 203.496094 205.640625 204.230469 L 205.640625 207.542969 C 203.804688 211.957031 197.550781 222.257812 194.605469 227.039062 L 184.671875 227.039062 C 182.097656 223.359375 177.683594 220.785156 172.902344 220.785156 L 150.828125 220.785156 C 143.839844 220.785156 138.320312 225.566406 136.480469 231.820312 L 7.359375 231.820312 C 3.3125 231.820312 0 235.132812 0 239.179688 C 0 243.226562 3.3125 246.535156 7.359375 246.535156 L 136.113281 246.535156 L 136.113281 290.679688 Z M 187.617188 241.753906 L 199.757812 241.753906 C 200.125 241.753906 202.699219 241.753906 204.171875 239.179688 C 208.21875 232.1875 220.355469 213.425781 220.355469 209.382812 C 220.355469 207.542969 220.355469 206.070312 220.355469 204.230469 C 220.355469 199.082031 218.886719 193.5625 223.300781 189.882812 C 224.773438 188.78125 226.609375 187.675781 228.449219 187.675781 C 228.449219 187.675781 228.816406 187.675781 228.816406 187.675781 C 230.289062 187.675781 231.761719 188.042969 232.863281 188.78125 C 239.855469 192.089844 241.324219 203.496094 242.0625 210.117188 C 242.429688 212.691406 239.488281 225.199219 237.648438 231.453125 C 236.542969 234.765625 241.324219 234.765625 241.324219 234.765625 L 278.480469 234.765625 C 282.894531 234.765625 286.574219 236.972656 286.574219 241.753906 C 286.574219 246.167969 283.265625 249.480469 278.847656 249.847656 C 278.480469 249.847656 278.113281 250.214844 278.847656 250.582031 C 281.425781 252.054688 283.632812 254.628906 283.632812 257.941406 C 283.632812 262.355469 279.953125 266.035156 275.539062 266.035156 C 275.539062 266.035156 274.433594 266.402344 275.171875 266.769531 C 277.746094 268.242188 279.953125 270.816406 279.953125 274.125 C 279.953125 278.542969 276.273438 282.21875 271.859375 282.21875 L 271.125 282.21875 C 270.757812 282.21875 270.386719 282.21875 270.386719 282.589844 C 270.386719 282.957031 270.386719 282.957031 270.757812 282.957031 C 273.332031 284.425781 275.171875 287.003906 275.171875 289.945312 C 275.171875 294.359375 271.492188 298.039062 267.078125 298.039062 L 209.6875 298.039062 C 206.746094 297.304688 204.539062 295.097656 201.964844 293.992188 C 201.226562 293.625 190.191406 293.625 187.617188 293.625 Z M 150.828125 235.5 L 172.902344 235.5 L 172.902344 301.71875 L 150.828125 301.71875 Z M 150.828125 235.5 " fill-opacity="1" fill-rule="nonzero"/><g clip-path="url(#9c6da71ee0)"><path fill="#f8bf4f" d="M 33.109375 66.277344 C 51.503906 66.277344 66.21875 51.5625 66.21875 33.167969 C 66.21875 14.773438 51.503906 0.0585938 33.109375 0.0585938 C 14.714844 0.0585938 0 14.773438 0 33.167969 C 0 51.5625 14.714844 66.277344 33.109375 66.277344 Z M 33.109375 14.773438 C 43.410156 14.773438 51.503906 22.867188 51.503906 33.167969 C 51.503906 43.46875 43.410156 51.5625 33.109375 51.5625 C 22.808594 51.5625 14.714844 43.46875 14.714844 33.167969 C 14.714844 22.867188 22.808594 14.773438 33.109375 14.773438 Z M 33.109375 14.773438 " fill-opacity="1" fill-rule="nonzero"/></g><path fill="#f8bf4f" d="M 47.824219 88.351562 C 47.824219 100.488281 57.757812 110.421875 69.894531 110.421875 C 82.035156 110.421875 91.96875 100.488281 91.96875 88.351562 C 91.96875 76.210938 82.035156 66.277344 69.894531 66.277344 C 57.757812 66.277344 47.824219 76.210938 47.824219 88.351562 Z M 69.894531 80.992188 C 73.941406 80.992188 77.253906 84.304688 77.253906 88.351562 C 77.253906 92.398438 73.941406 95.707031 69.894531 95.707031 C 65.851562 95.707031 62.539062 92.398438 62.539062 88.351562 C 62.539062 84.304688 65.851562 80.992188 69.894531 80.992188 Z M 69.894531 80.992188 " fill-opacity="1" fill-rule="nonzero"/><g clip-path="url(#a2591679e7)"><path fill="#f8bf4f" d="M 437.769531 0.0585938 C 419.378906 0.0585938 404.664062 14.773438 404.664062 33.167969 C 404.664062 51.5625 419.378906 66.277344 437.769531 66.277344 C 456.164062 66.277344 470.878906 51.5625 470.878906 33.167969 C 470.878906 14.773438 456.164062 0.0585938 437.769531 0.0585938 Z M 437.769531 51.5625 C 427.46875 51.5625 419.378906 43.46875 419.378906 33.167969 C 419.378906 22.867188 427.46875 14.773438 437.769531 14.773438 C 448.070312 14.773438 456.164062 22.867188 456.164062 33.167969 C 456.164062 43.46875 448.070312 51.5625 437.769531 51.5625 Z M 437.769531 51.5625 " fill-opacity="1" fill-rule="nonzero"/></g><path fill="#f8bf4f" d="M 400.984375 110.421875 C 413.125 110.421875 423.054688 100.488281 423.054688 88.351562 C 423.054688 76.210938 413.125 66.277344 400.984375 66.277344 C 388.84375 66.277344 378.910156 76.210938 378.910156 88.351562 C 378.910156 100.488281 388.84375 110.421875 400.984375 110.421875 Z M 400.984375 80.992188 C 405.03125 80.992188 408.339844 84.304688 408.339844 88.351562 C 408.339844 92.398438 405.03125 95.707031 400.984375 95.707031 C 396.9375 95.707031 393.625 92.398438 393.625 88.351562 C 393.625 84.304688 396.9375 80.992188 400.984375 80.992188 Z M 400.984375 80.992188 " fill-opacity="1" fill-rule="nonzero"/><g clip-path="url(#d294fc0094)"><path fill="#f8bf4f" d="M 33.109375 470.941406 C 51.503906 470.941406 66.21875 456.226562 66.21875 437.832031 C 66.21875 419.4375 51.503906 404.722656 33.109375 404.722656 C 14.714844 404.722656 0 419.4375 0 437.832031 C 0 456.226562 14.714844 470.941406 33.109375 470.941406 Z M 33.109375 419.4375 C 43.410156 419.4375 51.503906 427.53125 51.503906 437.832031 C 51.503906 448.132812 43.410156 456.226562 33.109375 456.226562 C 22.808594 456.226562 14.714844 448.132812 14.714844 437.832031 C 14.714844 427.53125 22.808594 419.4375 33.109375 419.4375 Z M 33.109375 419.4375 " fill-opacity="1" fill-rule="nonzero"/></g><path fill="#f8bf4f" d="M 40.464844 375.292969 C 40.464844 387.433594 50.398438 397.363281 62.539062 397.363281 C 74.679688 397.363281 84.609375 387.433594 84.609375 375.292969 C 84.609375 363.152344 74.679688 353.21875 62.539062 353.21875 C 50.398438 353.21875 40.464844 363.152344 40.464844 375.292969 Z M 69.894531 375.292969 C 69.894531 379.339844 66.585938 382.648438 62.539062 382.648438 C 58.492188 382.648438 55.179688 379.339844 55.179688 375.292969 C 55.179688 371.246094 58.492188 367.933594 62.539062 367.933594 C 66.585938 367.933594 69.894531 371.246094 69.894531 375.292969 Z M 69.894531 375.292969 " fill-opacity="1" fill-rule="nonzero"/><g clip-path="url(#ca58111d6a)"><path fill="#f8bf4f" d="M 437.769531 404.722656 C 419.378906 404.722656 404.664062 419.4375 404.664062 437.832031 C 404.664062 456.226562 419.378906 470.941406 437.769531 470.941406 C 456.164062 470.941406 470.878906 456.226562 470.878906 437.832031 C 470.878906 419.4375 456.164062 404.722656 437.769531 404.722656 Z M 437.769531 456.226562 C 427.46875 456.226562 419.378906 448.132812 419.378906 437.832031 C 419.378906 427.53125 427.46875 419.4375 437.769531 419.4375 C 448.070312 419.4375 456.164062 427.53125 456.164062 437.832031 C 456.164062 448.132812 448.070312 456.226562 437.769531 456.226562 Z M 437.769531 456.226562 " fill-opacity="1" fill-rule="nonzero"/></g><path fill="#f8bf4f" d="M 386.269531 375.292969 C 386.269531 387.433594 396.203125 397.363281 408.339844 397.363281 C 420.480469 397.363281 430.414062 387.433594 430.414062 375.292969 C 430.414062 363.152344 420.480469 353.21875 408.339844 353.21875 C 396.203125 353.21875 386.269531 363.152344 386.269531 375.292969 Z M 415.699219 375.292969 C 415.699219 379.339844 412.386719 382.648438 408.339844 382.648438 C 404.292969 382.648438 400.984375 379.339844 400.984375 375.292969 C 400.984375 371.246094 404.292969 367.933594 408.339844 367.933594 C 412.386719 367.933594 415.699219 371.246094 415.699219 375.292969 Z M 415.699219 375.292969 " fill-opacity="1" fill-rule="nonzero"/></svg>