<svg xmlns="http://www.w3.org/2000/svg" xmlns:xlink="http://www.w3.org/1999/xlink" width="628" zoomAndPan="magnify" viewBox="0 0 470.87997 470.999988" height="628" preserveAspectRatio="xMidYMid meet" version="1.0"><defs><clipPath id="8aa3ca41ab"><path d="M 183 456 L 273 456 L 273 470.9375 L 183 470.9375 Z M 183 456 " clip-rule="nonzero"/></clipPath><clipPath id="7ac618449d"><path d="M 228 0.0585938 L 243 0.0585938 L 243 37 L 228 37 Z M 228 0.0585938 " clip-rule="nonzero"/></clipPath><clipPath id="d6a9a4ca35"><path d="M 434 228 L 470.761719 228 L 470.761719 243 L 434 243 Z M 434 228 " clip-rule="nonzero"/></clipPath></defs><path fill="#f8bf4f" d="M 279.585938 426.796875 L 176.578125 426.796875 C 172.535156 426.796875 169.222656 430.105469 169.222656 434.152344 C 169.222656 438.199219 172.535156 441.511719 176.578125 441.511719 L 279.585938 441.511719 C 283.632812 441.511719 286.941406 438.199219 286.941406 434.152344 C 286.941406 430.105469 283.632812 426.796875 279.585938 426.796875 Z M 279.585938 426.796875 " fill-opacity="1" fill-rule="nonzero"/><g clip-path="url(#8aa3ca41ab)"><path fill="#f8bf4f" d="M 264.871094 456.226562 L 191.296875 456.226562 C 187.25 456.226562 183.9375 459.535156 183.9375 463.582031 C 183.9375 467.628906 187.25 470.941406 191.296875 470.941406 L 264.871094 470.941406 C 268.917969 470.941406 272.226562 467.628906 272.226562 463.582031 C 272.226562 459.535156 268.917969 456.226562 264.871094 456.226562 Z M 264.871094 456.226562 " fill-opacity="1" fill-rule="nonzero"/></g><path fill="#f8bf4f" d="M 222.933594 301.71875 L 233.234375 301.71875 C 242.796875 301.71875 250.890625 294.359375 250.890625 285.164062 L 250.890625 277.804688 C 256.039062 276.335938 260.824219 274.125 265.605469 271.550781 L 270.757812 276.703125 C 277.011719 282.957031 288.046875 282.589844 294.667969 275.964844 L 302.023438 268.609375 C 309.015625 261.617188 309.382812 250.949219 302.761719 244.695312 L 297.609375 239.546875 C 300.1875 234.765625 302.023438 229.980469 303.863281 224.832031 L 311.222656 224.832031 C 320.417969 224.832031 327.777344 217.105469 327.777344 207.171875 L 327.777344 196.875 C 327.777344 187.308594 320.417969 179.214844 311.222656 179.214844 L 303.863281 179.214844 C 302.394531 174.066406 300.1875 169.28125 297.609375 164.5 L 302.761719 159.351562 C 309.015625 153.097656 308.648438 142.058594 302.023438 135.4375 L 294.667969 128.082031 C 287.679688 121.089844 277.011719 120.722656 270.757812 127.34375 L 265.605469 132.496094 C 260.824219 129.917969 256.039062 128.082031 250.890625 126.242188 L 250.890625 118.882812 C 250.890625 109.6875 243.164062 102.328125 233.234375 102.328125 L 222.933594 102.328125 C 213.367188 102.328125 205.273438 109.6875 205.273438 118.882812 L 205.273438 126.242188 C 200.125 127.710938 195.339844 129.917969 190.558594 132.496094 L 185.410156 127.34375 C 179.15625 121.089844 168.117188 121.457031 161.496094 128.082031 L 154.140625 135.4375 C 150.828125 138.75 148.621094 143.53125 148.621094 148.3125 C 148.621094 152.726562 150.09375 156.773438 153.035156 159.71875 L 158.1875 164.867188 C 155.609375 169.648438 153.773438 174.433594 151.933594 179.582031 L 144.574219 179.582031 C 136.113281 179.582031 128.757812 187.675781 128.757812 197.242188 L 128.757812 207.542969 C 128.757812 217.105469 136.113281 225.199219 145.3125 225.199219 L 152.667969 225.199219 C 154.140625 230.351562 156.347656 235.132812 158.921875 239.914062 L 153.773438 245.066406 C 147.519531 251.320312 147.886719 262.355469 154.507812 268.976562 L 161.863281 276.335938 C 168.855469 283.324219 179.523438 283.691406 185.777344 277.070312 L 190.925781 271.917969 C 195.710938 274.496094 200.492188 276.335938 205.640625 278.171875 L 205.640625 285.53125 C 205.273438 294.359375 213.367188 301.71875 222.933594 301.71875 Z M 193.503906 256.46875 L 188.351562 253.15625 L 175.109375 266.402344 C 174.742188 266.769531 172.902344 266.769531 171.796875 265.664062 L 164.441406 258.308594 C 163.335938 257.203125 162.96875 255.734375 163.703125 254.996094 L 176.949219 241.753906 L 173.636719 236.605469 C 169.589844 229.980469 166.648438 222.992188 165.175781 215.632812 L 164.070312 209.75 L 144.941406 209.75 C 144.207031 209.75 143.101562 208.644531 143.101562 206.804688 L 143.101562 196.503906 C 143.101562 194.664062 144.207031 193.5625 144.941406 193.5625 L 164.070312 193.5625 L 165.175781 187.675781 C 166.648438 180.320312 169.589844 173.328125 173.636719 166.707031 L 176.949219 161.558594 L 163.703125 148.3125 C 163.335938 147.945312 163.335938 147.578125 163.335938 147.578125 C 163.335938 146.84375 163.703125 145.738281 164.441406 145.371094 L 171.796875 138.011719 C 172.902344 136.910156 174.742188 136.542969 175.109375 137.277344 L 188.351562 150.519531 L 193.503906 147.210938 C 199.757812 143.164062 206.746094 140.21875 214.472656 138.75 L 220.355469 137.644531 L 220.355469 118.515625 C 220.355469 117.78125 221.460938 116.675781 223.300781 116.675781 L 233.601562 116.675781 C 235.441406 116.675781 236.542969 117.78125 236.542969 118.515625 L 236.542969 137.644531 L 242.429688 138.75 C 249.785156 140.21875 256.777344 143.164062 263.398438 147.210938 L 268.546875 150.519531 L 281.792969 137.277344 C 282.160156 136.910156 283.632812 136.910156 285.101562 138.011719 L 292.460938 145.371094 C 293.5625 146.472656 293.933594 147.945312 293.195312 148.679688 L 279.953125 161.925781 L 283.265625 167.074219 C 287.308594 173.328125 290.253906 180.6875 291.726562 188.042969 L 292.828125 193.929688 L 311.589844 193.929688 C 312.324219 193.929688 313.429688 195.035156 313.429688 196.875 L 313.429688 207.171875 C 313.429688 209.011719 312.324219 210.117188 311.589844 210.117188 L 292.828125 210.117188 L 290.621094 216.003906 C 289.148438 223.359375 286.207031 230.351562 282.160156 236.972656 L 278.847656 242.121094 L 292.09375 255.367188 C 292.460938 255.734375 292.460938 257.203125 291.355469 258.675781 L 284 266.035156 C 282.894531 267.136719 281.425781 267.503906 280.6875 266.769531 L 267.445312 253.527344 L 262.292969 256.835938 C 256.039062 260.882812 249.050781 263.828125 241.324219 265.296875 L 235.441406 266.402344 L 235.441406 285.53125 C 235.441406 286.265625 234.335938 287.371094 232.496094 287.371094 L 222.195312 287.371094 C 220.355469 287.371094 219.253906 286.265625 219.253906 285.53125 L 219.253906 266.402344 L 214.472656 264.929688 C 206.746094 263.457031 199.757812 260.515625 193.503906 256.46875 Z M 193.503906 256.46875 " fill-opacity="1" fill-rule="nonzero"/><path fill="#f8bf4f" d="M 266.710938 202.390625 C 266.710938 181.054688 249.417969 163.765625 228.082031 163.765625 C 206.746094 163.765625 189.457031 181.054688 189.457031 202.390625 C 189.457031 223.726562 206.746094 241.019531 228.082031 241.019531 C 249.417969 241.019531 266.710938 223.726562 266.710938 202.390625 Z M 204.171875 202.390625 C 204.171875 189.148438 214.839844 178.480469 228.082031 178.480469 C 241.324219 178.480469 251.996094 189.148438 251.996094 202.390625 C 251.996094 215.632812 241.324219 226.304688 228.082031 226.304688 C 214.839844 226.304688 204.171875 215.632812 204.171875 202.390625 Z M 204.171875 202.390625 " fill-opacity="1" fill-rule="nonzero"/><g clip-path="url(#7ac618449d)"><path fill="#f8bf4f" d="M 235.441406 36.847656 C 239.488281 36.847656 242.796875 33.535156 242.796875 29.488281 L 242.796875 7.417969 C 242.796875 3.371094 239.488281 0.0585938 235.441406 0.0585938 C 231.394531 0.0585938 228.082031 3.371094 228.082031 7.417969 L 228.082031 29.488281 C 228.082031 33.535156 231.394531 36.847656 235.441406 36.847656 Z M 235.441406 36.847656 " fill-opacity="1" fill-rule="nonzero"/></g><path fill="#f8bf4f" d="M 149.726562 47.882812 C 150.828125 50.828125 153.773438 52.296875 156.347656 52.296875 C 157.449219 52.296875 158.1875 52.296875 159.289062 51.5625 C 162.96875 50.089844 164.808594 45.675781 163.335938 41.996094 L 154.875 22.132812 C 153.402344 18.453125 148.988281 16.613281 145.3125 18.085938 C 141.632812 19.558594 139.792969 23.972656 141.265625 27.652344 Z M 149.726562 47.882812 " fill-opacity="1" fill-rule="nonzero"/><path fill="#f8bf4f" d="M 84.609375 94.972656 C 86.082031 96.441406 87.921875 97.179688 89.761719 97.179688 C 91.601562 97.179688 93.441406 96.441406 94.910156 94.972656 C 97.855469 92.027344 97.855469 87.613281 94.910156 84.671875 L 79.460938 69.21875 C 76.519531 66.277344 72.101562 66.277344 69.160156 69.21875 C 66.21875 72.164062 66.21875 76.578125 69.160156 79.519531 Z M 84.609375 94.972656 " fill-opacity="1" fill-rule="nonzero"/><path fill="#f8bf4f" d="M 47.824219 149.785156 L 27.589844 141.324219 C 23.910156 139.851562 19.496094 141.691406 18.027344 145.371094 C 16.554688 149.050781 18.394531 153.464844 22.074219 154.933594 L 42.304688 163.398438 C 43.410156 163.765625 44.144531 164.132812 45.25 164.132812 C 48.191406 164.132812 50.765625 162.292969 51.871094 159.71875 C 53.34375 155.671875 51.503906 151.257812 47.824219 149.785156 Z M 47.824219 149.785156 " fill-opacity="1" fill-rule="nonzero"/><path fill="#f8bf4f" d="M 36.789062 235.5 C 36.789062 231.453125 33.476562 228.140625 29.429688 228.140625 L 7.359375 228.140625 C 3.3125 228.140625 0 231.453125 0 235.5 C 0 239.546875 3.3125 242.859375 7.359375 242.859375 L 29.429688 242.859375 C 33.476562 242.859375 36.789062 239.546875 36.789062 235.5 Z M 36.789062 235.5 " fill-opacity="1" fill-rule="nonzero"/><path fill="#f8bf4f" d="M 42.304688 307.601562 L 22.074219 316.066406 C 18.394531 317.535156 16.554688 321.949219 18.027344 325.628906 C 19.128906 328.574219 22.074219 330.042969 24.648438 330.042969 C 25.75 330.042969 26.488281 330.042969 27.589844 329.308594 L 47.824219 320.847656 C 51.503906 319.375 53.34375 314.960938 51.871094 311.28125 C 50.398438 307.601562 45.984375 306.132812 42.304688 307.601562 Z M 42.304688 307.601562 " fill-opacity="1" fill-rule="nonzero"/><path fill="#f8bf4f" d="M 84.609375 376.027344 L 69.160156 391.480469 C 66.21875 394.421875 66.21875 398.835938 69.160156 401.78125 C 70.632812 403.25 72.472656 403.988281 74.3125 403.988281 C 76.148438 403.988281 77.988281 403.25 79.460938 401.78125 L 94.910156 386.328125 C 97.855469 383.386719 97.855469 378.972656 94.910156 376.027344 C 91.96875 373.085938 87.554688 373.085938 84.609375 376.027344 Z M 84.609375 376.027344 " fill-opacity="1" fill-rule="nonzero"/><path fill="#f8bf4f" d="M 386.269531 376.027344 C 383.324219 373.085938 378.910156 373.085938 375.96875 376.027344 C 373.023438 378.972656 373.023438 383.386719 375.96875 386.328125 L 391.417969 401.78125 C 392.890625 403.25 394.730469 403.988281 396.570312 403.988281 C 398.410156 403.988281 400.246094 403.25 401.71875 401.78125 C 404.664062 398.835938 404.664062 394.421875 401.71875 391.480469 Z M 386.269531 376.027344 " fill-opacity="1" fill-rule="nonzero"/><path fill="#f8bf4f" d="M 448.808594 316.066406 L 428.574219 307.601562 C 424.894531 306.132812 420.480469 307.972656 419.007812 311.648438 C 417.539062 315.328125 419.378906 319.742188 423.054688 321.214844 L 443.289062 329.675781 C 444.394531 330.042969 445.128906 330.410156 446.230469 330.410156 C 449.175781 330.410156 451.75 328.574219 452.855469 325.996094 C 454.695312 321.949219 452.855469 317.535156 448.808594 316.066406 Z M 448.808594 316.066406 " fill-opacity="1" fill-rule="nonzero"/><g clip-path="url(#d6a9a4ca35)"><path fill="#f8bf4f" d="M 463.523438 228.140625 L 441.449219 228.140625 C 437.402344 228.140625 434.09375 231.453125 434.09375 235.5 C 434.09375 239.546875 437.402344 242.859375 441.449219 242.859375 L 463.523438 242.859375 C 467.570312 242.859375 470.878906 239.546875 470.878906 235.5 C 470.878906 231.453125 467.570312 228.140625 463.523438 228.140625 Z M 463.523438 228.140625 " fill-opacity="1" fill-rule="nonzero"/></g><path fill="#f8bf4f" d="M 425.632812 164.132812 C 426.734375 164.132812 427.46875 164.132812 428.574219 163.398438 L 448.808594 154.933594 C 452.484375 153.464844 454.324219 149.050781 452.855469 145.371094 C 451.382812 141.691406 446.96875 139.851562 443.289062 141.324219 L 423.054688 149.785156 C 419.378906 151.257812 417.539062 155.671875 419.007812 159.351562 C 420.113281 162.292969 423.054688 164.132812 425.632812 164.132812 Z M 425.632812 164.132812 " fill-opacity="1" fill-rule="nonzero"/><path fill="#f8bf4f" d="M 391.417969 68.851562 L 375.96875 84.304688 C 373.023438 87.246094 373.023438 91.660156 375.96875 94.605469 C 377.441406 96.074219 379.277344 96.8125 381.117188 96.8125 C 382.957031 96.8125 384.796875 96.074219 386.269531 94.605469 L 401.71875 79.152344 C 404.664062 76.210938 404.664062 71.796875 401.71875 68.851562 C 398.777344 65.910156 394.363281 66.277344 391.417969 68.851562 Z M 391.417969 68.851562 " fill-opacity="1" fill-rule="nonzero"/><path fill="#f8bf4f" d="M 311.589844 51.929688 C 312.695312 52.296875 313.429688 52.667969 314.53125 52.667969 C 317.476562 52.667969 320.050781 50.828125 321.15625 48.25 L 329.617188 28.019531 C 331.085938 24.339844 329.25 19.925781 325.570312 18.453125 C 321.890625 16.980469 317.476562 18.820312 316.003906 22.5 L 307.542969 42.734375 C 306.070312 46.042969 307.542969 50.457031 311.589844 51.929688 Z M 311.589844 51.929688 " fill-opacity="1" fill-rule="nonzero"/><path fill="#f8bf4f" d="M 372.65625 288.472656 C 369.347656 283.324219 370.082031 280.011719 370.449219 278.910156 L 377.441406 270.449219 C 380.015625 267.503906 379.648438 263.089844 376.703125 260.148438 C 375.601562 259.410156 374.863281 258.308594 374.496094 257.941406 C 377.441406 254.996094 379.277344 252.054688 379.648438 248.742188 C 380.015625 245.433594 378.910156 242.859375 377.808594 241.386719 L 373.394531 232.925781 C 373.023438 231.820312 373.394531 231.085938 373.394531 230.71875 C 373.761719 230.351562 374.863281 229.980469 375.601562 229.980469 C 376.335938 229.980469 376.703125 229.980469 377.441406 229.613281 C 388.84375 226.671875 395.097656 221.886719 397.304688 215.265625 C 398.777344 209.75 396.570312 204.964844 394.363281 202.023438 L 361.253906 154.566406 C 358.679688 150.890625 357.574219 146.105469 356.472656 141.324219 L 356.472656 140.589844 C 356.101562 138.75 355.367188 136.542969 355 134.703125 C 336.238281 69.21875 265.972656 44.203125 206.378906 53.035156 C 130.226562 64.804688 73.574219 130.289062 73.574219 206.070312 C 73.574219 243.59375 87.921875 282.21875 113.304688 311.648438 C 147.148438 351.011719 149.355469 362.417969 154.875 392.949219 L 155.980469 398.46875 C 157.449219 406.929688 163.335938 412.449219 170.324219 412.449219 L 235.441406 412.449219 C 239.488281 412.449219 242.796875 409.136719 242.796875 405.089844 L 242.796875 323.789062 C 242.796875 319.742188 239.488281 316.433594 235.441406 316.433594 C 231.394531 316.433594 228.082031 319.742188 228.082031 323.789062 L 228.082031 397.363281 L 171.0625 397.363281 C 170.695312 396.996094 170.695312 396.261719 170.324219 395.527344 L 169.222656 390.007812 C 163.703125 358.738281 161.128906 344.390625 124.339844 301.71875 C 101.535156 275.230469 88.289062 240.28125 88.289062 206.070312 C 88.289062 137.644531 139.792969 78.417969 207.847656 68.117188 C 260.824219 60.023438 323.363281 82.097656 339.917969 139.117188 C 340.285156 140.957031 341.019531 142.796875 341.386719 144.265625 L 341.386719 145.003906 C 342.859375 150.890625 344.332031 157.511719 348.378906 163.398438 L 381.855469 210.851562 C 381.855469 211.21875 382.222656 211.21875 382.222656 211.589844 C 381.488281 212.324219 379.277344 213.796875 373.761719 215.265625 C 371.1875 215.632812 364.933594 216.371094 361.253906 221.519531 C 359.046875 224.464844 356.839844 229.246094 359.046875 236.972656 C 359.046875 237.707031 359.414062 238.074219 359.78125 238.8125 L 364.195312 247.273438 C 363.828125 247.640625 362.726562 248.742188 361.253906 249.480469 C 360.515625 249.847656 359.78125 250.582031 359.046875 251.6875 C 356.472656 255.734375 357.207031 260.515625 361.621094 266.035156 L 357.941406 270.449219 C 357.574219 270.816406 357.207031 271.183594 357.207031 271.550781 C 356.839844 272.289062 352.054688 281.851562 359.046875 294.359375 C 358.679688 299.140625 357.574219 308.339844 352.425781 313.488281 C 349.847656 316.066406 346.171875 317.167969 341.753906 316.800781 C 341.753906 316.800781 341.386719 316.800781 341.386719 316.800781 L 311.222656 316.800781 C 297.242188 316.800781 291.726562 334.089844 289.148438 342.550781 L 288.78125 343.65625 C 283.632812 359.839844 281.792969 377.867188 283.265625 397.734375 L 268.546875 397.734375 C 264.503906 397.734375 261.191406 401.042969 261.191406 405.089844 C 261.191406 409.136719 264.503906 412.449219 268.546875 412.449219 L 286.941406 412.449219 C 289.886719 412.449219 292.828125 411.34375 294.667969 408.769531 C 296.875 406.195312 297.980469 402.882812 297.980469 399.570312 C 296.140625 380.441406 297.609375 363.152344 302.394531 348.070312 L 302.761719 346.964844 C 307.542969 332.25 310.488281 331.515625 310.855469 331.515625 L 340.652344 331.515625 C 349.113281 331.882812 356.839844 329.308594 362.355469 323.789062 C 373.761719 312.753906 373.394531 294.359375 373.394531 292.152344 C 373.761719 290.679688 373.394531 289.578125 372.65625 288.472656 Z M 372.65625 288.472656 " fill-opacity="1" fill-rule="nonzero"/></svg>