<svg xmlns="http://www.w3.org/2000/svg" xmlns:xlink="http://www.w3.org/1999/xlink" width="628" zoomAndPan="magnify" viewBox="0 0 470.87997 470.999988" height="628" preserveAspectRatio="xMidYMid meet" version="1.0"><defs><clipPath id="99f202070f"><path d="M 110 0.0585938 L 310 0.0585938 L 310 199 L 110 199 Z M 110 0.0585938 " clip-rule="nonzero"/></clipPath><clipPath id="33ab1675b2"><path d="M 0 184 L 470.761719 184 L 470.761719 470.9375 L 0 470.9375 Z M 0 184 " clip-rule="nonzero"/></clipPath></defs><g clip-path="url(#99f202070f)"><path fill="#f8bf4f" d="M 209.6875 198.710938 C 264.539062 198.710938 309.015625 154.238281 309.015625 99.390625 C 309.015625 44.535156 264.539062 0.0585938 209.6875 0.0585938 C 154.828125 0.0585938 110.363281 44.535156 110.363281 99.390625 C 110.363281 154.238281 154.828125 198.710938 209.6875 198.710938 Z M 209.6875 14.773438 C 256.34375 14.773438 294.300781 52.734375 294.300781 99.390625 C 294.300781 146.042969 256.34375 183.996094 209.6875 183.996094 C 163.035156 183.996094 125.078125 146.042969 125.078125 99.390625 C 125.078125 52.734375 163.035156 14.773438 209.6875 14.773438 Z M 209.6875 14.773438 " fill-opacity="1" fill-rule="nonzero"/></g><g clip-path="url(#33ab1675b2)"><path fill="#f8bf4f" d="M 464.90625 244.148438 C 464.292969 244.0625 403.136719 234.9375 373.1875 201.070312 C 371.898438 199.613281 370.042969 198.757812 368.078125 198.71875 C 368 198.714844 367.921875 198.714844 367.84375 198.714844 C 366 198.714844 364.167969 199.511719 362.871094 200.855469 C 362.722656 201.011719 356.765625 207.097656 346.738281 214.464844 C 328.445312 201.179688 307.671875 190.945312 285.457031 184.519531 C 280.757812 188.710938 275.703125 192.507812 270.355469 195.882812 C 292.972656 200.976562 314.523438 210.335938 333.519531 223.226562 C 318.222656 232.316406 298.113281 240.71875 275.992188 240.71875 C 274.753906 240.71875 273.515625 240.691406 272.261719 240.640625 C 272.148438 240.632812 272.03125 240.628906 271.917969 240.628906 C 268.246094 240.628906 265.171875 243.519531 264.992188 247.1875 C 264.917969 248.675781 263.316406 284.050781 274.382812 324.75 C 289.25 379.464844 320.128906 417.136719 363.679688 433.691406 C 364.480469 433.996094 365.335938 434.152344 366.1875 434.152344 C 366.785156 434.152344 367.382812 434.078125 367.96875 433.921875 C 368.8125 433.703125 385.167969 429.277344 404.664062 413.800781 L 404.664062 436.3125 C 404.664062 447.292969 395.683594 456.226562 384.644531 456.226562 L 34.726562 456.226562 C 23.691406 456.226562 14.714844 447.292969 14.714844 436.3125 L 14.714844 352.386719 C 14.714844 308.726562 33.390625 267.941406 67.308594 237.554688 C 90.164062 217.078125 118.695312 202.714844 149.027344 195.886719 C 143.679688 192.511719 138.625 188.710938 133.925781 184.523438 C 59.011719 206.199219 0 270.621094 0 352.386719 L 0 436.3125 C 0 455.421875 15.542969 470.941406 34.726562 470.941406 L 384.644531 470.941406 C 403.824219 470.941406 419.378906 455.421875 419.378906 436.3125 L 419.378906 400.316406 C 442.109375 376.414062 469.34375 331.203125 470.878906 251.097656 C 470.949219 247.628906 468.386719 244.648438 464.90625 244.148438 Z M 408.402344 390.519531 C 390.398438 409.308594 372.566406 416.804688 366.445312 418.96875 C 328.769531 403.667969 301.875 369.816406 288.582031 320.890625 C 280.925781 292.734375 279.675781 267.453125 279.582031 255.371094 C 320.796875 253.925781 354.59375 228.039062 367.65625 216.519531 C 395.535156 243.179688 439.234375 254.121094 455.972656 257.484375 C 453.210938 329.066406 428.765625 369.261719 408.402344 390.519531 Z M 408.402344 390.519531 " fill-opacity="1" fill-rule="nonzero"/></g><path fill="#f8bf4f" d="M 328.753906 307.800781 C 325.777344 305.027344 321.125 305.191406 318.351562 308.15625 C 315.578125 311.128906 315.738281 315.785156 318.707031 318.558594 L 349.765625 347.5625 C 351.179688 348.878906 352.980469 349.542969 354.789062 349.542969 C 356.546875 349.542969 358.308594 348.914062 359.710938 347.652344 L 416.941406 296.152344 C 419.960938 293.433594 420.207031 288.78125 417.488281 285.757812 C 414.769531 282.738281 410.117188 282.492188 407.097656 285.210938 L 354.878906 332.203125 Z M 328.753906 307.800781 " fill-opacity="1" fill-rule="nonzero"/><path fill="#f8bf4f" d="M 97.433594 270.195312 C 100.339844 267.355469 100.398438 262.699219 97.558594 259.789062 C 94.71875 256.882812 90.0625 256.824219 87.15625 259.664062 C 64.164062 282.105469 51.503906 311.683594 51.503906 342.945312 L 51.503906 404.410156 C 51.503906 420.726562 57.550781 426.796875 73.824219 426.796875 L 183.9375 426.796875 C 188 426.796875 191.296875 423.5 191.296875 419.4375 C 191.296875 415.375 188 412.078125 183.9375 412.078125 L 73.824219 412.078125 C 68.324219 412.078125 67.085938 411.429688 67.003906 411.410156 C 66.871094 411.21875 66.21875 409.96875 66.21875 404.410156 L 66.21875 342.945312 C 66.21875 315.679688 77.304688 289.84375 97.433594 270.195312 Z M 97.433594 270.195312 " fill-opacity="1" fill-rule="nonzero"/><path fill="#f8bf4f" d="M 121.398438 246.535156 C 121.398438 247.019531 121.351562 247.496094 121.257812 247.972656 C 121.164062 248.445312 121.023438 248.90625 120.839844 249.351562 C 120.652344 249.796875 120.425781 250.222656 120.160156 250.625 C 119.890625 251.027344 119.585938 251.398438 119.242188 251.738281 C 118.902344 252.082031 118.53125 252.386719 118.128906 252.652344 C 117.726562 252.921875 117.304688 253.148438 116.855469 253.332031 C 116.410156 253.519531 115.949219 253.65625 115.476562 253.753906 C 115.003906 253.847656 114.523438 253.894531 114.042969 253.894531 C 113.558594 253.894531 113.078125 253.847656 112.605469 253.753906 C 112.132812 253.65625 111.671875 253.519531 111.226562 253.332031 C 110.78125 253.148438 110.355469 252.921875 109.953125 252.652344 C 109.550781 252.386719 109.179688 252.082031 108.839844 251.738281 C 108.496094 251.398438 108.191406 251.027344 107.921875 250.625 C 107.65625 250.222656 107.429688 249.796875 107.242188 249.351562 C 107.058594 248.90625 106.917969 248.445312 106.824219 247.972656 C 106.730469 247.496094 106.683594 247.019531 106.683594 246.535156 C 106.683594 246.054688 106.730469 245.574219 106.824219 245.101562 C 106.917969 244.628906 107.058594 244.167969 107.242188 243.71875 C 107.429688 243.273438 107.65625 242.851562 107.921875 242.449219 C 108.191406 242.046875 108.496094 241.675781 108.839844 241.332031 C 109.179688 240.992188 109.550781 240.6875 109.953125 240.417969 C 110.355469 240.148438 110.78125 239.921875 111.226562 239.738281 C 111.671875 239.554688 112.132812 239.414062 112.605469 239.320312 C 113.078125 239.226562 113.558594 239.179688 114.042969 239.179688 C 114.523438 239.179688 115.003906 239.226562 115.476562 239.320312 C 115.949219 239.414062 116.410156 239.554688 116.855469 239.738281 C 117.304688 239.921875 117.726562 240.148438 118.128906 240.417969 C 118.53125 240.6875 118.902344 240.992188 119.242188 241.332031 C 119.585938 241.675781 119.890625 242.046875 120.160156 242.449219 C 120.425781 242.851562 120.652344 243.273438 120.839844 243.71875 C 121.023438 244.167969 121.164062 244.628906 121.257812 245.101562 C 121.351562 245.574219 121.398438 246.054688 121.398438 246.535156 Z M 121.398438 246.535156 " fill-opacity="1" fill-rule="nonzero"/></svg>