<svg width="177" height="188" viewBox="0 0 177 188" fill="none" xmlns="http://www.w3.org/2000/svg">
<path d="M175.68 136.92C173.98 129.58 170 124.23 163.84 121.04C148.64 113.16 125 120.99 106.11 128.69L105.75 128.84C103.83 129.62 101.38 130.7 98.53 131.95C91.37 135.1 81.68 139.36 71.51 142.88C79.29 133.89 90.88 125.26 98.75 119.4C100.6 118.02 102.31 116.75 103.79 115.62C109.58 111.17 115.87 106.78 121.94 102.53C129.45 97.28 137.22 91.84 144.5 86.03C163.77 70.63 169.06 55.1 160.21 39.88C154.26 29.64 142.23 25.89 124.4 28.69C124.38 25.89 123.84 23.18 122.78 20.58C112.19 -5.41998 78.23 0.480019 67.07 2.42002C58.96 3.83002 17.82 11.88 4.38998 32.12C0.399984 38.13 -0.830018 44.61 0.739982 51.38C2.43998 58.72 6.41999 64.07 12.58 67.26C17.06 69.58 22.27 70.54 27.87 70.54C41.29 70.54 56.98 65.04 70.31 59.61L70.67 59.46C72.59 58.68 75.04 57.6 77.89 56.35C85.05 53.2 94.74 48.94 104.91 45.42C97.13 54.41 85.54 63.04 77.67 68.9C75.82 70.28 74.12 71.55 72.64 72.68C69.59 75.02 65.17 77.86 60.05 81.15C48.59 88.51 34.33 97.68 24.4 108.35C11.55 122.17 8.79999 135.65 16.22 148.41C20.9 156.46 29.33 160.5 41.39 160.5C44.67 160.5 48.22 160.19 52.03 159.6C52.05 162.4 52.59 165.11 53.65 167.72C60.34 184.16 76.38 187.85 90.09 187.85C98.07 187.85 105.25 186.6 109.36 185.89C117.47 184.48 158.61 176.43 172.04 156.19C176.03 150.18 177.26 143.7 175.69 136.93L175.68 136.92ZM73.36 46.06C70.6 47.28 68.21 48.33 66.43 49.05L66.07 49.2C57.22 52.81 30.3 63.78 17.75 57.28C14.56 55.63 12.64 52.95 11.69 48.85C10.84 45.16 11.51 41.72 13.76 38.33C17.75 32.31 26.6 26.54 39.35 21.63C52.51 16.57 65.37 14.12 69 13.49C75.9 12.29 81.69 11.77 86.56 11.77C104.57 11.77 109.95 18.86 112.38 24.82C113.18 26.78 113.37 28.88 112.96 31.17C98.22 35.13 83.41 41.64 73.37 46.06H73.36ZM25.93 142.76C15.64 125.06 40.14 107.28 66.12 90.59C71.45 87.17 76.05 84.21 79.48 81.58C80.92 80.47 82.58 79.24 84.38 77.9C96.61 68.8 114.7 55.33 121.57 40.64C136.96 37.34 146.68 38.98 150.49 45.53C154.13 51.78 156.73 61.88 137.48 77.26C130.49 82.85 122.87 88.17 115.5 93.32C109.32 97.64 102.93 102.11 96.94 106.71C95.5 107.82 93.84 109.05 92.04 110.39C79.81 119.49 61.72 132.96 54.85 147.65C39.46 150.95 29.74 149.31 25.93 142.76ZM162.67 149.97C158.68 155.99 149.83 161.76 137.08 166.67C123.92 171.73 111.06 174.18 107.43 174.81C74.98 180.44 67.13 171.04 64.05 163.48C63.25 161.52 63.06 159.42 63.47 157.13C78.21 153.17 93.02 146.66 103.06 142.24C105.83 141.02 108.21 139.97 109.99 139.25L110.35 139.1C119.2 135.49 146.12 124.52 158.67 131.02C161.86 132.67 163.78 135.35 164.73 139.45C165.58 143.14 164.91 146.58 162.66 149.97H162.67Z" fill="black"/>
</svg>
