<?xml version="1.0" encoding="UTF-8"?><svg id="Layer_1" xmlns="http://www.w3.org/2000/svg" viewBox="0 0 949.38 344.29"><defs><style>.cls-1{fill:none;}</style></defs><rect class="cls-1" width="949.38" height="344.29"/><path d="M247.68,214.92c-1.7-7.34-5.68-12.69-11.84-15.88-15.2-7.88-38.84-.05-57.73,7.65l-.36.15c-1.92.78-4.37,1.86-7.22,3.11-7.16,3.15-16.85,7.41-27.02,10.93,7.78-8.99,19.37-17.62,27.24-23.48,1.85-1.38,3.56-2.65,5.04-3.78,5.79-4.45,12.08-8.84,18.15-13.09,7.51-5.25,15.28-10.69,22.56-16.5,19.27-15.4,24.56-30.93,15.71-46.15-5.95-10.24-17.98-13.99-35.81-11.19-.02-2.8-.56-5.51-1.62-8.11-10.59-26-44.55-20.1-55.71-18.16-8.11,1.41-49.25,9.46-62.68,29.7-3.99,6.01-5.22,12.49-3.65,19.26,1.7,7.34,5.68,12.69,11.84,15.88,4.48,2.32,9.69,3.28,15.29,3.28,13.42,0,29.11-5.5,42.44-10.93l.36-.15c1.92-.78,4.37-1.86,7.22-3.11,7.16-3.15,16.85-7.41,27.02-10.93-7.78,8.99-19.37,17.62-27.24,23.48-1.85,1.38-3.55,2.65-5.03,3.78-3.05,2.34-7.47,5.18-12.59,8.47-11.46,7.36-25.72,16.53-35.65,27.2-12.85,13.82-15.6,27.3-8.18,40.06,4.68,8.05,13.11,12.09,25.17,12.09,3.28,0,6.83-.31,10.64-.9.02,2.8.56,5.51,1.62,8.12,6.69,16.44,22.73,20.13,36.44,20.13,7.98,0,15.16-1.25,19.27-1.96,8.11-1.41,49.25-9.46,62.68-29.7,3.99-6.01,5.22-12.49,3.65-19.26ZM145.36,124.06c-2.76,1.22-5.15,2.27-6.93,2.99l-.36.15c-8.85,3.61-35.77,14.58-48.32,8.08-3.19-1.65-5.11-4.33-6.06-8.43-.85-3.69-.18-7.13,2.07-10.52,3.99-6.02,12.84-11.79,25.59-16.7,13.16-5.06,26.02-7.51,29.65-8.14,6.9-1.2,12.69-1.72,17.56-1.72,18.01,0,23.39,7.09,25.82,13.05.8,1.96.99,4.06.58,6.35-14.74,3.96-29.55,10.47-39.59,14.89ZM97.93,220.76c-10.29-17.7,14.21-35.48,40.19-52.17,5.33-3.42,9.93-6.38,13.36-9.01,1.44-1.11,3.1-2.34,4.9-3.68,12.23-9.1,30.32-22.57,37.19-37.26,15.39-3.3,25.11-1.66,28.92,4.89,3.64,6.25,6.24,16.35-13.01,31.73-6.99,5.59-14.61,10.91-21.98,16.06-6.18,4.32-12.57,8.79-18.56,13.39h0c-1.44,1.11-3.1,2.34-4.9,3.68-12.23,9.1-30.32,22.57-37.19,37.26-15.39,3.3-25.11,1.66-28.92-4.89ZM234.67,227.97c-3.99,6.02-12.84,11.79-25.59,16.7-13.16,5.06-26.02,7.51-29.65,8.14-32.45,5.63-40.3-3.77-43.38-11.33-.8-1.96-.99-4.06-.58-6.35,14.74-3.96,29.55-10.47,39.59-14.89,2.77-1.22,5.15-2.27,6.93-2.99l.36-.15c8.85-3.61,35.77-14.58,48.32-8.08,3.19,1.65,5.11,4.33,6.06,8.43.85,3.69.18,7.13-2.07,10.52Z"/><path d="M338.48,168.61c4.62-4.43,9.21-8.89,13.65-13.28,4.32-4.27,8.26-8.24,11.73-11.81,2.37-2.47,3.94-4.35,4.8-5.75.94-1.53,1.42-3.11,1.42-4.69,0-2.42-1.05-6.49-8.12-6.49h-64.38v12.09h54.06c-2.73,2.77-5.83,5.85-9.24,9.18-4.47,4.37-9.37,9.1-14.58,14.06-5.09,4.85-10.27,9.7-15.39,14.43-5.13,4.74-9.97,9.18-14.51,13.33l-.52.48v12.82h72.68v-12.09h-55.82c3.2-2.79,6.56-5.81,10.05-9,4.72-4.32,9.49-8.79,14.17-13.28Z"/><rect x="386.44" y="126.62" width="12.98" height="76.36"/><path d="M392.93,93.56c-2.52,0-4.64.89-6.28,2.66-1.61,1.73-2.43,3.82-2.43,6.2s.82,4.47,2.43,6.2c1.64,1.76,3.75,2.66,6.28,2.66s4.64-.89,6.28-2.66c1.61-1.73,2.43-3.82,2.43-6.2s-.82-4.47-2.43-6.2c-1.64-1.76-3.76-2.66-6.28-2.66Z"/><path d="M477.5,129.78h0c-6-3.49-13.02-5.25-20.88-5.25s-15.1,1.79-21.24,5.32c-6.15,3.54-11.01,8.4-14.44,14.45-3.43,6.04-5.17,12.94-5.17,20.49s1.79,14.61,5.33,20.66c3.53,6.05,8.44,10.88,14.59,14.36,6.14,3.48,13.19,5.24,20.93,5.24,11.41,0,20.5-3.77,27.09-11.21-.79,19.34-10.89,28.75-30.79,28.75-4.03,0-8.2-.39-12.38-1.16-4.16-.77-7.9-1.88-11.12-3.3l-1.61-.71-3.7,11.11,1.42.55c4.13,1.61,8.62,2.86,13.33,3.71,4.72.85,9.45,1.28,14.06,1.28,14.31,0,25.32-3.93,32.71-11.68,7.37-7.73,11.11-19.04,11.11-33.62v-21.48c0-8.62-1.71-16.22-5.07-22.6-3.39-6.41-8.15-11.44-14.16-14.93ZM480.33,179.74c-2.27,4.26-5.48,7.64-9.55,10.04-4.07,2.41-8.83,3.63-14.15,3.63s-10.05-1.22-14.07-3.62c-4.03-2.41-7.25-5.79-9.56-10.06-2.33-4.28-3.51-9.31-3.51-14.94s1.18-10.77,3.51-15.01c2.32-4.22,5.53-7.58,9.57-9.99,4.03-2.41,8.76-3.62,14.07-3.62s10.07,1.22,14.15,3.63c4.07,2.41,7.28,5.76,9.55,9.97,2.28,4.24,3.44,9.29,3.44,15.02s-1.16,10.66-3.44,14.95Z"/><path d="M626.8,132.41h0c-5.86-5.23-13.62-7.89-23.06-7.89-6.86,0-12.96,1.46-18.11,4.35-4.38,2.45-7.98,5.76-10.74,9.85-6.05-9.43-15.77-14.2-28.92-14.2-9.84,0-17.85,2.7-23.81,8.04-6,5.38-9.05,12.68-9.05,21.71v48.71h12.98v-44.12c0-7.44,1.82-13.16,5.42-16.98,3.57-3.79,8.73-5.72,15.35-5.72s12,1.98,15.62,6.05c3.62,4.08,5.45,10.02,5.45,17.68v43.08h12.98v-43.08c0-7.66,1.83-13.61,5.45-17.68,3.57-4.02,8.87-6.05,15.77-6.05s11.76,1.88,15.28,5.58c3.54,3.72,5.34,9.33,5.34,16.68v44.56h12.98v-49.15c0-8.93-3-16.13-8.9-21.41Z"/><path d="M681.21,173.2c28.98,0,43.67-8.11,43.67-24.12,0-7.61-2.98-13.7-8.86-18.09-5.74-4.29-13.27-6.47-22.36-6.47-8.35,0-15.72,1.82-21.91,5.4-6.2,3.59-11.09,8.58-14.53,14.84-3.42,6.23-5.16,13.37-5.16,21.21s1.82,14.98,5.42,20.84c3.6,5.86,8.57,10.42,14.79,13.55,6.17,3.11,13.22,4.69,20.94,4.69,5.16,0,10.19-.69,14.96-2.06,4.77-1.37,8.95-3.21,12.43-5.45l1.3-.84-5.9-9.76-1.35.76c-6.74,3.8-13.5,5.72-20.1,5.72-7.89,0-14.45-2.05-19.52-6.09-4.56-3.64-7.51-8.51-8.78-14.5,2.41.08,4.66.16,6.76.23,2.67.1,5.44.15,8.21.15ZM665.73,161.92c.63-7.63,3.23-13.94,7.76-18.77,4.8-5.12,11.38-7.71,19.57-7.71,5.48,0,10.06,1.21,13.63,3.58,3.41,2.27,5.07,5.38,5.07,9.48,0,9.16-10.78,13.81-32.03,13.81-2.56,0-5.1-.05-7.57-.15-2.03-.08-4.18-.16-6.44-.24Z"/><path d="M796.14,128.55c-5.34-2.67-11.71-4.02-18.94-4.02s-13.48,1.38-18.87,4.1c-5.43,2.74-9.69,6.64-12.65,11.57-2.95,4.92-4.45,10.76-4.45,17.34v45.45h12.98v-42.49c0-8.03,1.97-14.16,5.85-18.23,3.87-4.05,9.63-6.1,17.14-6.1s13.3,2.08,17.21,6.17c3.93,4.12,5.93,10.23,5.93,18.15v42.49h12.98v-45.45c0-6.69-1.52-12.57-4.53-17.5-3.01-4.93-7.27-8.79-12.65-11.48Z"/><path d="M871.28,188.67l-1.32.85c-4.16,2.68-8.85,4.04-13.95,4.04-4.37,0-7.73-1.16-9.97-3.45-2.25-2.29-3.39-5.68-3.39-10.06v-39.49h34.58v-12.09h-34.58v-18.79h-12.98v71.99c0,7.24,2.21,13.01,6.57,17.16,4.34,4.13,10.34,6.22,17.84,6.22,4.08,0,8.15-.6,12.09-1.77,3.97-1.19,7.31-2.79,9.92-4.78l1.2-.91-6.02-8.92Z"/></svg>