<svg xmlns="http://www.w3.org/2000/svg" xmlns:xlink="http://www.w3.org/1999/xlink" width="1024" zoomAndPan="magnify" viewBox="0 0 768 576" height="768" preserveAspectRatio="xMidYMid meet" version="1.0"><defs><filter x="0%" y="0%" width="100%" height="100%" id="b0f63b45dc"><feColorMatrix values="0 0 0 0 1 0 0 0 0 1 0 0 0 0 1 0 0 0 1 0" color-interpolation-filters="sRGB"/></filter><mask id="5258528c87"><g filter="url(#b0f63b45dc)"><rect x="-76.8" width="921.6" fill="#000000" y="-57.6" height="691.2" fill-opacity="0.84"/></g></mask><clipPath id="c4019117f4"><path d="M 3 0.597656 L 543 0.597656 L 543 517.347656 L 3 517.347656 Z M 3 0.597656 " clip-rule="nonzero"/></clipPath><clipPath id="a2a36920a3"><rect x="0" width="545" y="0" height="519"/></clipPath></defs><g mask="url(#5258528c87)"><g transform="matrix(1, 0, 0, 1, 112, 29)"><g clip-path="url(#a2a36920a3)"><g clip-path="url(#c4019117f4)"><path fill="#000000" d="M 262.570312 128.785156 C 257.820312 124.347656 257.714844 118.4375 257.714844 117.484375 C 258.03125 114.632812 257.082031 111.785156 255.074219 109.777344 C 253.28125 107.875 250.746094 106.820312 248.425781 106.925781 C 246.105469 107.03125 243.886719 108.195312 242.304688 110.09375 C 240.617188 112.101562 239.769531 114.847656 240.085938 117.378906 C 241.25 133.746094 249.796875 143.566406 265.523438 146.628906 L 265.523438 150.957031 C 265.523438 155.285156 269.007812 158.769531 273.335938 158.769531 C 277.660156 158.769531 281.144531 155.285156 281.144531 150.957031 L 281.144531 146.734375 C 288.214844 145.570312 293.914062 142.511719 298.242188 137.652344 C 303.414062 131.738281 305.945312 124.769531 305.945312 116.851562 C 305.945312 109.144531 303.835938 103.019531 299.71875 98.480469 C 296.132812 94.574219 290.117188 91.617188 281.25 89.292969 L 281.25 63.847656 C 281.988281 64.269531 282.621094 64.691406 283.148438 65.21875 C 285.894531 68.070312 286.105469 71.554688 286.105469 72.820312 C 286.527344 77.46875 290.222656 80.953125 295.074219 80.953125 C 299.613281 80.953125 303.414062 77.363281 303.835938 72.292969 C 302.359375 58.566406 294.652344 50.121094 281.25 47.796875 L 281.25 43.574219 C 281.25 39.246094 277.765625 35.761719 273.441406 35.761719 C 269.113281 35.761719 265.628906 39.246094 265.628906 43.574219 L 265.628906 47.902344 C 259.191406 49.167969 253.808594 51.808594 249.796875 55.820312 C 244.730469 60.785156 242.09375 67.4375 242.09375 75.566406 C 242.09375 88.871094 250.007812 97.742188 265.628906 101.964844 L 265.628906 130.683594 C 264.363281 130.15625 263.308594 129.523438 262.570312 128.785156 Z M 259.613281 74.617188 C 259.613281 69.335938 261.511719 65.851562 265.523438 63.847656 L 265.523438 84.753906 C 264.257812 84.121094 263.203125 83.484375 262.359375 82.640625 C 260.5625 81.164062 259.613281 78.417969 259.613281 74.617188 Z M 288.320312 117.484375 C 288.320312 124.453125 286 128.785156 281.25 130.894531 L 281.25 106.1875 C 283.992188 107.347656 285.367188 108.40625 286.105469 109.25 C 287.582031 111.042969 288.320312 113.789062 288.320312 117.484375 Z M 263.625 193.507812 C 265.945312 193.71875 268.164062 193.929688 270.378906 193.929688 C 271.222656 194.039062 272.066406 194.039062 272.910156 194.039062 C 273.96875 194.039062 274.917969 194.039062 275.445312 193.929688 C 303.308594 193.191406 329.589844 180.523438 347.425781 158.980469 C 361.78125 141.664062 369.589844 119.808594 369.589844 97.316406 C 369.589844 92.777344 369.273438 88.34375 368.746094 84.332031 C 367.796875 77.46875 366.210938 70.710938 363.890625 64.269531 C 353.96875 37.132812 332.753906 15.910156 305.523438 6.300781 C 299.085938 3.976562 292.332031 2.394531 285.472656 1.445312 C 281.355469 0.914062 277.027344 0.597656 272.910156 0.597656 C 219.613281 0.597656 176.234375 43.996094 176.234375 97.316406 C 176.339844 147.472656 213.914062 188.863281 263.625 193.507812 Z M 273.015625 17.175781 C 276.5 17.175781 279.984375 17.386719 283.464844 17.808594 C 289.058594 18.550781 294.652344 19.921875 300.035156 21.824219 C 322.515625 29.847656 340.144531 47.375 348.375 69.863281 C 350.273438 75.144531 351.648438 80.636719 352.386719 86.441406 C 352.914062 89.820312 353.125 93.410156 353.125 97.210938 C 353.125 115.796875 346.582031 133.957031 334.761719 148.316406 C 319.984375 166.160156 298.242188 176.71875 274.601562 177.25 C 274.074219 177.25 273.546875 177.25 273.015625 177.25 C 272.488281 177.25 271.960938 177.25 271.433594 177.25 L 270.695312 177.25 C 268.902344 177.25 267.210938 177.144531 265.3125 176.933594 C 224.046875 173.023438 192.910156 138.8125 192.910156 97.210938 C 192.910156 53.078125 228.898438 17.175781 273.015625 17.175781 Z M 539.9375 316.414062 L 465.738281 162.78125 C 460.355469 151.800781 447.164062 147.15625 436.1875 152.539062 L 399.457031 170.28125 C 388.480469 175.558594 383.839844 188.863281 389.21875 199.84375 L 397.453125 216.949219 L 390.382812 220.539062 C 385.738281 222.863281 380.460938 223.496094 375.394531 222.230469 L 332.121094 211.035156 C 315.867188 206.8125 298.558594 209.875 284.734375 219.167969 L 276.078125 224.972656 L 253.914062 213.992188 C 244.308594 209.242188 233.753906 207.761719 223.304688 209.558594 L 180.140625 216.949219 C 177.078125 217.476562 173.910156 217.054688 171.0625 215.683594 L 151.640625 206.074219 L 156.8125 195.304688 C 159.347656 190.023438 159.769531 184.007812 157.765625 178.410156 C 155.863281 172.8125 151.851562 168.273438 146.472656 165.738281 L 109.847656 148 C 98.871094 142.617188 85.574219 147.261719 80.296875 158.242188 L 6.097656 311.769531 C 0.820312 322.75 5.359375 336.054688 16.441406 341.4375 L 53.066406 359.175781 C 56.125 360.65625 59.503906 361.394531 62.667969 361.394531 C 70.902344 361.394531 78.816406 356.75 82.617188 348.933594 L 86.3125 341.226562 L 100.980469 347.773438 C 106.046875 349.992188 109.425781 354.742188 109.953125 360.234375 L 111.21875 373.433594 L 99.925781 392.859375 C 97.078125 397.71875 95.597656 403.3125 95.597656 409.121094 C 95.597656 420.734375 101.824219 431.503906 111.746094 437.207031 C 116.8125 440.164062 122.40625 441.535156 127.894531 441.535156 C 128.316406 441.535156 128.632812 441.429688 129.054688 441.429688 C 128.421875 443.964844 128.105469 446.5 128.105469 449.035156 C 128.105469 460.648438 134.332031 471.417969 144.359375 477.121094 C 149.425781 480.078125 155.019531 481.449219 160.507812 481.449219 C 166.945312 481.449219 173.277344 479.441406 178.660156 475.851562 C 181.40625 481.976562 186.050781 487.257812 191.960938 490.742188 C 197.027344 493.695312 202.621094 495.070312 208.109375 495.070312 C 212.117188 495.070312 216.023438 494.332031 219.71875 492.851562 C 221.828125 501.300781 227.210938 508.585938 234.917969 513.019531 C 239.980469 515.976562 245.574219 517.347656 251.0625 517.347656 C 262.253906 517.347656 273.226562 511.542969 279.140625 501.195312 L 287.265625 487.152344 L 310.589844 500.667969 C 315.234375 503.410156 320.40625 504.679688 325.472656 504.679688 C 335.816406 504.679688 345.949219 499.292969 351.4375 489.789062 C 354.179688 484.933594 355.445312 479.652344 355.445312 474.480469 C 367.480469 476.59375 380.144531 471.207031 386.582031 460.121094 L 387.320312 458.957031 C 390.488281 453.46875 391.859375 447.238281 391.121094 441.007812 C 393.546875 441.007812 395.976562 440.585938 398.402344 439.953125 C 406.109375 437.839844 412.546875 432.878906 416.554688 426.015625 C 420.355469 419.363281 421.515625 411.65625 419.828125 404.160156 C 420.777344 404.050781 421.726562 403.839844 422.679688 403.523438 C 430.382812 401.414062 436.820312 396.449219 440.832031 389.585938 C 445.898438 380.929688 446.003906 370.6875 442.097656 362.132812 L 463.101562 352.949219 L 463.417969 353.6875 C 467.21875 361.605469 475.132812 366.144531 483.367188 366.144531 C 486.636719 366.144531 489.910156 365.40625 492.96875 363.929688 L 529.59375 346.191406 C 534.871094 343.65625 538.882812 339.117188 540.886719 333.519531 C 542.890625 327.816406 542.46875 321.800781 539.9375 316.414062 Z M 60.242188 344.183594 L 23.617188 326.445312 C 20.875 325.074219 19.714844 321.800781 21.085938 319.054688 L 95.28125 165.421875 C 96.230469 163.417969 98.238281 162.253906 100.242188 162.253906 C 101.085938 162.253906 101.929688 162.464844 102.671875 162.78125 L 139.292969 180.523438 C 140.664062 181.15625 141.617188 182.316406 142.144531 183.691406 C 142.671875 185.0625 142.566406 186.644531 141.933594 187.914062 L 133.171875 206.074219 L 132.539062 207.339844 L 67.628906 341.542969 C 66.363281 344.289062 62.984375 345.449219 60.242188 344.183594 Z M 120.085938 422.742188 C 115.230469 419.996094 112.167969 414.71875 112.167969 409.015625 C 112.167969 406.164062 112.90625 403.523438 114.28125 401.097656 L 127.472656 378.289062 L 137.5 360.867188 C 138.132812 359.707031 138.976562 358.753906 139.820312 357.804688 C 140.03125 357.59375 140.347656 357.277344 140.558594 357.066406 C 141.300781 356.433594 142.039062 355.796875 142.882812 355.375 C 143.199219 355.164062 143.410156 355.058594 143.726562 354.847656 C 144.78125 354.214844 145.941406 353.792969 147.210938 353.476562 C 148.371094 353.160156 149.636719 353.054688 150.796875 353.054688 C 151.113281 353.054688 151.429688 353.054688 151.746094 353.054688 C 152.699219 353.054688 153.542969 353.160156 154.492188 353.371094 C 154.808594 353.476562 155.125 353.476562 155.546875 353.582031 C 156.707031 353.898438 157.976562 354.425781 159.03125 355.058594 C 163.886719 357.910156 166.945312 363.191406 166.945312 368.785156 C 166.945312 371.53125 166.207031 374.277344 164.835938 376.707031 L 157.234375 390.007812 L 141.617188 417.144531 C 137.183594 424.535156 127.578125 427.070312 120.085938 422.742188 Z M 152.699219 462.761719 C 147.84375 459.910156 144.78125 454.734375 144.78125 449.035156 C 144.78125 446.289062 145.519531 443.542969 146.894531 441.21875 L 155.863281 425.59375 C 155.863281 425.488281 155.96875 425.488281 155.96875 425.382812 L 171.90625 397.824219 L 175.8125 391.066406 C 176.445312 389.902344 177.289062 388.953125 178.132812 388.003906 C 178.34375 387.792969 178.660156 387.476562 178.976562 387.265625 C 179.71875 386.628906 180.457031 386.101562 181.195312 385.574219 C 181.511719 385.363281 181.828125 385.152344 182.039062 385.046875 C 183.09375 384.519531 184.253906 383.992188 185.417969 383.675781 C 185.523438 383.675781 185.628906 383.675781 185.734375 383.675781 C 186.789062 383.355469 187.949219 383.25 189.109375 383.25 C 189.53125 383.25 189.847656 383.25 190.269531 383.25 C 191.117188 383.25 191.960938 383.355469 192.910156 383.570312 C 193.226562 383.675781 193.648438 383.675781 193.964844 383.78125 C 195.125 384.097656 196.289062 384.519531 197.449219 385.257812 C 202.410156 388.109375 205.363281 393.28125 205.363281 398.984375 C 205.363281 400.039062 205.257812 401.097656 205.046875 402.152344 C 204.941406 402.46875 204.835938 402.890625 204.730469 403.207031 C 204.519531 403.839844 204.414062 404.476562 204.097656 405.109375 C 203.886719 405.53125 203.570312 405.953125 203.359375 406.269531 L 199.453125 413.027344 L 180.140625 446.5 C 179.613281 447.449219 179.082031 448.398438 178.660156 449.351562 L 174.335938 456.847656 C 169.902344 464.449219 160.191406 467.089844 152.699219 462.761719 Z M 200.296875 476.378906 C 195.441406 473.636719 192.382812 468.355469 192.382812 462.652344 C 192.382812 460.648438 192.699219 458.746094 193.4375 456.847656 L 210.957031 426.4375 L 217.5 415.035156 C 217.816406 414.507812 218.136719 413.871094 218.453125 413.34375 C 218.769531 412.921875 219.085938 412.605469 219.402344 412.183594 C 219.71875 411.761719 220.035156 411.445312 220.351562 411.019531 C 220.667969 410.703125 221.089844 410.386719 221.40625 410.175781 C 221.828125 409.859375 222.144531 409.542969 222.566406 409.226562 C 222.882812 409.015625 223.304688 408.804688 223.730469 408.59375 C 224.152344 408.382812 224.679688 408.066406 225.101562 407.855469 C 225.523438 407.644531 225.839844 407.644531 226.261719 407.429688 C 226.789062 407.21875 227.316406 407.113281 227.84375 406.902344 C 228.265625 406.796875 228.6875 406.796875 229.113281 406.691406 C 229.640625 406.585938 230.167969 406.480469 230.695312 406.480469 C 231.117188 406.480469 231.644531 406.480469 232.066406 406.585938 C 232.59375 406.585938 233.121094 406.585938 233.542969 406.691406 C 234.070312 406.796875 234.601562 406.902344 235.128906 407.113281 C 235.550781 407.21875 235.972656 407.324219 236.394531 407.429688 C 237.34375 407.75 238.1875 408.171875 239.136719 408.699219 C 244.097656 411.550781 247.054688 416.722656 247.054688 422.425781 C 247.054688 425.171875 246.316406 427.914062 244.941406 430.238281 L 235.023438 447.34375 C 235.023438 447.34375 235.023438 447.449219 234.917969 447.449219 L 221.617188 470.46875 C 217.5 478.175781 207.898438 480.710938 200.296875 476.378906 Z M 264.890625 492.851562 C 260.5625 500.347656 250.851562 502.988281 243.253906 498.660156 C 238.398438 495.914062 235.339844 490.636719 235.339844 484.933594 C 235.339844 482.082031 236.078125 479.441406 237.449219 477.015625 L 249.691406 455.789062 L 260.667969 436.785156 C 261.300781 435.625 262.144531 434.671875 262.992188 433.722656 C 263.203125 433.511719 263.519531 433.195312 263.835938 432.984375 C 264.574219 432.351562 265.3125 431.824219 266.050781 431.292969 C 266.367188 431.082031 266.683594 430.871094 267 430.765625 C 268.058594 430.238281 269.21875 429.710938 270.378906 429.394531 C 270.484375 429.394531 270.589844 429.394531 270.695312 429.289062 C 271.75 429.078125 272.804688 428.867188 273.96875 428.867188 C 274.390625 428.867188 274.707031 428.867188 275.128906 428.867188 C 275.972656 428.867188 276.816406 428.972656 277.660156 429.183594 C 278.082031 429.289062 278.398438 429.289062 278.824219 429.394531 C 279.984375 429.710938 281.144531 430.132812 282.304688 430.871094 C 287.265625 433.722656 290.222656 438.898438 290.222656 444.597656 C 290.222656 447.34375 289.480469 450.089844 288.109375 452.519531 Z M 337.082031 481.34375 C 333.386719 487.679688 325.261719 489.894531 318.929688 486.199219 L 295.605469 472.683594 L 302.464844 460.859375 C 304.679688 456.953125 306.050781 452.730469 306.582031 448.1875 L 320.828125 456.320312 C 321.144531 456.53125 321.460938 456.847656 321.777344 457.058594 L 332.226562 463.078125 C 338.558594 466.878906 340.777344 475.007812 337.082031 481.34375 Z M 426.476562 381.140625 C 424.683594 384.203125 421.832031 386.417969 418.457031 387.371094 C 414.972656 388.320312 411.382812 387.792969 408.324219 385.996094 L 389.433594 375.121094 C 388.796875 374.804688 388.269531 374.59375 387.636719 374.382812 L 336.027344 343.445312 C 332.121094 341.121094 326.949219 342.390625 324.628906 346.296875 C 322.304688 350.203125 323.574219 355.375 327.476562 357.699219 L 380.777344 389.796875 C 380.777344 389.796875 380.777344 389.796875 380.882812 389.796875 C 380.882812 389.796875 380.882812 389.796875 380.988281 389.902344 L 397.453125 399.40625 C 400.515625 401.203125 402.730469 404.050781 403.679688 407.535156 C 404.628906 410.914062 404.101562 414.507812 402.308594 417.566406 C 400.515625 420.628906 397.664062 422.847656 394.285156 423.796875 C 390.910156 424.746094 387.320312 424.21875 384.15625 422.53125 L 376.449219 418.097656 L 311.328125 377.445312 C 307.425781 375.015625 302.359375 376.175781 299.929688 380.085938 C 297.503906 383.992188 298.664062 389.058594 302.570312 391.488281 L 367.902344 432.246094 C 367.902344 432.246094 368.007812 432.246094 368.007812 432.246094 C 368.007812 432.246094 368.113281 432.351562 368.113281 432.351562 C 371.171875 434.144531 373.390625 436.996094 374.234375 440.375 C 375.183594 443.859375 374.65625 447.449219 372.96875 450.40625 L 372.226562 451.566406 C 368.535156 457.902344 360.40625 460.121094 354.074219 456.425781 L 330.117188 442.59375 L 300.667969 425.804688 C 298.03125 422.109375 294.652344 418.941406 290.644531 416.617188 C 289.585938 415.984375 288.53125 415.457031 287.476562 415.035156 C 287.160156 414.929688 286.84375 414.824219 286.527344 414.613281 C 285.789062 414.292969 285.050781 413.976562 284.203125 413.765625 C 283.78125 413.660156 283.359375 413.554688 282.9375 413.449219 C 282.199219 413.238281 281.566406 413.132812 280.828125 412.921875 C 280.40625 412.816406 279.984375 412.710938 279.457031 412.710938 C 278.824219 412.605469 278.082031 412.5 277.449219 412.5 C 277.027344 412.5 276.5 412.394531 276.078125 412.394531 C 275.445312 412.394531 274.707031 412.394531 274.074219 412.394531 C 273.652344 412.394531 273.121094 412.394531 272.699219 412.394531 C 271.960938 412.394531 271.328125 412.5 270.695312 412.605469 C 270.273438 412.605469 269.851562 412.710938 269.429688 412.710938 C 268.585938 412.816406 267.847656 413.027344 267 413.238281 C 266.683594 413.34375 266.472656 413.34375 266.15625 413.449219 C 265.101562 413.765625 264.046875 414.082031 262.992188 414.507812 C 262.992188 414.507812 262.886719 414.507812 262.886719 414.507812 C 262.886719 414.507812 262.886719 414.398438 262.78125 414.398438 C 262.253906 412.605469 261.617188 410.808594 260.878906 409.015625 C 260.667969 408.59375 260.457031 408.277344 260.246094 407.855469 C 259.402344 406.269531 258.558594 404.6875 257.503906 403.3125 C 257.398438 403.207031 257.398438 403.101562 257.292969 402.996094 C 256.128906 401.519531 254.863281 400.144531 253.386719 398.773438 C 253.070312 398.457031 252.753906 398.140625 252.332031 397.824219 C 250.851562 396.554688 249.269531 395.394531 247.582031 394.445312 C 245.894531 393.492188 244.097656 392.753906 242.410156 392.121094 C 242.199219 392.015625 241.988281 391.910156 241.671875 391.910156 C 239.980469 391.382812 238.1875 390.960938 236.5 390.644531 C 236.183594 390.644531 235.867188 390.539062 235.550781 390.539062 C 233.859375 390.324219 232.066406 390.21875 230.378906 390.324219 C 230.0625 390.324219 229.851562 390.324219 229.640625 390.324219 C 227.84375 390.433594 226.050781 390.644531 224.257812 391.066406 C 224.152344 391.066406 224.152344 391.066406 224.046875 391.171875 C 223.09375 391.382812 222.039062 391.699219 221.089844 392.015625 C 220.984375 391.804688 220.984375 391.488281 220.878906 391.277344 C 220.773438 390.855469 220.667969 390.433594 220.5625 390.007812 C 220.351562 389.164062 220.035156 388.320312 219.71875 387.476562 C 219.613281 387.054688 219.402344 386.734375 219.296875 386.3125 C 218.875 385.363281 218.347656 384.308594 217.816406 383.355469 C 217.710938 383.144531 217.605469 383.039062 217.5 382.828125 C 216.867188 381.773438 216.128906 380.71875 215.390625 379.660156 C 215.179688 379.34375 214.96875 379.132812 214.757812 378.816406 C 214.125 378.078125 213.597656 377.339844 212.964844 376.707031 C 212.648438 376.386719 212.328125 376.070312 212.011719 375.753906 C 211.378906 375.121094 210.640625 374.488281 210.007812 373.960938 C 209.691406 373.75 209.375 373.433594 209.058594 373.222656 C 208.003906 372.480469 206.949219 371.742188 205.785156 371.003906 C 204.203125 370.054688 202.515625 369.3125 200.824219 368.679688 C 200.613281 368.574219 200.402344 368.46875 200.191406 368.46875 C 198.609375 367.941406 197.027344 367.519531 195.335938 367.203125 C 195.019531 367.097656 194.703125 367.097656 194.386719 366.992188 C 192.804688 366.78125 191.222656 366.675781 189.636719 366.675781 C 189.320312 366.675781 189.003906 366.675781 188.582031 366.675781 C 187 366.675781 185.417969 366.886719 183.832031 367.203125 C 183.726562 367.203125 183.621094 367.203125 183.621094 367.203125 C 183.621094 366.78125 183.515625 366.359375 183.410156 365.828125 C 183.304688 365.195312 183.304688 364.5625 183.199219 363.929688 C 183.09375 363.191406 182.882812 362.449219 182.777344 361.710938 C 182.671875 361.078125 182.460938 360.445312 182.355469 359.917969 C 182.144531 359.175781 181.933594 358.4375 181.617188 357.804688 C 181.40625 357.277344 181.195312 356.644531 180.984375 356.117188 C 180.667969 355.375 180.351562 354.742188 179.929688 354.003906 C 179.613281 353.476562 179.402344 352.949219 179.082031 352.417969 C 178.660156 351.785156 178.238281 351.046875 177.816406 350.414062 C 177.5 349.992188 177.183594 349.464844 176.867188 349.039062 C 176.339844 348.40625 175.8125 347.773438 175.179688 347.140625 C 174.863281 346.71875 174.441406 346.296875 174.125 345.980469 C 173.488281 345.34375 172.75 344.710938 172.011719 344.078125 C 171.695312 343.761719 171.378906 343.445312 171.0625 343.234375 C 170.007812 342.390625 168.847656 341.648438 167.578125 340.910156 C 165.785156 339.855469 163.992188 339.117188 162.089844 338.480469 C 161.984375 338.480469 161.878906 338.375 161.773438 338.375 C 159.980469 337.742188 158.1875 337.320312 156.285156 337.109375 C 156.074219 337.109375 155.96875 337.003906 155.757812 337.003906 C 153.964844 336.792969 152.171875 336.6875 150.375 336.6875 C 150.164062 336.6875 149.953125 336.6875 149.636719 336.6875 C 147.949219 336.792969 146.15625 337.003906 144.464844 337.425781 C 144.253906 337.53125 143.9375 337.53125 143.726562 337.636719 C 142.039062 338.058594 140.453125 338.585938 138.871094 339.222656 C 138.660156 339.328125 138.34375 339.433594 138.132812 339.539062 C 136.550781 340.277344 135.074219 341.015625 133.59375 341.964844 C 133.382812 342.070312 133.171875 342.285156 132.960938 342.390625 C 131.484375 343.339844 130.113281 344.5 128.84375 345.664062 C 128.632812 345.875 128.527344 345.980469 128.316406 346.191406 C 127.050781 347.457031 125.785156 348.828125 124.730469 350.414062 C 124.730469 350.414062 124.625 350.519531 124.625 350.519531 C 121.667969 342.601562 115.652344 336.054688 107.738281 332.570312 L 93.59375 326.128906 L 109.742188 292.65625 L 144.464844 220.855469 L 163.78125 230.464844 C 169.796875 233.421875 176.445312 234.371094 182.988281 233.210938 L 226.15625 225.820312 C 233.121094 224.65625 240.195312 225.609375 246.527344 228.777344 L 260.246094 235.535156 L 198.1875 277.136719 C 192.171875 281.148438 188.476562 287.589844 188.160156 294.875 C 187.949219 299.414062 189.109375 303.742188 191.328125 307.4375 C 192.699219 309.65625 194.386719 311.664062 196.605469 313.351562 L 204.308594 319.476562 C 214.652344 327.816406 228.582031 330.773438 241.460938 327.289062 L 313.546875 307.542969 C 319.035156 306.066406 324.734375 306.804688 329.589844 309.550781 L 421.410156 361.394531 C 421.9375 362.449219 422.679688 363.402344 423.523438 364.140625 C 428.484375 368.46875 429.75 375.542969 426.476562 381.140625 Z M 431.753906 348.40625 L 337.820312 295.296875 C 336.554688 294.558594 335.183594 293.925781 333.808594 293.394531 C 333.386719 293.183594 332.964844 293.078125 332.648438 292.972656 C 331.59375 292.550781 330.644531 292.234375 329.589844 291.917969 C 329.167969 291.8125 328.746094 291.707031 328.320312 291.601562 C 327.054688 291.285156 325.789062 291.074219 324.523438 290.863281 C 324.3125 290.863281 324.207031 290.757812 323.996094 290.757812 C 322.515625 290.546875 321.144531 290.546875 319.667969 290.441406 C 319.5625 290.441406 319.351562 290.441406 319.246094 290.441406 C 318.929688 290.441406 318.71875 290.441406 318.402344 290.546875 C 317.238281 290.546875 316.183594 290.652344 315.023438 290.757812 C 314.601562 290.757812 314.074219 290.863281 313.652344 290.96875 C 312.175781 291.179688 310.695312 291.496094 309.21875 291.917969 L 237.132812 311.664062 C 229.324219 313.773438 220.984375 311.980469 214.757812 307.015625 L 207.054688 300.894531 C 205.574219 299.730469 204.730469 297.9375 204.835938 296.035156 C 204.941406 294.136719 205.890625 292.445312 207.476562 291.390625 L 294.019531 233.210938 C 304.046875 226.558594 316.394531 224.445312 328.109375 227.402344 L 371.382812 238.59375 C 380.355469 240.917969 389.75 239.863281 397.980469 235.640625 L 404.628906 232.15625 L 455.820312 338.164062 Z M 522.417969 331.089844 L 485.792969 348.828125 C 483.046875 350.097656 479.671875 349.042969 478.40625 346.296875 L 404.207031 192.664062 C 402.835938 189.917969 403.996094 186.539062 406.742188 185.273438 L 443.363281 167.535156 C 444.101562 167.113281 444.949219 167.007812 445.792969 167.007812 C 447.902344 167.007812 449.800781 168.167969 450.753906 170.175781 L 524.949219 323.804688 C 526.320312 326.445312 525.160156 329.71875 522.417969 331.089844 Z M 436.503906 184.007812 C 428.484375 184.007812 422.042969 190.550781 422.042969 198.472656 C 422.042969 206.390625 428.589844 212.9375 436.503906 212.9375 C 444.417969 212.9375 450.964844 206.390625 450.964844 198.472656 C 450.964844 190.550781 444.527344 184.007812 436.503906 184.007812 Z M 436.503906 200.582031 C 435.34375 200.582031 434.394531 199.632812 434.394531 198.472656 C 434.394531 197.308594 435.34375 196.359375 436.503906 196.359375 C 437.664062 196.359375 438.613281 197.308594 438.613281 198.472656 C 438.613281 199.632812 437.664062 200.582031 436.503906 200.582031 Z M 108.582031 184.007812 C 100.558594 184.007812 94.121094 190.550781 94.121094 198.472656 C 94.121094 206.390625 100.664062 212.9375 108.582031 212.9375 C 116.496094 212.9375 123.039062 206.390625 123.039062 198.472656 C 123.039062 190.550781 116.601562 184.007812 108.582031 184.007812 Z M 108.582031 200.582031 C 107.417969 200.582031 106.46875 199.632812 106.46875 198.472656 C 106.46875 197.308594 107.417969 196.359375 108.582031 196.359375 C 109.742188 196.359375 110.691406 197.308594 110.691406 198.472656 C 110.691406 199.632812 109.742188 200.582031 108.582031 200.582031 Z M 108.582031 200.582031 " fill-opacity="1" fill-rule="nonzero"/></g></g></g></g></svg>