<svg xmlns="http://www.w3.org/2000/svg" xmlns:xlink="http://www.w3.org/1999/xlink" width="1024" zoomAndPan="magnify" viewBox="0 0 768 576" height="768" preserveAspectRatio="xMidYMid meet" version="1.0"><defs><clipPath id="a7e58921db"><path d="M 130.5 36.085938 L 637.5 36.085938 L 637.5 540.085938 L 130.5 540.085938 Z M 130.5 36.085938 " clip-rule="nonzero"/></clipPath></defs><g clip-path="url(#a7e58921db)"><path fill="#000000" d="M 425.507812 185.011719 C 425.507812 162.117188 406.886719 143.488281 384 143.488281 C 361.109375 143.488281 342.492188 162.117188 342.492188 185.011719 C 342.492188 207.910156 361.109375 226.535156 384 226.535156 C 406.886719 226.523438 425.507812 207.898438 425.507812 185.011719 Z M 355.109375 185.011719 C 355.109375 169.078125 368.070312 156.109375 384 156.109375 C 399.929688 156.109375 412.890625 169.078125 412.890625 185.011719 C 412.890625 200.945312 399.929688 213.914062 384 213.914062 C 368.070312 213.902344 355.109375 200.945312 355.109375 185.011719 Z M 365.054688 243.058594 L 366.453125 251.050781 C 366.976562 254.070312 369.605469 256.277344 372.664062 256.277344 L 395.34375 256.277344 C 398.414062 256.277344 401.03125 254.070312 401.558594 251.050781 L 402.957031 243.058594 C 405.933594 242.082031 408.84375 240.882812 411.640625 239.449219 L 418.285156 244.121094 C 420.796875 245.886719 424.203125 245.582031 426.371094 243.417969 L 442.40625 227.378906 C 444.570312 225.210938 444.863281 221.792969 443.109375 219.289062 L 438.441406 212.640625 C 439.859375 209.84375 441.070312 206.941406 442.046875 203.953125 L 450.039062 202.554688 C 453.054688 202.03125 455.261719 199.402344 455.261719 196.339844 L 455.261719 173.652344 C 455.261719 170.582031 453.054688 167.964844 450.039062 167.4375 L 442.046875 166.039062 C 441.070312 163.050781 439.871094 160.148438 438.449219 157.351562 L 443.121094 150.703125 C 444.886719 148.191406 444.589844 144.78125 442.414062 142.617188 L 426.382812 126.578125 C 424.214844 124.410156 420.796875 124.117188 418.296875 125.871094 L 411.652344 130.542969 C 408.855469 129.121094 405.953125 127.914062 402.964844 126.945312 L 401.570312 118.941406 C 401.042969 115.921875 398.414062 113.714844 395.355469 113.714844 L 372.675781 113.714844 C 369.605469 113.714844 366.988281 115.921875 366.460938 118.941406 L 365.0625 126.945312 C 362.078125 127.921875 359.175781 129.121094 356.378906 130.542969 L 349.734375 125.871094 C 347.222656 124.105469 343.816406 124.410156 341.648438 126.578125 L 325.617188 142.617188 C 323.449219 144.78125 323.15625 148.199219 324.910156 150.703125 L 329.578125 157.351562 C 328.160156 160.148438 326.953125 163.050781 325.972656 166.039062 L 317.984375 167.4375 C 314.964844 167.964844 312.757812 170.582031 312.757812 173.652344 L 312.757812 196.339844 C 312.757812 199.410156 314.964844 202.03125 317.984375 202.554688 L 325.984375 203.953125 C 326.960938 206.929688 328.160156 209.832031 329.578125 212.640625 L 324.910156 219.289062 C 323.144531 221.792969 323.441406 225.210938 325.617188 227.378906 L 341.648438 243.417969 C 343.816406 245.582031 347.234375 245.878906 349.734375 244.121094 L 356.378906 239.453125 C 359.167969 240.882812 362.066406 242.082031 365.054688 243.058594 Z M 352.34375 226.863281 L 346.8125 230.753906 L 338.273438 222.214844 L 342.164062 216.679688 C 343.59375 214.640625 343.699219 211.949219 342.417969 209.8125 C 340.011719 205.773438 338.203125 201.417969 337.054688 196.875 C 336.445312 194.457031 334.480469 192.628906 332.019531 192.207031 L 325.363281 191.039062 L 325.363281 178.964844 L 332.007812 177.808594 C 334.457031 177.375 336.433594 175.546875 337.042969 173.136719 C 338.191406 168.59375 340 164.242188 342.40625 160.203125 C 343.691406 158.066406 343.585938 155.375 342.15625 153.332031 L 338.265625 147.800781 L 346.800781 139.261719 L 352.332031 143.152344 C 354.371094 144.582031 357.054688 144.6875 359.199219 143.40625 C 363.234375 140.996094 367.585938 139.1875 372.128906 138.042969 C 374.546875 137.429688 376.378906 135.464844 376.796875 133.003906 L 377.953125 126.34375 L 390.023438 126.34375 L 391.179688 133.003906 C 391.613281 135.453125 393.441406 137.429688 395.847656 138.042969 C 400.390625 139.1875 404.742188 140.984375 408.78125 143.40625 C 410.914062 144.675781 413.605469 144.582031 415.648438 143.152344 L 421.175781 139.261719 L 429.714844 147.800781 L 425.824219 153.332031 C 424.394531 155.375 424.289062 158.066406 425.570312 160.203125 C 427.980469 164.242188 429.789062 168.59375 430.933594 173.136719 C 431.542969 175.558594 433.507812 177.386719 435.96875 177.808594 L 442.625 178.964844 L 442.625 191.039062 L 435.980469 192.195312 C 433.53125 192.628906 431.554688 194.457031 430.945312 196.867188 C 429.796875 201.410156 427.988281 205.761719 425.582031 209.800781 C 424.300781 211.9375 424.40625 214.628906 425.835938 216.671875 L 429.722656 222.203125 L 421.1875 230.742188 L 415.65625 226.851562 C 413.617188 225.421875 410.9375 225.316406 408.792969 226.597656 C 404.753906 229.019531 400.402344 230.816406 395.859375 231.960938 C 393.441406 232.574219 391.613281 234.539062 391.191406 237 L 390.035156 243.65625 L 377.964844 243.65625 L 376.808594 237 C 376.378906 234.550781 374.546875 232.574219 372.140625 231.960938 C 367.597656 230.816406 363.246094 229.019531 359.207031 226.597656 C 357.0625 225.335938 354.371094 225.429688 352.34375 226.863281 Z M 416.570312 303.546875 L 416.570312 301.15625 C 416.570312 290.839844 421.839844 282.246094 431.027344 277.566406 C 466.027344 259.738281 487.773438 224.273438 487.773438 185.011719 C 487.773438 127.765625 441.214844 81.203125 384 81.203125 C 326.785156 81.203125 280.226562 127.777344 280.226562 185.011719 C 280.226562 224.273438 301.96875 259.738281 336.972656 277.566406 C 346.160156 282.246094 351.429688 290.851562 351.429688 301.15625 L 351.429688 303.546875 C 341.578125 305.449219 334.113281 314.125 334.113281 324.527344 C 334.113281 334.886719 341.511719 343.542969 351.3125 345.5 C 354.445312 360.78125 367.851562 372.066406 384.011719 372.066406 C 400.171875 372.066406 413.566406 360.78125 416.707031 345.5 C 426.496094 343.554688 433.910156 334.886719 433.910156 324.527344 C 433.886719 314.125 426.421875 305.449219 416.570312 303.546875 Z M 342.691406 266.324219 C 311.9375 250.664062 292.835938 219.5 292.835938 185.011719 C 292.835938 134.726562 333.734375 93.824219 383.988281 93.824219 C 434.246094 93.824219 475.144531 134.738281 475.144531 185.011719 C 475.144531 219.5 456.039062 250.664062 425.289062 266.324219 C 411.914062 273.128906 403.933594 286.160156 403.933594 301.167969 L 403.933594 303.15625 L 364.023438 303.15625 L 364.023438 301.167969 C 364.042969 286.160156 356.0625 273.128906 342.691406 266.324219 Z M 384 359.445312 C 375.042969 359.445312 367.449219 353.859375 364.527344 345.910156 L 403.480469 345.910156 C 400.546875 353.859375 392.957031 359.445312 384 359.445312 Z M 412.511719 333.300781 L 355.484375 333.300781 C 350.660156 333.300781 346.726562 329.367188 346.726562 324.539062 C 346.726562 319.710938 350.660156 315.777344 355.484375 315.777344 L 412.511719 315.777344 C 417.339844 315.777344 421.269531 319.710938 421.269531 324.539062 C 421.269531 329.367188 417.339844 333.300781 412.511719 333.300781 Z M 376.628906 65.386719 L 376.628906 42.414062 C 376.628906 38.933594 379.457031 36.105469 382.9375 36.105469 C 386.417969 36.105469 389.246094 38.933594 389.246094 42.414062 L 389.246094 65.375 C 389.246094 68.855469 386.417969 71.6875 382.9375 71.6875 C 379.457031 71.6875 376.628906 68.867188 376.628906 65.386719 Z M 463.347656 104.132812 C 460.886719 101.671875 460.886719 97.675781 463.347656 95.214844 L 479.582031 78.976562 C 482.042969 76.511719 486.035156 76.511719 488.507812 78.976562 C 490.96875 81.4375 490.96875 85.433594 488.507812 87.894531 L 472.273438 104.132812 C 471.042969 105.363281 469.425781 105.984375 467.816406 105.984375 C 466.207031 105.984375 464.589844 105.363281 463.347656 104.132812 Z M 497.277344 183.949219 C 497.277344 180.46875 500.105469 177.640625 503.585938 177.640625 L 526.535156 177.640625 C 530.015625 177.640625 532.84375 180.46875 532.84375 183.949219 C 532.84375 187.429688 530.015625 190.261719 526.535156 190.261719 L 503.585938 190.261719 C 500.105469 190.261719 497.277344 187.429688 497.277344 183.949219 Z M 490 280.628906 C 492.460938 283.089844 492.460938 287.085938 490 289.558594 C 488.769531 290.789062 487.152344 291.40625 485.542969 291.40625 C 483.933594 291.40625 482.316406 290.789062 481.085938 289.558594 L 464.851562 273.316406 C 462.390625 270.855469 462.390625 266.859375 464.851562 264.386719 C 467.3125 261.925781 471.308594 261.925781 473.777344 264.386719 Z M 279.492188 282.121094 L 295.726562 265.882812 C 298.1875 263.421875 302.179688 263.421875 304.652344 265.882812 C 307.113281 268.34375 307.113281 272.339844 304.652344 274.800781 L 288.417969 291.039062 C 287.1875 292.269531 285.570312 292.890625 283.960938 292.890625 C 282.351562 292.890625 280.734375 292.269531 279.503906 291.039062 C 277.03125 288.578125 277.03125 284.582031 279.492188 282.121094 Z M 235.15625 186.0625 C 235.15625 182.582031 237.984375 179.753906 241.464844 179.753906 L 264.414062 179.753906 C 267.894531 179.753906 270.722656 182.582031 270.722656 186.0625 C 270.722656 189.546875 267.894531 192.375 264.414062 192.375 L 241.464844 192.375 C 237.972656 192.375 235.15625 189.554688 235.15625 186.0625 Z M 278 89.386719 C 275.539062 86.925781 275.539062 82.929688 278 80.457031 C 280.460938 77.996094 284.453125 77.996094 286.925781 80.457031 L 303.160156 96.695312 C 305.617188 99.15625 305.617188 103.15625 303.160156 105.625 C 301.929688 106.855469 300.308594 107.476562 298.699219 107.476562 C 297.082031 107.476562 295.472656 106.855469 294.242188 105.625 Z M 606.535156 137.726562 C 589.523438 137.726562 575.6875 152.441406 575.6875 170.53125 L 575.6875 283.160156 C 575.6875 286.515625 575.351562 289.734375 574.667969 292.804688 C 573.21875 288.453125 570.875 284.371094 567.644531 280.890625 C 561.820312 274.601562 554.019531 271.140625 545.660156 271.140625 C 537.3125 271.140625 529.5 274.601562 523.6875 280.890625 L 464.578125 344.691406 C 459.207031 350.496094 456.523438 357.847656 456.820312 365.964844 L 456.820312 472.65625 L 447.746094 472.65625 C 444.265625 472.65625 441.4375 475.484375 441.4375 478.96875 L 441.4375 533.753906 C 441.4375 537.234375 444.265625 540.0625 447.746094 540.0625 L 572.273438 540.0625 C 575.75 540.0625 578.578125 537.234375 578.578125 533.753906 L 578.578125 478.96875 C 578.578125 475.484375 575.75 472.65625 572.273438 472.65625 L 563.199219 472.65625 L 563.199219 430.230469 L 623.265625 365.398438 C 632.632812 355.28125 637.382812 342.933594 637.382812 328.691406 L 637.382812 170.53125 C 637.382812 152.441406 623.546875 137.726562 606.535156 137.726562 Z M 565.964844 527.441406 L 454.054688 527.441406 L 454.054688 485.277344 L 565.964844 485.277344 Z M 624.765625 328.683594 C 624.765625 339.640625 621.152344 349.105469 614.011719 356.804688 L 552.261719 423.457031 C 551.179688 424.621094 550.582031 426.160156 550.582031 427.746094 L 550.582031 472.644531 L 469.433594 472.644531 L 469.433594 365.851562 C 469.433594 365.765625 469.433594 365.683594 469.433594 365.597656 C 469.234375 360.78125 470.71875 356.636719 473.839844 353.273438 L 532.949219 289.472656 C 536.355469 285.792969 540.878906 283.773438 545.671875 283.773438 C 550.464844 283.773438 554.988281 285.800781 558.394531 289.472656 C 565.605469 297.253906 565.648438 310.382812 558.507812 318.226562 L 514.476562 365.757812 C 512.109375 368.3125 512.257812 372.308594 514.8125 374.675781 C 517.367188 377.042969 521.363281 376.894531 523.730469 374.339844 L 567.570312 327.007812 C 567.59375 326.988281 567.613281 326.957031 567.636719 326.9375 C 567.6875 326.882812 567.730469 326.832031 567.78125 326.777344 L 574.164062 319.890625 C 583.53125 309.769531 588.285156 297.421875 588.285156 283.183594 L 588.285156 170.53125 C 588.285156 159.402344 596.464844 150.347656 606.515625 150.347656 C 616.566406 150.347656 624.765625 159.402344 624.765625 170.53125 Z M 320.253906 472.644531 L 311.179688 472.644531 L 311.179688 365.964844 C 311.476562 357.847656 308.792969 350.484375 303.421875 344.691406 L 244.3125 280.890625 C 238.488281 274.601562 230.6875 271.140625 222.339844 271.140625 C 213.992188 271.140625 206.179688 274.601562 200.355469 280.890625 C 197.125 284.371094 194.78125 288.453125 193.332031 292.804688 C 192.65625 289.734375 192.3125 286.527344 192.3125 283.160156 L 192.3125 170.53125 C 192.3125 152.441406 178.476562 137.726562 161.464844 137.726562 C 144.453125 137.726562 130.617188 152.441406 130.617188 170.53125 L 130.617188 328.683594 C 130.617188 342.921875 135.367188 355.269531 144.734375 365.386719 L 204.800781 430.21875 L 204.800781 472.644531 L 195.726562 472.644531 C 192.246094 472.644531 189.417969 475.476562 189.417969 478.957031 L 189.417969 533.742188 C 189.417969 537.222656 192.246094 540.050781 195.726562 540.050781 L 320.253906 540.050781 C 323.734375 540.050781 326.5625 537.222656 326.5625 533.742188 L 326.5625 478.957031 C 326.5625 475.476562 323.734375 472.644531 320.253906 472.644531 Z M 215.734375 423.457031 L 153.988281 356.804688 C 146.847656 349.105469 143.230469 339.640625 143.230469 328.683594 L 143.230469 170.53125 C 143.230469 159.402344 151.414062 150.347656 161.464844 150.347656 C 171.515625 150.347656 179.695312 159.402344 179.695312 170.53125 L 179.695312 283.160156 C 179.695312 297.402344 184.445312 309.75 193.816406 319.867188 L 200.164062 326.726562 C 200.226562 326.789062 200.28125 326.851562 200.34375 326.925781 C 200.375 326.957031 200.394531 326.988281 200.429688 327.007812 L 244.261719 374.316406 C 246.625 376.875 250.621094 377.03125 253.175781 374.652344 C 255.730469 372.289062 255.878906 368.289062 253.511719 365.734375 L 209.46875 318.183594 C 202.363281 310.339844 202.40625 297.234375 209.605469 289.453125 C 213.011719 285.769531 217.535156 283.75 222.328125 283.75 C 227.121094 283.75 231.644531 285.78125 235.050781 289.453125 L 294.160156 353.25 C 297.269531 356.617188 298.753906 360.761719 298.5625 365.578125 C 298.5625 365.660156 298.5625 365.746094 298.5625 365.828125 L 298.5625 472.636719 L 217.417969 472.636719 L 217.417969 427.734375 C 217.417969 426.160156 216.820312 424.621094 215.734375 423.457031 Z M 313.945312 527.441406 L 202.035156 527.441406 L 202.035156 485.277344 L 313.945312 485.277344 Z M 313.945312 527.441406 " fill-opacity="1" fill-rule="nonzero"/></g></svg>