<?xml version="1.0" encoding="UTF-8"?><svg id="Layer_1" xmlns="http://www.w3.org/2000/svg" viewBox="0 0 492 542"><defs><style>.cls-1{fill:none;stroke:#ad9fcc;stroke-miterlimit:10;}.cls-2{fill:#fff;}.cls-3{fill:#fdf6f7;}.cls-4{fill:#1a1a1a;}</style></defs><rect class="cls-2" x="1.5" y="1.5" width="489" height="539"/><path class="cls-4" d="M489,3v536H3V3h486M492,0H0v542h492V0h0Z"/><rect class="cls-3" x="46.06" y="41.01" width="399.88" height="459.97"/><path class="cls-1" d="M99.79,241.92c5.22,25.38,29.63,45.44,55.55,45.62,18.54.13,35.79-8.62,52.98-15.56,17.19-6.94,36.81-12.18,53.95-5.11"/><path class="cls-1" d="M398.15,140.52c-16.62,4.44-33.81,9.16-47.09,20.09-17.83,14.67-25.93,40.16-19.86,62.44"/><path class="cls-1" d="M302.62,349.98c-.37,14.77-1.31,31.01-11.5,41.71-10.55,11.08-27.92,12.53-42.89,9.39-14.97-3.13-28.95-10.02-43.92-13.17-14.97-3.14-32.33-1.72-42.9,9.34"/></svg>