<?xml version="1.0" encoding="UTF-8"?><svg id="Layer_1" xmlns="http://www.w3.org/2000/svg" viewBox="0 0 295.87 101.42"><defs><style>.cls-1{font-family:Sora-SemiBold, Sora;font-size:13.41px;font-weight:600;}.cls-2{fill:#fff;stroke:#efefef;stroke-miterlimit:10;}.cls-3{fill:#f2c145;}.cls-4{fill:#fce4ae;}</style></defs><rect class="cls-4" x="114.31" y="36.14" width="181.57" height="29.15" rx="14.57" ry="14.57"/><text class="cls-1" transform="translate(127.43 54.44)"><tspan x="0" y="0">Customer Onboarding</tspan></text><circle class="cls-2" cx="50.71" cy="50.71" r="50.21"/><path class="cls-3" d="M88.71,58.55l-9.53-26.25c-.15-.41-.6-.62-1.01-.47l-11.19,4.06c-.2.07-.36.22-.44.41s-.1.41-.03.6l.46,1.26-3.73.84c-1.75-.83-11.77-5.32-17.15-2.3,0,0,0,0,0,0-.08.04-.84.42-1.84,1.19-4.39-.83-7.9-.52-9.75-.22l.28-.78c.07-.2.06-.41-.03-.6-.09-.19-.25-.33-.44-.41l-11.19-4.06c-.41-.15-.86.06-1.01.47l-9.54,26.25c-.15.41.06.86.47,1.01l11.19,4.06c.09.03.18.05.27.05.11,0,.23-.02.33-.07.19-.09.33-.25.41-.44l.66-1.81c2.88,2.21,12.53,9.41,22.03,14.22.07.04.14.06.22.07.61.34,1.28.52,1.96.52.29,0,.58-.03.86-.09,1.08-.23,2-.86,2.6-1.79.52-.81.72-1.75.62-2.7l2.2,1.41h0s0,0,0,0h0s0,0,0,0c.66.43,1.42.65,2.19.65.28,0,.57-.03.85-.09,1.06-.23,1.96-.85,2.55-1.76.59-.91.79-1.99.56-3.05,0,0,0,0,0,0,.18.02.36.04.54.04.29,0,.58-.03.87-.09,1.08-.23,2-.87,2.59-1.79.65-1,.8-2.18.53-3.25.14.01.28.03.43.03.29,0,.58-.03.87-.09.96-.21,1.79-.75,2.38-1.52l4.5-1.07.79,2.16c.07.2.22.36.41.44.11.05.22.07.33.07.09,0,.18-.02.27-.05l11.19-4.06c.41-.15.62-.6.47-1.01ZM24.04,61.88l-9.71-3.53,9-24.77,9.71,3.53-9,24.77ZM68.05,62.05c-.67.14-1.35.02-1.92-.36,0,0,0,0,0,0,0,0,0,0,0,0l-.78-.5s0,0,0,0,0,0,0,0l-7.97-5.1c-.37-.23-.85-.13-1.09.24-.23.37-.13.85.24,1.09l7.96,5.1c1.18.77,1.52,2.35.75,3.53-.37.57-.94.97-1.6,1.11-.65.14-1.32.02-1.89-.33,0,0-.01-.02-.02-.02l-8.81-5.64c-.37-.24-.85-.13-1.09.24-.23.37-.13.85.24,1.09l7.87,5.04s0,0,0,0c.55.36.93.91,1.07,1.56s.02,1.31-.34,1.86c-.36.55-.91.94-1.56,1.07-.65.14-1.31.02-1.86-.34,0,0,0,0,0,0,0,0,0,0,0,0l-8.66-5.54c-.37-.24-.85-.13-1.09.24s-.13.85.24,1.09l3.63,2.32s.08.1.14.14c.57.37.96.93,1.1,1.6.14.66.02,1.34-.35,1.91-.37.57-.94.96-1.61,1.1-.66.14-1.34.02-1.91-.35-.1-.06-.2-.1-.31-.11-9.83-5.01-19.78-12.56-21.96-14.26l7.41-20.4c1.07-.24,4.4-.81,8.88-.16-1.56,1.6-3.2,4.02-3.85,7.47h0s0,.02,0,.03c0,.01,0,.02,0,.03h0c-.57,2.28.75,3.99,2.37,4.49.35.11.73.17,1.12.17,1.73,0,3.7-1.16,4.76-4.02,0,0,0,0,0,0,.62-1.43,2.78-1.68,3.46-1.72l18.3,11.72h0c.57.37.97.94,1.11,1.61.14.67.02,1.35-.36,1.92-.37.57-.94.97-1.61,1.11ZM71.58,60.25c.09-.51.08-1.04-.03-1.57-.23-1.08-.87-2-1.79-2.6,0,0,0,0,0,0,0,0,0,0,0,0l-18.51-11.85s-.04-.01-.06-.02c-.05-.02-.09-.04-.14-.06-.05-.02-.1-.03-.16-.03-.02,0-.04-.01-.06-.01-.16,0-3.98.03-5.12,2.68,0,0,0,.01,0,.02,0,0,0,.01-.01.02-.95,2.59-2.67,3.34-3.96,2.94-.92-.29-1.68-1.22-1.31-2.65,0,0,0-.02,0-.03,0-.01,0-.02.01-.03,1.16-6.34,6.25-8.89,6.33-8.93,0,0,.01-.01.02-.02s.02,0,.03,0c5.04-2.89,15.87,2.39,15.98,2.44.01,0,.02,0,.04,0,.1.04.2.07.31.07.06,0,.11,0,.17-.02l4.2-.94,7.21,19.85-3.14.75ZM77.26,61.88l-9-24.77,9.71-3.53,9,24.77-9.71,3.53Z"/></svg>