<?xml version="1.0" encoding="UTF-8"?><svg id="Layer_1" xmlns="http://www.w3.org/2000/svg" viewBox="0 0 193.95 70.45"><defs><style>.cls-1{fill:#5852b6;}.cls-2{font-family:Sora-SemiBold, Sora;font-size:13.41px;font-weight:600;}.cls-3{fill:#fff;stroke:#efefef;stroke-miterlimit:10;}.cls-4{fill:#b7b7f7;}</style></defs><rect class="cls-4" x="0" y="20.65" width="112.02" height="29.15" rx="14.57" ry="14.57"/><text class="cls-2" transform="translate(10.53 40.27)"><tspan x="0" y="0">24/7 Support</tspan></text><circle class="cls-3" cx="158.72" cy="35.23" r="34.73"/><path class="cls-1" d="M160.25,46.35v-21.35c0-.25-.2-.44-.44-.44-6.13,0-11.12,4.99-11.12,11.12s4.99,11.12,11.12,11.12c.25,0,.44-.2.44-.44Z"/><path class="cls-1" d="M171.51,35.27c-.21-5.24-4.11-9.7-9.28-10.6-.21-.04-.41.08-.49.27-.08.2,0,.42.17.53,2.87,1.91,4.75,5.66,4.92,9.78.18,4.55-1.74,8.74-4.91,10.69-.18.11-.26.34-.18.54.07.18.23.29.42.29.03,0,.05,0,.08,0,5.51-.95,9.5-5.89,9.28-11.49Z"/><path class="cls-1" d="M159.81,22c.65,0,1.18-.53,1.18-1.18v-7.13c0-.65-.53-1.18-1.18-1.18s-1.18.53-1.18,1.18v7.13c0,.65.53,1.18,1.18,1.18Z"/><path class="cls-1" d="M148.47,25.97c.22.22.52.35.84.35s.61-.12.84-.35c.22-.22.35-.52.35-.84s-.12-.61-.35-.84l-4.94-4.94c-.45-.45-1.23-.45-1.67,0-.46.46-.46,1.21,0,1.67l4.94,4.94Z"/><path class="cls-1" d="M159.81,49.16c-.65,0-1.18.53-1.18,1.18v7.13c0,.65.53,1.18,1.18,1.18s1.18-.53,1.18-1.18v-7.13c0-.65-.53-1.18-1.18-1.18Z"/><path class="cls-1" d="M149.31,44.85c-.32,0-.61.12-.84.35l-4.94,4.94c-.46.46-.46,1.21,0,1.67.45.45,1.23.45,1.67,0l4.94-4.94c.22-.22.35-.52.35-.84s-.12-.61-.35-.84c-.22-.22-.52-.35-.84-.35Z"/><path class="cls-1" d="M146.18,35.64c0-.65-.53-1.18-1.18-1.18h-7.68c-.65,0-1.18.53-1.18,1.18s.53,1.18,1.18,1.18h7.68c.65,0,1.18-.53,1.18-1.18Z"/><path class="cls-1" d="M174.3,21.99c-1.46-.39-1.73-.73-2.05-2.55-.03-.15-.16-.26-.31-.26h0c-.15,0-.28.11-.31.26-.33,1.82-.6,2.15-2.06,2.55-.14.04-.23.16-.23.3s.09.26.23.3c1.46.4,1.73.73,2.06,2.55.03.15.16.26.31.26h0c.15,0,.28-.11.31-.26.33-1.82.59-2.15,2.05-2.55.14-.04.23-.16.23-.3s-.09-.26-.23-.3Z"/><path class="cls-1" d="M174.3,49.14c-1.46-.39-1.73-.73-2.05-2.55-.03-.15-.16-.26-.31-.26h0c-.15,0-.28.11-.31.26-.33,1.82-.6,2.15-2.06,2.55-.14.04-.23.16-.23.3s.09.27.23.3c1.46.39,1.73.73,2.06,2.55.03.15.16.26.31.26h0c.15,0,.28-.11.31-.26.33-1.82.59-2.15,2.05-2.55.14-.04.23-.16.23-.3s-.09-.26-.23-.3Z"/><path class="cls-1" d="M181.1,35.17c-1.96-.59-2.34-1.08-2.72-3.55-.02-.15-.15-.26-.3-.26-.15,0-.28.1-.31.25-.51,2.45-.92,2.92-2.9,3.41-.14.03-.23.15-.24.3,0,.14.09.27.22.31,1.97.59,2.35,1.08,2.73,3.55.02.15.15.26.3.26h0c.15,0,.28-.1.31-.25.5-2.44.91-2.92,2.9-3.41.14-.03.23-.15.24-.3,0-.14-.09-.27-.22-.31Z"/></svg>