<?xml version="1.0" encoding="UTF-8"?><svg id="Layer_1" xmlns="http://www.w3.org/2000/svg" viewBox="0 0 128.91 128.91"><defs><style>.cls-1{fill:#fff;stroke:#efefef;stroke-miterlimit:10;}</style></defs><circle class="cls-1" cx="64.46" cy="64.46" r="63.96"/><path d="M62.51,73.88c-5.72,10.22-11.2,20.01-16.68,29.8-.72,1.28-1.31,2.89-3.22,2.3-1.86-.58-1.41-2.22-1.26-3.6,1.09-9.9,2.21-19.81,3.31-29.71,1.11-9.95,2.21-19.91,3.32-29.87.05-.47.09-.94.18-1.4.42-2.09,2.16-2.7,3.71-1.23,2.21,2.1,4.33,4.29,6.49,6.44,2.86,2.85,5.72,5.71,8.71,8.69,2.04-3.81,4.01-7.49,5.98-11.16,3.44-6.43,6.87-12.85,10.3-19.28.61-1.14,1.18-2.35,2.8-1.99,1.17.27,1.74,1.65,1.54,3.38-2.2,19.49-4.4,38.98-6.61,58.47-.09.78-.04,1.62-.32,2.33-.32.81-.79,1.9-1.46,2.14-.67.24-1.89-.2-2.46-.75-3.98-3.82-7.86-7.74-11.75-11.66-.85-.85-1.6-1.79-2.58-2.9Z"/></svg>