<?xml version="1.0" encoding="UTF-8"?><svg id="Layer_1" xmlns="http://www.w3.org/2000/svg" viewBox="0 0 301.93 121.27"><defs><style>.cls-1{font-family:Sora-SemiBold, Sora;font-size:13.41px;font-weight:600;}.cls-2{fill:#fff;stroke:#efefef;stroke-miterlimit:10;}.cls-3{fill:#ed7879;}.cls-4{fill:#f9c5c8;}</style></defs><rect class="cls-4" x="135.37" y="46.06" width="166.57" height="29.15" rx="14.57" ry="14.57"/><text class="cls-1" transform="translate(149.97 64.93)"><tspan x="0" y="0">Personal Concierge</tspan></text><circle class="cls-2" cx="60.63" cy="60.63" r="60.13"/><path class="cls-3" d="M62.01,92.38h-1.19c-.57-7.93-6.88-14.23-14.8-14.8v-3.47h2.86c.63,0,1.14-.51,1.14-1.14s-.51-1.14-1.14-1.14h-8c-.63,0-1.14.51-1.14,1.14s.51,1.14,1.14,1.14h2.86v3.47c-7.93.57-14.23,6.88-14.8,14.8h-1.19c-.63,0-1.14.51-1.14,1.14s.51,1.14,1.14,1.14h34.27c.63,0,1.14-.51,1.14-1.14s-.51-1.14-1.14-1.14ZM44.88,79.81c7.13,0,13.06,5.46,13.66,12.56h-27.31c.59-7.1,6.53-12.56,13.66-12.56Z"/><path class="cls-3" d="M99.39,39.19l-16.51-17.28c-.21-.22-.5-.35-.8-.35-.3,0-.6.11-.82.31l-6.53,6.24-34.55,33.01c-1.94,1.85-2.01,4.92-.16,6.86.89.93,2.12,1.48,3.41,1.5h.11c1.25,0,2.45-.48,3.35-1.35l11.29-10.78c.32.61.72,1.18,1.21,1.68l8.05,8.44c1.57,1.65,3.74,2.61,6.02,2.66h.2c2.21,0,4.34-.85,5.93-2.38l8.44-8.06c.89-.87,1.42-2.05,1.47-3.3.07-1.32-.4-2.61-1.31-3.56-.64-.66-1.47-1.11-2.38-1.29l2.34-2.24c1.01-.95,1.66-2.22,1.84-3.6l1.24,1.3c.21.22.5.34.8.35h0c.29,0,.58-.11.79-.31l6.53-6.24c.45-.43.47-1.15.04-1.61ZM83.25,38.7l3.43,3.6c1.45,1.52,1.4,3.92-.12,5.37l-5.25,5.01h0l-8.45,8.06c-.47.42-.52,1.14-.11,1.61.42.47,1.14.52,1.61.11.02-.02.05-.04.07-.07l8.45-8.08c.74-.7,2.66-.94,3.63.09.48.5.72,1.19.68,1.88-.02.66-.29,1.29-.76,1.76l-8.44,8.06c-2.5,2.41-6.48,2.33-8.88-.17-.01-.01-.02-.02-.03-.03l-.04-.05c-.99-1.02-1.53-2.39-1.5-3.82.08-1.76.84-3.42,2.11-4.64.47-.42.52-1.14.11-1.61s-1.14-.52-1.61-.11c-.02.02-.05.04-.07.07-1.7,1.61-2.71,3.81-2.81,6.15-.93-1-1.43-2.33-1.39-3.7.08-1.77.84-3.44,2.12-4.66.47-.42.52-1.14.11-1.61s-1.14-.52-1.61-.11c-.02.02-.05.04-.07.07-1.7,1.61-2.71,3.82-2.82,6.16l-.57-.61c-1.04-.98-1.48-2.44-1.14-3.83.42-1.51,1.28-2.87,2.45-3.91.44-.46.42-1.18-.03-1.61-.43-.41-1.1-.43-1.54-.04-1.5,1.35-2.58,3.11-3.11,5.07-.13.56-.18,1.14-.15,1.71l-.06.05-12.13,11.62c-1.05.96-2.68.89-3.64-.16-.93-1.02-.9-2.59.08-3.56l33.72-32.22,7.76,8.14ZM92.07,44.62l-3.72-3.9h0l-3.43-3.61h0l-7.78-8.13,4.85-4.67,14.92,15.62-4.85,4.68Z"/></svg>