<?xml version="1.0" encoding="UTF-8" standalone="no"?>
<!-- Created with Inkscape (http://www.inkscape.org/) -->

<svg
   version="1.1"
   id="svg2"
   width="533.33331"
   height="533.33331"
   viewBox="0 0 533.33331 533.33331"
   sodipodi:docname="twitter-icon-circle-blue-seeklogo.eps"
   xmlns:inkscape="http://www.inkscape.org/namespaces/inkscape"
   xmlns:sodipodi="http://sodipodi.sourceforge.net/DTD/sodipodi-0.dtd"
   xmlns="http://www.w3.org/2000/svg"
   xmlns:svg="http://www.w3.org/2000/svg">
  <defs
     id="defs6" />
  <sodipodi:namedview
     id="namedview4"
     pagecolor="#ffffff"
     bordercolor="#000000"
     borderopacity="0.25"
     inkscape:showpageshadow="2"
     inkscape:pageopacity="0.0"
     inkscape:pagecheckerboard="0"
     inkscape:deskcolor="#d1d1d1" />
  <g
     id="g8"
     inkscape:groupmode="layer"
     inkscape:label="ink_ext_XXXXXX"
     transform="matrix(1.3333333,0,0,-1.3333333,0,533.33333)">
    <g
       id="g10"
       transform="scale(0.1)">
      <path
         d="M 4000,2000 C 4000,895.43 3104.57,0 2000,0 895.43,0 0,895.43 0,2000 c 0,1104.57 895.43,2000 2000,2000 1104.57,0 2000,-895.43 2000,-2000"
         style="fill:#569cda;fill-opacity:1;fill-rule:nonzero;stroke:none"
         id="path12" />
      <path
         d="m 1564.06,1045.07 c 886.83,0 1371.79,734.71 1371.79,1371.79 0,20.88 -0.42,41.66 -1.37,62.33 94.13,68.05 175.96,152.96 240.52,249.64 -86.39,-38.37 -179.36,-64.24 -276.88,-75.9 99.54,59.68 175.96,154.13 212.01,266.7 -93.18,-55.22 -196.32,-95.4 -306.14,-117.02 -87.99,93.71 -213.28,152.32 -351.94,152.32 -266.28,0 -482.21,-215.92 -482.21,-482.1 0,-37.84 4.24,-74.63 12.51,-109.93 -400.7,20.14 -756.02,212.01 -993.787,503.73 -41.446,-71.23 -65.297,-154.02 -65.297,-242.32 0,-167.28 85.124,-314.94 214.554,-401.33 -79.08,2.43 -153.39,24.17 -218.371,60.31 -0.105,-2.01 -0.105,-4.03 -0.105,-6.14 0,-233.53 166.216,-428.47 386.806,-472.68 -40.49,-11.02 -83.11,-16.96 -127.1,-16.96 -31.06,0 -61.27,3.08 -90.63,8.7 61.38,-191.55 239.36,-330.95 450.41,-334.87 -165.05,-129.32 -372.92,-206.39 -598.814,-206.39 -38.907,0 -77.278,2.23 -115.016,6.68 213.39,-136.74 466.74,-216.56 739.06,-216.56"
         style="fill:#ffffff;fill-opacity:1;fill-rule:nonzero;stroke:none"
         id="path14" />
    </g>
  </g>
</svg>
