<?xml version="1.0" encoding="UTF-8" standalone="no"?>
<!-- Created with Inkscape (http://www.inkscape.org/) -->

<svg
   version="1.1"
   id="svg2"
   width="996.05334"
   height="995.98669"
   viewBox="0 0 996.05334 995.98669"
   sodipodi:docname="youtube-icon-seeklogo.eps"
   xmlns:inkscape="http://www.inkscape.org/namespaces/inkscape"
   xmlns:sodipodi="http://sodipodi.sourceforge.net/DTD/sodipodi-0.dtd"
   xmlns="http://www.w3.org/2000/svg"
   xmlns:svg="http://www.w3.org/2000/svg">
  <defs
     id="defs6" />
  <sodipodi:namedview
     id="namedview4"
     pagecolor="#ffffff"
     bordercolor="#000000"
     borderopacity="0.25"
     inkscape:showpageshadow="2"
     inkscape:pageopacity="0.0"
     inkscape:pagecheckerboard="0"
     inkscape:deskcolor="#d1d1d1" />
  <g
     id="g8"
     inkscape:groupmode="layer"
     inkscape:label="ink_ext_XXXXXX"
     transform="matrix(1.3333333,0,0,-1.3333333,0,995.98667)">
    <g
       id="g10"
       transform="scale(0.1)">
      <path
         d="M 7470.45,3734.81 C 7470.45,1671.67 5797.96,0 3735.11,0 1672.2,0 0,1671.67 0,3734.81 c 0,2063.15 1672.2,3735.11 3735.11,3735.11 2062.85,0 3735.34,-1671.96 3735.34,-3735.11"
         style="fill:#dd1e25;fill-opacity:1;fill-rule:nonzero;stroke:none"
         id="path12" />
      <path
         d="m 5888.64,2926.9 c 0,-375.33 -304.15,-679.77 -680.01,-679.77 H 2261.58 c -375.33,0 -680.07,304.44 -680.07,679.77 v 1615.83 c 0,375.33 304.74,679.78 680.07,679.78 h 2947.05 c 375.86,0 680.01,-304.45 680.01,-679.78 V 2926.9"
         style="fill:#ebedef;fill-opacity:1;fill-rule:nonzero;stroke:none"
         id="path14" />
      <path
         d="M 4894.2,3734.81 3335.68,2601.21 v 2267.21 z"
         style="fill:#dd1e25;fill-opacity:1;fill-rule:nonzero;stroke:none"
         id="path16" />
    </g>
  </g>
</svg>
