z_web_IG-07<?xml version="1.0" encoding="UTF-8"?><svg id="Layer_1" xmlns="http://www.w3.org/2000/svg" xmlns:xlink="http://www.w3.org/1999/xlink" viewBox="0 0 630 700"><defs><style>.cls-1{font-family:GeneralSansVariable-Semibold, 'General Sans Variable';font-variation-settings:'wght' 600;font-weight:600;}.cls-2{fill:#fff;}.cls-2,.cls-3{font-size:19.17px;}.cls-4{fill:#efefef;}.cls-5{fill:url(#linear-gradient);}.cls-6{font-family:GeneralSansVariable-Medium, 'General Sans Variable';font-variation-settings:'wght' 500;font-weight:500;}.cls-7{fill:#4e81fe;}.cls-8{fill:#66caf2;}.cls-9{fill:none;stroke:#4f555e;stroke-miterlimit:10;stroke-width:1.03px;}.cls-10{fill:#efeeef;}.cls-11{fill:#4e80ff;}</style><linearGradient id="linear-gradient" x1="315" y1="-2.42" x2="315" y2="699" gradientUnits="userSpaceOnUse"><stop offset="0" stop-color="#fdf6f7"/><stop offset="1" stop-color="#d7d5fa"/></linearGradient></defs><rect class="cls-5" width="630" height="699.2" rx="50.66" ry="50.66"/><rect class="cls-7" x="283.91" y="263.46" width="60.99" height="402.55" rx="30.49" ry="30.49" transform="translate(779.13 150.34) rotate(90)"/><text class="cls-2" transform="translate(156.13 469.33)"><tspan class="cls-1" x="0" y="0">User</tspan><tspan class="cls-6" x="43.45" y="0">: I’m free on Thursday at 3PM.</tspan></text><circle class="cls-4" cx="545.46" cy="464.73" r="17.32"/><circle class="cls-9" cx="545.46" cy="459.41" r="5.32"/><path class="cls-9" d="M536.51,473.68c0-4.94,4.01-8.95,8.95-8.95s8.95,4.01,8.95,8.95"/><rect class="cls-11" x="276.12" y="-75.18" width="98.41" height="380.7" rx="35" ry="35" transform="translate(440.49 -210.15) rotate(90)"/><text class="cls-2" transform="translate(163.28 101.05)"><tspan class="cls-1" x="0" y="0">User</tspan><tspan class="cls-6" x="43.45" y="0">: I am really struggling. We want </tspan><tspan class="cls-6"><tspan x="0" y="21.61">to have a baby but the IVF process is </tspan></tspan><tspan class="cls-6"><tspan x="0" y="43.21">overwhelming</tspan></tspan></text><circle class="cls-4" cx="545.46" cy="115.17" r="17.32"/><circle class="cls-9" cx="545.46" cy="109.85" r="5.32"/><path class="cls-9" d="M536.51,124.12c0-4.94,4.01-8.95,8.95-8.95s8.95,4.01,8.95,8.95"/><rect class="cls-10" x="263.68" y="39.24" width="78.41" height="379.53" rx="35" ry="35" transform="translate(531.89 -73.89) rotate(90)"/><text class="cls-3" transform="translate(136.15 224.88)"><tspan class="cls-1" x="0" y="0">Zigment</tspan><tspan class="cls-6" x="77.11" y="0">: I understand how difficult </tspan><tspan class="cls-6"><tspan x="0" y="21.61">this journy can be.</tspan></tspan></text><circle class="cls-4" cx="84.54" cy="229" r="17.32"/><path d="M84.01,231.55c-1.55,2.77-3.03,5.42-4.52,8.07-.19.35-.35.78-.87.62-.5-.16-.38-.6-.34-.98.3-2.68.6-5.36.9-8.04.3-2.7.6-5.39.9-8.09.01-.13.02-.25.05-.38.11-.56.58-.73,1-.33.6.57,1.17,1.16,1.76,1.74.77.77,1.55,1.55,2.36,2.35.55-1.03,1.09-2.03,1.62-3.02.93-1.74,1.86-3.48,2.79-5.22.16-.31.32-.64.76-.54.32.07.47.45.42.91-.6,5.28-1.19,10.55-1.79,15.83-.02.21-.01.44-.09.63-.09.22-.21.51-.39.58-.18.06-.51-.05-.67-.2-1.08-1.03-2.13-2.1-3.18-3.16-.23-.23-.43-.49-.7-.78Z"/><rect class="cls-10" x="245.35" y="161.31" width="115.07" height="379.53" rx="35" ry="35" transform="translate(653.96 48.18) rotate(90)"/><path d="M147.78,328.62h-10.85v-2.3l7.03-8.95h-7.02v-2.51h10.6v2.34l-7.07,8.91h7.3v2.51Z"/><path d="M152.77,316.01c0,.45-.16.82-.49,1.12-.33.3-.76.45-1.29.45s-.95-.15-1.28-.45c-.33-.3-.49-.67-.49-1.12,0-.47.16-.86.49-1.16.33-.3.75-.45,1.28-.45s.97.15,1.29.45c.33.3.49.69.49,1.16ZM152.34,328.62h-2.66v-10.24h2.66v10.24Z"/><path d="M159.07,332.51c-.91,0-1.71-.16-2.42-.47-.7-.31-1.25-.76-1.65-1.34-.4-.58-.61-1.26-.65-2.04h2.57c.06.59.27,1.03.63,1.33.36.3.86.45,1.5.45.74,0,1.3-.19,1.68-.58.38-.38.57-.95.57-1.69v-1.5c-.28.49-.67.87-1.17,1.14-.5.28-1.06.41-1.69.41-.83,0-1.58-.22-2.24-.65s-1.19-1.03-1.57-1.79c-.38-.76-.58-1.62-.58-2.58s.18-1.87.55-2.63.87-1.34,1.51-1.76,1.39-.63,2.23-.63c.69,0,1.3.13,1.82.39s.97.66,1.34,1.2v-1.4h2.43v9.76c0,1.37-.43,2.44-1.29,3.21-.86.77-2.05,1.16-3.58,1.16ZM156.72,323.21c0,.83.2,1.49.61,1.98.41.49.95.74,1.63.74.47,0,.88-.11,1.23-.33.34-.22.61-.54.8-.95s.29-.88.29-1.42c0-.83-.21-1.5-.63-1.99-.42-.5-.98-.75-1.69-.75s-1.22.25-1.63.74c-.41.49-.61,1.15-.61,1.98Z"/><path d="M169,328.62h-2.66v-10.24h2.45v1.46c.37-.52.81-.93,1.3-1.22.5-.29,1.09-.43,1.76-.43s1.31.16,1.83.47c.52.31.9.76,1.16,1.35.41-.56.88-1.01,1.42-1.33s1.19-.49,1.96-.49c1.04,0,1.87.33,2.51.99.64.66.96,1.6.96,2.83v6.61h-2.65v-5.77c0-.73-.15-1.29-.45-1.7-.3-.4-.75-.6-1.33-.6-.35,0-.67.09-.96.28-.29.19-.53.45-.7.8s-.26.77-.26,1.28v5.71h-2.65v-5.77c0-.73-.15-1.29-.45-1.7-.3-.4-.74-.6-1.33-.6-.36,0-.68.09-.98.28-.29.19-.52.45-.69.8s-.25.77-.25,1.28v5.71Z"/><path d="M188.42,328.79c-1.02,0-1.92-.22-2.69-.66-.77-.44-1.37-1.06-1.79-1.87-.42-.81-.63-1.74-.63-2.8s.22-1.93.65-2.72c.43-.79,1.04-1.42,1.8-1.87.77-.45,1.64-.68,2.63-.68.81,0,1.54.15,2.2.45.66.3,1.21.73,1.66,1.27.45.55.77,1.19.96,1.91s.22,1.5.1,2.33h-8.42v-1.69h5.6c-.03-.72-.23-1.28-.62-1.7-.39-.42-.9-.62-1.52-.62-.5,0-.92.13-1.26.38-.34.26-.61.63-.8,1.12-.18.49-.28,1.1-.28,1.81s.09,1.3.27,1.78c.18.49.45.86.8,1.11.36.26.79.38,1.3.38.59,0,1.07-.14,1.46-.42.38-.28.65-.67.81-1.17h2.64c-.29,1.15-.86,2.04-1.71,2.68-.84.64-1.89.96-3.14.96Z"/><path d="M197.73,323.04v5.58h-2.66v-10.24h2.45v1.46c.38-.51.83-.91,1.35-1.21s1.11-.44,1.79-.44c1.04,0,1.87.33,2.51.99.64.66.96,1.6.96,2.83v6.61h-2.65v-5.71c0-.77-.15-1.35-.45-1.75-.3-.4-.75-.6-1.35-.6-.36,0-.69.09-.99.28-.3.19-.54.46-.71.82s-.26.83-.26,1.39Z"/><path d="M212.72,326.03v2.32c-.32.17-.64.28-.97.35s-.69.11-1.08.11c-.69,0-1.29-.13-1.81-.39s-.92-.66-1.2-1.19c-.28-.53-.42-1.17-.42-1.93v-4.64h-2.07v-2.28h2.07v-3.03h2.64v3.03h2.93v2.28h-2.93v4.02c0,.59.13,1.01.39,1.28.26.26.63.39,1.1.39.26,0,.5-.03.73-.09.23-.06.43-.14.61-.24Z"/><path d="M217.23,319.92c0,.43-.14.79-.41,1.06s-.63.41-1.06.41-.77-.14-1.05-.41c-.28-.27-.42-.63-.42-1.06s.14-.81.42-1.08c.28-.27.63-.41,1.05-.41s.79.14,1.06.41c.27.28.41.64.41,1.08ZM217.23,327.24c0,.42-.14.77-.41,1.05-.28.28-.63.42-1.06.42s-.77-.14-1.05-.42c-.28-.28-.42-.63-.42-1.05,0-.45.14-.81.42-1.09s.63-.42,1.05-.42.79.14,1.06.42c.27.28.41.65.41,1.09Z"/><path d="M229.48,323.46v5.16h-2.13v-5.16l-4.95-8.61h2.3l3.78,6.63,3.81-6.63h2.15l-4.96,8.61Z"/><path d="M238.37,328.81c-.72,0-1.38-.13-1.98-.39-.61-.26-1.13-.63-1.58-1.11-.45-.48-.8-1.04-1.04-1.68-.25-.64-.37-1.33-.37-2.09s.12-1.45.37-2.09c.25-.64.6-1.2,1.04-1.68.45-.48.97-.85,1.58-1.11.61-.26,1.27-.39,1.98-.39s1.4.13,2,.39c.61.26,1.13.63,1.57,1.11.44.48.79,1.04,1.04,1.68.25.64.37,1.34.37,2.09s-.12,1.45-.37,2.09c-.25.64-.59,1.2-1.04,1.68-.44.48-.96.85-1.57,1.11-.61.26-1.27.39-2,.39ZM238.37,327.1c.56,0,1.07-.14,1.52-.43.45-.29.81-.7,1.07-1.24.26-.54.39-1.17.39-1.9s-.13-1.38-.39-1.91c-.26-.53-.62-.94-1.07-1.22-.45-.28-.96-.42-1.52-.42s-1.05.14-1.5.42c-.45.28-.81.69-1.07,1.22s-.39,1.17-.39,1.91.13,1.36.39,1.9c.26.54.62.95,1.07,1.24.45.29.96.43,1.5.43Z"/><path d="M251.67,324.44v-5.98h1.94v10.16h-1.8v-1.59c-.26.51-.66.94-1.23,1.27-.56.34-1.19.51-1.88.51s-1.28-.13-1.81-.4c-.53-.27-.94-.69-1.23-1.26-.29-.57-.43-1.29-.43-2.16v-6.54h1.94v6.15c0,.88.2,1.52.59,1.91.4.39.91.58,1.55.58.43,0,.83-.11,1.19-.33.36-.22.64-.54.85-.94s.32-.87.32-1.39Z"/><path d="M259.11,316.6c0,.42-.08.82-.25,1.18-.17.36-.4.68-.71.95s-.67.47-1.07.61c-.41.14-.85.19-1.32.15v-1.04c.54.03.99-.08,1.35-.32.36-.24.58-.57.66-1.01-.08.03-.15.04-.23.06-.08.01-.15.02-.21.02-.36,0-.66-.12-.89-.36-.24-.24-.35-.51-.35-.83,0-.4.13-.71.39-.94.26-.23.6-.34,1.03-.34.51,0,.91.17,1.19.51s.42.79.42,1.35Z"/><path d="M263.31,323.42v5.19h-1.94v-10.16h1.8v2.15c.36-.7.89-1.26,1.6-1.67s1.48-.61,2.31-.61v2.01c-.73-.04-1.38.04-1.95.25-.57.2-1.02.54-1.34,1.01-.33.47-.49,1.08-.49,1.83Z"/><path d="M272.76,328.81c-.98,0-1.84-.22-2.58-.66-.74-.44-1.31-1.06-1.72-1.87-.41-.8-.61-1.74-.61-2.8s.21-1.9.63-2.68,1-1.4,1.72-1.85,1.56-.68,2.49-.68c.77,0,1.45.14,2.06.43.61.29,1.12.69,1.55,1.21.43.52.74,1.12.93,1.82.19.7.24,1.46.15,2.29h-8.42v-1.28h6.36c-.04-.95-.3-1.68-.78-2.21-.48-.53-1.12-.79-1.91-.79-.58,0-1.08.15-1.5.45-.43.3-.76.73-1,1.28s-.35,1.23-.35,2.02.12,1.47.34,2.04c.23.57.56,1.01,1,1.31s.96.46,1.57.46c.73,0,1.33-.19,1.81-.56.48-.37.8-.89.95-1.55h1.92c-.24,1.12-.78,2.01-1.6,2.65s-1.84.97-3.04.97Z"/><path d="M285.39,322.89v5.73h-1.94v-10.16h1.8v1.69c.34-.56.79-1.02,1.35-1.36.56-.34,1.18-.52,1.89-.52,1.05,0,1.89.33,2.52.98s.95,1.58.95,2.8v6.57h-1.94v-5.92c0-.87-.19-1.54-.56-2.01-.37-.47-.92-.71-1.65-.71-.45,0-.86.12-1.23.35-.37.24-.67.57-.88,1.01-.22.43-.33.95-.33,1.55Z"/><path d="M298.79,328.81c-.72,0-1.38-.13-1.98-.39-.61-.26-1.13-.63-1.58-1.11-.45-.48-.8-1.04-1.04-1.68-.25-.64-.37-1.33-.37-2.09s.12-1.45.37-2.09c.25-.64.6-1.2,1.04-1.68.45-.48.97-.85,1.58-1.11.61-.26,1.27-.39,1.98-.39s1.4.13,2,.39c.61.26,1.13.63,1.57,1.11.44.48.79,1.04,1.04,1.68.25.64.37,1.34.37,2.09s-.12,1.45-.37,2.09c-.25.64-.59,1.2-1.04,1.68-.44.48-.96.85-1.57,1.11-.61.26-1.27.39-2,.39ZM298.79,327.1c.56,0,1.07-.14,1.52-.43.45-.29.81-.7,1.07-1.24.26-.54.39-1.17.39-1.9s-.13-1.38-.39-1.91c-.26-.53-.62-.94-1.07-1.22-.45-.28-.96-.42-1.52-.42s-1.05.14-1.5.42c-.45.28-.81.69-1.07,1.22s-.39,1.17-.39,1.91.13,1.36.39,1.9c.26.54.62.95,1.07,1.24.45.29.96.43,1.5.43Z"/><path d="M311.28,326.74v1.71c-.29.14-.58.24-.85.29-.27.05-.57.08-.87.08-.63,0-1.18-.11-1.66-.34-.48-.23-.85-.59-1.12-1.07s-.4-1.1-.4-1.84v-5.44h-2.24v-1.65h2.24v-3.01h1.94v3.01h3.07v1.65h-3.07v5c0,.7.16,1.2.47,1.48.31.28.73.42,1.24.42.23,0,.45-.02.66-.07s.41-.11.6-.2Z"/><path d="M323.38,328.62v-1.57c-.32.56-.75,1-1.3,1.3-.55.31-1.2.46-1.96.46-1.05,0-1.89-.28-2.53-.83-.64-.56-.96-1.3-.96-2.23,0-1,.39-1.75,1.18-2.26.79-.51,1.93-.77,3.44-.77.29,0,.58,0,.86.02.28.01.63.04,1.04.1v-.75c0-.72-.19-1.27-.56-1.68-.37-.4-.89-.6-1.57-.6s-1.26.2-1.68.6c-.42.4-.64.96-.66,1.66h-1.76c.03-.77.21-1.43.57-2,.35-.57.83-1.01,1.44-1.32.61-.31,1.31-.47,2.1-.47,1.25,0,2.23.34,2.92,1.01.7.67,1.04,1.61,1.04,2.83v6.52h-1.61ZM318.47,325.69c0,.52.18.95.56,1.26.37.32.86.48,1.48.48.82,0,1.46-.23,1.94-.7.47-.47.71-1.09.71-1.87v-.82c-.37-.04-.7-.07-.98-.09-.28-.02-.55-.03-.8-.03-.97,0-1.7.14-2.18.43-.48.29-.72.73-.72,1.33Z"/><path d="M329.53,328.62h-1.96v-13.76h1.96v13.76Z"/><path d="M336.47,328.81c-.72,0-1.38-.13-1.98-.39-.61-.26-1.13-.63-1.58-1.11-.45-.48-.8-1.04-1.04-1.68-.25-.64-.37-1.33-.37-2.09s.12-1.45.37-2.09c.25-.64.6-1.2,1.04-1.68.45-.48.97-.85,1.58-1.11.61-.26,1.27-.39,1.98-.39s1.4.13,2,.39c.61.26,1.13.63,1.57,1.11.44.48.79,1.04,1.04,1.68.25.64.37,1.34.37,2.09s-.12,1.45-.37,2.09c-.25.64-.59,1.2-1.04,1.68-.44.48-.96.85-1.57,1.11-.61.26-1.27.39-2,.39ZM336.47,327.1c.56,0,1.07-.14,1.52-.43.45-.29.81-.7,1.07-1.24.26-.54.39-1.17.39-1.9s-.13-1.38-.39-1.91c-.26-.53-.62-.94-1.07-1.22-.45-.28-.96-.42-1.52-.42s-1.05.14-1.5.42c-.45.28-.81.69-1.07,1.22s-.39,1.17-.39,1.91.13,1.36.39,1.9c.26.54.62.95,1.07,1.24.45.29.96.43,1.5.43Z"/><path d="M345.36,322.89v5.73h-1.94v-10.16h1.8v1.69c.34-.56.79-1.02,1.35-1.36.56-.34,1.18-.52,1.89-.52,1.05,0,1.89.33,2.52.98s.95,1.58.95,2.8v6.57h-1.94v-5.92c0-.87-.19-1.54-.56-2.01-.37-.47-.92-.71-1.65-.71-.45,0-.86.12-1.23.35-.37.24-.67.57-.88,1.01-.22.43-.33.95-.33,1.55Z"/><path d="M358.68,328.81c-.98,0-1.84-.22-2.58-.66-.74-.44-1.31-1.06-1.72-1.87-.41-.8-.61-1.74-.61-2.8s.21-1.9.63-2.68,1-1.4,1.72-1.85,1.56-.68,2.49-.68c.77,0,1.45.14,2.06.43.61.29,1.12.69,1.55,1.21.43.52.74,1.12.93,1.82.19.7.24,1.46.15,2.29h-8.42v-1.28h6.36c-.04-.95-.3-1.68-.78-2.21-.48-.53-1.12-.79-1.91-.79-.58,0-1.08.15-1.5.45-.43.3-.76.73-1,1.28s-.35,1.23-.35,2.02.12,1.47.34,2.04c.23.57.56,1.01,1,1.31s.96.46,1.57.46c.73,0,1.33-.19,1.81-.56.48-.37.8-.89.95-1.55h1.92c-.24,1.12-.78,2.01-1.6,2.65s-1.84.97-3.04.97Z"/><path d="M367.71,327.24c0,.42-.14.77-.41,1.05-.28.28-.63.42-1.06.42s-.77-.14-1.05-.42c-.28-.28-.42-.63-.42-1.05,0-.45.14-.81.42-1.09s.63-.42,1.05-.42.79.14,1.06.42c.27.28.41.65.41,1.09Z"/><path d="M382.57,328.62h-8.34v-13.76h2.11v11.87h6.23v1.9Z"/><path d="M388.38,328.81c-.98,0-1.84-.22-2.58-.66-.74-.44-1.31-1.06-1.72-1.87-.41-.8-.61-1.74-.61-2.8s.21-1.9.63-2.68,1-1.4,1.72-1.85,1.56-.68,2.49-.68c.77,0,1.45.14,2.06.43.61.29,1.12.69,1.55,1.21.43.52.74,1.12.93,1.82.19.7.24,1.46.15,2.29h-8.42v-1.28h6.36c-.04-.95-.3-1.68-.78-2.21-.48-.53-1.12-.79-1.91-.79-.58,0-1.08.15-1.5.45-.43.3-.76.73-1,1.28s-.35,1.23-.35,2.02.12,1.47.34,2.04c.23.57.56,1.01,1,1.31s.96.46,1.57.46c.73,0,1.33-.19,1.81-.56.48-.37.8-.89.95-1.55h1.92c-.24,1.12-.78,2.01-1.6,2.65s-1.84.97-3.04.97Z"/><path d="M400.76,326.74v1.71c-.29.14-.58.24-.85.29-.27.05-.57.08-.87.08-.63,0-1.18-.11-1.66-.34-.48-.23-.85-.59-1.12-1.07s-.4-1.1-.4-1.84v-5.44h-2.24v-1.65h2.24v-3.01h1.94v3.01h3.07v1.65h-3.07v5c0,.7.16,1.2.47,1.48.31.28.73.42,1.24.42.23,0,.45-.02.66-.07s.41-.11.6-.2Z"/><path d="M408.63,328.62h-1.94v-10.16h1.8v1.69c.34-.59.79-1.05,1.32-1.38.54-.33,1.16-.5,1.86-.5.74,0,1.38.18,1.93.55.54.36.93.89,1.16,1.56.36-.65.82-1.17,1.4-1.54s1.25-.57,2.03-.57c1.05,0,1.88.33,2.5.99.62.66.93,1.59.93,2.79v6.57h-1.94v-5.96c0-.86-.18-1.52-.56-1.98-.37-.47-.91-.7-1.61-.7-.43,0-.83.12-1.2.35s-.66.57-.87.99c-.22.42-.33.91-.33,1.48v5.83h-1.94v-5.96c0-.86-.18-1.52-.55-1.98-.36-.47-.9-.7-1.62-.7-.45,0-.85.12-1.22.35s-.65.57-.86.99-.32.91-.32,1.48v5.83Z"/><path d="M428.4,328.81c-.98,0-1.84-.22-2.58-.66-.74-.44-1.31-1.06-1.72-1.87-.41-.8-.61-1.74-.61-2.8s.21-1.9.63-2.68,1-1.4,1.72-1.85,1.56-.68,2.49-.68c.77,0,1.45.14,2.06.43.61.29,1.12.69,1.55,1.21.43.52.74,1.12.93,1.82.19.7.24,1.46.15,2.29h-8.42v-1.28h6.36c-.04-.95-.3-1.68-.78-2.21-.48-.53-1.12-.79-1.91-.79-.58,0-1.08.15-1.5.45-.43.3-.76.73-1,1.28s-.35,1.23-.35,2.02.12,1.47.34,2.04c.23.57.56,1.01,1,1.31s.96.46,1.57.46c.73,0,1.33-.19,1.81-.56.48-.37.8-.89.95-1.55h1.92c-.24,1.12-.78,2.01-1.6,2.65s-1.84.97-3.04.97Z"/><path d="M141.55,354.14c-.88,0-1.66-.15-2.32-.45-.66-.3-1.19-.73-1.56-1.29s-.58-1.22-.62-1.97h1.88c.06.7.32,1.24.76,1.62.44.38,1.06.57,1.85.57.88,0,1.55-.23,1.99-.68.45-.45.67-1.12.67-2v-1.84c-.29.6-.71,1.07-1.26,1.42s-1.16.52-1.85.52c-.84,0-1.59-.22-2.24-.65-.65-.43-1.16-1.04-1.53-1.8-.37-.77-.56-1.64-.56-2.63s.18-1.89.54-2.66c.36-.76.86-1.35,1.5-1.77.65-.42,1.39-.63,2.23-.63.73,0,1.37.17,1.94.52s1.02.84,1.36,1.48v-1.8h1.8v9.81c0,1.34-.4,2.39-1.21,3.13-.8.75-1.93,1.12-3.37,1.12ZM138.72,344.94c0,1.05.24,1.88.73,2.48.49.61,1.15.91,1.99.91.55,0,1.03-.14,1.45-.41s.74-.66.97-1.17c.23-.5.35-1.09.35-1.75,0-1.05-.25-1.88-.75-2.51-.5-.63-1.17-.94-2.01-.94s-1.49.3-1.98.91c-.49.61-.74,1.43-.74,2.48Z"/><path d="M155.16,346.05v-5.98h1.94v10.16h-1.8v-1.59c-.26.51-.66.94-1.23,1.27-.56.34-1.19.51-1.88.51s-1.28-.13-1.81-.4c-.53-.27-.94-.69-1.23-1.26-.29-.57-.43-1.29-.43-2.16v-6.54h1.94v6.15c0,.88.2,1.52.59,1.91.4.39.91.58,1.55.58.43,0,.83-.11,1.19-.33.36-.22.64-.54.85-.94s.32-.87.32-1.39Z"/><path d="M162.14,337.71c0,.36-.13.66-.39.91-.26.25-.6.37-1.01.37s-.76-.12-1.03-.37c-.26-.25-.39-.55-.39-.91,0-.38.13-.69.39-.93s.6-.35,1.03-.35.74.12,1.01.35c.26.24.39.55.39.93ZM161.72,350.23h-1.94v-10.16h1.94v10.16Z"/><path d="M163.67,345.15c0-1.02.19-1.93.56-2.73.37-.8.89-1.42,1.57-1.87.68-.45,1.47-.67,2.38-.67.68,0,1.3.17,1.87.51.57.34,1.03.81,1.39,1.43v-5.35h1.94v13.76h-1.8v-1.82c-.36.64-.83,1.13-1.43,1.49-.59.35-1.25.53-1.96.53-.91,0-1.7-.23-2.38-.68-.68-.45-1.2-1.08-1.57-1.88-.37-.8-.56-1.7-.56-2.71ZM165.69,345.15c0,1.14.27,2.01.8,2.63.54.61,1.23.92,2.07.92.56,0,1.06-.14,1.49-.43.43-.29.77-.7,1.02-1.24.25-.54.37-1.18.37-1.92s-.13-1.39-.38-1.92c-.26-.52-.6-.92-1.04-1.2s-.92-.41-1.46-.41c-.84,0-1.53.31-2.07.92-.54.61-.8,1.5-.8,2.65Z"/><path d="M180.23,350.42c-.98,0-1.84-.22-2.58-.66-.74-.44-1.31-1.06-1.72-1.87-.41-.8-.61-1.74-.61-2.8s.21-1.9.63-2.68,1-1.4,1.72-1.85,1.56-.68,2.49-.68c.77,0,1.45.14,2.06.43.61.29,1.12.69,1.55,1.21.43.52.74,1.12.93,1.82.19.7.24,1.46.15,2.29h-8.42v-1.28h6.36c-.04-.95-.3-1.68-.78-2.21-.48-.53-1.12-.79-1.91-.79-.58,0-1.08.15-1.5.45-.43.3-.76.73-1,1.28s-.35,1.23-.35,2.02.12,1.47.34,2.04c.23.57.56,1.01,1,1.31s.96.46,1.57.46c.73,0,1.33-.19,1.81-.56.48-.37.8-.89.95-1.55h1.92c-.24,1.12-.78,2.01-1.6,2.65s-1.84.97-3.04.97Z"/><path d="M199.36,340.07l-5.08,13.86h-2.11l1.46-3.83-4.01-10.03h2.09l2.95,7.74,2.74-7.74h1.96Z"/><path d="M204.67,350.42c-.72,0-1.38-.13-1.98-.39-.61-.26-1.13-.63-1.58-1.11-.45-.48-.8-1.04-1.04-1.68-.25-.64-.37-1.33-.37-2.09s.12-1.45.37-2.09c.25-.64.6-1.2,1.04-1.68.45-.48.97-.85,1.58-1.11.61-.26,1.27-.39,1.98-.39s1.4.13,2,.39c.61.26,1.13.63,1.57,1.11.44.48.79,1.04,1.04,1.68.25.64.37,1.34.37,2.09s-.12,1.45-.37,2.09c-.25.64-.59,1.2-1.04,1.68-.44.48-.96.85-1.57,1.11-.61.26-1.27.39-2,.39ZM204.67,348.71c.56,0,1.07-.14,1.52-.43.45-.29.81-.7,1.07-1.24.26-.54.39-1.17.39-1.9s-.13-1.38-.39-1.91c-.26-.53-.62-.94-1.07-1.22-.45-.28-.96-.42-1.52-.42s-1.05.14-1.5.42c-.45.28-.81.69-1.07,1.22s-.39,1.17-.39,1.91.13,1.36.39,1.9c.26.54.62.95,1.07,1.24.45.29.96.43,1.5.43Z"/><path d="M217.98,346.05v-5.98h1.94v10.16h-1.8v-1.59c-.26.51-.66.94-1.23,1.27-.56.34-1.19.51-1.88.51s-1.28-.13-1.81-.4c-.53-.27-.94-.69-1.23-1.26-.29-.57-.43-1.29-.43-2.16v-6.54h1.94v6.15c0,.88.2,1.52.59,1.91.4.39.91.58,1.55.58.43,0,.83-.11,1.19-.33.36-.22.64-.54.85-.94s.32-.87.32-1.39Z"/><path d="M232.33,348.35v1.71c-.29.14-.58.24-.85.29-.27.05-.57.08-.87.08-.63,0-1.18-.11-1.66-.34-.48-.23-.85-.59-1.12-1.07s-.4-1.1-.4-1.84v-5.44h-2.24v-1.65h2.24v-3.01h1.94v3.01h3.07v1.65h-3.07v5c0,.7.16,1.2.47,1.48.31.28.73.42,1.24.42.23,0,.45-.02.66-.07s.41-.11.6-.2Z"/><path d="M236.2,344.49v5.73h-1.94v-13.76h1.94v5.23c.33-.55.76-.99,1.28-1.32.52-.33,1.13-.5,1.83-.5,1.05,0,1.89.33,2.52.98s.95,1.58.95,2.8v6.57h-1.94v-5.92c0-.87-.19-1.54-.56-2.01-.37-.47-.92-.71-1.65-.71-.45,0-.86.12-1.23.35-.37.24-.67.57-.88,1.01-.22.43-.33.95-.33,1.55Z"/><path d="M247.28,345.03v5.19h-1.94v-10.16h1.8v2.15c.36-.7.89-1.26,1.6-1.67s1.48-.61,2.31-.61v2.01c-.73-.04-1.38.04-1.95.25-.57.2-1.02.54-1.34,1.01-.33.47-.49,1.08-.49,1.83Z"/><path d="M256.81,350.42c-.72,0-1.38-.13-1.98-.39-.61-.26-1.13-.63-1.58-1.11-.45-.48-.8-1.04-1.04-1.68-.25-.64-.37-1.33-.37-2.09s.12-1.45.37-2.09c.25-.64.6-1.2,1.04-1.68.45-.48.97-.85,1.58-1.11.61-.26,1.27-.39,1.98-.39s1.4.13,2,.39c.61.26,1.13.63,1.57,1.11.44.48.79,1.04,1.04,1.68.25.64.37,1.34.37,2.09s-.12,1.45-.37,2.09c-.25.64-.59,1.2-1.04,1.68-.44.48-.96.85-1.57,1.11-.61.26-1.27.39-2,.39ZM256.81,348.71c.56,0,1.07-.14,1.52-.43.45-.29.81-.7,1.07-1.24.26-.54.39-1.17.39-1.9s-.13-1.38-.39-1.91c-.26-.53-.62-.94-1.07-1.22-.45-.28-.96-.42-1.52-.42s-1.05.14-1.5.42c-.45.28-.81.69-1.07,1.22s-.39,1.17-.39,1.91.13,1.36.39,1.9c.26.54.62.95,1.07,1.24.45.29.96.43,1.5.43Z"/><path d="M270.11,346.05v-5.98h1.94v10.16h-1.8v-1.59c-.26.51-.66.94-1.23,1.27-.56.34-1.19.51-1.88.51s-1.28-.13-1.81-.4c-.53-.27-.94-.69-1.23-1.26-.29-.57-.43-1.29-.43-2.16v-6.54h1.94v6.15c0,.88.2,1.52.59,1.91.4.39.91.58,1.55.58.43,0,.83-.11,1.19-.33.36-.22.64-.54.85-.94s.32-.87.32-1.39Z"/><path d="M278.79,354.14c-.88,0-1.66-.15-2.32-.45-.66-.3-1.19-.73-1.56-1.29s-.58-1.22-.62-1.97h1.88c.06.7.32,1.24.76,1.62.44.38,1.06.57,1.85.57.88,0,1.55-.23,1.99-.68.45-.45.67-1.12.67-2v-1.84c-.29.6-.71,1.07-1.26,1.42s-1.16.52-1.85.52c-.84,0-1.59-.22-2.24-.65-.65-.43-1.16-1.04-1.53-1.8-.37-.77-.56-1.64-.56-2.63s.18-1.89.54-2.66c.36-.76.86-1.35,1.5-1.77.65-.42,1.39-.63,2.23-.63.73,0,1.37.17,1.94.52s1.02.84,1.36,1.48v-1.8h1.8v9.81c0,1.34-.4,2.39-1.21,3.13-.8.75-1.93,1.12-3.37,1.12ZM275.96,344.94c0,1.05.24,1.88.73,2.48.49.61,1.15.91,1.99.91.55,0,1.03-.14,1.45-.41s.74-.66.97-1.17c.23-.5.35-1.09.35-1.75,0-1.05-.25-1.88-.75-2.51-.5-.63-1.17-.94-2.01-.94s-1.49.3-1.98.91c-.49.61-.74,1.43-.74,2.48Z"/><path d="M287.99,344.49v5.73h-1.94v-13.76h1.94v5.23c.33-.55.76-.99,1.28-1.32.52-.33,1.13-.5,1.83-.5,1.05,0,1.89.33,2.52.98s.95,1.58.95,2.8v6.57h-1.94v-5.92c0-.87-.19-1.54-.56-2.01-.37-.47-.92-.71-1.65-.71-.45,0-.86.12-1.23.35-.37.24-.67.57-.88,1.01-.22.43-.33.95-.33,1.55Z"/><path d="M306.88,348.35v1.71c-.29.14-.58.24-.85.29-.27.05-.57.08-.87.08-.63,0-1.18-.11-1.66-.34-.48-.23-.85-.59-1.12-1.07s-.4-1.1-.4-1.84v-5.44h-2.24v-1.65h2.24v-3.01h1.94v3.01h3.07v1.65h-3.07v5c0,.7.16,1.2.47,1.48.31.28.73.42,1.24.42.23,0,.45-.02.66-.07s.41-.11.6-.2Z"/><path d="M310.75,344.49v5.73h-1.94v-13.76h1.94v5.23c.33-.55.76-.99,1.28-1.32.52-.33,1.13-.5,1.83-.5,1.05,0,1.89.33,2.52.98s.95,1.58.95,2.8v6.57h-1.94v-5.92c0-.87-.19-1.54-.56-2.01-.37-.47-.92-.71-1.65-.71-.45,0-.86.12-1.23.35-.37.24-.67.57-.88,1.01-.22.43-.33.95-.33,1.55Z"/><path d="M324.07,350.42c-.98,0-1.84-.22-2.58-.66-.74-.44-1.31-1.06-1.72-1.87-.41-.8-.61-1.74-.61-2.8s.21-1.9.63-2.68,1-1.4,1.72-1.85,1.56-.68,2.49-.68c.77,0,1.45.14,2.06.43.61.29,1.12.69,1.55,1.21.43.52.74,1.12.93,1.82.19.7.24,1.46.15,2.29h-8.42v-1.28h6.36c-.04-.95-.3-1.68-.78-2.21-.48-.53-1.12-.79-1.91-.79-.58,0-1.08.15-1.5.45-.43.3-.76.73-1,1.28s-.35,1.23-.35,2.02.12,1.47.34,2.04c.23.57.56,1.01,1,1.31s.96.46,1.57.46c.73,0,1.33-.19,1.81-.56.48-.37.8-.89.95-1.55h1.92c-.24,1.12-.78,2.01-1.6,2.65s-1.84.97-3.04.97Z"/><path d="M344.46,345.15c0,1.02-.19,1.93-.56,2.72-.37.79-.89,1.42-1.56,1.87-.67.45-1.46.68-2.37.68-.69,0-1.32-.17-1.88-.5s-1.03-.8-1.4-1.42v5.42h-1.94v-13.86h1.8v1.86c.36-.65.84-1.16,1.44-1.51.6-.36,1.26-.54,1.97-.54.91,0,1.7.23,2.37.68s1.19,1.08,1.56,1.87c.37.79.56,1.7.56,2.72ZM342.45,345.15c0-1.14-.27-2.02-.82-2.64s-1.23-.93-2.06-.93c-.54,0-1.02.14-1.46.42-.43.28-.78.68-1.04,1.21-.26.52-.38,1.17-.38,1.94s.13,1.38.38,1.91c.25.53.6.94,1.04,1.22.43.28.92.42,1.46.42.83,0,1.52-.31,2.06-.92s.82-1.49.82-2.63Z"/><path d="M348.35,345.03v5.19h-1.94v-10.16h1.8v2.15c.36-.7.89-1.26,1.6-1.67s1.48-.61,2.31-.61v2.01c-.73-.04-1.38.04-1.95.25-.57.2-1.02.54-1.34,1.01-.33.47-.49,1.08-.49,1.83Z"/><path d="M357.88,350.42c-.72,0-1.38-.13-1.98-.39-.61-.26-1.13-.63-1.58-1.11-.45-.48-.8-1.04-1.04-1.68-.25-.64-.37-1.33-.37-2.09s.12-1.45.37-2.09c.25-.64.6-1.2,1.04-1.68.45-.48.97-.85,1.58-1.11.61-.26,1.27-.39,1.98-.39s1.4.13,2,.39c.61.26,1.13.63,1.57,1.11.44.48.79,1.04,1.04,1.68.25.64.37,1.34.37,2.09s-.12,1.45-.37,2.09c-.25.64-.59,1.2-1.04,1.68-.44.48-.96.85-1.57,1.11-.61.26-1.27.39-2,.39ZM357.88,348.71c.56,0,1.07-.14,1.52-.43.45-.29.81-.7,1.07-1.24.26-.54.39-1.17.39-1.9s-.13-1.38-.39-1.91c-.26-.53-.62-.94-1.07-1.22-.45-.28-.96-.42-1.52-.42s-1.05.14-1.5.42c-.45.28-.81.69-1.07,1.22s-.39,1.17-.39,1.91.13,1.36.39,1.9c.26.54.62.95,1.07,1.24.45.29.96.43,1.5.43Z"/><path d="M368.84,350.44c-.93,0-1.75-.22-2.46-.67s-1.26-1.07-1.67-1.87c-.4-.8-.6-1.71-.6-2.75s.2-1.93.61-2.72c.41-.79.97-1.42,1.69-1.87s1.53-.68,2.43-.68c.84,0,1.59.18,2.25.53s1.2.85,1.63,1.5c.43.65.7,1.41.81,2.29h-2.03c-.1-.82-.39-1.46-.86-1.92-.47-.46-1.07-.69-1.78-.69-.56,0-1.05.15-1.46.45-.41.3-.73.71-.96,1.24-.23.52-.35,1.15-.35,1.88s.12,1.34.35,1.88c.23.54.55.95.96,1.25s.89.44,1.46.44c.73,0,1.33-.23,1.79-.69.47-.46.76-1.1.87-1.92h2.01c-.1.89-.36,1.67-.79,2.31-.42.65-.96,1.14-1.63,1.5-.67.35-1.42.53-2.28.53Z"/><path d="M379.58,350.42c-.98,0-1.84-.22-2.58-.66-.74-.44-1.31-1.06-1.72-1.87-.41-.8-.61-1.74-.61-2.8s.21-1.9.63-2.68,1-1.4,1.72-1.85,1.56-.68,2.49-.68c.77,0,1.45.14,2.06.43.61.29,1.12.69,1.55,1.21.43.52.74,1.12.93,1.82.19.7.24,1.46.15,2.29h-8.42v-1.28h6.36c-.04-.95-.3-1.68-.78-2.21-.48-.53-1.12-.79-1.91-.79-.58,0-1.08.15-1.5.45-.43.3-.76.73-1,1.28s-.35,1.23-.35,2.02.12,1.47.34,2.04c.23.57.56,1.01,1,1.31s.96.46,1.57.46c.73,0,1.33-.19,1.81-.56.48-.37.8-.89.95-1.55h1.92c-.24,1.12-.78,2.01-1.6,2.65s-1.84.97-3.04.97Z"/><path d="M394.32,347.2c0,1-.37,1.78-1.11,2.36s-1.79.86-3.14.86-2.38-.31-3.15-.94c-.77-.63-1.21-1.48-1.31-2.57h1.86c.03.64.28,1.14.76,1.5s1.11.55,1.89.55c.68,0,1.22-.12,1.64-.36.42-.24.62-.6.62-1.07,0-.42-.14-.74-.41-.96-.28-.22-.73-.38-1.37-.5l-1.65-.31c-.93-.18-1.66-.51-2.17-.99s-.77-1.1-.77-1.87c0-.6.16-1.13.49-1.58.33-.45.78-.81,1.37-1.06s1.27-.38,2.05-.38c.82,0,1.53.14,2.15.41.61.28,1.11.67,1.48,1.17.37.5.58,1.11.63,1.81h-1.86c-.06-.6-.31-1.07-.73-1.42-.42-.35-.97-.52-1.65-.52-.61,0-1.11.12-1.49.37-.38.25-.57.59-.57,1.03,0,.41.14.72.41.93.27.21.72.38,1.33.51l1.72.33c1.01.18,1.76.49,2.24.94.49.45.73,1.04.73,1.76Z"/><path d="M404.48,347.2c0,1-.37,1.78-1.11,2.36s-1.79.86-3.14.86-2.38-.31-3.15-.94c-.77-.63-1.21-1.48-1.31-2.57h1.86c.03.64.28,1.14.76,1.5s1.11.55,1.89.55c.68,0,1.22-.12,1.64-.36.42-.24.62-.6.62-1.07,0-.42-.14-.74-.41-.96-.28-.22-.73-.38-1.37-.5l-1.65-.31c-.93-.18-1.66-.51-2.17-.99s-.77-1.1-.77-1.87c0-.6.16-1.13.49-1.58.33-.45.78-.81,1.37-1.06s1.27-.38,2.05-.38c.82,0,1.53.14,2.15.41.61.28,1.11.67,1.48,1.17.37.5.58,1.11.63,1.81h-1.86c-.06-.6-.31-1.07-.73-1.42-.42-.35-.97-.52-1.65-.52-.61,0-1.11.12-1.49.37-.38.25-.57.59-.57,1.03,0,.41.14.72.41.93.27.21.72.38,1.33.51l1.72.33c1.01.18,1.76.49,2.24.94.49.45.73,1.04.73,1.76Z"/><path d="M418.64,347.2c0,1-.37,1.78-1.11,2.36s-1.79.86-3.14.86-2.38-.31-3.15-.94c-.77-.63-1.21-1.48-1.31-2.57h1.86c.03.64.28,1.14.76,1.5s1.11.55,1.89.55c.68,0,1.22-.12,1.64-.36.42-.24.62-.6.62-1.07,0-.42-.14-.74-.41-.96-.28-.22-.73-.38-1.37-.5l-1.65-.31c-.93-.18-1.66-.51-2.17-.99s-.77-1.1-.77-1.87c0-.6.16-1.13.49-1.58.33-.45.78-.81,1.37-1.06s1.27-.38,2.05-.38c.82,0,1.53.14,2.15.41.61.28,1.11.67,1.48,1.17.37.5.58,1.11.63,1.81h-1.86c-.06-.6-.31-1.07-.73-1.42-.42-.35-.97-.52-1.65-.52-.61,0-1.11.12-1.49.37-.38.25-.57.59-.57,1.03,0,.41.14.72.41.93.27.21.72.38,1.33.51l1.72.33c1.01.18,1.76.49,2.24.94.49.45.73,1.04.73,1.76Z"/><path d="M426.35,348.35v1.71c-.29.14-.58.24-.85.29-.27.05-.57.08-.87.08-.63,0-1.18-.11-1.66-.34-.48-.23-.85-.59-1.12-1.07s-.4-1.1-.4-1.84v-5.44h-2.24v-1.65h2.24v-3.01h1.94v3.01h3.07v1.65h-3.07v5c0,.7.16,1.2.47,1.48.31.28.73.42,1.24.42.23,0,.45-.02.66-.07s.41-.11.6-.2Z"/><path d="M432.17,350.42c-.98,0-1.84-.22-2.58-.66-.74-.44-1.31-1.06-1.72-1.87-.41-.8-.61-1.74-.61-2.8s.21-1.9.63-2.68,1-1.4,1.72-1.85,1.56-.68,2.49-.68c.77,0,1.45.14,2.06.43.61.29,1.12.69,1.55,1.21.43.52.74,1.12.93,1.82.19.7.24,1.46.15,2.29h-8.42v-1.28h6.36c-.04-.95-.3-1.68-.78-2.21-.48-.53-1.12-.79-1.91-.79-.58,0-1.08.15-1.5.45-.43.3-.76.73-1,1.28s-.35,1.23-.35,2.02.12,1.47.34,2.04c.23.57.56,1.01,1,1.31s.96.46,1.57.46c.73,0,1.33-.19,1.81-.56.48-.37.8-.89.95-1.55h1.92c-.24,1.12-.78,2.01-1.6,2.65s-1.84.97-3.04.97Z"/><path d="M448.56,345.15c0,1.02-.19,1.93-.56,2.72-.37.79-.89,1.42-1.56,1.87-.67.45-1.46.68-2.37.68-.69,0-1.32-.17-1.88-.5s-1.03-.8-1.4-1.42v5.42h-1.94v-13.86h1.8v1.86c.36-.65.84-1.16,1.44-1.51.6-.36,1.26-.54,1.97-.54.91,0,1.7.23,2.37.68s1.19,1.08,1.56,1.87c.37.79.56,1.7.56,2.72ZM446.55,345.15c0-1.14-.27-2.02-.82-2.64s-1.23-.93-2.06-.93c-.54,0-1.02.14-1.46.42-.43.28-.78.68-1.04,1.21-.26.52-.38,1.17-.38,1.94s.13,1.38.38,1.91c.25.53.6.94,1.04,1.22.43.28.92.42,1.46.42.83,0,1.52-.31,2.06-.92s.82-1.49.82-2.63Z"/><path d="M464.22,345.15c0,1.01-.19,1.91-.56,2.71-.37.8-.89,1.42-1.56,1.88-.67.45-1.47.68-2.39.68-.72,0-1.37-.18-1.96-.53-.59-.35-1.07-.85-1.44-1.49v1.82h-1.8v-13.76h1.94v5.35c.36-.62.82-1.1,1.38-1.44.56-.33,1.19-.5,1.88-.5.92,0,1.71.22,2.38.67.66.45,1.18,1.07,1.56,1.87.38.8.57,1.71.57,2.73ZM462.21,345.15c0-1.15-.27-2.03-.82-2.65s-1.23-.92-2.06-.92c-.54,0-1.02.14-1.46.41-.43.27-.78.67-1.04,1.2-.26.52-.38,1.16-.38,1.92s.12,1.38.37,1.92c.25.54.59.95,1.03,1.24.43.29.93.43,1.48.43.83,0,1.52-.31,2.06-.92s.82-1.49.82-2.63Z"/><path d="M474.28,340.07l-5.08,13.86h-2.11l1.46-3.83-4.01-10.03h2.09l2.95,7.74,2.74-7.74h1.96Z"/><path d="M145.54,368.81c0,1-.37,1.78-1.11,2.36s-1.79.86-3.14.86-2.38-.31-3.15-.94c-.77-.63-1.21-1.48-1.31-2.57h1.86c.03.64.28,1.14.76,1.5s1.11.55,1.89.55c.68,0,1.22-.12,1.64-.36.42-.24.62-.6.62-1.07,0-.42-.14-.74-.41-.96-.28-.22-.73-.38-1.37-.5l-1.65-.31c-.93-.18-1.66-.51-2.17-.99s-.77-1.1-.77-1.87c0-.6.16-1.13.49-1.58.33-.45.78-.81,1.37-1.06s1.27-.38,2.05-.38c.82,0,1.53.14,2.15.41.61.28,1.11.67,1.48,1.17.37.5.58,1.11.63,1.81h-1.86c-.06-.6-.31-1.07-.73-1.42-.42-.35-.97-.52-1.65-.52-.61,0-1.11.12-1.49.37-.38.25-.57.59-.57,1.03,0,.41.14.72.41.93.27.21.72.38,1.33.51l1.72.33c1.01.18,1.76.49,2.24.94.49.45.73,1.04.73,1.76Z"/><path d="M153.25,369.95v1.71c-.29.14-.58.24-.85.29-.27.05-.57.08-.87.08-.63,0-1.18-.11-1.66-.34-.48-.23-.85-.59-1.12-1.07s-.4-1.1-.4-1.84v-5.44h-2.24v-1.65h2.24v-3.01h1.94v3.01h3.07v1.65h-3.07v5c0,.7.16,1.2.47,1.48.31.28.73.42,1.24.42.23,0,.45-.02.66-.07s.41-.11.6-.2Z"/><path d="M159.07,372.03c-.98,0-1.84-.22-2.58-.66-.74-.44-1.31-1.06-1.72-1.87-.41-.8-.61-1.74-.61-2.8s.21-1.9.63-2.68,1-1.4,1.72-1.85,1.56-.68,2.49-.68c.77,0,1.45.14,2.06.43.61.29,1.12.69,1.55,1.21.43.52.74,1.12.93,1.82.19.7.24,1.46.15,2.29h-8.42v-1.28h6.36c-.04-.95-.3-1.68-.78-2.21-.48-.53-1.12-.79-1.91-.79-.58,0-1.08.15-1.5.45-.43.3-.76.73-1,1.28s-.35,1.23-.35,2.02.12,1.47.34,2.04c.23.57.56,1.01,1,1.31s.96.46,1.57.46c.73,0,1.33-.19,1.81-.56.48-.37.8-.89.95-1.55h1.92c-.24,1.12-.78,2.01-1.6,2.65s-1.84.97-3.04.97Z"/><path d="M175.46,366.75c0,1.02-.19,1.93-.56,2.72-.37.79-.89,1.42-1.56,1.87-.67.45-1.46.68-2.37.68-.69,0-1.32-.17-1.88-.5s-1.03-.8-1.4-1.42v5.42h-1.94v-13.86h1.8v1.86c.36-.65.84-1.16,1.44-1.51.6-.36,1.26-.54,1.97-.54.91,0,1.7.23,2.37.68s1.19,1.08,1.56,1.87c.37.79.56,1.7.56,2.72ZM173.45,366.75c0-1.14-.27-2.02-.82-2.64s-1.23-.93-2.06-.93c-.54,0-1.02.14-1.46.42-.43.28-.78.68-1.04,1.21-.26.52-.38,1.17-.38,1.94s.13,1.38.38,1.91c.25.53.6.94,1.04,1.22.43.28.92.42,1.46.42.83,0,1.52-.31,2.06-.92s.82-1.49.82-2.63Z"/><path d="M187.58,371.83v-1.57c-.32.56-.75,1-1.3,1.3-.55.31-1.2.46-1.96.46-1.05,0-1.89-.28-2.53-.83-.64-.56-.96-1.3-.96-2.23,0-1,.39-1.75,1.18-2.26.79-.51,1.93-.77,3.44-.77.29,0,.58,0,.86.02.28.01.63.04,1.04.1v-.75c0-.72-.19-1.27-.56-1.68-.37-.4-.89-.6-1.57-.6s-1.26.2-1.68.6c-.42.4-.64.96-.66,1.66h-1.76c.03-.77.21-1.43.57-2,.35-.57.83-1.01,1.44-1.32.61-.31,1.31-.47,2.1-.47,1.25,0,2.23.34,2.92,1.01.7.67,1.04,1.61,1.04,2.83v6.52h-1.61ZM182.67,368.9c0,.52.18.95.56,1.26.37.32.86.48,1.48.48.82,0,1.46-.23,1.94-.7.47-.47.71-1.09.71-1.87v-.82c-.37-.04-.7-.07-.98-.09-.28-.02-.55-.03-.8-.03-.97,0-1.7.14-2.18.43-.48.29-.72.73-.72,1.33Z"/><path d="M193.71,366.1v5.73h-1.94v-10.16h1.8v1.69c.34-.56.79-1.02,1.35-1.36.56-.34,1.18-.52,1.89-.52,1.05,0,1.89.33,2.52.98s.95,1.58.95,2.8v6.57h-1.94v-5.92c0-.87-.19-1.54-.56-2.01-.37-.47-.92-.71-1.65-.71-.45,0-.86.12-1.23.35-.37.24-.67.57-.88,1.01-.22.43-.33.95-.33,1.55Z"/><path d="M202.12,366.75c0-1.02.19-1.93.56-2.73.37-.8.89-1.42,1.57-1.87.68-.45,1.47-.67,2.38-.67.68,0,1.3.17,1.87.51.57.34,1.03.81,1.39,1.43v-5.35h1.94v13.76h-1.8v-1.82c-.36.64-.83,1.13-1.43,1.49-.59.35-1.25.53-1.96.53-.91,0-1.7-.23-2.38-.68-.68-.45-1.2-1.08-1.57-1.88-.37-.8-.56-1.7-.56-2.71ZM204.14,366.75c0,1.14.27,2.01.8,2.63.54.61,1.23.92,2.07.92.56,0,1.06-.14,1.49-.43.43-.29.77-.7,1.02-1.24.25-.54.37-1.18.37-1.92s-.13-1.39-.38-1.92c-.26-.52-.6-.92-1.04-1.2s-.92-.41-1.46-.41c-.84,0-1.53.31-2.07.92-.54.61-.8,1.5-.8,2.65Z"/><path d="M222.52,372.04c-.93,0-1.75-.22-2.46-.67s-1.26-1.07-1.67-1.87c-.4-.8-.6-1.71-.6-2.75s.2-1.93.61-2.72c.41-.79.97-1.42,1.69-1.87s1.53-.68,2.43-.68c.84,0,1.59.18,2.25.53s1.2.85,1.63,1.5c.43.65.7,1.41.81,2.29h-2.03c-.1-.82-.39-1.46-.86-1.92-.47-.46-1.07-.69-1.78-.69-.56,0-1.05.15-1.46.45-.41.3-.73.71-.96,1.24-.23.52-.35,1.15-.35,1.88s.12,1.34.35,1.88c.23.54.55.95.96,1.25s.89.44,1.46.44c.73,0,1.33-.23,1.79-.69.47-.46.76-1.1.87-1.92h2.01c-.1.89-.36,1.67-.79,2.31-.42.65-.96,1.14-1.63,1.5-.67.35-1.42.53-2.28.53Z"/><path d="M233.33,372.03c-.72,0-1.38-.13-1.98-.39-.61-.26-1.13-.63-1.58-1.11-.45-.48-.8-1.04-1.04-1.68-.25-.64-.37-1.33-.37-2.09s.12-1.45.37-2.09c.25-.64.6-1.2,1.04-1.68.45-.48.97-.85,1.58-1.11.61-.26,1.27-.39,1.98-.39s1.4.13,2,.39c.61.26,1.13.63,1.57,1.11.44.48.79,1.04,1.04,1.68.25.64.37,1.34.37,2.09s-.12,1.45-.37,2.09c-.25.64-.59,1.2-1.04,1.68-.44.48-.96.85-1.57,1.11-.61.26-1.27.39-2,.39ZM233.33,370.32c.56,0,1.07-.14,1.52-.43.45-.29.81-.7,1.07-1.24.26-.54.39-1.17.39-1.9s-.13-1.38-.39-1.91c-.26-.53-.62-.94-1.07-1.22-.45-.28-.96-.42-1.52-.42s-1.05.14-1.5.42c-.45.28-.81.69-1.07,1.22s-.39,1.17-.39,1.91.13,1.36.39,1.9c.26.54.62.95,1.07,1.24.45.29.96.43,1.5.43Z"/><path d="M242.22,366.1v5.73h-1.94v-10.16h1.8v1.69c.34-.56.79-1.02,1.35-1.36.56-.34,1.18-.52,1.89-.52,1.05,0,1.89.33,2.52.98s.95,1.58.95,2.8v6.57h-1.94v-5.92c0-.87-.19-1.54-.56-2.01-.37-.47-.92-.71-1.65-.71-.45,0-.86.12-1.23.35-.37.24-.67.57-.88,1.01-.22.43-.33.95-.33,1.55Z"/><path d="M253.3,366.1v5.73h-1.94v-10.16h1.8v1.69c.34-.56.79-1.02,1.35-1.36.56-.34,1.18-.52,1.89-.52,1.05,0,1.89.33,2.52.98s.95,1.58.95,2.8v6.57h-1.94v-5.92c0-.87-.19-1.54-.56-2.01-.37-.47-.92-.71-1.65-.71-.45,0-.86.12-1.23.35-.37.24-.67.57-.88,1.01-.22.43-.33.95-.33,1.55Z"/><path d="M266.62,372.03c-.98,0-1.84-.22-2.58-.66-.74-.44-1.31-1.06-1.72-1.87-.41-.8-.61-1.74-.61-2.8s.21-1.9.63-2.68,1-1.4,1.72-1.85,1.56-.68,2.49-.68c.77,0,1.45.14,2.06.43.61.29,1.12.69,1.55,1.21.43.52.74,1.12.93,1.82.19.7.24,1.46.15,2.29h-8.42v-1.28h6.36c-.04-.95-.3-1.68-.78-2.21-.48-.53-1.12-.79-1.91-.79-.58,0-1.08.15-1.5.45-.43.3-.76.73-1,1.28s-.35,1.23-.35,2.02.12,1.47.34,2.04c.23.57.56,1.01,1,1.31s.96.46,1.57.46c.73,0,1.33-.19,1.81-.56.48-.37.8-.89.95-1.55h1.92c-.24,1.12-.78,2.01-1.6,2.65s-1.84.97-3.04.97Z"/><path d="M277.13,372.04c-.93,0-1.75-.22-2.46-.67s-1.26-1.07-1.67-1.87c-.4-.8-.6-1.71-.6-2.75s.2-1.93.61-2.72c.41-.79.97-1.42,1.69-1.87s1.53-.68,2.43-.68c.84,0,1.59.18,2.25.53s1.2.85,1.63,1.5c.43.65.7,1.41.81,2.29h-2.03c-.1-.82-.39-1.46-.86-1.92-.47-.46-1.07-.69-1.78-.69-.56,0-1.05.15-1.46.45-.41.3-.73.71-.96,1.24-.23.52-.35,1.15-.35,1.88s.12,1.34.35,1.88c.23.54.55.95.96,1.25s.89.44,1.46.44c.73,0,1.33-.23,1.79-.69.47-.46.76-1.1.87-1.92h2.01c-.1.89-.36,1.67-.79,2.31-.42.65-.96,1.14-1.63,1.5-.67.35-1.42.53-2.28.53Z"/><path d="M289.51,369.95v1.71c-.29.14-.58.24-.85.29-.27.05-.57.08-.87.08-.63,0-1.18-.11-1.66-.34-.48-.23-.85-.59-1.12-1.07s-.4-1.1-.4-1.84v-5.44h-2.24v-1.65h2.24v-3.01h1.94v3.01h3.07v1.65h-3.07v5c0,.7.16,1.2.47,1.48.31.28.73.42,1.24.42.23,0,.45-.02.66-.07s.41-.11.6-.2Z"/><path d="M303.88,361.67l-5.08,13.86h-2.11l1.46-3.83-4.01-10.03h2.09l2.95,7.74,2.74-7.74h1.96Z"/><path d="M309.19,372.03c-.72,0-1.38-.13-1.98-.39-.61-.26-1.13-.63-1.58-1.11-.45-.48-.8-1.04-1.04-1.68-.25-.64-.37-1.33-.37-2.09s.12-1.45.37-2.09c.25-.64.6-1.2,1.04-1.68.45-.48.97-.85,1.58-1.11.61-.26,1.27-.39,1.98-.39s1.4.13,2,.39c.61.26,1.13.63,1.57,1.11.44.48.79,1.04,1.04,1.68.25.64.37,1.34.37,2.09s-.12,1.45-.37,2.09c-.25.64-.59,1.2-1.04,1.68-.44.48-.96.85-1.57,1.11-.61.26-1.27.39-2,.39ZM309.19,370.32c.56,0,1.07-.14,1.52-.43.45-.29.81-.7,1.07-1.24.26-.54.39-1.17.39-1.9s-.13-1.38-.39-1.91c-.26-.53-.62-.94-1.07-1.22-.45-.28-.96-.42-1.52-.42s-1.05.14-1.5.42c-.45.28-.81.69-1.07,1.22s-.39,1.17-.39,1.91.13,1.36.39,1.9c.26.54.62.95,1.07,1.24.45.29.96.43,1.5.43Z"/><path d="M322.5,367.66v-5.98h1.94v10.16h-1.8v-1.59c-.26.51-.66.94-1.23,1.27-.56.34-1.19.51-1.88.51s-1.28-.13-1.81-.4c-.53-.27-.94-.69-1.23-1.26-.29-.57-.43-1.29-.43-2.16v-6.54h1.94v6.15c0,.88.2,1.52.59,1.91.4.39.91.58,1.55.58.43,0,.83-.11,1.19-.33.36-.22.64-.54.85-.94s.32-.87.32-1.39Z"/><path d="M339.52,371.83l-2.3-7.55-2.32,7.55h-1.96l-2.93-10.16h1.9l2.05,7.4,2.3-7.4h1.92l2.26,7.42,2.05-7.42h1.92l-2.95,10.16h-1.94Z"/><path d="M348.33,359.32c0,.36-.13.66-.39.91-.26.25-.6.37-1.01.37s-.76-.12-1.03-.37c-.26-.25-.39-.55-.39-.91,0-.38.13-.69.39-.93s.6-.35,1.03-.35.74.12,1.01.35c.26.24.39.55.39.93ZM347.91,371.83h-1.94v-10.16h1.94v10.16Z"/><path d="M356.33,369.95v1.71c-.29.14-.58.24-.85.29-.27.05-.57.08-.87.08-.63,0-1.18-.11-1.66-.34-.48-.23-.85-.59-1.12-1.07s-.4-1.1-.4-1.84v-5.44h-2.24v-1.65h2.24v-3.01h1.94v3.01h3.07v1.65h-3.07v5c0,.7.16,1.2.47,1.48.31.28.73.42,1.24.42.23,0,.45-.02.66-.07s.41-.11.6-.2Z"/><path d="M360.2,366.1v5.73h-1.94v-13.76h1.94v5.23c.33-.55.76-.99,1.28-1.32.52-.33,1.13-.5,1.83-.5,1.05,0,1.89.33,2.52.98s.95,1.58.95,2.8v6.57h-1.94v-5.92c0-.87-.19-1.54-.56-2.01-.37-.47-.92-.71-1.65-.71-.45,0-.86.12-1.23.35-.37.24-.67.57-.88,1.01-.22.43-.33.95-.33,1.55Z"/><path d="M379.5,371.83v-1.57c-.32.56-.75,1-1.3,1.3-.55.31-1.2.46-1.96.46-1.05,0-1.89-.28-2.53-.83-.64-.56-.96-1.3-.96-2.23,0-1,.39-1.75,1.18-2.26.79-.51,1.93-.77,3.44-.77.29,0,.58,0,.86.02.28.01.63.04,1.04.1v-.75c0-.72-.19-1.27-.56-1.68-.37-.4-.89-.6-1.57-.6s-1.26.2-1.68.6c-.42.4-.64.96-.66,1.66h-1.76c.03-.77.21-1.43.57-2,.35-.57.83-1.01,1.44-1.32.61-.31,1.31-.47,2.1-.47,1.25,0,2.23.34,2.92,1.01.7.67,1.04,1.61,1.04,2.83v6.52h-1.61ZM374.59,368.9c0,.52.18.95.56,1.26.37.32.86.48,1.48.48.82,0,1.46-.23,1.94-.7.47-.47.71-1.09.71-1.87v-.82c-.37-.04-.7-.07-.98-.09-.28-.02-.55-.03-.8-.03-.97,0-1.7.14-2.18.43-.48.29-.72.73-.72,1.33Z"/><path d="M395.76,368.81c0,1-.37,1.78-1.11,2.36s-1.79.86-3.14.86-2.38-.31-3.15-.94c-.77-.63-1.21-1.48-1.31-2.57h1.86c.03.64.28,1.14.76,1.5s1.11.55,1.89.55c.68,0,1.22-.12,1.64-.36.42-.24.62-.6.62-1.07,0-.42-.14-.74-.41-.96-.28-.22-.73-.38-1.37-.5l-1.65-.31c-.93-.18-1.66-.51-2.17-.99s-.77-1.1-.77-1.87c0-.6.16-1.13.49-1.58.33-.45.78-.81,1.37-1.06s1.27-.38,2.05-.38c.82,0,1.53.14,2.15.41.61.28,1.11.67,1.48,1.17.37.5.58,1.11.63,1.81h-1.86c-.06-.6-.31-1.07-.73-1.42-.42-.35-.97-.52-1.65-.52-.61,0-1.11.12-1.49.37-.38.25-.57.59-.57,1.03,0,.41.14.72.41.93.27.21.72.38,1.33.51l1.72.33c1.01.18,1.76.49,2.24.94.49.45.73,1.04.73,1.76Z"/><path d="M407.56,366.75c0,1.02-.19,1.93-.56,2.72-.37.79-.89,1.42-1.56,1.87-.67.45-1.46.68-2.37.68-.69,0-1.32-.17-1.88-.5s-1.03-.8-1.4-1.42v5.42h-1.94v-13.86h1.8v1.86c.36-.65.84-1.16,1.44-1.51.6-.36,1.26-.54,1.97-.54.91,0,1.7.23,2.37.68s1.19,1.08,1.56,1.87c.37.79.56,1.7.56,2.72ZM405.55,366.75c0-1.14-.27-2.02-.82-2.64s-1.23-.93-2.06-.93c-.54,0-1.02.14-1.46.42-.43.28-.78.68-1.04,1.21-.26.52-.38,1.17-.38,1.94s.13,1.38.38,1.91c.25.53.6.94,1.04,1.22.43.28.92.42,1.46.42.83,0,1.52-.31,2.06-.92s.82-1.49.82-2.63Z"/><path d="M413.52,372.04c-.93,0-1.75-.22-2.46-.67s-1.26-1.07-1.67-1.87c-.4-.8-.6-1.71-.6-2.75s.2-1.93.61-2.72c.41-.79.97-1.42,1.69-1.87s1.53-.68,2.43-.68c.84,0,1.59.18,2.25.53s1.2.85,1.63,1.5c.43.65.7,1.41.81,2.29h-2.03c-.1-.82-.39-1.46-.86-1.92-.47-.46-1.07-.69-1.78-.69-.56,0-1.05.15-1.46.45-.41.3-.73.71-.96,1.24-.23.52-.35,1.15-.35,1.88s.12,1.34.35,1.88c.23.54.55.95.96,1.25s.89.44,1.46.44c.73,0,1.33-.23,1.79-.69.47-.46.76-1.1.87-1.92h2.01c-.1.89-.36,1.67-.79,2.31-.42.65-.96,1.14-1.63,1.5-.67.35-1.42.53-2.28.53Z"/><path d="M422.53,359.32c0,.36-.13.66-.39.91-.26.25-.6.37-1.01.37s-.76-.12-1.03-.37c-.26-.25-.39-.55-.39-.91,0-.38.13-.69.39-.93s.6-.35,1.03-.35.74.12,1.01.35c.26.24.39.55.39.93ZM422.11,371.83h-1.94v-10.16h1.94v10.16Z"/><path d="M430.95,371.83v-1.57c-.32.56-.75,1-1.3,1.3-.55.31-1.2.46-1.96.46-1.05,0-1.89-.28-2.53-.83-.64-.56-.96-1.3-.96-2.23,0-1,.39-1.75,1.18-2.26.79-.51,1.93-.77,3.44-.77.29,0,.58,0,.86.02.28.01.63.04,1.04.1v-.75c0-.72-.19-1.27-.56-1.68-.37-.4-.89-.6-1.57-.6s-1.26.2-1.68.6c-.42.4-.64.96-.66,1.66h-1.76c.03-.77.21-1.43.57-2,.35-.57.83-1.01,1.44-1.32.61-.31,1.31-.47,2.1-.47,1.25,0,2.23.34,2.92,1.01.7.67,1.04,1.61,1.04,2.83v6.52h-1.61ZM426.04,368.9c0,.52.18.95.56,1.26.37.32.86.48,1.48.48.82,0,1.46-.23,1.94-.7.47-.47.71-1.09.71-1.87v-.82c-.37-.04-.7-.07-.98-.09-.28-.02-.55-.03-.8-.03-.97,0-1.7.14-2.18.43-.48.29-.72.73-.72,1.33Z"/><path d="M437.1,371.83h-1.96v-13.76h1.96v13.76Z"/><path d="M442.14,359.32c0,.36-.13.66-.39.91-.26.25-.6.37-1.01.37s-.76-.12-1.03-.37c-.26-.25-.39-.55-.39-.91,0-.38.13-.69.39-.93s.6-.35,1.03-.35.74.12,1.01.35c.26.24.39.55.39.93ZM441.72,371.83h-1.94v-10.16h1.94v10.16Z"/><path d="M452.45,368.81c0,1-.37,1.78-1.11,2.36s-1.79.86-3.14.86-2.38-.31-3.15-.94c-.77-.63-1.21-1.48-1.31-2.57h1.86c.03.64.28,1.14.76,1.5s1.11.55,1.89.55c.68,0,1.22-.12,1.64-.36.42-.24.62-.6.62-1.07,0-.42-.14-.74-.41-.96-.28-.22-.73-.38-1.37-.5l-1.65-.31c-.93-.18-1.66-.51-2.17-.99s-.77-1.1-.77-1.87c0-.6.16-1.13.49-1.58.33-.45.78-.81,1.37-1.06s1.27-.38,2.05-.38c.82,0,1.53.14,2.15.41.61.28,1.11.67,1.48,1.17.37.5.58,1.11.63,1.81h-1.86c-.06-.6-.31-1.07-.73-1.42-.42-.35-.97-.52-1.65-.52-.61,0-1.11.12-1.49.37-.38.25-.57.59-.57,1.03,0,.41.14.72.41.93.27.21.72.38,1.33.51l1.72.33c1.01.18,1.76.49,2.24.94.49.45.73,1.04.73,1.76Z"/><path d="M460.16,369.95v1.71c-.29.14-.58.24-.85.29-.27.05-.57.08-.87.08-.63,0-1.18-.11-1.66-.34-.48-.23-.85-.59-1.12-1.07s-.4-1.1-.4-1.84v-5.44h-2.24v-1.65h2.24v-3.01h1.94v3.01h3.07v1.65h-3.07v5c0,.7.16,1.2.47,1.48.31.28.73.42,1.24.42.23,0,.45-.02.66-.07s.41-.11.6-.2Z"/><path d="M145.89,393.44l-2.3-7.55-2.32,7.55h-1.96l-2.93-10.16h1.9l2.05,7.4,2.3-7.4h1.92l2.26,7.42,2.05-7.42h1.92l-2.95,10.16h-1.94Z"/><path d="M154.28,387.71v5.73h-1.94v-13.76h1.94v5.23c.33-.55.76-.99,1.28-1.32.52-.33,1.13-.5,1.83-.5,1.05,0,1.89.33,2.52.98s.95,1.58.95,2.8v6.57h-1.94v-5.92c0-.87-.19-1.54-.56-2.01-.37-.47-.92-.71-1.65-.71-.45,0-.86.12-1.23.35-.37.24-.67.57-.88,1.01-.22.43-.33.95-.33,1.55Z"/><path d="M167.68,393.63c-.72,0-1.38-.13-1.98-.39-.61-.26-1.13-.63-1.58-1.11-.45-.48-.8-1.04-1.04-1.68-.25-.64-.37-1.33-.37-2.09s.12-1.45.37-2.09c.25-.64.6-1.2,1.04-1.68.45-.48.97-.85,1.58-1.11.61-.26,1.27-.39,1.98-.39s1.4.13,2,.39c.61.26,1.13.63,1.57,1.11.44.48.79,1.04,1.04,1.68.25.64.37,1.34.37,2.09s-.12,1.45-.37,2.09c-.25.64-.59,1.2-1.04,1.68-.44.48-.96.85-1.57,1.11-.61.26-1.27.39-2,.39ZM167.68,391.93c.56,0,1.07-.14,1.52-.43.45-.29.81-.7,1.07-1.24.26-.54.39-1.17.39-1.9s-.13-1.38-.39-1.91c-.26-.53-.62-.94-1.07-1.22-.45-.28-.96-.42-1.52-.42s-1.05.14-1.5.42c-.45.28-.81.69-1.07,1.22s-.39,1.17-.39,1.91.13,1.36.39,1.9c.26.54.62.95,1.07,1.24.45.29.96.43,1.5.43Z"/><path d="M182.65,393.65c-.93,0-1.75-.22-2.46-.67s-1.26-1.07-1.67-1.87c-.4-.8-.6-1.71-.6-2.75s.2-1.93.61-2.72c.41-.79.97-1.42,1.69-1.87s1.53-.68,2.43-.68c.84,0,1.59.18,2.25.53s1.2.85,1.63,1.5c.43.65.7,1.41.81,2.29h-2.03c-.1-.82-.39-1.46-.86-1.92-.47-.46-1.07-.69-1.78-.69-.56,0-1.05.15-1.46.45-.41.3-.73.71-.96,1.24-.23.52-.35,1.15-.35,1.88s.12,1.34.35,1.88c.23.54.55.95.96,1.25s.89.44,1.46.44c.73,0,1.33-.23,1.79-.69.47-.46.76-1.1.87-1.92h2.01c-.1.89-.36,1.67-.79,2.31-.42.65-.96,1.14-1.63,1.5-.67.35-1.42.53-2.28.53Z"/><path d="M195.45,393.44v-1.57c-.32.56-.75,1-1.3,1.3-.55.31-1.2.46-1.96.46-1.05,0-1.89-.28-2.53-.83-.64-.56-.96-1.3-.96-2.23,0-1,.39-1.75,1.18-2.26.79-.51,1.93-.77,3.44-.77.29,0,.58,0,.86.02.28.01.63.04,1.04.1v-.75c0-.72-.19-1.27-.56-1.68-.37-.4-.89-.6-1.57-.6s-1.26.2-1.68.6c-.42.4-.64.96-.66,1.66h-1.76c.03-.77.21-1.43.57-2,.35-.57.83-1.01,1.44-1.32.61-.31,1.31-.47,2.1-.47,1.25,0,2.23.34,2.92,1.01.7.67,1.04,1.61,1.04,2.83v6.52h-1.61ZM190.55,390.51c0,.52.18.95.56,1.26.37.32.86.48,1.48.48.82,0,1.46-.23,1.94-.7.47-.47.71-1.09.71-1.87v-.82c-.37-.04-.7-.07-.98-.09-.28-.02-.55-.03-.8-.03-.97,0-1.7.14-2.18.43-.48.29-.72.73-.72,1.33Z"/><path d="M201.59,387.71v5.73h-1.94v-10.16h1.8v1.69c.34-.56.79-1.02,1.35-1.36.56-.34,1.18-.52,1.89-.52,1.05,0,1.89.33,2.52.98s.95,1.58.95,2.8v6.57h-1.94v-5.92c0-.87-.19-1.54-.56-2.01-.37-.47-.92-.71-1.65-.71-.45,0-.86.12-1.23.35-.37.24-.67.57-.88,1.01-.22.43-.33.95-.33,1.55Z"/><path d="M222.79,390.41c0,1-.37,1.78-1.11,2.36s-1.79.86-3.14.86-2.38-.31-3.15-.94c-.77-.63-1.21-1.48-1.31-2.57h1.86c.03.64.28,1.14.76,1.5s1.11.55,1.89.55c.68,0,1.22-.12,1.64-.36.42-.24.62-.6.62-1.07,0-.42-.14-.74-.41-.96-.28-.22-.73-.38-1.37-.5l-1.65-.31c-.93-.18-1.66-.51-2.17-.99s-.77-1.1-.77-1.87c0-.6.16-1.13.49-1.58.33-.45.78-.81,1.37-1.06s1.27-.38,2.05-.38c.82,0,1.53.14,2.15.41.61.28,1.11.67,1.48,1.17.37.5.58,1.11.63,1.81h-1.86c-.06-.6-.31-1.07-.73-1.42-.42-.35-.97-.52-1.65-.52-.61,0-1.11.12-1.49.37-.38.25-.57.59-.57,1.03,0,.41.14.72.41.93.27.21.72.38,1.33.51l1.72.33c1.01.18,1.76.49,2.24.94.49.45.73,1.04.73,1.76Z"/><path d="M231.24,389.26v-5.98h1.94v10.16h-1.8v-1.59c-.26.51-.66.94-1.23,1.27-.56.34-1.19.51-1.88.51s-1.28-.13-1.81-.4c-.53-.27-.94-.69-1.23-1.26-.29-.57-.43-1.29-.43-2.16v-6.54h1.94v6.15c0,.88.2,1.52.59,1.91.4.39.91.58,1.55.58.43,0,.83-.11,1.19-.33.36-.22.64-.54.85-.94s.32-.87.32-1.39Z"/><path d="M245.56,388.36c0,1.02-.19,1.93-.56,2.72-.37.79-.89,1.42-1.56,1.87-.67.45-1.46.68-2.37.68-.69,0-1.32-.17-1.88-.5s-1.03-.8-1.4-1.42v5.42h-1.94v-13.86h1.8v1.86c.36-.65.84-1.16,1.44-1.51.6-.36,1.26-.54,1.97-.54.91,0,1.7.23,2.37.68s1.19,1.08,1.56,1.87c.37.79.56,1.7.56,2.72ZM243.55,388.36c0-1.14-.27-2.02-.82-2.64s-1.23-.93-2.06-.93c-.54,0-1.02.14-1.46.42-.43.28-.78.68-1.04,1.21-.26.52-.38,1.17-.38,1.94s.13,1.38.38,1.91c.25.53.6.94,1.04,1.22.43.28.92.42,1.46.42.83,0,1.52-.31,2.06-.92s.82-1.49.82-2.63Z"/><path d="M257.21,388.36c0,1.02-.19,1.93-.56,2.72-.37.79-.89,1.42-1.56,1.87-.67.45-1.46.68-2.37.68-.69,0-1.32-.17-1.88-.5s-1.03-.8-1.4-1.42v5.42h-1.94v-13.86h1.8v1.86c.36-.65.84-1.16,1.44-1.51.6-.36,1.26-.54,1.97-.54.91,0,1.7.23,2.37.68s1.19,1.08,1.56,1.87c.37.79.56,1.7.56,2.72ZM255.2,388.36c0-1.14-.27-2.02-.82-2.64s-1.23-.93-2.06-.93c-.54,0-1.02.14-1.46.42-.43.28-.78.68-1.04,1.21-.26.52-.38,1.17-.38,1.94s.13,1.38.38,1.91c.25.53.6.94,1.04,1.22.43.28.92.42,1.46.42.83,0,1.52-.31,2.06-.92s.82-1.49.82-2.63Z"/><path d="M263.42,393.63c-.72,0-1.38-.13-1.98-.39-.61-.26-1.13-.63-1.58-1.11-.45-.48-.8-1.04-1.04-1.68-.25-.64-.37-1.33-.37-2.09s.12-1.45.37-2.09c.25-.64.6-1.2,1.04-1.68.45-.48.97-.85,1.58-1.11.61-.26,1.27-.39,1.98-.39s1.4.13,2,.39c.61.26,1.13.63,1.57,1.11.44.48.79,1.04,1.04,1.68.25.64.37,1.34.37,2.09s-.12,1.45-.37,2.09c-.25.64-.59,1.2-1.04,1.68-.44.48-.96.85-1.57,1.11-.61.26-1.27.39-2,.39ZM263.42,391.93c.56,0,1.07-.14,1.52-.43.45-.29.81-.7,1.07-1.24.26-.54.39-1.17.39-1.9s-.13-1.38-.39-1.91c-.26-.53-.62-.94-1.07-1.22-.45-.28-.96-.42-1.52-.42s-1.05.14-1.5.42c-.45.28-.81.69-1.07,1.22s-.39,1.17-.39,1.91.13,1.36.39,1.9c.26.54.62.95,1.07,1.24.45.29.96.43,1.5.43Z"/><path d="M272.31,388.25v5.19h-1.94v-10.16h1.8v2.15c.36-.7.89-1.26,1.6-1.67s1.48-.61,2.31-.61v2.01c-.73-.04-1.38.04-1.95.25-.57.2-1.02.54-1.34,1.01-.33.47-.49,1.08-.49,1.83Z"/><path d="M283.97,391.56v1.71c-.29.14-.58.24-.85.29-.27.05-.57.08-.87.08-.63,0-1.18-.11-1.66-.34-.48-.23-.85-.59-1.12-1.07s-.4-1.1-.4-1.84v-5.44h-2.24v-1.65h2.24v-3.01h1.94v3.01h3.07v1.65h-3.07v5c0,.7.16,1.2.47,1.48.31.28.73.42,1.24.42.23,0,.45-.02.66-.07s.41-.11.6-.2Z"/><path d="M298.34,383.28l-5.08,13.86h-2.11l1.46-3.83-4.01-10.03h2.09l2.95,7.74,2.74-7.74h1.96Z"/><path d="M303.65,393.63c-.72,0-1.38-.13-1.98-.39-.61-.26-1.13-.63-1.58-1.11-.45-.48-.8-1.04-1.04-1.68-.25-.64-.37-1.33-.37-2.09s.12-1.45.37-2.09c.25-.64.6-1.2,1.04-1.68.45-.48.97-.85,1.58-1.11.61-.26,1.27-.39,1.98-.39s1.4.13,2,.39c.61.26,1.13.63,1.57,1.11.44.48.79,1.04,1.04,1.68.25.64.37,1.34.37,2.09s-.12,1.45-.37,2.09c-.25.64-.59,1.2-1.04,1.68-.44.48-.96.85-1.57,1.11-.61.26-1.27.39-2,.39ZM303.65,391.93c.56,0,1.07-.14,1.52-.43.45-.29.81-.7,1.07-1.24.26-.54.39-1.17.39-1.9s-.13-1.38-.39-1.91c-.26-.53-.62-.94-1.07-1.22-.45-.28-.96-.42-1.52-.42s-1.05.14-1.5.42c-.45.28-.81.69-1.07,1.22s-.39,1.17-.39,1.91.13,1.36.39,1.9c.26.54.62.95,1.07,1.24.45.29.96.43,1.5.43Z"/><path d="M316.96,389.26v-5.98h1.94v10.16h-1.8v-1.59c-.26.51-.66.94-1.23,1.27-.56.34-1.19.51-1.88.51s-1.28-.13-1.81-.4c-.53-.27-.94-.69-1.23-1.26-.29-.57-.43-1.29-.43-2.16v-6.54h1.94v6.15c0,.88.2,1.52.59,1.91.4.39.91.58,1.55.58.43,0,.83-.11,1.19-.33.36-.22.64-.54.85-.94s.32-.87.32-1.39Z"/><path class="cls-8" d="M342.53,382.59c-1.92-5.07-8.13-2.79-8.71-.26-.79-2.7-6.86-4.71-8.71.27-2.06,5.54,7.99,10.51,8.71,11.33.72-.65,10.77-5.88,8.71-11.33Z"/><circle class="cls-4" cx="84.54" cy="351.07" r="17.32"/><path d="M84.01,353.62c-1.55,2.77-3.03,5.42-4.52,8.07-.19.35-.35.78-.87.62-.5-.16-.38-.6-.34-.98.3-2.68.6-5.36.9-8.04.3-2.7.6-5.39.9-8.09.01-.13.02-.25.05-.38.11-.56.58-.73,1-.33.6.57,1.17,1.16,1.76,1.74.77.77,1.55,1.55,2.36,2.35.55-1.03,1.09-2.03,1.62-3.02.93-1.74,1.86-3.48,2.79-5.22.16-.31.32-.64.76-.54.32.07.47.45.42.91-.6,5.28-1.19,10.55-1.79,15.83-.02.21-.01.44-.09.63-.09.22-.21.51-.39.58-.18.06-.51-.05-.67-.2-1.08-1.03-2.13-2.1-3.18-3.16-.23-.23-.43-.49-.7-.78Z"/><rect class="cls-10" x="245.35" y="385.88" width="115.07" height="379.53" rx="35" ry="35" transform="translate(878.53 272.76) rotate(90)"/><text class="cls-3" transform="translate(136.15 553.19)"><tspan class="cls-1" x="0" y="0">Zigment</tspan><tspan class="cls-6" x="77.11" y="0">: Got it! I’ve scheduled your </tspan><tspan class="cls-6"><tspan x="0" y="21.61">meeting with the specialist for</tspan></tspan><tspan class="cls-6"><tspan x="0" y="43.21">thursday at 3 pm. you’ll receive a</tspan></tspan><tspan class="cls-6"><tspan x="0" y="64.82">confirmation shortly.</tspan></tspan></text><circle class="cls-4" cx="84.54" cy="575.65" r="17.32"/><path d="M84.01,578.2c-1.55,2.77-3.03,5.42-4.52,8.07-.19.35-.35.78-.87.62-.5-.16-.38-.6-.34-.98.3-2.68.6-5.36.9-8.04.3-2.7.6-5.39.9-8.09.01-.13.02-.25.05-.38.11-.56.58-.73,1-.33.6.57,1.17,1.16,1.76,1.74.77.77,1.55,1.55,2.36,2.35.55-1.03,1.09-2.03,1.62-3.02.93-1.74,1.86-3.48,2.79-5.22.16-.31.32-.64.76-.54.32.07.47.45.42.91-.6,5.28-1.19,10.55-1.79,15.83-.02.21-.01.44-.09.63-.09.22-.21.51-.39.58-.18.06-.51-.05-.67-.2-1.08-1.03-2.13-2.1-3.18-3.16-.23-.23-.43-.49-.7-.78Z"/></svg>