<svg xmlns="http://www.w3.org/2000/svg" xmlns:xlink="http://www.w3.org/1999/xlink" width="628" zoomAndPan="magnify" viewBox="0 0 470.87997 470.999988" height="628" preserveAspectRatio="xMidYMid meet" version="1.0"><defs><clipPath id="58dcb0a98c"><path d="M 47.089844 47.148438 L 423.792969 47.148438 L 423.792969 423.851562 L 47.089844 423.851562 Z M 47.089844 47.148438 " clip-rule="nonzero"/></clipPath><clipPath id="77ce983d06"><path d="M 235.441406 47.148438 C 131.417969 47.148438 47.089844 131.476562 47.089844 235.5 C 47.089844 339.523438 131.417969 423.851562 235.441406 423.851562 C 339.464844 423.851562 423.792969 339.523438 423.792969 235.5 C 423.792969 131.476562 339.464844 47.148438 235.441406 47.148438 Z M 235.441406 47.148438 " clip-rule="nonzero"/></clipPath><clipPath id="b0bd39fe2e"><path d="M 47.089844 47.148438 L 423.507812 47.148438 L 423.507812 423.570312 L 47.089844 423.570312 Z M 47.089844 47.148438 " clip-rule="nonzero"/></clipPath><clipPath id="b2259f501d"><path d="M 235.4375 47.148438 C 131.414062 47.148438 47.089844 131.472656 47.089844 235.496094 C 47.089844 339.519531 131.414062 423.84375 235.4375 423.84375 C 339.457031 423.84375 423.785156 339.519531 423.785156 235.496094 C 423.785156 131.472656 339.457031 47.148438 235.4375 47.148438 Z M 235.4375 47.148438 " clip-rule="nonzero"/></clipPath><clipPath id="343b852d06"><path d="M 123 117.09375 L 348 117.09375 L 348 339.992188 L 123 339.992188 Z M 123 117.09375 " clip-rule="nonzero"/></clipPath></defs><g clip-path="url(#58dcb0a98c)"><g clip-path="url(#77ce983d06)"><path fill="#f3f4f7" d="M 47.089844 47.148438 L 423.792969 47.148438 L 423.792969 423.851562 L 47.089844 423.851562 Z M 47.089844 47.148438 " fill-opacity="1" fill-rule="nonzero"/></g></g><g clip-path="url(#b0bd39fe2e)"><g clip-path="url(#b2259f501d)"><path stroke-linecap="butt" transform="matrix(1.476159, 0, 0, 1.476159, 47.087995, 47.148004)" fill="none" stroke-linejoin="miter" d="M 127.594327 0.000293642 C 57.125331 0.000293642 0.00125238 57.124372 0.00125238 127.593368 C 0.00125238 198.062364 57.125331 255.186443 127.594327 255.186443 C 198.060677 255.186443 255.187401 198.062364 255.187401 127.593368 C 255.187401 57.124372 198.060677 0.000293642 127.594327 0.000293642 Z M 127.594327 0.000293642 " stroke="#fad02c" stroke-width="5.079459" stroke-opacity="1" stroke-miterlimit="4"/></g></g><g clip-path="url(#343b852d06)"><path fill="#333333" d="M 235.28125 117.125 C 173.546875 117.125 123.4375 167.222656 123.4375 228.96875 C 123.4375 232.820312 123.640625 236.636719 124.019531 240.394531 C 124.402344 244.160156 124.960938 247.859375 125.710938 251.507812 C 126.457031 255.148438 127.375 258.726562 128.46875 262.21875 C 128.835938 263.492188 130.179688 264.207031 131.4375 263.8125 C 132.710938 263.421875 133.402344 262.078125 132.996094 260.816406 C 131.949219 257.464844 131.070312 254.042969 130.359375 250.558594 C 129.644531 247.0625 129.097656 243.519531 128.730469 239.917969 C 128.359375 236.316406 128.183594 232.667969 128.183594 228.96875 C 128.183594 169.789062 176.101562 121.867188 235.28125 121.867188 C 294.460938 121.867188 342.382812 169.789062 342.382812 228.96875 C 342.382812 232.667969 342.207031 236.316406 341.835938 239.917969 C 341.46875 243.519531 340.921875 247.0625 340.207031 250.558594 C 339.496094 254.042969 338.617188 257.464844 337.570312 260.816406 C 337.164062 262.078125 337.855469 263.421875 339.125 263.8125 C 340.386719 264.207031 341.730469 263.492188 342.097656 262.21875 C 343.191406 258.726562 344.109375 255.148438 344.855469 251.507812 C 345.605469 247.859375 346.164062 244.160156 346.558594 240.394531 C 346.9375 236.636719 347.128906 232.820312 347.128906 228.96875 C 347.128906 167.222656 297.03125 117.125 235.28125 117.125 Z M 219.78125 145.3125 C 216.035156 145.453125 212.71875 147.972656 211.683594 151.8125 C 210.425781 156.546875 213.160156 161.289062 217.878906 162.550781 L 234.734375 167.078125 L 243.320312 158.484375 C 244.664062 157.140625 246.230469 156.140625 247.894531 155.488281 C 247.8125 155.332031 247.753906 155.191406 247.671875 155.046875 C 247.113281 154.074219 246.363281 153.21875 245.472656 152.515625 C 244.566406 151.8125 243.523438 151.28125 242.34375 150.96875 L 222.40625 145.621094 C 221.527344 145.382812 220.636719 145.289062 219.78125 145.3125 Z M 207.058594 150.851562 L 207.046875 150.851562 C 205.917969 151.21875 204.886719 151.828125 204.015625 152.707031 C 200.699219 156.011719 200.9375 161.953125 205.0625 166.152344 L 232.097656 193.210938 C 236.292969 197.40625 242.273438 197.667969 245.601562 194.339844 C 248.929688 190.996094 248.667969 185.019531 244.472656 180.820312 L 235.972656 172.308594 L 234.855469 172.011719 C 234.855469 172.011719 234.84375 172.011719 234.84375 172 L 216.652344 167.125 C 209.558594 165.222656 205.300781 157.949219 207.046875 150.851562 Z M 252.867188 159.234375 C 250.628906 159.234375 248.394531 160.101562 246.671875 161.835938 L 239.445312 169.074219 L 247.824219 177.46875 C 253.589844 183.234375 254.328125 192.292969 248.953125 197.691406 C 246.21875 200.414062 242.558594 201.566406 238.847656 201.292969 C 240.988281 206.238281 240.0625 212.207031 236.03125 216.238281 C 232.773438 219.492188 228.246094 220.742188 224.011719 219.957031 C 224.796875 224.191406 223.5625 228.71875 220.304688 231.976562 C 215.050781 237.242188 206.476562 237.242188 201.222656 231.976562 L 199.953125 230.703125 C 199.75 233.878906 198.453125 236.980469 196.039062 239.40625 C 190.785156 244.660156 182.214844 244.660156 176.960938 239.40625 L 173.15625 235.589844 C 167.863281 242.164062 166.296875 251.902344 169.480469 258.988281 C 170.027344 259.855469 169.945312 260.996094 169.28125 261.78125 C 169.21875 261.863281 169.148438 261.933594 169.066406 262.007812 L 153.957031 277.140625 L 171.976562 295.175781 L 189.917969 313.148438 L 202.746094 300.308594 C 202.292969 298.160156 202.042969 295.921875 202.042969 293.59375 L 202.042969 254.300781 C 202.042969 252.996094 203.101562 251.9375 204.410156 251.9375 L 266.15625 251.9375 C 267.464844 251.9375 268.535156 252.996094 268.535156 254.300781 L 268.535156 258.117188 L 301.261719 226.4375 L 301.285156 226.414062 L 306.230469 221.457031 C 309.691406 217.996094 309.691406 212.527344 306.230469 209.066406 C 302.773438 205.609375 297.316406 205.609375 293.855469 209.066406 L 291.40625 211.515625 C 290.492188 212.445312 288.980469 212.445312 288.054688 211.515625 C 287.128906 210.589844 287.128906 209.09375 288.054688 208.164062 L 290.503906 205.714844 C 293.964844 202.257812 293.964844 196.789062 290.503906 193.316406 C 287.042969 189.855469 281.585938 189.855469 278.128906 193.316406 L 275.679688 195.765625 C 274.765625 196.738281 273.230469 196.765625 272.277344 195.824219 C 271.328125 194.875 271.351562 193.339844 272.328125 192.425781 L 274.777344 189.976562 C 278.234375 186.515625 278.234375 181.035156 274.777344 177.578125 C 271.316406 174.117188 265.859375 174.117188 262.398438 177.578125 L 259.949219 180.023438 C 257.714844 182.210938 254.421875 178.90625 256.597656 176.671875 L 259.046875 174.222656 C 262.507812 170.765625 262.507812 165.296875 259.046875 161.835938 C 257.324219 160.101562 255.089844 159.246094 252.855469 159.246094 Z M 191.664062 163.035156 C 189.429688 163.035156 187.207031 163.90625 185.484375 165.640625 C 182.023438 169.101562 182.023438 174.570312 185.484375 178.027344 L 220.304688 212.882812 C 223.761719 216.355469 229.21875 216.355469 232.679688 212.882812 C 236.140625 209.425781 236.140625 203.957031 232.679688 200.496094 L 228.757812 196.5625 L 228.746094 196.5625 L 225.238281 193.042969 L 197.859375 165.628906 C 196.125 163.90625 193.898438 163.035156 191.664062 163.035156 Z M 175.9375 178.777344 C 173.703125 178.777344 171.480469 179.644531 169.753906 181.378906 C 166.296875 184.839844 166.296875 190.308594 169.753906 193.769531 L 204.574219 228.636719 C 208.035156 232.09375 213.492188 232.09375 216.953125 228.636719 C 220.410156 225.175781 220.410156 219.695312 216.953125 216.238281 L 182.128906 181.378906 C 180.394531 179.644531 178.171875 178.777344 175.9375 178.777344 Z M 168.53125 203.078125 C 166.296875 203.078125 164.074219 203.933594 162.335938 205.667969 C 158.878906 209.128906 158.878906 214.597656 162.335938 218.054688 L 180.3125 236.054688 C 183.769531 239.515625 189.226562 239.515625 192.6875 236.054688 C 196.148438 232.59375 196.148438 227.125 192.6875 223.65625 L 174.710938 205.667969 C 172.988281 203.933594 170.753906 203.078125 168.53125 203.078125 Z M 297.492188 236.671875 L 268.535156 264.703125 L 268.535156 293.59375 C 268.535156 296.171875 268.214844 298.644531 267.667969 301 L 280.636719 313.992188 L 298.585938 296.03125 L 316.609375 277.984375 L 301.738281 263.089844 C 301.109375 262.660156 300.738281 261.945312 300.726562 261.1875 C 300.703125 260.6875 300.847656 260.199219 301.121094 259.78125 C 304.449219 252.78125 302.714844 243.566406 297.492188 236.671875 Z M 206.773438 256.667969 L 206.773438 293.59375 C 206.773438 304.992188 213.957031 314.253906 221.398438 320.746094 C 228.042969 326.535156 233.914062 329.519531 235.28125 330.195312 C 236.636719 329.519531 242.523438 326.535156 249.167969 320.746094 C 256.609375 314.253906 263.789062 304.992188 263.789062 293.59375 L 263.789062 256.667969 Z M 252.164062 274.535156 C 254.316406 274.464844 255.445312 277.082031 253.898438 278.601562 L 230.753906 301.949219 C 229.828125 302.878906 228.316406 302.878906 227.390625 301.949219 L 216.667969 291.121094 C 215.691406 290.207031 215.679688 288.660156 216.628906 287.71875 C 217.582031 286.78125 219.113281 286.816406 220.03125 287.792969 L 229.078125 296.910156 L 250.535156 275.261719 C 250.964844 274.820312 251.546875 274.558594 252.164062 274.535156 Z M 144.992188 277.128906 C 143.578125 277.128906 142.175781 277.675781 141.082031 278.78125 L 129.785156 290.085938 C 127.585938 292.285156 127.585938 295.722656 129.785156 297.921875 L 169.160156 337.34375 C 171.359375 339.542969 174.785156 339.542969 176.984375 337.34375 L 188.277344 326.035156 C 190.476562 323.835938 190.476562 320.402344 188.277344 318.203125 L 188.253906 318.179688 L 168.589844 298.492188 L 148.902344 278.78125 C 147.808594 277.6875 146.394531 277.140625 144.992188 277.140625 Z M 325.574219 277.984375 C 324.171875 277.984375 322.769531 278.53125 321.675781 279.625 L 321.640625 279.660156 L 301.988281 299.335938 L 282.289062 319.046875 C 280.089844 321.246094 280.089844 324.679688 282.289062 326.878906 L 293.582031 338.1875 C 295.78125 340.386719 299.21875 340.386719 301.40625 338.1875 L 340.789062 298.765625 C 342.976562 296.566406 342.976562 293.128906 340.789062 290.929688 L 329.496094 279.625 C 328.390625 278.53125 326.988281 277.972656 325.585938 277.972656 Z M 325.574219 277.984375 " fill-opacity="1" fill-rule="nonzero"/></g></svg>