<svg xmlns="http://www.w3.org/2000/svg" xmlns:xlink="http://www.w3.org/1999/xlink" width="628" zoomAndPan="magnify" viewBox="0 0 470.87997 470.999988" height="628" preserveAspectRatio="xMidYMid meet" version="1.0"><defs><clipPath id="1ed60dc06f"><path d="M 47.089844 47.148438 L 423.792969 47.148438 L 423.792969 423.851562 L 47.089844 423.851562 Z M 47.089844 47.148438 " clip-rule="nonzero"/></clipPath><clipPath id="704317676a"><path d="M 235.441406 47.148438 C 131.417969 47.148438 47.089844 131.476562 47.089844 235.5 C 47.089844 339.523438 131.417969 423.851562 235.441406 423.851562 C 339.464844 423.851562 423.792969 339.523438 423.792969 235.5 C 423.792969 131.476562 339.464844 47.148438 235.441406 47.148438 Z M 235.441406 47.148438 " clip-rule="nonzero"/></clipPath><clipPath id="403f1bc15f"><path d="M 47.089844 47.148438 L 423.507812 47.148438 L 423.507812 423.570312 L 47.089844 423.570312 Z M 47.089844 47.148438 " clip-rule="nonzero"/></clipPath><clipPath id="f69c0a4c19"><path d="M 235.4375 47.148438 C 131.414062 47.148438 47.089844 131.472656 47.089844 235.496094 C 47.089844 339.519531 131.414062 423.84375 235.4375 423.84375 C 339.457031 423.84375 423.785156 339.519531 423.785156 235.496094 C 423.785156 131.472656 339.457031 47.148438 235.4375 47.148438 Z M 235.4375 47.148438 " clip-rule="nonzero"/></clipPath><clipPath id="d9ebf2c06f"><path d="M 105.796875 99.144531 L 335 99.144531 L 335 286 L 105.796875 286 Z M 105.796875 99.144531 " clip-rule="nonzero"/></clipPath><clipPath id="ec69be35da"><path d="M 122 159 L 365.597656 159 L 365.597656 358.949219 L 122 358.949219 Z M 122 159 " clip-rule="nonzero"/></clipPath></defs><g clip-path="url(#1ed60dc06f)"><g clip-path="url(#704317676a)"><path fill="#f3f4f7" d="M 47.089844 47.148438 L 423.792969 47.148438 L 423.792969 423.851562 L 47.089844 423.851562 Z M 47.089844 47.148438 " fill-opacity="1" fill-rule="nonzero"/></g></g><g clip-path="url(#403f1bc15f)"><g clip-path="url(#f69c0a4c19)"><path stroke-linecap="butt" transform="matrix(1.476159, 0, 0, 1.476159, 47.087995, 47.148004)" fill="none" stroke-linejoin="miter" d="M 127.594327 0.000293642 C 57.125331 0.000293642 0.00125238 57.124372 0.00125238 127.593368 C 0.00125238 198.062364 57.125331 255.186443 127.594327 255.186443 C 198.060677 255.186443 255.187401 198.062364 255.187401 127.593368 C 255.187401 57.124372 198.060677 0.000293642 127.594327 0.000293642 Z M 127.594327 0.000293642 " stroke="#fad02c" stroke-width="5.079459" stroke-opacity="1" stroke-miterlimit="4"/></g></g><path fill="#333333" d="M 276.070312 213.113281 L 274.203125 213.113281 C 274.203125 208.164062 273.234375 203.363281 271.320312 198.839844 C 269.472656 194.476562 266.832031 190.554688 263.464844 187.1875 C 260.101562 183.824219 256.179688 181.183594 251.816406 179.335938 C 247.292969 177.421875 242.492188 176.453125 237.542969 176.453125 C 232.597656 176.453125 227.796875 177.421875 223.273438 179.335938 C 218.90625 181.183594 214.988281 183.824219 211.621094 187.1875 C 208.257812 190.554688 205.613281 194.472656 203.769531 198.839844 C 201.855469 203.363281 200.886719 208.164062 200.886719 213.113281 L 199.015625 213.113281 C 192.890625 213.113281 187.925781 218.078125 187.925781 224.203125 L 187.925781 273.15625 C 187.925781 279.28125 192.890625 284.246094 199.015625 284.246094 L 276.070312 284.246094 C 282.199219 284.246094 287.164062 279.28125 287.164062 273.15625 L 287.164062 224.203125 C 287.164062 218.078125 282.199219 213.113281 276.070312 213.113281 Z M 241.578125 249.113281 L 241.578125 257.03125 C 241.578125 259.257812 239.769531 261.0625 237.542969 261.0625 C 235.316406 261.0625 233.511719 259.257812 233.511719 257.03125 L 233.511719 249.113281 C 229.824219 247.542969 227.234375 243.882812 227.234375 239.621094 C 227.234375 238.660156 227.367188 237.730469 227.609375 236.851562 C 228.820312 232.5 232.808594 229.3125 237.542969 229.3125 C 242.277344 229.3125 246.265625 232.5 247.476562 236.851562 C 247.722656 237.730469 247.855469 238.660156 247.855469 239.621094 C 247.855469 243.882812 245.265625 247.542969 241.578125 249.113281 Z M 211.8125 213.113281 C 211.8125 198.921875 223.355469 187.378906 237.542969 187.378906 C 251.734375 187.378906 263.277344 198.921875 263.277344 213.113281 Z M 211.8125 213.113281 " fill-opacity="1" fill-rule="nonzero"/><path fill="#333333" d="M 317.382812 163.714844 C 303.085938 163.761719 288.863281 161.789062 275.125 157.855469 C 261.914062 154.074219 249.269531 148.511719 237.542969 141.320312 L 235.535156 140.089844 L 233.558594 141.363281 L 233.332031 141.511719 C 220.644531 149.628906 206.835938 155.636719 192.292969 159.371094 C 179.339844 162.695312 165.976562 164.15625 152.578125 163.71875 L 149.195312 163.609375 L 148.746094 166.960938 C 147.339844 177.390625 146.6875 187.765625 146.816406 197.796875 C 147.003906 212.867188 148.925781 227.304688 152.519531 240.710938 C 156.789062 256.648438 163.476562 271.246094 172.386719 284.097656 C 177.453125 291.402344 183.324219 298.257812 189.835938 304.472656 C 196.835938 311.152344 204.757812 317.269531 213.386719 322.652344 C 219.71875 326.605469 226.574219 330.253906 233.769531 333.496094 C 233.929688 333.570312 234.085938 333.640625 234.246094 333.710938 L 235.628906 334.332031 L 237.050781 333.816406 C 244.574219 331.085938 251.722656 327.871094 258.304688 324.265625 C 267.445312 319.257812 275.777344 313.332031 283.066406 306.65625 C 289.8125 300.476562 295.828125 293.507812 300.941406 285.941406 C 309.828125 272.796875 316.246094 257.527344 320.019531 240.554688 C 325.007812 218.101562 325.378906 192.613281 321.085938 166.847656 L 320.566406 163.707031 Z M 312.707031 238.929688 C 312.652344 239.175781 312.597656 239.417969 312.542969 239.664062 L 290.5625 239.664062 L 290.5625 275.226562 C 290.5625 281.773438 285.253906 287.082031 278.707031 287.082031 L 237.28125 287.082031 L 237.28125 325.734375 C 236.828125 325.910156 236.375 326.082031 235.921875 326.25 C 229.371094 323.253906 223.128906 319.90625 217.351562 316.300781 C 188.277344 298.15625 168.984375 272.378906 159.992188 239.664062 L 184.480469 239.664062 L 184.480469 222.894531 C 184.527344 221.832031 184.832031 217.921875 187.953125 214.511719 C 190.984375 211.203125 194.707031 210.507812 195.78125 210.347656 C 196.636719 210.300781 197.488281 210.25 198.34375 210.203125 C 198.410156 206.863281 198.890625 204.0625 199.390625 201.964844 C 199.742188 200.472656 200.355469 198.296875 201.417969 195.78125 C 203.390625 191.117188 206.214844 186.925781 209.8125 183.328125 C 213.410156 179.730469 217.597656 176.90625 222.265625 174.933594 C 227.042969 172.914062 232.105469 171.878906 237.320312 171.851562 L 237.320312 149.902344 C 248.574219 156.390625 260.578125 161.480469 273.066406 165.058594 C 286.453125 168.886719 300.273438 170.945312 314.195312 171.183594 C 315.777344 181.617188 316.570312 191.976562 316.570312 202.058594 C 316.566406 214.933594 315.277344 227.363281 312.707031 238.929688 Z M 312.707031 238.929688 " fill-opacity="1" fill-rule="nonzero"/><path fill="#333333" d="M 216.792969 210.585938 L 237.320312 210.585938 L 237.320312 192.128906 C 225.988281 192.199219 216.792969 200.453125 216.792969 210.585938 Z M 216.792969 210.585938 " fill-opacity="1" fill-rule="nonzero"/><g clip-path="url(#d9ebf2c06f)"><path fill="#333333" d="M 126.828125 278.78125 C 119.789062 263.558594 115.859375 246.621094 115.859375 228.777344 C 115.859375 162.847656 169.496094 109.210938 235.425781 109.210938 C 250.398438 109.210938 263.480469 112.445312 267.558594 113.597656 C 279.816406 117.046875 290.257812 122.15625 298.917969 127.660156 C 297.820312 130.03125 297.210938 132.675781 297.210938 135.460938 C 297.210938 145.746094 305.550781 154.085938 315.839844 154.085938 C 319.648438 154.085938 323.195312 152.941406 326.148438 150.976562 C 329.027344 149.058594 331.339844 146.363281 332.792969 143.1875 C 333.867188 140.832031 334.464844 138.214844 334.464844 135.457031 C 334.464844 125.171875 326.125 116.832031 315.839844 116.832031 C 312.101562 116.832031 308.621094 117.933594 305.703125 119.828125 C 299.414062 115.765625 292.761719 112.238281 285.890625 109.332031 C 269.902344 102.570312 252.925781 99.140625 235.425781 99.140625 C 217.929688 99.140625 200.949219 102.570312 184.964844 109.332031 C 177.28125 112.578125 169.871094 116.601562 162.941406 121.285156 C 156.078125 125.921875 149.625 131.246094 143.761719 137.109375 C 137.894531 142.976562 132.570312 149.429688 127.933594 156.292969 C 123.25 163.222656 119.230469 170.632812 115.980469 178.316406 C 109.21875 194.300781 105.792969 211.277344 105.792969 228.777344 C 105.792969 246.277344 109.21875 263.253906 115.980469 279.238281 C 116.5625 280.613281 117.167969 281.980469 117.800781 283.335938 C 119.292969 285.058594 121.675781 285.671875 123.683594 284.882812 C 126 283.976562 127.386719 281.386719 126.828125 278.78125 Z M 126.828125 278.78125 " fill-opacity="1" fill-rule="nonzero"/></g><g clip-path="url(#ec69be35da)"><path fill="#333333" d="M 354.875 178.316406 C 352.417969 172.511719 349.523438 166.859375 346.230469 161.457031 C 344.4375 159.175781 341.175781 158.78125 339.046875 160.40625 C 337.148438 161.851562 336.523438 164.605469 337.691406 166.886719 C 341.9375 173.867188 347.101562 183.976562 350.683594 196.921875 C 350.683594 196.921875 354.996094 212.652344 354.996094 228.777344 C 354.996094 294.707031 301.355469 348.34375 235.429688 348.34375 C 220.59375 348.34375 208.613281 345.472656 203.277344 343.953125 C 184.386719 338.574219 169.527344 329.109375 158.390625 319.59375 C 159.277344 317.421875 159.765625 315.050781 159.765625 312.5625 C 159.765625 302.273438 151.425781 293.933594 141.136719 293.933594 C 139.257812 293.933594 137.449219 294.214844 135.738281 294.730469 C 128.082031 297.042969 122.507812 304.152344 122.507812 312.5625 C 122.507812 322.851562 130.847656 331.191406 141.136719 331.191406 C 145.105469 331.191406 148.78125 329.949219 151.800781 327.835938 C 155.367188 330.847656 159.089844 333.667969 162.941406 336.269531 C 169.875 340.953125 177.28125 344.972656 184.964844 348.222656 C 200.949219 354.984375 217.929688 358.414062 235.429688 358.414062 C 252.925781 358.414062 269.902344 354.984375 285.890625 348.222656 C 293.574219 344.972656 300.980469 340.953125 307.914062 336.269531 C 314.777344 331.632812 321.230469 326.308594 327.09375 320.445312 C 332.960938 314.578125 338.285156 308.125 342.921875 301.261719 C 347.601562 294.332031 351.625 286.921875 354.875 279.238281 C 361.636719 263.253906 365.0625 246.277344 365.0625 228.777344 C 365.0625 211.277344 361.636719 194.300781 354.875 178.316406 Z M 354.875 178.316406 " fill-opacity="1" fill-rule="nonzero"/></g></svg>