<svg xmlns="http://www.w3.org/2000/svg" xmlns:xlink="http://www.w3.org/1999/xlink" width="628" zoomAndPan="magnify" viewBox="0 0 470.87997 470.999988" height="628" preserveAspectRatio="xMidYMid meet" version="1.0"><defs><clipPath id="b4bc79f84f"><path d="M 59.210938 59.269531 L 423.792969 59.269531 L 423.792969 423.851562 L 59.210938 423.851562 Z M 59.210938 59.269531 " clip-rule="nonzero"/></clipPath><clipPath id="b04e395704"><path d="M 241.5 59.269531 C 140.824219 59.269531 59.210938 140.882812 59.210938 241.5625 C 59.210938 342.238281 140.824219 423.851562 241.5 423.851562 C 342.175781 423.851562 423.792969 342.238281 423.792969 241.5625 C 423.792969 140.882812 342.175781 59.269531 241.5 59.269531 Z M 241.5 59.269531 " clip-rule="nonzero"/></clipPath><clipPath id="ff28c3ebbe"><path d="M 59.210938 59.269531 L 423.789062 59.269531 L 423.789062 423.847656 L 59.210938 423.847656 Z M 59.210938 59.269531 " clip-rule="nonzero"/></clipPath><clipPath id="6c74f41a80"><path d="M 241.5 59.269531 C 140.824219 59.269531 59.210938 140.882812 59.210938 241.558594 C 59.210938 342.234375 140.824219 423.847656 241.5 423.847656 C 342.171875 423.847656 423.789062 342.234375 423.789062 241.558594 C 423.789062 140.882812 342.171875 59.269531 241.5 59.269531 Z M 241.5 59.269531 " clip-rule="nonzero"/></clipPath><clipPath id="4e1959cbbc"><path d="M 175 258 L 319.785156 258 L 319.785156 371 L 175 371 Z M 175 258 " clip-rule="nonzero"/></clipPath><clipPath id="61a8438568"><path d="M 229 111.085938 L 247 111.085938 L 247 154 L 229 154 Z M 229 111.085938 " clip-rule="nonzero"/></clipPath></defs><g clip-path="url(#b4bc79f84f)"><g clip-path="url(#b04e395704)"><path fill="#f3f4f7" d="M 59.210938 59.269531 L 423.792969 59.269531 L 423.792969 423.851562 L 59.210938 423.851562 Z M 59.210938 59.269531 " fill-opacity="1" fill-rule="nonzero"/></g></g><g clip-path="url(#ff28c3ebbe)"><g clip-path="url(#6c74f41a80)"><path stroke-linecap="butt" transform="matrix(1.525628, 0, 0, 1.525628, 59.209654, 59.269598)" fill="none" stroke-linejoin="miter" d="M 119.485418 -0.0000440599 C 53.495704 -0.0000440599 0.000841127 53.494819 0.000841127 119.484533 C 0.000841127 185.474247 53.495704 238.96911 119.485418 238.96911 C 185.472572 238.96911 238.969995 185.474247 238.969995 119.484533 C 238.969995 53.494819 185.472572 -0.0000440599 119.485418 -0.0000440599 Z M 119.485418 -0.0000440599 " stroke="#fad02c" stroke-width="4.914754" stroke-opacity="1" stroke-miterlimit="4"/></g></g><g clip-path="url(#4e1959cbbc)"><path fill="#333333" d="M 315.746094 351.390625 L 288.414062 326.078125 C 295.894531 315.8125 300.375 303.222656 300.375 289.570312 C 300.375 278.347656 297.371094 267.808594 292.15625 258.714844 C 287.375 261.71875 282.105469 264.558594 276.425781 266.988281 C 280.386719 273.625 282.625 281.296875 282.625 289.570312 C 282.625 314.0625 262.691406 333.96875 238.226562 333.96875 C 213.679688 333.96875 193.746094 314.035156 193.746094 289.570312 C 193.746094 281.296875 195.984375 273.597656 199.945312 266.988281 C 194.265625 264.503906 188.992188 261.664062 184.214844 258.714844 C 179 267.835938 175.996094 278.347656 175.996094 289.570312 C 175.996094 323.867188 203.902344 351.71875 238.199219 351.71875 C 251.851562 351.71875 264.441406 347.238281 274.707031 339.757812 L 300.046875 367.089844 C 300.238281 367.28125 300.429688 367.5 300.648438 367.691406 C 305.152344 371.871094 312.171875 371.597656 316.320312 367.089844 C 320.5 362.585938 320.226562 355.566406 315.746094 351.390625 Z M 315.746094 351.390625 " fill-opacity="1" fill-rule="nonzero"/></g><path fill="#333333" d="M 225.9375 289.542969 C 225.9375 284.65625 221.980469 280.667969 217.0625 280.667969 C 212.148438 280.667969 208.191406 284.628906 208.191406 289.542969 C 208.191406 306.089844 221.652344 319.523438 238.171875 319.523438 C 243.058594 319.523438 247.046875 315.566406 247.046875 310.648438 C 247.046875 305.734375 243.085938 301.777344 238.171875 301.777344 C 231.425781 301.777344 225.9375 296.285156 225.9375 289.542969 Z M 225.9375 289.542969 " fill-opacity="1" fill-rule="nonzero"/><path fill="#333333" d="M 310.941406 219.996094 C 313.753906 216.71875 313.753906 211.882812 310.941406 208.609375 C 309.632812 207.078125 278.257812 170.925781 238.199219 170.925781 C 198.113281 170.925781 166.765625 207.050781 165.457031 208.609375 C 162.644531 211.882812 162.644531 216.71875 165.457031 219.996094 C 166.765625 221.523438 198.140625 257.648438 238.199219 257.648438 C 278.257812 257.648438 309.632812 221.523438 310.941406 219.996094 Z M 207.890625 214.289062 C 207.890625 197.550781 221.460938 183.976562 238.199219 183.976562 C 254.9375 183.976562 268.507812 197.550781 268.507812 214.289062 C 268.507812 231.027344 254.9375 244.597656 238.199219 244.597656 C 221.460938 244.597656 207.890625 231.027344 207.890625 214.289062 Z M 207.890625 214.289062 " fill-opacity="1" fill-rule="nonzero"/><path fill="#333333" d="M 238.199219 196.128906 C 236.480469 196.128906 234.867188 196.457031 233.285156 196.894531 C 234.375 198.367188 235.058594 200.199219 235.058594 202.191406 C 235.058594 207.132812 231.042969 211.148438 226.101562 211.148438 C 224.109375 211.148438 222.308594 210.492188 220.804688 209.371094 C 220.367188 210.957031 220.039062 212.566406 220.039062 214.289062 C 220.039062 224.308594 228.175781 232.445312 238.199219 232.445312 C 248.21875 232.445312 256.355469 224.308594 256.355469 214.289062 C 256.355469 204.265625 248.21875 196.128906 238.199219 196.128906 Z M 238.199219 196.128906 " fill-opacity="1" fill-rule="nonzero"/><g clip-path="url(#61a8438568)"><path fill="#333333" d="M 238.199219 153.203125 C 243.03125 153.203125 246.964844 149.273438 246.964844 144.4375 L 246.964844 120 C 246.964844 115.167969 243.03125 111.234375 238.199219 111.234375 C 233.367188 111.234375 229.433594 115.167969 229.433594 120 L 229.433594 144.464844 C 229.433594 149.300781 233.339844 153.203125 238.199219 153.203125 Z M 238.199219 153.203125 " fill-opacity="1" fill-rule="nonzero"/></g><path fill="#333333" d="M 276.972656 160.933594 C 278.066406 161.394531 279.210938 161.613281 280.332031 161.613281 C 283.773438 161.613281 287.023438 159.566406 288.441406 156.207031 L 297.808594 133.597656 C 299.664062 129.121094 297.535156 124.015625 293.054688 122.15625 C 288.578125 120.300781 283.472656 122.429688 281.613281 126.910156 L 272.25 149.519531 C 270.390625 153.96875 272.523438 159.074219 276.972656 160.933594 Z M 276.972656 160.933594 " fill-opacity="1" fill-rule="nonzero"/><path fill="#333333" d="M 187.957031 156.207031 C 189.347656 159.59375 192.625 161.613281 196.066406 161.613281 C 197.1875 161.613281 198.332031 161.394531 199.425781 160.933594 C 203.902344 159.074219 206.03125 153.941406 204.175781 149.492188 L 194.808594 126.882812 C 192.925781 122.429688 187.792969 120.300781 183.3125 122.15625 C 178.835938 124.015625 176.707031 129.148438 178.5625 133.597656 Z M 187.957031 156.207031 " fill-opacity="1" fill-rule="nonzero"/></svg>