<svg xmlns="http://www.w3.org/2000/svg" xmlns:xlink="http://www.w3.org/1999/xlink" width="328" zoomAndPan="magnify" viewBox="0 0 246 152.249993" height="203" preserveAspectRatio="xMidYMid meet" version="1.0"><defs><g/><clipPath id="7a2b903671"><path d="M 44 4.714844 L 240.460938 4.714844 L 240.460938 146 L 44 146 Z M 44 4.714844 " clip-rule="nonzero"/></clipPath><clipPath id="53fff15c4b"><path d="M 53.363281 4.976562 C 48.226562 4.976562 44.070312 9.136719 44.070312 14.269531 L 44.070312 136.605469 C 44.070312 141.742188 48.226562 145.902344 53.363281 145.902344 L 230.996094 145.902344 C 236.101562 145.902344 240.253906 141.78125 240.292969 136.6875 L 240.292969 14.191406 C 240.253906 9.09375 236.113281 4.976562 230.996094 4.976562 Z M 53.363281 4.976562 " clip-rule="nonzero"/></clipPath><clipPath id="7338c04126"><path d="M 5.316406 99.007812 L 175.636719 99.007812 L 175.636719 130 L 5.316406 130 Z M 5.316406 99.007812 " clip-rule="nonzero"/></clipPath><clipPath id="427db239ff"><path d="M 160.902344 129.730469 L 20.078125 129.730469 C 12.066406 129.730469 5.578125 123.234375 5.578125 115.222656 L 5.578125 113.847656 C 5.578125 105.839844 12.066406 99.351562 20.078125 99.351562 L 160.902344 99.351562 C 168.914062 99.351562 175.402344 105.839844 175.402344 113.847656 L 175.402344 115.222656 C 175.402344 123.234375 168.914062 129.722656 160.902344 129.722656 " clip-rule="nonzero"/></clipPath><clipPath id="2cbe92d956"><path d="M 102 13.554688 L 182.707031 13.554688 L 182.707031 94 L 102 94 Z M 102 13.554688 " clip-rule="nonzero"/></clipPath><clipPath id="7e1e966f9a"><path d="M 142.304688 16.5 C 145.769531 16.5 148.59375 19.324219 148.59375 22.789062 C 148.59375 26.25 145.769531 29.078125 142.304688 29.078125 C 138.84375 29.078125 136.015625 26.25 136.015625 22.789062 C 136.015625 19.324219 138.832031 16.5 142.304688 16.5 M 142.304688 31.972656 C 147.371094 31.972656 151.488281 27.851562 151.488281 22.789062 C 151.488281 17.722656 147.371094 13.601562 142.304688 13.601562 C 137.238281 13.601562 133.121094 17.722656 133.121094 22.789062 C 133.121094 27.851562 137.238281 31.972656 142.304688 31.972656 M 169.382812 24.242188 C 172.84375 24.242188 175.671875 27.066406 175.671875 30.53125 C 175.671875 33.992188 172.84375 36.820312 169.382812 36.820312 C 165.917969 36.820312 163.09375 33.992188 163.09375 30.53125 C 163.09375 27.066406 165.910156 24.242188 169.382812 24.242188 M 169.382812 39.714844 C 174.445312 39.714844 178.566406 35.59375 178.566406 30.53125 C 178.566406 25.464844 174.445312 21.34375 169.382812 21.34375 C 164.316406 21.34375 160.195312 25.464844 160.195312 30.53125 C 160.195312 35.59375 164.316406 39.714844 169.382812 39.714844 M 115.226562 24.242188 C 118.691406 24.242188 121.515625 27.066406 121.515625 30.53125 C 121.515625 33.992188 118.691406 36.820312 115.226562 36.820312 C 111.765625 36.820312 108.9375 33.992188 108.9375 30.53125 C 108.9375 27.066406 111.753906 24.242188 115.226562 24.242188 M 115.226562 39.714844 C 120.292969 39.714844 124.414062 35.59375 124.414062 30.53125 C 124.414062 25.464844 120.292969 21.34375 115.226562 21.34375 C 110.164062 21.34375 106.042969 25.464844 106.042969 30.53125 C 106.042969 35.59375 110.164062 39.714844 115.226562 39.714844 M 179.410156 67.277344 C 179.410156 68.613281 178.328125 69.695312 176.992188 69.695312 C 176.199219 69.695312 175.539062 70.34375 175.539062 71.148438 L 175.539062 88.542969 C 175.539062 89.878906 174.457031 90.960938 173.121094 90.960938 L 165.390625 90.960938 C 164.058594 90.960938 162.972656 89.878906 162.972656 88.542969 L 162.972656 82.742188 C 162.972656 82.324219 162.804688 81.945312 162.515625 81.6875 C 162.476562 81.257812 162.335938 80.832031 162.097656 80.445312 L 160.238281 77.476562 C 159.898438 76.929688 159.847656 76.273438 160.105469 75.695312 C 160.367188 75.140625 160.613281 74.550781 160.824219 73.976562 C 161.03125 73.398438 161.53125 72.949219 162.167969 72.800781 L 165.570312 72.015625 C 166.875 71.714844 167.800781 70.5625 167.800781 69.21875 L 167.800781 65.289062 C 167.800781 63.945312 166.894531 62.800781 165.570312 62.492188 L 162.15625 61.707031 C 161.53125 61.566406 161.023438 61.128906 160.8125 60.542969 C 160.605469 59.953125 160.355469 59.378906 160.097656 58.820312 C 159.828125 58.261719 159.878906 57.597656 160.214844 57.039062 L 162.078125 54.082031 C 162.792969 52.9375 162.625 51.476562 161.667969 50.53125 L 159.03125 47.894531 C 159.070312 47.785156 159.09375 47.683594 159.101562 47.566406 C 159.269531 45.335938 161.171875 43.585938 163.421875 43.585938 L 175.0625 43.585938 C 177.453125 43.585938 179.390625 45.527344 179.390625 47.914062 Z M 150.625 49.328125 C 150.066406 49.066406 149.480469 48.820312 148.902344 48.609375 C 148.324219 48.402344 147.878906 47.902344 147.726562 47.265625 L 146.941406 43.863281 C 146.644531 42.558594 145.488281 41.636719 144.144531 41.636719 L 140.207031 41.636719 C 138.863281 41.636719 137.707031 42.550781 137.410156 43.863281 L 136.621094 47.277344 C 136.484375 47.902344 136.035156 48.410156 135.457031 48.621094 C 134.871094 48.828125 134.292969 49.078125 133.738281 49.335938 C 133.179688 49.605469 132.511719 49.554688 131.957031 49.21875 C 131.996094 49.078125 132.027344 48.949219 132.027344 48.800781 L 132.027344 40.171875 C 132.027344 37.785156 133.964844 35.84375 136.355469 35.84375 L 148.007812 35.84375 C 150.394531 35.84375 152.335938 37.785156 152.335938 40.171875 L 152.335938 48.660156 C 152.335938 48.847656 152.375 49.019531 152.433594 49.175781 L 152.394531 49.199219 C 151.828125 49.535156 151.160156 49.585938 150.605469 49.328125 Z M 142.175781 76.941406 C 136.839844 76.941406 132.503906 72.613281 132.503906 67.269531 C 132.503906 61.925781 136.832031 57.597656 142.175781 57.597656 C 147.519531 57.597656 151.847656 61.925781 151.847656 67.269531 C 151.847656 72.613281 147.519531 76.941406 142.175781 76.941406 M 118.769531 72.035156 L 122.175781 72.8125 C 122.800781 72.949219 123.308594 73.386719 123.515625 73.984375 C 123.726562 74.582031 123.964844 75.148438 124.234375 75.707031 C 124.503906 76.265625 124.453125 76.929688 124.105469 77.488281 L 122.242188 80.453125 C 122.003906 80.839844 121.867188 81.269531 121.824219 81.699219 C 121.546875 81.957031 121.367188 82.335938 121.367188 82.753906 L 121.367188 88.554688 C 121.367188 89.886719 120.285156 90.972656 118.949219 90.972656 L 111.21875 90.972656 C 109.882812 90.972656 108.800781 89.886719 108.800781 88.554688 L 108.800781 71.140625 C 108.800781 70.34375 108.152344 69.6875 107.347656 69.6875 C 106.710938 69.6875 106.101562 69.429688 105.636719 68.980469 C 105.175781 68.523438 104.929688 67.914062 104.929688 67.269531 L 104.929688 47.914062 C 104.929688 45.527344 106.878906 43.585938 109.257812 43.585938 L 120.898438 43.585938 C 123.128906 43.585938 124.980469 45.257812 125.210938 47.476562 C 125.21875 47.617188 125.269531 47.746094 125.320312 47.875 L 122.652344 50.539062 C 121.707031 51.484375 121.535156 52.949219 122.242188 54.09375 L 124.105469 57.050781 C 124.453125 57.597656 124.492188 58.273438 124.222656 58.832031 C 123.957031 59.386719 123.714844 59.964844 123.507812 60.550781 C 123.296875 61.140625 122.800781 61.566406 122.164062 61.714844 L 118.75 62.503906 C 117.445312 62.800781 116.523438 63.953125 116.523438 65.296875 L 116.523438 69.238281 C 116.523438 70.601562 117.4375 71.757812 118.75 72.054688 Z M 175.074219 40.667969 L 163.429688 40.667969 C 159.808594 40.667969 156.734375 43.417969 156.265625 46.980469 C 155.957031 47.046875 155.648438 47.167969 155.359375 47.347656 L 155.242188 47.425781 L 155.242188 40.164062 C 155.242188 36.183594 151.996094 32.929688 148.007812 32.929688 L 136.363281 32.929688 C 132.382812 32.929688 129.128906 36.171875 129.128906 40.164062 L 129.128906 47.425781 L 129.011719 47.347656 C 128.722656 47.15625 128.421875 47.046875 128.09375 46.96875 C 127.628906 43.367188 124.582031 40.660156 120.929688 40.660156 L 109.289062 40.660156 C 105.308594 40.660156 102.054688 43.902344 102.054688 47.894531 L 102.054688 67.269531 C 102.054688 68.691406 102.601562 70.023438 103.617188 71.039062 C 104.273438 71.6875 105.066406 72.144531 105.914062 72.382812 L 105.914062 88.542969 C 105.914062 91.480469 108.300781 93.867188 111.238281 93.867188 L 118.96875 93.867188 C 121.90625 93.867188 124.285156 91.480469 124.285156 88.542969 L 124.285156 85.628906 L 125.449219 86.792969 C 126.394531 87.738281 127.855469 87.90625 129 87.199219 L 131.957031 85.328125 C 132.511719 84.980469 133.179688 84.941406 133.738281 85.210938 C 134.292969 85.480469 134.871094 85.71875 135.457031 85.925781 C 136.046875 86.136719 136.472656 86.632812 136.621094 87.269531 L 137.410156 90.683594 C 137.707031 91.988281 138.863281 92.914062 140.207031 92.914062 L 144.144531 92.914062 C 145.488281 92.914062 146.644531 92.007812 146.941406 90.683594 L 147.726562 87.28125 C 147.867188 86.652344 148.304688 86.144531 148.902344 85.9375 C 149.5 85.726562 150.066406 85.488281 150.625 85.21875 C 151.179688 84.953125 151.847656 85 152.40625 85.347656 L 155.371094 87.210938 C 156.515625 87.925781 157.96875 87.746094 158.921875 86.800781 L 160.085938 85.636719 L 160.085938 88.542969 C 160.085938 91.480469 162.476562 93.867188 165.410156 93.867188 L 173.144531 93.867188 C 176.078125 93.867188 178.464844 91.480469 178.464844 88.542969 L 178.464844 72.382812 C 180.695312 71.757812 182.335938 69.695312 182.335938 67.269531 L 182.335938 47.914062 C 182.335938 43.933594 179.09375 40.679688 175.101562 40.679688 Z M 175.074219 40.667969 " clip-rule="nonzero"/></clipPath></defs><g clip-path="url(#7a2b903671)"><g clip-path="url(#53fff15c4b)"><path fill="#b8b5fc" d="M 0.601562 0 L 245.175781 0 L 245.175781 150.871094 L 0.601562 150.871094 Z M 0.601562 0 " fill-opacity="1" fill-rule="nonzero"/></g></g><g clip-path="url(#7338c04126)"><g clip-path="url(#427db239ff)"><path fill="#ffe4a6" d="M 0.601562 0 L 245.175781 0 L 245.175781 150.871094 L 0.601562 150.871094 Z M 0.601562 0 " fill-opacity="1" fill-rule="nonzero"/></g></g><g clip-path="url(#2cbe92d956)"><g clip-path="url(#7e1e966f9a)"><path fill="#5c4ebd" d="M 0.601562 0 L 245.175781 0 L 245.175781 150.871094 L 0.601562 150.871094 Z M 0.601562 0 " fill-opacity="1" fill-rule="nonzero"/></g></g><g fill="#000000" fill-opacity="1"><g transform="translate(19.257302, 118.094877)"><g><path d="M 1.46875 -9.78125 L 2.859375 -9.78125 L 2.859375 0 L 1.46875 0 Z M 1.46875 -9.78125 "/></g></g></g><g fill="#000000" fill-opacity="1"><g transform="translate(23.629999, 118.094877)"><g><path d="M 5.21875 -7.46875 C 6.164062 -7.46875 6.914062 -7.195312 7.46875 -6.65625 C 8.019531 -6.113281 8.296875 -5.316406 8.296875 -4.265625 L 8.296875 0 L 6.953125 0 L 6.953125 -4.109375 C 6.953125 -4.828125 6.78125 -5.363281 6.4375 -5.71875 C 6.09375 -6.082031 5.597656 -6.265625 4.953125 -6.265625 C 4.234375 -6.265625 3.660156 -6.050781 3.234375 -5.625 C 2.816406 -5.207031 2.609375 -4.601562 2.609375 -3.8125 L 2.609375 0 L 1.265625 0 L 1.265625 -7.40625 L 2.5625 -7.40625 L 2.5625 -6.28125 C 2.832031 -6.664062 3.195312 -6.957031 3.65625 -7.15625 C 4.113281 -7.363281 4.632812 -7.46875 5.21875 -7.46875 Z M 5.21875 -7.46875 "/></g></g></g><g fill="#000000" fill-opacity="1"><g transform="translate(33.185646, 118.094877)"><g><path d="M 5.4375 -0.4375 C 5.238281 -0.269531 4.992188 -0.140625 4.703125 -0.046875 C 4.421875 0.0351562 4.125 0.078125 3.8125 0.078125 C 3.070312 0.078125 2.492188 -0.117188 2.078125 -0.515625 C 1.671875 -0.921875 1.46875 -1.492188 1.46875 -2.234375 L 1.46875 -6.296875 L 0.203125 -6.296875 L 0.203125 -7.40625 L 1.46875 -7.40625 L 1.46875 -9.03125 L 2.8125 -9.03125 L 2.8125 -7.40625 L 4.9375 -7.40625 L 4.9375 -6.296875 L 2.8125 -6.296875 L 2.8125 -2.296875 C 2.8125 -1.890625 2.910156 -1.578125 3.109375 -1.359375 C 3.304688 -1.148438 3.59375 -1.046875 3.96875 -1.046875 C 4.375 -1.046875 4.722656 -1.160156 5.015625 -1.390625 Z M 5.4375 -0.4375 "/></g></g></g><g fill="#000000" fill-opacity="1"><g transform="translate(39.011246, 118.094877)"><g><path d="M 7.96875 -3.65625 C 7.96875 -3.550781 7.957031 -3.414062 7.9375 -3.25 L 1.921875 -3.25 C 2.003906 -2.601562 2.289062 -2.082031 2.78125 -1.6875 C 3.269531 -1.289062 3.878906 -1.09375 4.609375 -1.09375 C 5.492188 -1.09375 6.207031 -1.390625 6.75 -1.984375 L 7.484375 -1.125 C 7.148438 -0.726562 6.734375 -0.425781 6.234375 -0.21875 C 5.734375 -0.0195312 5.175781 0.078125 4.5625 0.078125 C 3.78125 0.078125 3.085938 -0.078125 2.484375 -0.390625 C 1.878906 -0.710938 1.410156 -1.160156 1.078125 -1.734375 C 0.753906 -2.316406 0.59375 -2.972656 0.59375 -3.703125 C 0.59375 -4.421875 0.75 -5.066406 1.0625 -5.640625 C 1.382812 -6.222656 1.828125 -6.671875 2.390625 -6.984375 C 2.953125 -7.304688 3.585938 -7.46875 4.296875 -7.46875 C 5.003906 -7.46875 5.632812 -7.304688 6.1875 -6.984375 C 6.75 -6.671875 7.1875 -6.222656 7.5 -5.640625 C 7.8125 -5.066406 7.96875 -4.40625 7.96875 -3.65625 Z M 4.296875 -6.34375 C 3.660156 -6.34375 3.125 -6.144531 2.6875 -5.75 C 2.257812 -5.363281 2.003906 -4.851562 1.921875 -4.21875 L 6.671875 -4.21875 C 6.597656 -4.84375 6.34375 -5.351562 5.90625 -5.75 C 5.476562 -6.144531 4.941406 -6.34375 4.296875 -6.34375 Z M 4.296875 -6.34375 "/></g></g></g><g fill="#000000" fill-opacity="1"><g transform="translate(47.602945, 118.094877)"><g><path d="M 8.359375 -7.40625 L 8.359375 -1 C 8.359375 0.289062 8.035156 1.242188 7.390625 1.859375 C 6.742188 2.484375 5.785156 2.796875 4.515625 2.796875 C 3.816406 2.796875 3.148438 2.695312 2.515625 2.5 C 1.878906 2.3125 1.367188 2.039062 0.984375 1.6875 L 1.625 0.65625 C 1.96875 0.957031 2.390625 1.191406 2.890625 1.359375 C 3.398438 1.535156 3.925781 1.625 4.46875 1.625 C 5.332031 1.625 5.972656 1.414062 6.390625 1 C 6.804688 0.59375 7.015625 -0.0234375 7.015625 -0.859375 L 7.015625 -1.453125 C 6.691406 -1.066406 6.300781 -0.78125 5.84375 -0.59375 C 5.382812 -0.40625 4.882812 -0.3125 4.34375 -0.3125 C 3.632812 -0.3125 2.992188 -0.460938 2.421875 -0.765625 C 1.847656 -1.066406 1.398438 -1.488281 1.078125 -2.03125 C 0.753906 -2.570312 0.59375 -3.191406 0.59375 -3.890625 C 0.59375 -4.585938 0.753906 -5.207031 1.078125 -5.75 C 1.398438 -6.300781 1.847656 -6.722656 2.421875 -7.015625 C 2.992188 -7.316406 3.632812 -7.46875 4.34375 -7.46875 C 4.90625 -7.46875 5.425781 -7.363281 5.90625 -7.15625 C 6.382812 -6.957031 6.773438 -6.660156 7.078125 -6.265625 L 7.078125 -7.40625 Z M 4.5 -1.484375 C 4.976562 -1.484375 5.410156 -1.582031 5.796875 -1.78125 C 6.191406 -1.988281 6.5 -2.273438 6.71875 -2.640625 C 6.9375 -3.015625 7.046875 -3.429688 7.046875 -3.890625 C 7.046875 -4.609375 6.804688 -5.1875 6.328125 -5.625 C 5.847656 -6.070312 5.238281 -6.296875 4.5 -6.296875 C 3.738281 -6.296875 3.117188 -6.070312 2.640625 -5.625 C 2.171875 -5.1875 1.9375 -4.609375 1.9375 -3.890625 C 1.9375 -3.429688 2.046875 -3.015625 2.265625 -2.640625 C 2.484375 -2.273438 2.785156 -1.988281 3.171875 -1.78125 C 3.554688 -1.582031 4 -1.484375 4.5 -1.484375 Z M 4.5 -1.484375 "/></g></g></g><g fill="#000000" fill-opacity="1"><g transform="translate(57.284328, 118.094877)"><g><path d="M 2.5625 -6.15625 C 2.789062 -6.582031 3.132812 -6.90625 3.59375 -7.125 C 4.050781 -7.351562 4.601562 -7.46875 5.25 -7.46875 L 5.25 -6.171875 C 5.175781 -6.179688 5.070312 -6.1875 4.9375 -6.1875 C 4.21875 -6.1875 3.648438 -5.96875 3.234375 -5.53125 C 2.816406 -5.101562 2.609375 -4.488281 2.609375 -3.6875 L 2.609375 0 L 1.265625 0 L 1.265625 -7.40625 L 2.5625 -7.40625 Z M 2.5625 -6.15625 "/></g></g></g><g fill="#000000" fill-opacity="1"><g transform="translate(63.054048, 118.094877)"><g><path d="M 3.96875 -7.46875 C 4.988281 -7.46875 5.769531 -7.21875 6.3125 -6.71875 C 6.863281 -6.21875 7.140625 -5.46875 7.140625 -4.46875 L 7.140625 0 L 5.859375 0 L 5.859375 -0.984375 C 5.640625 -0.640625 5.320312 -0.375 4.90625 -0.1875 C 4.488281 -0.0078125 4 0.078125 3.4375 0.078125 C 2.601562 0.078125 1.9375 -0.117188 1.4375 -0.515625 C 0.945312 -0.921875 0.703125 -1.445312 0.703125 -2.09375 C 0.703125 -2.75 0.9375 -3.273438 1.40625 -3.671875 C 1.882812 -4.066406 2.640625 -4.265625 3.671875 -4.265625 L 5.796875 -4.265625 L 5.796875 -4.53125 C 5.796875 -5.101562 5.628906 -5.539062 5.296875 -5.84375 C 4.960938 -6.15625 4.46875 -6.3125 3.8125 -6.3125 C 3.375 -6.3125 2.945312 -6.238281 2.53125 -6.09375 C 2.113281 -5.945312 1.757812 -5.753906 1.46875 -5.515625 L 0.90625 -6.515625 C 1.289062 -6.828125 1.75 -7.0625 2.28125 -7.21875 C 2.8125 -7.382812 3.375 -7.46875 3.96875 -7.46875 Z M 3.65625 -0.953125 C 4.164062 -0.953125 4.609375 -1.066406 4.984375 -1.296875 C 5.359375 -1.523438 5.628906 -1.847656 5.796875 -2.265625 L 5.796875 -3.296875 L 3.734375 -3.296875 C 2.597656 -3.296875 2.03125 -2.914062 2.03125 -2.15625 C 2.03125 -1.78125 2.171875 -1.484375 2.453125 -1.265625 C 2.742188 -1.054688 3.144531 -0.953125 3.65625 -0.953125 Z M 3.65625 -0.953125 "/></g></g></g><g fill="#000000" fill-opacity="1"><g transform="translate(71.450167, 118.094877)"><g><path d="M 5.4375 -0.4375 C 5.238281 -0.269531 4.992188 -0.140625 4.703125 -0.046875 C 4.421875 0.0351562 4.125 0.078125 3.8125 0.078125 C 3.070312 0.078125 2.492188 -0.117188 2.078125 -0.515625 C 1.671875 -0.921875 1.46875 -1.492188 1.46875 -2.234375 L 1.46875 -6.296875 L 0.203125 -6.296875 L 0.203125 -7.40625 L 1.46875 -7.40625 L 1.46875 -9.03125 L 2.8125 -9.03125 L 2.8125 -7.40625 L 4.9375 -7.40625 L 4.9375 -6.296875 L 2.8125 -6.296875 L 2.8125 -2.296875 C 2.8125 -1.890625 2.910156 -1.578125 3.109375 -1.359375 C 3.304688 -1.148438 3.59375 -1.046875 3.96875 -1.046875 C 4.375 -1.046875 4.722656 -1.160156 5.015625 -1.390625 Z M 5.4375 -0.4375 "/></g></g></g><g fill="#000000" fill-opacity="1"><g transform="translate(77.275769, 118.094877)"><g><path d="M 1.265625 -7.40625 L 2.609375 -7.40625 L 2.609375 0 L 1.265625 0 Z M 1.9375 -8.828125 C 1.675781 -8.828125 1.457031 -8.910156 1.28125 -9.078125 C 1.113281 -9.242188 1.03125 -9.445312 1.03125 -9.6875 C 1.03125 -9.9375 1.113281 -10.144531 1.28125 -10.3125 C 1.457031 -10.488281 1.675781 -10.578125 1.9375 -10.578125 C 2.195312 -10.578125 2.410156 -10.492188 2.578125 -10.328125 C 2.753906 -10.160156 2.84375 -9.957031 2.84375 -9.71875 C 2.84375 -9.46875 2.753906 -9.253906 2.578125 -9.078125 C 2.410156 -8.910156 2.195312 -8.828125 1.9375 -8.828125 Z M 1.9375 -8.828125 "/></g></g></g><g fill="#000000" fill-opacity="1"><g transform="translate(81.215382, 118.094877)"><g><path d="M 4.4375 0.078125 C 3.707031 0.078125 3.046875 -0.0820312 2.453125 -0.40625 C 1.867188 -0.726562 1.410156 -1.175781 1.078125 -1.75 C 0.753906 -2.320312 0.59375 -2.972656 0.59375 -3.703125 C 0.59375 -4.429688 0.753906 -5.082031 1.078125 -5.65625 C 1.410156 -6.226562 1.867188 -6.671875 2.453125 -6.984375 C 3.046875 -7.304688 3.707031 -7.46875 4.4375 -7.46875 C 5.175781 -7.46875 5.835938 -7.304688 6.421875 -6.984375 C 7.003906 -6.671875 7.457031 -6.226562 7.78125 -5.65625 C 8.113281 -5.082031 8.28125 -4.429688 8.28125 -3.703125 C 8.28125 -2.972656 8.113281 -2.320312 7.78125 -1.75 C 7.457031 -1.175781 7.003906 -0.726562 6.421875 -0.40625 C 5.835938 -0.0820312 5.175781 0.078125 4.4375 0.078125 Z M 4.4375 -1.09375 C 4.914062 -1.09375 5.34375 -1.203125 5.71875 -1.421875 C 6.09375 -1.640625 6.382812 -1.945312 6.59375 -2.34375 C 6.8125 -2.738281 6.921875 -3.191406 6.921875 -3.703125 C 6.921875 -4.210938 6.8125 -4.664062 6.59375 -5.0625 C 6.382812 -5.457031 6.09375 -5.757812 5.71875 -5.96875 C 5.34375 -6.1875 4.914062 -6.296875 4.4375 -6.296875 C 3.96875 -6.296875 3.539062 -6.1875 3.15625 -5.96875 C 2.78125 -5.757812 2.484375 -5.457031 2.265625 -5.0625 C 2.046875 -4.664062 1.9375 -4.210938 1.9375 -3.703125 C 1.9375 -3.191406 2.046875 -2.738281 2.265625 -2.34375 C 2.484375 -1.945312 2.78125 -1.640625 3.15625 -1.421875 C 3.539062 -1.203125 3.96875 -1.09375 4.4375 -1.09375 Z M 4.4375 -1.09375 "/></g></g></g><g fill="#000000" fill-opacity="1"><g transform="translate(90.128394, 118.094877)"><g><path d="M 5.21875 -7.46875 C 6.164062 -7.46875 6.914062 -7.195312 7.46875 -6.65625 C 8.019531 -6.113281 8.296875 -5.316406 8.296875 -4.265625 L 8.296875 0 L 6.953125 0 L 6.953125 -4.109375 C 6.953125 -4.828125 6.78125 -5.363281 6.4375 -5.71875 C 6.09375 -6.082031 5.597656 -6.265625 4.953125 -6.265625 C 4.234375 -6.265625 3.660156 -6.050781 3.234375 -5.625 C 2.816406 -5.207031 2.609375 -4.601562 2.609375 -3.8125 L 2.609375 0 L 1.265625 0 L 1.265625 -7.40625 L 2.5625 -7.40625 L 2.5625 -6.28125 C 2.832031 -6.664062 3.195312 -6.957031 3.65625 -7.15625 C 4.113281 -7.363281 4.632812 -7.46875 5.21875 -7.46875 Z M 5.21875 -7.46875 "/></g></g></g><g fill="#000000" fill-opacity="1"><g transform="translate(99.684041, 118.094877)"><g><path d="M 3.390625 0.078125 C 2.785156 0.078125 2.203125 0 1.640625 -0.15625 C 1.085938 -0.320312 0.648438 -0.53125 0.328125 -0.78125 L 0.890625 -1.84375 C 1.222656 -1.613281 1.617188 -1.425781 2.078125 -1.28125 C 2.546875 -1.144531 3.015625 -1.078125 3.484375 -1.078125 C 4.660156 -1.078125 5.25 -1.410156 5.25 -2.078125 C 5.25 -2.304688 5.171875 -2.484375 5.015625 -2.609375 C 4.859375 -2.742188 4.660156 -2.835938 4.421875 -2.890625 C 4.179688 -2.953125 3.84375 -3.019531 3.40625 -3.09375 C 2.8125 -3.1875 2.328125 -3.296875 1.953125 -3.421875 C 1.578125 -3.546875 1.253906 -3.75 0.984375 -4.03125 C 0.710938 -4.320312 0.578125 -4.726562 0.578125 -5.25 C 0.578125 -5.925781 0.851562 -6.460938 1.40625 -6.859375 C 1.96875 -7.265625 2.71875 -7.46875 3.65625 -7.46875 C 4.15625 -7.46875 4.648438 -7.40625 5.140625 -7.28125 C 5.628906 -7.164062 6.035156 -7.003906 6.359375 -6.796875 L 5.78125 -5.734375 C 5.175781 -6.128906 4.460938 -6.328125 3.640625 -6.328125 C 3.078125 -6.328125 2.644531 -6.234375 2.34375 -6.046875 C 2.050781 -5.859375 1.90625 -5.613281 1.90625 -5.3125 C 1.90625 -5.0625 1.988281 -4.867188 2.15625 -4.734375 C 2.320312 -4.597656 2.523438 -4.492188 2.765625 -4.421875 C 3.015625 -4.359375 3.363281 -4.285156 3.8125 -4.203125 C 4.40625 -4.097656 4.882812 -3.988281 5.25 -3.875 C 5.625 -3.757812 5.941406 -3.5625 6.203125 -3.28125 C 6.460938 -3 6.59375 -2.609375 6.59375 -2.109375 C 6.59375 -1.441406 6.304688 -0.910156 5.734375 -0.515625 C 5.160156 -0.117188 4.378906 0.078125 3.390625 0.078125 Z M 3.390625 0.078125 "/></g></g></g></svg>