<svg xmlns="http://www.w3.org/2000/svg" xmlns:xlink="http://www.w3.org/1999/xlink" width="418" zoomAndPan="magnify" viewBox="0 0 313.5 167.999997" height="224" preserveAspectRatio="xMidYMid meet" version="1.0"><defs><g/><clipPath id="c0c41146bb"><path d="M 4.578125 5 L 162.835938 5 L 162.835938 162.96875 L 4.578125 162.96875 Z M 4.578125 5 " clip-rule="nonzero"/></clipPath><clipPath id="68abbb9f83"><path d="M 153.09375 162.554688 L 14.308594 162.554688 C 9.15625 162.554688 4.992188 158.382812 4.992188 153.230469 L 4.992188 14.449219 C 4.992188 9.300781 9.164062 5.125 14.308594 5.125 L 153.09375 5.125 C 158.246094 5.125 162.421875 9.300781 162.421875 14.449219 L 162.421875 153.230469 C 162.421875 158.382812 158.246094 162.554688 153.09375 162.554688 " clip-rule="nonzero"/></clipPath><clipPath id="ddf19fd1e5"><path d="M 34.003906 88.417969 L 133.40625 88.417969 L 133.40625 135.503906 L 34.003906 135.503906 Z M 34.003906 88.417969 " clip-rule="nonzero"/></clipPath><clipPath id="147b95e242"><path d="M 129.613281 127.808594 C 129.613281 129.90625 127.9375 131.472656 125.949219 131.472656 L 117.164062 131.472656 C 115.066406 131.472656 113.5 129.796875 113.5 127.808594 L 113.5 121.640625 C 113.5 119.542969 115.175781 117.976562 117.164062 117.976562 L 125.949219 117.976562 C 128.046875 117.976562 129.613281 119.652344 129.613281 121.640625 Z M 88.199219 117.976562 C 90.296875 117.976562 91.863281 119.652344 91.863281 121.640625 L 91.863281 127.808594 C 91.863281 129.90625 90.1875 131.472656 88.199219 131.472656 L 79.414062 131.472656 C 77.316406 131.472656 75.75 129.796875 75.75 127.808594 L 75.75 121.640625 C 75.75 119.542969 77.425781 117.976562 79.414062 117.976562 Z M 50.449219 117.976562 C 52.535156 117.976562 54.113281 119.652344 54.113281 121.640625 L 54.113281 127.808594 C 54.113281 129.90625 52.4375 131.472656 50.449219 131.472656 L 41.664062 131.472656 C 39.566406 131.472656 38 129.796875 38 127.808594 L 38 121.640625 C 38 119.542969 39.675781 117.976562 41.664062 117.976562 Z M 125.957031 114.101562 L 123.453125 114.101562 L 123.453125 109.707031 C 123.453125 104.378906 119.160156 100.085938 113.828125 100.085938 L 85.691406 100.085938 L 85.691406 90.578125 C 85.691406 89.53125 84.855469 88.691406 83.804688 88.691406 C 82.757812 88.691406 81.917969 89.53125 81.917969 90.578125 L 81.917969 100.09375 L 53.792969 100.09375 C 48.460938 100.09375 44.167969 104.386719 44.167969 109.71875 L 44.167969 114.113281 L 41.664062 114.113281 C 37.480469 114.113281 34.136719 117.457031 34.136719 121.640625 L 34.136719 127.808594 C 34.136719 131.992188 37.480469 135.339844 41.664062 135.339844 L 50.449219 135.339844 C 54.632812 135.339844 57.976562 131.992188 57.976562 127.808594 L 57.976562 121.640625 C 57.976562 117.457031 54.632812 114.113281 50.449219 114.113281 L 47.933594 114.113281 L 47.933594 109.71875 C 47.933594 106.472656 50.550781 103.96875 53.683594 103.96875 L 81.820312 103.96875 L 81.820312 114.222656 L 79.3125 114.222656 C 75.128906 114.222656 71.785156 117.566406 71.785156 121.75 L 71.785156 127.917969 C 71.785156 132.101562 75.128906 135.449219 79.3125 135.449219 L 88.097656 135.449219 C 92.28125 135.449219 95.628906 132.101562 95.628906 127.917969 L 95.628906 121.75 C 95.628906 117.566406 92.28125 114.222656 88.097656 114.222656 L 85.582031 114.222656 L 85.582031 103.96875 L 113.71875 103.96875 C 116.964844 103.96875 119.46875 106.582031 119.46875 109.71875 L 119.46875 114.113281 L 116.964844 114.113281 C 112.78125 114.113281 109.433594 117.457031 109.433594 121.640625 L 109.433594 127.808594 C 109.433594 131.992188 112.78125 135.339844 116.964844 135.339844 L 125.75 135.339844 C 129.933594 135.339844 133.277344 131.992188 133.277344 127.808594 L 133.277344 121.640625 C 133.488281 117.457031 130.140625 114.113281 125.957031 114.113281 " clip-rule="nonzero"/></clipPath><clipPath id="2cd032c765"><path d="M 41.199219 39.371094 L 126 39.371094 L 126 84.492188 L 41.199219 84.492188 Z M 41.199219 39.371094 " clip-rule="nonzero"/></clipPath><clipPath id="d5ef7bdeb1"><path d="M 66.964844 47.488281 C 63.507812 51.363281 61.421875 56.484375 61.421875 62.136719 C 61.421875 67.785156 63.519531 72.796875 66.964844 76.78125 C 56.820312 72.277344 49.082031 65.058594 46.257812 62.136719 C 49.179688 59.210938 56.929688 51.992188 66.964844 47.488281 M 83.804688 43.613281 C 94.058594 43.613281 102.316406 51.871094 102.316406 62.125 C 102.316406 72.378906 94.058594 80.644531 83.804688 80.644531 C 73.550781 80.644531 65.296875 72.378906 65.296875 62.136719 C 65.296875 51.890625 73.550781 43.625 83.804688 43.625 M 121.347656 62.136719 C 118.519531 65.058594 110.78125 72.277344 100.640625 76.78125 C 104.09375 72.808594 106.179688 67.785156 106.179688 62.136719 C 106.179688 56.484375 104.082031 51.472656 100.640625 47.488281 C 110.683594 51.980469 118.421875 59.199219 121.347656 62.136719 M 83.804688 84.410156 C 106.609375 84.410156 124.589844 64.222656 125.429688 63.28125 C 126.058594 62.554688 126.058594 61.503906 125.429688 60.777344 C 124.589844 59.9375 106.609375 39.75 83.804688 39.75 C 61.003906 39.75 43.019531 59.9375 42.183594 60.875 C 41.554688 61.605469 41.554688 62.652344 42.183594 63.382812 C 43.019531 64.222656 61.003906 84.410156 83.804688 84.410156 " clip-rule="nonzero"/></clipPath><clipPath id="3523b43f1e"><path d="M 73.242188 51.140625 L 94.167969 51.140625 L 94.167969 72.722656 L 73.242188 72.722656 Z M 73.242188 51.140625 " clip-rule="nonzero"/></clipPath><clipPath id="76eccdfa95"><path d="M 83.804688 55.753906 C 87.359375 55.753906 90.1875 58.582031 90.1875 62.136719 C 90.1875 65.6875 87.359375 68.515625 83.804688 68.515625 C 80.25 68.515625 77.425781 65.6875 77.425781 62.136719 C 77.425781 58.582031 80.25 55.753906 83.804688 55.753906 M 83.804688 72.277344 C 89.445312 72.277344 94.058594 67.675781 94.058594 62.023438 C 94.058594 56.375 89.457031 51.769531 83.804688 51.769531 C 78.15625 51.769531 73.550781 56.375 73.550781 62.023438 C 73.550781 67.675781 78.15625 72.277344 83.804688 72.277344 " clip-rule="nonzero"/></clipPath><clipPath id="cf23d87556"><path d="M 137.332031 77.300781 L 308 77.300781 L 308 108.691406 L 137.332031 108.691406 Z M 137.332031 77.300781 " clip-rule="nonzero"/></clipPath><clipPath id="9c93095ae7"><path d="M 151.988281 77.621094 C 143.949219 77.621094 137.441406 84.128906 137.441406 92.167969 L 137.441406 93.554688 C 137.441406 101.589844 143.949219 108.101562 151.988281 108.101562 L 293.28125 108.101562 C 301.277344 108.101562 307.769531 101.652344 307.828125 93.675781 L 307.828125 92.046875 C 307.769531 84.070312 301.277344 77.621094 293.28125 77.621094 Z M 151.988281 77.621094 " clip-rule="nonzero"/></clipPath></defs><g clip-path="url(#c0c41146bb)"><g clip-path="url(#68abbb9f83)"><path fill="#c7fbde" d="M 0 0.132812 L 312.589844 0.132812 L 312.589844 167.546875 L 0 167.546875 Z M 0 0.132812 " fill-opacity="1" fill-rule="nonzero"/></g></g><g clip-path="url(#ddf19fd1e5)"><g clip-path="url(#147b95e242)"><path fill="#65af82" d="M 0 0.132812 L 312.589844 0.132812 L 312.589844 167.546875 L 0 167.546875 Z M 0 0.132812 " fill-opacity="1" fill-rule="nonzero"/></g></g><g clip-path="url(#2cd032c765)"><g clip-path="url(#d5ef7bdeb1)"><path fill="#65af82" d="M 0 0.132812 L 312.589844 0.132812 L 312.589844 167.546875 L 0 167.546875 Z M 0 0.132812 " fill-opacity="1" fill-rule="nonzero"/></g></g><g clip-path="url(#3523b43f1e)"><g clip-path="url(#76eccdfa95)"><path fill="#65af82" d="M 0 0.132812 L 312.589844 0.132812 L 312.589844 167.546875 L 0 167.546875 Z M 0 0.132812 " fill-opacity="1" fill-rule="nonzero"/></g></g><g clip-path="url(#cf23d87556)"><g clip-path="url(#9c93095ae7)"><path fill="#ffe4a6" d="M 0 0.132812 L 312.589844 0.132812 L 312.589844 167.546875 L 0 167.546875 Z M 0 0.132812 " fill-opacity="1" fill-rule="nonzero"/></g></g><g fill="#000000" fill-opacity="1"><g transform="translate(151.160662, 96.431303)"><g><path d="M 9.90625 -9.8125 L 9.90625 0 L 8.5 0 L 8.5 -4.375 L 2.875 -4.375 L 2.875 0 L 1.46875 0 L 1.46875 -9.8125 L 2.875 -9.8125 L 2.875 -5.59375 L 8.5 -5.59375 L 8.5 -9.8125 Z M 9.90625 -9.8125 "/></g></g></g><g fill="#000000" fill-opacity="1"><g transform="translate(162.598294, 96.431303)"><g><path d="M 8.203125 -7.421875 L 8.203125 0 L 6.921875 0 L 6.921875 -1.125 C 6.648438 -0.738281 6.289062 -0.441406 5.84375 -0.234375 C 5.40625 -0.0234375 4.925781 0.078125 4.40625 0.078125 C 3.414062 0.078125 2.632812 -0.191406 2.0625 -0.734375 C 1.488281 -1.285156 1.203125 -2.09375 1.203125 -3.15625 L 1.203125 -7.421875 L 2.546875 -7.421875 L 2.546875 -3.3125 C 2.546875 -2.59375 2.71875 -2.046875 3.0625 -1.671875 C 3.414062 -1.304688 3.914062 -1.125 4.5625 -1.125 C 5.269531 -1.125 5.828125 -1.335938 6.234375 -1.765625 C 6.648438 -2.191406 6.859375 -2.800781 6.859375 -3.59375 L 6.859375 -7.421875 Z M 8.203125 -7.421875 "/></g></g></g><g fill="#000000" fill-opacity="1"><g transform="translate(172.143677, 96.431303)"><g><path d="M 10.5625 -7.5 C 11.5 -7.5 12.238281 -7.226562 12.78125 -6.6875 C 13.332031 -6.144531 13.609375 -5.34375 13.609375 -4.28125 L 13.609375 0 L 12.265625 0 L 12.265625 -4.125 C 12.265625 -4.84375 12.097656 -5.382812 11.765625 -5.75 C 11.429688 -6.113281 10.957031 -6.296875 10.34375 -6.296875 C 9.664062 -6.296875 9.125 -6.082031 8.71875 -5.65625 C 8.3125 -5.226562 8.109375 -4.617188 8.109375 -3.828125 L 8.109375 0 L 6.765625 0 L 6.765625 -4.125 C 6.765625 -4.84375 6.597656 -5.382812 6.265625 -5.75 C 5.941406 -6.113281 5.46875 -6.296875 4.84375 -6.296875 C 4.164062 -6.296875 3.625 -6.082031 3.21875 -5.65625 C 2.820312 -5.226562 2.625 -4.617188 2.625 -3.828125 L 2.625 0 L 1.28125 0 L 1.28125 -7.421875 L 2.5625 -7.421875 L 2.5625 -6.328125 C 2.832031 -6.703125 3.1875 -6.988281 3.625 -7.1875 C 4.0625 -7.394531 4.5625 -7.5 5.125 -7.5 C 5.707031 -7.5 6.222656 -7.378906 6.671875 -7.140625 C 7.117188 -6.910156 7.460938 -6.570312 7.703125 -6.125 C 7.984375 -6.550781 8.375 -6.882812 8.875 -7.125 C 9.375 -7.375 9.9375 -7.5 10.5625 -7.5 Z M 10.5625 -7.5 "/></g></g></g><g fill="#000000" fill-opacity="1"><g transform="translate(187.015402, 96.431303)"><g><path d="M 3.984375 -7.5 C 5.003906 -7.5 5.785156 -7.242188 6.328125 -6.734375 C 6.878906 -6.234375 7.15625 -5.484375 7.15625 -4.484375 L 7.15625 0 L 5.890625 0 L 5.890625 -0.984375 C 5.660156 -0.640625 5.335938 -0.375 4.921875 -0.1875 C 4.503906 -0.0078125 4.015625 0.078125 3.453125 0.078125 C 2.617188 0.078125 1.953125 -0.117188 1.453125 -0.515625 C 0.953125 -0.921875 0.703125 -1.453125 0.703125 -2.109375 C 0.703125 -2.753906 0.9375 -3.273438 1.40625 -3.671875 C 1.882812 -4.078125 2.644531 -4.28125 3.6875 -4.28125 L 5.8125 -4.28125 L 5.8125 -4.546875 C 5.8125 -5.117188 5.644531 -5.554688 5.3125 -5.859375 C 4.976562 -6.171875 4.484375 -6.328125 3.828125 -6.328125 C 3.390625 -6.328125 2.957031 -6.253906 2.53125 -6.109375 C 2.113281 -5.972656 1.757812 -5.78125 1.46875 -5.53125 L 0.90625 -6.546875 C 1.289062 -6.859375 1.75 -7.09375 2.28125 -7.25 C 2.8125 -7.414062 3.378906 -7.5 3.984375 -7.5 Z M 3.671875 -0.953125 C 4.179688 -0.953125 4.625 -1.066406 5 -1.296875 C 5.375 -1.523438 5.644531 -1.847656 5.8125 -2.265625 L 5.8125 -3.3125 L 3.734375 -3.3125 C 2.597656 -3.3125 2.03125 -2.925781 2.03125 -2.15625 C 2.03125 -1.78125 2.175781 -1.484375 2.46875 -1.265625 C 2.757812 -1.054688 3.160156 -0.953125 3.671875 -0.953125 Z M 3.671875 -0.953125 "/></g></g></g><g fill="#000000" fill-opacity="1"><g transform="translate(195.453468, 96.431303)"><g><path d="M 5.234375 -7.5 C 6.179688 -7.5 6.929688 -7.222656 7.484375 -6.671875 C 8.046875 -6.128906 8.328125 -5.332031 8.328125 -4.28125 L 8.328125 0 L 6.984375 0 L 6.984375 -4.125 C 6.984375 -4.84375 6.804688 -5.382812 6.453125 -5.75 C 6.109375 -6.113281 5.613281 -6.296875 4.96875 -6.296875 C 4.238281 -6.296875 3.664062 -6.082031 3.25 -5.65625 C 2.832031 -5.226562 2.625 -4.617188 2.625 -3.828125 L 2.625 0 L 1.28125 0 L 1.28125 -7.421875 L 2.5625 -7.421875 L 2.5625 -6.3125 C 2.832031 -6.6875 3.195312 -6.976562 3.65625 -7.1875 C 4.125 -7.394531 4.648438 -7.5 5.234375 -7.5 Z M 5.234375 -7.5 "/></g></g></g><g fill="#000000" fill-opacity="1"><g transform="translate(205.054917, 96.431303)"><g/></g></g><g fill="#000000" fill-opacity="1"><g transform="translate(208.881492, 96.431303)"><g><path d="M 4.328125 0.109375 C 3.585938 0.109375 2.875 -0.00390625 2.1875 -0.234375 C 1.5 -0.460938 0.960938 -0.757812 0.578125 -1.125 L 1.09375 -2.21875 C 1.46875 -1.875 1.945312 -1.597656 2.53125 -1.390625 C 3.113281 -1.179688 3.710938 -1.078125 4.328125 -1.078125 C 5.140625 -1.078125 5.742188 -1.210938 6.140625 -1.484375 C 6.546875 -1.765625 6.75 -2.132812 6.75 -2.59375 C 6.75 -2.925781 6.640625 -3.195312 6.421875 -3.40625 C 6.203125 -3.625 5.929688 -3.785156 5.609375 -3.890625 C 5.285156 -4.003906 4.832031 -4.132812 4.25 -4.28125 C 3.507812 -4.457031 2.910156 -4.632812 2.453125 -4.8125 C 2.003906 -4.988281 1.617188 -5.257812 1.296875 -5.625 C 0.972656 -6 0.8125 -6.5 0.8125 -7.125 C 0.8125 -7.644531 0.945312 -8.113281 1.21875 -8.53125 C 1.5 -8.957031 1.921875 -9.296875 2.484375 -9.546875 C 3.046875 -9.796875 3.738281 -9.921875 4.5625 -9.921875 C 5.144531 -9.921875 5.71875 -9.84375 6.28125 -9.6875 C 6.84375 -9.539062 7.320312 -9.328125 7.71875 -9.046875 L 7.265625 -7.9375 C 6.847656 -8.195312 6.40625 -8.394531 5.9375 -8.53125 C 5.46875 -8.664062 5.007812 -8.734375 4.5625 -8.734375 C 3.769531 -8.734375 3.175781 -8.585938 2.78125 -8.296875 C 2.382812 -8.003906 2.1875 -7.628906 2.1875 -7.171875 C 2.1875 -6.835938 2.296875 -6.566406 2.515625 -6.359375 C 2.742188 -6.148438 3.023438 -5.984375 3.359375 -5.859375 C 3.691406 -5.742188 4.140625 -5.625 4.703125 -5.5 C 5.441406 -5.320312 6.035156 -5.140625 6.484375 -4.953125 C 6.929688 -4.773438 7.316406 -4.503906 7.640625 -4.140625 C 7.960938 -3.785156 8.125 -3.296875 8.125 -2.671875 C 8.125 -2.160156 7.984375 -1.691406 7.703125 -1.265625 C 7.421875 -0.835938 6.992188 -0.5 6.421875 -0.25 C 5.859375 -0.0078125 5.160156 0.109375 4.328125 0.109375 Z M 4.328125 0.109375 "/></g></g></g><g fill="#000000" fill-opacity="1"><g transform="translate(217.641939, 96.431303)"><g><path d="M 8.203125 -7.421875 L 8.203125 0 L 6.921875 0 L 6.921875 -1.125 C 6.648438 -0.738281 6.289062 -0.441406 5.84375 -0.234375 C 5.40625 -0.0234375 4.925781 0.078125 4.40625 0.078125 C 3.414062 0.078125 2.632812 -0.191406 2.0625 -0.734375 C 1.488281 -1.285156 1.203125 -2.09375 1.203125 -3.15625 L 1.203125 -7.421875 L 2.546875 -7.421875 L 2.546875 -3.3125 C 2.546875 -2.59375 2.71875 -2.046875 3.0625 -1.671875 C 3.414062 -1.304688 3.914062 -1.125 4.5625 -1.125 C 5.269531 -1.125 5.828125 -1.335938 6.234375 -1.765625 C 6.648438 -2.191406 6.859375 -2.800781 6.859375 -3.59375 L 6.859375 -7.421875 Z M 8.203125 -7.421875 "/></g></g></g><g fill="#000000" fill-opacity="1"><g transform="translate(227.187321, 96.431303)"><g><path d="M 5.21875 -7.5 C 5.9375 -7.5 6.578125 -7.335938 7.140625 -7.015625 C 7.710938 -6.703125 8.160156 -6.257812 8.484375 -5.6875 C 8.804688 -5.113281 8.96875 -4.457031 8.96875 -3.71875 C 8.96875 -2.96875 8.804688 -2.304688 8.484375 -1.734375 C 8.160156 -1.160156 7.710938 -0.710938 7.140625 -0.390625 C 6.578125 -0.078125 5.9375 0.078125 5.21875 0.078125 C 4.6875 0.078125 4.195312 -0.0195312 3.75 -0.21875 C 3.300781 -0.425781 2.925781 -0.726562 2.625 -1.125 L 2.625 2.71875 L 1.28125 2.71875 L 1.28125 -7.421875 L 2.5625 -7.421875 L 2.5625 -6.25 C 2.863281 -6.664062 3.242188 -6.976562 3.703125 -7.1875 C 4.160156 -7.394531 4.664062 -7.5 5.21875 -7.5 Z M 5.109375 -1.09375 C 5.578125 -1.09375 6 -1.203125 6.375 -1.421875 C 6.757812 -1.640625 7.0625 -1.945312 7.28125 -2.34375 C 7.5 -2.738281 7.609375 -3.195312 7.609375 -3.71875 C 7.609375 -4.226562 7.5 -4.679688 7.28125 -5.078125 C 7.0625 -5.472656 6.757812 -5.78125 6.375 -6 C 6 -6.21875 5.578125 -6.328125 5.109375 -6.328125 C 4.640625 -6.328125 4.210938 -6.210938 3.828125 -5.984375 C 3.453125 -5.765625 3.15625 -5.457031 2.9375 -5.0625 C 2.71875 -4.675781 2.609375 -4.226562 2.609375 -3.71875 C 2.609375 -3.195312 2.710938 -2.738281 2.921875 -2.34375 C 3.140625 -1.945312 3.441406 -1.640625 3.828125 -1.421875 C 4.210938 -1.203125 4.640625 -1.09375 5.109375 -1.09375 Z M 5.109375 -1.09375 "/></g></g></g><g fill="#000000" fill-opacity="1"><g transform="translate(236.802789, 96.431303)"><g><path d="M 7.984375 -3.671875 C 7.984375 -3.566406 7.972656 -3.429688 7.953125 -3.265625 L 1.9375 -3.265625 C 2.019531 -2.609375 2.304688 -2.082031 2.796875 -1.6875 C 3.285156 -1.289062 3.894531 -1.09375 4.625 -1.09375 C 5.507812 -1.09375 6.222656 -1.390625 6.765625 -1.984375 L 7.515625 -1.125 C 7.179688 -0.726562 6.765625 -0.425781 6.265625 -0.21875 C 5.765625 -0.0195312 5.203125 0.078125 4.578125 0.078125 C 3.796875 0.078125 3.097656 -0.0820312 2.484375 -0.40625 C 1.878906 -0.726562 1.410156 -1.175781 1.078125 -1.75 C 0.753906 -2.332031 0.59375 -2.988281 0.59375 -3.71875 C 0.59375 -4.4375 0.753906 -5.082031 1.078125 -5.65625 C 1.398438 -6.238281 1.84375 -6.691406 2.40625 -7.015625 C 2.96875 -7.335938 3.601562 -7.5 4.3125 -7.5 C 5.019531 -7.5 5.648438 -7.335938 6.203125 -7.015625 C 6.765625 -6.691406 7.203125 -6.238281 7.515625 -5.65625 C 7.828125 -5.082031 7.984375 -4.421875 7.984375 -3.671875 Z M 4.3125 -6.359375 C 3.664062 -6.359375 3.125 -6.160156 2.6875 -5.765625 C 2.257812 -5.378906 2.007812 -4.867188 1.9375 -4.234375 L 6.703125 -4.234375 C 6.628906 -4.859375 6.375 -5.367188 5.9375 -5.765625 C 5.5 -6.160156 4.957031 -6.359375 4.3125 -6.359375 Z M 4.3125 -6.359375 "/></g></g></g><g fill="#000000" fill-opacity="1"><g transform="translate(245.437083, 96.431303)"><g><path d="M 2.5625 -6.1875 C 2.800781 -6.613281 3.144531 -6.9375 3.59375 -7.15625 C 4.050781 -7.382812 4.609375 -7.5 5.265625 -7.5 L 5.265625 -6.1875 C 5.191406 -6.195312 5.09375 -6.203125 4.96875 -6.203125 C 4.238281 -6.203125 3.664062 -5.984375 3.25 -5.546875 C 2.832031 -5.117188 2.625 -4.503906 2.625 -3.703125 L 2.625 0 L 1.28125 0 L 1.28125 -7.421875 L 2.5625 -7.421875 Z M 2.5625 -6.1875 "/></g></g></g><g fill="#000000" fill-opacity="1"><g transform="translate(251.240013, 96.431303)"><g><path d="M 7.84375 -7.421875 L 4.59375 0 L 3.21875 0 L -0.03125 -7.421875 L 1.375 -7.421875 L 3.921875 -1.46875 L 6.53125 -7.421875 Z M 7.84375 -7.421875 "/></g></g></g><g fill="#000000" fill-opacity="1"><g transform="translate(259.131426, 96.431303)"><g><path d="M 1.28125 -7.421875 L 2.625 -7.421875 L 2.625 0 L 1.28125 0 Z M 1.953125 -8.859375 C 1.691406 -8.859375 1.472656 -8.941406 1.296875 -9.109375 C 1.128906 -9.273438 1.046875 -9.484375 1.046875 -9.734375 C 1.046875 -9.972656 1.128906 -10.175781 1.296875 -10.34375 C 1.472656 -10.519531 1.691406 -10.609375 1.953125 -10.609375 C 2.210938 -10.609375 2.425781 -10.523438 2.59375 -10.359375 C 2.769531 -10.203125 2.859375 -10 2.859375 -9.75 C 2.859375 -9.5 2.769531 -9.285156 2.59375 -9.109375 C 2.425781 -8.941406 2.210938 -8.859375 1.953125 -8.859375 Z M 1.953125 -8.859375 "/></g></g></g><g fill="#000000" fill-opacity="1"><g transform="translate(263.098168, 96.431303)"><g><path d="M 3.40625 0.078125 C 2.800781 0.078125 2.21875 0 1.65625 -0.15625 C 1.09375 -0.320312 0.65625 -0.53125 0.34375 -0.78125 L 0.890625 -1.84375 C 1.222656 -1.613281 1.625 -1.425781 2.09375 -1.28125 C 2.5625 -1.144531 3.03125 -1.078125 3.5 -1.078125 C 4.675781 -1.078125 5.265625 -1.414062 5.265625 -2.09375 C 5.265625 -2.3125 5.1875 -2.484375 5.03125 -2.609375 C 4.875 -2.742188 4.675781 -2.84375 4.4375 -2.90625 C 4.195312 -2.96875 3.859375 -3.035156 3.421875 -3.109375 C 2.816406 -3.203125 2.328125 -3.304688 1.953125 -3.421875 C 1.578125 -3.546875 1.253906 -3.753906 0.984375 -4.046875 C 0.710938 -4.335938 0.578125 -4.742188 0.578125 -5.265625 C 0.578125 -5.941406 0.851562 -6.484375 1.40625 -6.890625 C 1.96875 -7.296875 2.722656 -7.5 3.671875 -7.5 C 4.171875 -7.5 4.664062 -7.4375 5.15625 -7.3125 C 5.65625 -7.195312 6.0625 -7.035156 6.375 -6.828125 L 5.796875 -5.765625 C 5.191406 -6.148438 4.476562 -6.34375 3.65625 -6.34375 C 3.082031 -6.34375 2.644531 -6.25 2.34375 -6.0625 C 2.050781 -5.875 1.90625 -5.628906 1.90625 -5.328125 C 1.90625 -5.085938 1.988281 -4.894531 2.15625 -4.75 C 2.320312 -4.613281 2.53125 -4.507812 2.78125 -4.4375 C 3.03125 -4.375 3.378906 -4.300781 3.828125 -4.21875 C 4.421875 -4.113281 4.898438 -4.003906 5.265625 -3.890625 C 5.640625 -3.773438 5.957031 -3.578125 6.21875 -3.296875 C 6.476562 -3.015625 6.609375 -2.617188 6.609375 -2.109375 C 6.609375 -1.441406 6.320312 -0.910156 5.75 -0.515625 C 5.175781 -0.117188 4.394531 0.078125 3.40625 0.078125 Z M 3.40625 0.078125 "/></g></g></g><g fill="#000000" fill-opacity="1"><g transform="translate(270.176619, 96.431303)"><g><path d="M 1.28125 -7.421875 L 2.625 -7.421875 L 2.625 0 L 1.28125 0 Z M 1.953125 -8.859375 C 1.691406 -8.859375 1.472656 -8.941406 1.296875 -9.109375 C 1.128906 -9.273438 1.046875 -9.484375 1.046875 -9.734375 C 1.046875 -9.972656 1.128906 -10.175781 1.296875 -10.34375 C 1.472656 -10.519531 1.691406 -10.609375 1.953125 -10.609375 C 2.210938 -10.609375 2.425781 -10.523438 2.59375 -10.359375 C 2.769531 -10.203125 2.859375 -10 2.859375 -9.75 C 2.859375 -9.5 2.769531 -9.285156 2.59375 -9.109375 C 2.425781 -8.941406 2.210938 -8.859375 1.953125 -8.859375 Z M 1.953125 -8.859375 "/></g></g></g><g fill="#000000" fill-opacity="1"><g transform="translate(274.14336, 96.431303)"><g><path d="M 4.453125 0.078125 C 3.710938 0.078125 3.046875 -0.0820312 2.453125 -0.40625 C 1.867188 -0.726562 1.410156 -1.175781 1.078125 -1.75 C 0.753906 -2.332031 0.59375 -2.988281 0.59375 -3.71875 C 0.59375 -4.445312 0.753906 -5.097656 1.078125 -5.671875 C 1.410156 -6.242188 1.867188 -6.691406 2.453125 -7.015625 C 3.046875 -7.335938 3.710938 -7.5 4.453125 -7.5 C 5.191406 -7.5 5.851562 -7.335938 6.4375 -7.015625 C 7.019531 -6.691406 7.476562 -6.242188 7.8125 -5.671875 C 8.144531 -5.097656 8.3125 -4.445312 8.3125 -3.71875 C 8.3125 -2.988281 8.144531 -2.332031 7.8125 -1.75 C 7.476562 -1.175781 7.019531 -0.726562 6.4375 -0.40625 C 5.851562 -0.0820312 5.191406 0.078125 4.453125 0.078125 Z M 4.453125 -1.09375 C 4.929688 -1.09375 5.359375 -1.203125 5.734375 -1.421875 C 6.117188 -1.640625 6.414062 -1.945312 6.625 -2.34375 C 6.84375 -2.738281 6.953125 -3.195312 6.953125 -3.71875 C 6.953125 -4.226562 6.84375 -4.679688 6.625 -5.078125 C 6.414062 -5.472656 6.117188 -5.78125 5.734375 -6 C 5.359375 -6.21875 4.929688 -6.328125 4.453125 -6.328125 C 3.972656 -6.328125 3.546875 -6.21875 3.171875 -6 C 2.796875 -5.78125 2.5 -5.472656 2.28125 -5.078125 C 2.0625 -4.679688 1.953125 -4.226562 1.953125 -3.71875 C 1.953125 -3.195312 2.0625 -2.738281 2.28125 -2.34375 C 2.5 -1.945312 2.796875 -1.640625 3.171875 -1.421875 C 3.546875 -1.203125 3.972656 -1.09375 4.453125 -1.09375 Z M 4.453125 -1.09375 "/></g></g></g><g fill="#000000" fill-opacity="1"><g transform="translate(283.100041, 96.431303)"><g><path d="M 5.234375 -7.5 C 6.179688 -7.5 6.929688 -7.222656 7.484375 -6.671875 C 8.046875 -6.128906 8.328125 -5.332031 8.328125 -4.28125 L 8.328125 0 L 6.984375 0 L 6.984375 -4.125 C 6.984375 -4.84375 6.804688 -5.382812 6.453125 -5.75 C 6.109375 -6.113281 5.613281 -6.296875 4.96875 -6.296875 C 4.238281 -6.296875 3.664062 -6.082031 3.25 -5.65625 C 2.832031 -5.226562 2.625 -4.617188 2.625 -3.828125 L 2.625 0 L 1.28125 0 L 1.28125 -7.421875 L 2.5625 -7.421875 L 2.5625 -6.3125 C 2.832031 -6.6875 3.195312 -6.976562 3.65625 -7.1875 C 4.125 -7.394531 4.648438 -7.5 5.234375 -7.5 Z M 5.234375 -7.5 "/></g></g></g></svg>