<svg xmlns="http://www.w3.org/2000/svg" xmlns:xlink="http://www.w3.org/1999/xlink" width="628" zoomAndPan="magnify" viewBox="0 0 470.87997 470.999988" height="628" preserveAspectRatio="xMidYMid meet" version="1.0"><defs><clipPath id="b61b719a20"><path d="M 0 0.0585938 L 470.761719 0.0585938 L 470.761719 470.9375 L 0 470.9375 Z M 0 0.0585938 " clip-rule="nonzero"/></clipPath><clipPath id="17ed58cc35"><path d="M 8 8 L 462.203125 8 L 462.203125 462.261719 L 8 462.261719 Z M 8 8 " clip-rule="nonzero"/></clipPath><clipPath id="eeca0cbfba"><path d="M 34.171875 8.738281 L 436.707031 8.738281 C 450.789062 8.738281 462.203125 20.152344 462.203125 34.230469 L 462.203125 436.769531 C 462.203125 450.847656 450.789062 462.261719 436.707031 462.261719 L 34.171875 462.261719 C 20.09375 462.261719 8.679688 450.847656 8.679688 436.769531 L 8.679688 34.230469 C 8.679688 20.152344 20.09375 8.738281 34.171875 8.738281 Z M 34.171875 8.738281 " clip-rule="nonzero"/></clipPath><clipPath id="c4f84dbb31"><path d="M 235.441406 90.039062 L 410.894531 90.039062 L 410.894531 278.242188 L 235.441406 278.242188 Z M 235.441406 90.039062 " clip-rule="nonzero"/></clipPath><clipPath id="d572a84df7"><path d="M 47.089844 158.734375 L 305.773438 158.734375 L 305.773438 388 L 47.089844 388 Z M 47.089844 158.734375 " clip-rule="nonzero"/></clipPath></defs><g clip-path="url(#b61b719a20)"><path fill="#ffffff" d="M 0 0.0585938 L 470.878906 0.0585938 L 470.878906 470.941406 L 0 470.941406 Z M 0 0.0585938 " fill-opacity="1" fill-rule="nonzero"/><path fill="#ffffff" d="M 0 0.0585938 L 470.878906 0.0585938 L 470.878906 470.941406 L 0 470.941406 Z M 0 0.0585938 " fill-opacity="1" fill-rule="nonzero"/></g><g clip-path="url(#17ed58cc35)"><g clip-path="url(#eeca0cbfba)"><path fill="#ecfcf4" d="M 8.679688 8.738281 L 462.203125 8.738281 L 462.203125 462.261719 L 8.679688 462.261719 Z M 8.679688 8.738281 " fill-opacity="1" fill-rule="nonzero"/></g></g><g clip-path="url(#c4f84dbb31)"><path fill="#ffd815" d="M 404.90625 234.085938 C 404.90625 235.53125 403.734375 236.707031 402.296875 236.707031 L 363.453125 236.707031 L 363.453125 235.648438 C 363.453125 224.875 359.214844 215.0625 352.316406 207.824219 L 352.316406 203.136719 C 352.316406 188.632812 364.113281 176.828125 378.609375 176.828125 C 393.109375 176.828125 404.90625 188.632812 404.90625 203.136719 Z M 357.75 268.523438 L 357.75 235.648438 C 357.75 216.53125 342.179688 200.949219 323.046875 200.949219 C 303.90625 200.949219 288.339844 216.53125 288.339844 235.648438 L 288.339844 268.523438 C 288.339844 270.832031 290.222656 272.710938 292.53125 272.710938 L 353.5625 272.710938 C 355.871094 272.710938 357.75 270.832031 357.75 268.523438 Z M 282.632812 235.648438 L 282.632812 236.707031 L 241.179688 236.707031 L 241.179688 203.136719 C 241.179688 188.632812 252.976562 176.828125 267.476562 176.828125 C 281.976562 176.828125 293.773438 188.632812 293.773438 203.136719 L 293.773438 207.824219 C 286.875 215.0625 282.632812 224.875 282.632812 235.648438 Z M 253.023438 156.671875 C 253.023438 148.6875 259.507812 142.21875 267.476562 142.21875 C 275.449219 142.21875 281.933594 148.6875 281.933594 156.671875 C 281.933594 164.632812 275.449219 171.125 267.476562 171.125 C 259.507812 171.125 253.023438 164.632812 253.023438 156.671875 Z M 274.472656 110.210938 C 274.472656 102.25 280.957031 95.757812 288.929688 95.757812 C 296.898438 95.757812 303.382812 102.25 303.382812 110.210938 C 303.382812 118.171875 296.898438 124.664062 288.929688 124.664062 C 280.957031 124.664062 274.472656 118.171875 274.472656 110.210938 Z M 315.226562 156.671875 L 315.226562 161.601562 C 307.980469 164.65625 302.886719 171.824219 302.886719 180.167969 C 302.886719 187.09375 306.398438 193.226562 311.734375 196.859375 C 307.285156 198.15625 303.148438 200.203125 299.476562 202.847656 C 299.359375 189.355469 290.855469 177.835938 278.929688 173.242188 C 284.1875 169.609375 287.640625 163.527344 287.640625 156.671875 C 287.640625 146.980469 280.753906 138.851562 271.613281 136.929688 C 276.375 132.769531 282.539062 130.363281 288.929688 130.363281 C 303.429688 130.363281 315.226562 142.171875 315.226562 156.671875 Z M 337.5 180.167969 C 337.5 172.207031 331.015625 165.714844 323.046875 165.714844 C 315.078125 165.714844 308.59375 172.207031 308.59375 180.167969 C 308.59375 188.152344 315.078125 194.621094 323.046875 194.621094 C 331.015625 194.621094 337.5 188.152344 337.5 180.167969 Z M 330.867188 156.671875 L 330.867188 161.601562 C 338.109375 164.65625 343.207031 171.824219 343.207031 180.167969 C 343.207031 187.09375 339.695312 193.226562 334.355469 196.859375 C 338.808594 198.15625 342.941406 200.203125 346.617188 202.847656 C 346.730469 189.355469 355.234375 177.835938 367.160156 173.242188 C 361.902344 169.609375 358.449219 163.527344 358.449219 156.671875 C 358.449219 146.980469 365.339844 138.851562 374.472656 136.929688 C 369.714844 132.769531 363.554688 130.363281 357.160156 130.363281 C 342.664062 130.363281 330.867188 142.171875 330.867188 156.671875 Z M 342.707031 110.210938 C 342.707031 102.25 349.191406 95.757812 357.160156 95.757812 C 365.128906 95.757812 371.613281 102.25 371.613281 110.210938 C 371.613281 118.171875 365.128906 124.664062 357.160156 124.664062 C 349.191406 124.664062 342.707031 118.171875 342.707031 110.210938 Z M 393.0625 156.671875 C 393.0625 164.632812 386.582031 171.125 378.609375 171.125 C 370.644531 171.125 364.160156 164.632812 364.160156 156.671875 C 364.160156 148.6875 370.644531 142.21875 378.609375 142.21875 C 386.582031 142.21875 393.0625 148.6875 393.0625 156.671875 Z M 390.066406 173.242188 C 395.320312 169.613281 398.773438 163.527344 398.773438 156.671875 C 398.773438 146.789062 391.628906 138.539062 382.238281 136.832031 C 378.632812 132.289062 373.890625 128.847656 368.589844 126.804688 C 373.859375 123.171875 377.320312 117.089844 377.320312 110.210938 C 377.320312 99.101562 368.28125 90.058594 357.160156 90.058594 C 346.046875 90.058594 337 99.101562 337 110.210938 C 337 117.089844 340.453125 123.148438 345.710938 126.78125 C 333.703125 131.398438 325.15625 143.0625 325.15625 156.671875 L 325.15625 160.113281 C 323.910156 159.984375 322.175781 159.984375 320.933594 160.113281 L 320.933594 156.671875 C 320.933594 143.0625 312.386719 131.398438 300.382812 126.78125 C 305.640625 123.148438 309.09375 117.089844 309.09375 110.210938 C 309.09375 99.101562 300.042969 90.058594 288.929688 90.058594 C 277.8125 90.058594 268.765625 99.101562 268.765625 110.210938 C 268.765625 117.089844 272.226562 123.171875 277.5 126.804688 C 272.203125 128.847656 267.460938 132.289062 263.855469 136.832031 C 254.460938 138.539062 247.316406 146.789062 247.316406 156.671875 C 247.316406 163.527344 250.769531 169.613281 256.027344 173.242188 C 244.019531 177.859375 235.472656 189.523438 235.472656 203.136719 L 235.472656 239.570312 C 235.472656 241.132812 236.75 242.40625 238.324219 242.40625 L 282.632812 242.40625 L 282.632812 268.523438 C 282.632812 273.984375 287.074219 278.410156 292.53125 278.410156 L 353.5625 278.410156 C 359.019531 278.410156 363.453125 273.984375 363.453125 268.523438 L 363.453125 242.40625 L 402.296875 242.40625 C 406.882812 242.40625 410.613281 238.679688 410.613281 234.085938 L 410.613281 203.136719 C 410.613281 189.523438 402.066406 177.859375 390.066406 173.242188 Z M 390.066406 173.242188 " fill-opacity="1" fill-rule="evenodd"/></g><path fill="#000000" d="M 248.160156 241.636719 C 240.554688 241.429688 233.15625 241.636719 225.550781 241.636719 L 128.539062 241.636719 C 119.910156 241.636719 111.480469 241.636719 102.847656 241.636719 C 91.339844 241.429688 81.679688 250.894531 81.472656 262.414062 C 81.269531 271.671875 87.433594 280.105469 96.273438 282.777344 C 99.5625 283.601562 103.054688 283.808594 106.34375 283.601562 L 247.957031 283.601562 C 247.957031 283.601562 248.160156 283.601562 248.160156 283.601562 C 259.671875 283.601562 269.125 274.140625 269.125 262.621094 C 269.125 251.097656 259.671875 241.636719 248.160156 241.636719 Z M 263.78125 264.265625 C 262.960938 272.289062 256.175781 278.460938 248.160156 278.664062 C 248.160156 278.664062 247.957031 278.664062 247.957031 278.664062 L 105.109375 278.664062 C 101 279.074219 96.890625 278.046875 93.394531 275.992188 C 86.203125 270.847656 84.351562 260.972656 89.488281 253.566406 C 90.722656 251.714844 92.574219 250.070312 94.421875 248.835938 C 97.710938 247.191406 101.617188 246.367188 105.316406 246.78125 L 243.023438 246.78125 C 245.078125 246.78125 247.339844 246.574219 249.394531 246.78125 C 258.230469 247.808594 264.601562 255.625 263.78125 264.265625 Z M 263.78125 264.265625 " fill-opacity="1" fill-rule="nonzero"/><path fill="#000000" d="M 243.84375 265.085938 C 246.105469 262.207031 246.3125 258.300781 244.253906 255.007812 C 244.050781 254.597656 243.84375 254.390625 243.640625 254.183594 C 242.613281 253.15625 241.378906 252.128906 239.941406 251.714844 C 238.296875 251.097656 236.652344 251.097656 235.007812 251.511719 C 233.363281 251.921875 231.921875 252.949219 230.691406 254.183594 C 229.457031 255.625 228.839844 257.269531 228.636719 259.328125 C 228.429688 262.824219 230.28125 266.117188 233.363281 267.554688 C 235.007812 268.378906 236.855469 268.585938 238.707031 268.378906 C 238.910156 268.378906 239.324219 268.171875 239.527344 268.171875 L 242.199219 272.082031 L 242.816406 272.90625 C 243.226562 273.523438 243.640625 273.933594 244.460938 274.140625 C 245.078125 274.34375 245.898438 274.34375 246.515625 273.933594 C 247.132812 273.523438 247.542969 273.109375 247.75 272.492188 C 247.957031 271.875 247.957031 271.054688 247.542969 270.4375 Z M 239.941406 262.003906 C 239.734375 262.207031 239.527344 262.414062 239.941406 262.003906 Z M 237.679688 263.03125 C 237.472656 263.03125 237.472656 263.03125 237.679688 263.03125 C 237.472656 263.03125 237.472656 263.03125 237.679688 263.03125 L 236.445312 263.03125 L 236.035156 262.824219 C 236.035156 262.824219 235.828125 262.621094 235.828125 262.824219 C 235.828125 262.824219 235.625 262.824219 235.625 262.621094 L 235.210938 262.414062 C 234.800781 262.003906 234.800781 262.003906 234.597656 261.796875 C 234.597656 261.589844 234.390625 261.589844 234.390625 261.386719 C 234.390625 261.386719 234.183594 261.179688 234.183594 261.179688 C 234.183594 260.972656 233.980469 260.769531 233.980469 260.355469 C 233.980469 260.355469 233.980469 260.152344 233.980469 260.152344 C 233.980469 259.945312 233.980469 259.738281 233.980469 259.535156 C 233.980469 259.535156 233.980469 259.328125 233.980469 259.328125 C 233.980469 259.121094 233.980469 258.917969 234.183594 258.710938 C 234.183594 258.503906 234.390625 258.503906 234.390625 258.300781 L 234.597656 257.886719 C 234.183594 258.300781 234.597656 257.886719 234.597656 257.683594 C 234.597656 257.476562 234.800781 257.476562 235.007812 257.269531 L 235.210938 257.066406 C 235.417969 256.859375 235.625 256.859375 235.828125 256.652344 C 236.035156 256.652344 236.035156 256.652344 236.238281 256.449219 L 236.652344 256.449219 C 236.855469 256.449219 237.0625 256.449219 237.269531 256.449219 L 237.679688 256.449219 L 238.089844 256.652344 C 238.5 256.652344 238.707031 256.859375 238.910156 257.066406 L 239.117188 257.269531 C 239.324219 257.476562 239.324219 257.476562 239.527344 257.683594 C 239.734375 257.886719 239.734375 258.09375 239.941406 258.300781 C 239.941406 258.503906 240.144531 258.503906 240.144531 258.710938 C 240.144531 258.917969 240.144531 259.535156 240.351562 259.535156 C 240.351562 259.535156 240.351562 259.738281 240.351562 259.738281 C 240.351562 259.738281 240.351562 259.738281 240.351562 259.945312 C 240.351562 259.945312 240.351562 260.152344 240.351562 260.152344 C 240.351562 260.152344 240.351562 260.152344 240.351562 260.355469 L 240.144531 260.769531 L 240.144531 260.972656 C 239.941406 261.386719 239.941406 261.386719 239.734375 261.589844 C 239.734375 261.589844 239.527344 261.796875 239.527344 261.796875 L 239.324219 262.003906 C 239.324219 262.003906 239.324219 262.003906 239.117188 262.207031 C 239.117188 262.207031 238.910156 262.207031 238.910156 262.207031 L 238.5 262.414062 C 238.5 262.414062 238.5 262.414062 238.296875 262.414062 C 238.296875 262.414062 238.089844 262.414062 238.089844 262.414062 C 238.296875 263.03125 238.089844 263.03125 237.679688 263.03125 Z M 237.679688 263.03125 " fill-opacity="1" fill-rule="nonzero"/><path fill="#000000" d="M 127.925781 255.417969 C 127.71875 255.625 127.308594 256.035156 127.308594 256.449219 C 127.101562 256.859375 126.898438 257.269531 126.898438 257.886719 L 125.457031 262.414062 L 124.429688 258.300781 C 124.226562 257.476562 124.019531 256.859375 123.8125 256.652344 C 123.609375 256.242188 123.195312 255.625 122.785156 255.417969 C 121.554688 254.390625 119.910156 254.390625 118.675781 255.417969 C 118.265625 255.832031 117.851562 256.242188 117.648438 256.652344 C 117.441406 257.066406 117.238281 257.476562 117.03125 258.503906 L 116.003906 262.414062 L 114.769531 257.886719 C 114.566406 257.269531 114.359375 256.449219 113.949219 255.832031 C 113.535156 255.007812 112.507812 254.597656 111.6875 254.800781 C 110.863281 254.800781 110.25 255.007812 109.632812 255.625 C 109.015625 256.035156 108.808594 256.859375 108.808594 257.476562 C 108.808594 258.09375 109.015625 258.917969 109.222656 259.535156 L 112.304688 268.378906 L 112.714844 269.40625 C 112.921875 269.820312 113.125 270.230469 113.332031 270.640625 C 113.535156 271.054688 113.949219 271.464844 114.359375 271.671875 C 114.769531 271.875 115.386719 272.082031 116.003906 272.082031 C 117.03125 272.289062 118.265625 271.671875 118.882812 270.847656 C 119.292969 270.023438 119.703125 269.203125 119.910156 268.378906 L 120.9375 264.882812 L 121.964844 268.378906 C 122.167969 268.996094 122.375 269.613281 122.582031 270.023438 C 122.785156 270.640625 123.195312 271.054688 123.609375 271.464844 C 124.839844 272.289062 126.484375 272.289062 127.71875 271.464844 C 128.128906 271.054688 128.539062 270.640625 128.746094 270.230469 C 128.953125 269.820312 129.15625 269.40625 129.363281 268.585938 L 132.445312 259.738281 C 132.652344 259.121094 132.855469 258.300781 132.855469 257.683594 C 132.855469 256.859375 132.445312 256.242188 131.828125 255.625 C 130.800781 254.390625 129.15625 254.390625 127.925781 255.417969 Z M 127.925781 255.417969 " fill-opacity="1" fill-rule="nonzero"/><path fill="#000000" d="M 154.4375 255.417969 C 154.027344 255.625 153.820312 256.035156 153.617188 256.652344 C 153.617188 256.859375 153.410156 257.476562 153.203125 258.09375 L 151.765625 262.621094 L 150.738281 258.503906 C 150.53125 257.886719 150.328125 257.269531 150.121094 256.859375 C 149.917969 256.449219 149.503906 255.832031 149.09375 255.625 C 147.859375 254.800781 146.214844 254.800781 144.984375 255.625 C 144.574219 256.035156 144.160156 256.449219 143.957031 256.859375 C 143.957031 257.269531 143.542969 257.683594 143.339844 258.710938 L 142.3125 262.621094 L 141.078125 258.09375 C 140.871094 257.476562 140.667969 256.652344 140.257812 256.035156 C 139.84375 255.214844 138.816406 254.800781 137.996094 255.007812 C 137.171875 255.007812 136.558594 255.214844 135.941406 255.832031 C 135.527344 256.035156 135.324219 256.652344 135.324219 257.269531 C 135.324219 257.886719 135.527344 258.710938 135.734375 259.328125 L 138.816406 268.171875 L 139.230469 269.203125 C 139.433594 269.613281 139.640625 270.023438 139.84375 270.4375 C 140.460938 271.464844 141.488281 271.875 142.515625 271.875 C 143.542969 271.875 144.574219 271.464844 145.1875 270.640625 C 145.601562 269.820312 146.011719 268.996094 146.214844 268.171875 L 147.246094 264.675781 L 148.273438 268.171875 C 148.476562 268.789062 148.683594 269.40625 148.886719 269.820312 C 149.09375 270.4375 149.503906 270.847656 149.917969 271.257812 C 151.148438 272.082031 152.792969 272.082031 154.027344 271.257812 C 154.4375 270.847656 154.847656 270.4375 155.054688 270.023438 C 155.261719 269.613281 155.464844 269.203125 155.671875 268.378906 L 158.753906 259.535156 C 158.960938 258.917969 159.164062 258.09375 159.164062 257.476562 C 159.164062 256.859375 158.960938 256.242188 158.34375 255.625 C 157.109375 254.597656 155.671875 254.597656 154.4375 255.417969 Z M 154.4375 255.417969 " fill-opacity="1" fill-rule="nonzero"/><path fill="#000000" d="M 184.652344 255.625 C 183.625 254.597656 181.773438 254.597656 180.746094 255.625 C 180.539062 255.832031 180.128906 256.242188 180.128906 256.652344 C 180.128906 256.859375 179.925781 257.476562 179.71875 258.09375 L 178.28125 262.621094 L 177.046875 258.503906 C 176.839844 257.886719 176.636719 257.269531 176.429688 256.859375 C 176.222656 256.449219 175.8125 255.832031 175.402344 255.625 C 174.167969 254.800781 172.523438 254.800781 171.292969 255.625 C 170.878906 256.035156 170.46875 256.449219 170.265625 256.859375 C 170.058594 257.269531 170.058594 257.683594 169.648438 258.710938 L 168.414062 262.621094 L 167.179688 258.09375 C 166.976562 257.476562 166.769531 256.652344 166.359375 256.035156 C 165.949219 255.214844 164.921875 254.800781 164.097656 255.007812 C 163.277344 255.007812 162.660156 255.214844 162.042969 255.832031 C 161.425781 256.242188 161.21875 257.066406 161.21875 257.683594 C 161.21875 258.300781 161.425781 259.121094 161.632812 259.738281 L 164.714844 268.585938 L 165.125 269.613281 C 165.332031 270.023438 165.535156 270.4375 165.742188 270.847656 C 166.359375 271.875 167.386719 272.289062 168.414062 272.289062 C 169.441406 272.289062 170.46875 271.875 171.085938 271.054688 C 171.496094 270.230469 171.910156 269.40625 172.113281 268.585938 L 173.140625 265.085938 L 174.167969 268.585938 C 174.375 269.203125 174.582031 269.820312 174.785156 270.230469 C 174.992188 270.847656 175.402344 271.257812 175.8125 271.671875 C 176.429688 272.082031 177.046875 272.492188 177.867188 272.289062 C 178.691406 272.289062 179.308594 272.082031 179.925781 271.671875 C 180.335938 271.257812 180.746094 270.847656 180.953125 270.4375 C 181.15625 270.023438 181.363281 269.40625 181.566406 268.789062 L 184.652344 259.945312 C 184.855469 259.328125 185.0625 258.503906 185.0625 257.886719 C 185.472656 256.652344 185.269531 256.035156 184.652344 255.625 Z M 184.652344 255.625 " fill-opacity="1" fill-rule="nonzero"/><path fill="#000000" d="M 186.089844 266.734375 C 185.472656 267.351562 185.0625 268.171875 185.269531 268.996094 C 185.269531 269.820312 185.679688 270.847656 186.296875 271.464844 C 186.914062 272.082031 187.734375 272.289062 188.554688 272.289062 C 189.378906 272.289062 190.199219 272.082031 190.816406 271.464844 C 191.433594 270.847656 191.84375 270.023438 191.84375 268.996094 C 191.84375 268.171875 191.433594 267.351562 190.816406 266.734375 C 189.171875 265.5 187.324219 265.5 186.089844 266.734375 Z M 186.089844 266.734375 " fill-opacity="1" fill-rule="nonzero"/><g clip-path="url(#d572a84df7)"><path fill="#000000" d="M 294.609375 159.351562 C 292.144531 158.941406 289.472656 158.734375 287.007812 158.941406 L 65.855469 158.941406 C 63.179688 158.734375 60.714844 158.941406 58.042969 159.558594 C 50.644531 161.613281 47.148438 168.402344 47.148438 175.601562 L 47.148438 327.417969 C 47.148438 334.414062 50.027344 340.789062 57.015625 343.257812 C 60.097656 344.082031 63.386719 344.492188 66.675781 344.082031 L 230.894531 344.082031 L 234.800781 377.40625 L 235.625 385.019531 C 235.828125 387.28125 239.324219 388.925781 240.351562 386.25 L 252.273438 360.332031 L 279.8125 363.007812 C 280.429688 363.417969 281.046875 363.210938 281.664062 363.007812 C 282.894531 362.59375 283.308594 361.359375 283.101562 360.125 C 283.101562 359.507812 282.691406 358.890625 282.074219 358.273438 L 262.753906 343.875 L 287.417969 343.875 C 290.296875 344.082031 293.378906 343.667969 296.050781 342.847656 C 302.832031 340.171875 305.710938 333.796875 305.710938 327.007812 L 305.710938 175.398438 C 305.710938 167.992188 302.011719 161.203125 294.609375 159.351562 Z M 52.289062 173.75 C 52.289062 168.609375 56.195312 164.289062 61.332031 163.878906 C 67.085938 163.464844 72.839844 163.878906 78.390625 163.878906 L 272.824219 163.878906 C 278.785156 163.878906 284.746094 163.671875 290.910156 163.878906 C 296.253906 163.878906 300.570312 168.199219 300.777344 173.75 L 300.777344 192.675781 L 80.859375 192.675781 C 71.402344 192.675781 61.742188 192.265625 52.289062 192.675781 L 52.289062 176.21875 C 52.289062 175.398438 52.289062 174.574219 52.289062 173.75 Z M 248.570312 356.21875 L 239.734375 375.347656 L 234.59375 331.121094 L 234.390625 329.0625 L 253.09375 343.050781 C 253.09375 343.050781 253.300781 343.257812 253.503906 343.257812 L 271.796875 356.835938 L 250.628906 354.777344 C 249.804688 354.984375 248.984375 355.394531 248.570312 356.21875 Z M 300.570312 328.652344 C 300.570312 332.972656 297.695312 336.882812 293.582031 338.320312 C 291.117188 338.734375 288.652344 338.9375 286.183594 338.734375 L 255.765625 338.734375 L 238.5 325.976562 L 232.335938 321.453125 C 231.101562 320.835938 229.457031 321.246094 228.839844 322.480469 C 228.636719 322.894531 228.429688 323.304688 228.429688 323.714844 L 230.074219 338.9375 L 68.113281 338.9375 C 66.058594 338.9375 64.003906 338.9375 62.152344 338.9375 C 56.808594 338.9375 52.492188 334.617188 52.289062 329.0625 C 52.289062 328.445312 52.289062 327.625 52.289062 327.007812 L 52.289062 197.820312 L 272.003906 197.820312 C 281.457031 197.820312 291.117188 198.230469 300.570312 197.820312 L 300.570312 325.976562 C 300.570312 327.007812 300.570312 327.828125 300.570312 328.652344 Z M 300.570312 328.652344 " fill-opacity="1" fill-rule="nonzero"/></g><path fill="#000000" d="M 79.625 185.066406 C 81.0625 183.421875 81.679688 181.570312 81.679688 179.511719 C 81.679688 175.808594 79.417969 172.515625 75.925781 171.285156 C 72.636719 170.050781 68.730469 171.078125 66.46875 173.75 C 63.386719 177.453125 63.796875 182.804688 67.292969 186.09375 C 70.992188 189.179688 76.335938 188.769531 79.625 185.066406 Z M 76.542969 178.894531 C 76.542969 179.101562 76.542969 179.101562 76.542969 179.101562 C 76.542969 179.101562 76.542969 179.101562 76.542969 178.894531 Z M 69.347656 179.101562 C 69.347656 178.894531 69.347656 178.894531 69.347656 178.6875 C 69.347656 178.484375 69.554688 178.070312 69.554688 177.867188 C 69.554688 177.660156 69.757812 177.660156 69.757812 177.453125 C 69.757812 177.25 69.964844 177.25 69.964844 177.042969 C 70.167969 176.835938 70.375 176.632812 70.582031 176.425781 L 70.785156 176.425781 C 70.582031 176.632812 70.785156 176.425781 70.992188 176.425781 C 71.199219 176.21875 71.609375 176.21875 71.8125 176.015625 C 71.8125 176.015625 71.199219 176.21875 71.609375 176.015625 L 72.019531 175.808594 L 72.226562 175.808594 C 72.226562 175.808594 72.226562 175.808594 72.429688 175.808594 C 72.429688 175.808594 72.636719 175.808594 72.636719 175.808594 L 73.457031 175.808594 L 74.484375 176.015625 C 74.898438 176.21875 74.898438 176.21875 74.898438 176.21875 L 75.101562 176.425781 L 75.71875 177.042969 L 75.925781 177.453125 C 75.925781 177.660156 76.128906 177.660156 76.128906 177.867188 C 76.128906 178.277344 76.335938 178.277344 76.335938 178.484375 C 76.335938 178.6875 76.128906 178.894531 76.128906 179.101562 C 76.128906 179.304688 76.128906 179.304688 76.128906 179.511719 C 76.128906 179.511719 75.925781 180.128906 75.925781 180.335938 C 75.925781 180.335938 75.925781 180.539062 75.925781 180.539062 C 75.925781 180.539062 75.925781 180.539062 75.71875 180.746094 C 75.511719 180.953125 75.308594 181.363281 75.308594 181.570312 C 75.308594 181.570312 75.101562 181.773438 75.101562 181.773438 C 75.101562 181.773438 74.898438 181.980469 74.898438 181.980469 C 74.691406 181.980469 74.484375 182.390625 74.28125 182.390625 L 74.074219 182.597656 L 73.253906 182.804688 C 73.253906 182.804688 73.046875 182.804688 73.046875 182.804688 C 73.046875 182.804688 72.839844 182.804688 72.839844 182.804688 C 72.636719 182.804688 72.429688 182.804688 72.019531 182.804688 L 71.609375 182.804688 L 71.199219 182.597656 C 70.785156 182.390625 71.402344 182.597656 71.402344 182.597656 C 71.199219 182.390625 70.992188 182.390625 70.785156 182.1875 L 70.375 181.980469 C 69.964844 181.570312 69.964844 181.570312 69.757812 181.363281 L 69.554688 180.953125 L 69.554688 180.539062 C 69.347656 180.335938 69.554688 180.335938 69.554688 180.746094 C 69.554688 180.539062 69.347656 180.128906 69.347656 179.921875 L 69.347656 179.511719 C 69.347656 179.511719 69.347656 179.304688 69.347656 179.101562 Z M 69.347656 179.101562 " fill-opacity="1" fill-rule="nonzero"/><path fill="#000000" d="M 69.347656 179.101562 C 69.554688 178.484375 69.347656 178.894531 69.347656 179.101562 Z M 69.347656 179.101562 " fill-opacity="1" fill-rule="nonzero"/><path fill="#000000" d="M 73.046875 183.007812 L 73.253906 183.007812 C 73.253906 182.804688 73.046875 182.804688 73.046875 183.007812 Z M 73.046875 183.007812 " fill-opacity="1" fill-rule="nonzero"/><path fill="#000000" d="M 90.105469 178.894531 C 90.3125 178.277344 90.105469 178.6875 90.105469 178.894531 Z M 90.105469 178.894531 " fill-opacity="1" fill-rule="nonzero"/><path fill="#000000" d="M 100.382812 185.066406 C 101.820312 183.421875 102.4375 181.570312 102.4375 179.511719 C 102.4375 175.808594 99.972656 172.515625 96.683594 171.285156 C 93.394531 170.050781 89.488281 171.078125 87.230469 173.75 C 84.144531 177.453125 84.558594 182.804688 88.050781 186.09375 C 91.75 189.179688 97.300781 188.769531 100.382812 185.066406 Z M 97.300781 178.894531 C 97.300781 179.101562 97.300781 179.101562 97.300781 179.101562 C 97.300781 178.894531 97.300781 178.894531 97.300781 178.894531 Z M 90.105469 178.894531 C 90.105469 178.6875 90.105469 178.6875 90.105469 178.484375 C 90.105469 178.277344 90.3125 177.867188 90.3125 177.660156 L 90.515625 177.25 L 90.722656 176.835938 C 90.929688 176.425781 90.722656 176.835938 90.722656 176.835938 C 90.929688 176.632812 91.132812 176.425781 91.339844 176.21875 C 91.339844 176.21875 91.546875 176.21875 91.546875 176.21875 C 91.75 176.015625 92.160156 176.015625 92.367188 175.808594 C 92.367188 175.808594 91.75 176.015625 92.160156 175.808594 L 92.574219 175.601562 L 92.777344 175.601562 C 92.777344 175.601562 92.777344 175.601562 92.984375 175.601562 C 92.984375 175.601562 93.1875 175.601562 93.1875 175.601562 L 94.21875 175.601562 L 95.246094 175.808594 C 95.65625 176.015625 95.65625 176.015625 95.65625 176.015625 L 95.859375 176.21875 L 96.066406 176.21875 L 96.683594 176.835938 L 96.890625 177.25 L 97.09375 177.660156 C 97.300781 178.070312 97.300781 178.277344 97.300781 178.484375 C 97.300781 178.6875 97.09375 178.894531 97.09375 179.101562 C 97.09375 179.304688 97.09375 179.304688 97.09375 179.511719 C 97.09375 179.71875 96.890625 180.128906 96.890625 180.335938 C 96.890625 180.335938 96.890625 180.539062 96.890625 180.539062 C 96.890625 180.539062 96.890625 180.539062 96.683594 180.746094 C 96.476562 181.15625 96.273438 181.363281 96.273438 181.570312 C 96.273438 181.570312 96.066406 181.773438 96.066406 181.773438 L 95.859375 181.980469 C 95.65625 181.980469 95.246094 182.390625 95.246094 182.390625 L 95.039062 182.390625 L 94.21875 182.804688 C 94.21875 182.804688 94.011719 182.804688 94.011719 182.804688 C 94.011719 182.804688 93.804688 182.804688 93.804688 182.804688 C 93.601562 182.804688 93.1875 182.804688 92.984375 182.804688 L 92.574219 182.597656 L 92.160156 182.597656 C 91.75 182.390625 92.367188 182.597656 92.367188 182.597656 C 92.160156 182.390625 91.957031 182.390625 91.546875 182.1875 C 91.546875 182.1875 91.339844 181.980469 91.132812 181.980469 C 91.132812 181.980469 90.515625 181.363281 90.515625 181.363281 L 90.3125 181.15625 L 90.105469 180.953125 C 90.105469 180.953125 89.902344 180.335938 89.902344 180.128906 C 89.902344 179.921875 89.902344 179.921875 89.902344 179.71875 C 90.105469 179.511719 90.105469 179.101562 90.105469 178.894531 Z M 90.105469 178.894531 " fill-opacity="1" fill-rule="nonzero"/><path fill="#000000" d="M 121.347656 185.066406 C 122.785156 183.421875 123.402344 181.570312 123.402344 179.511719 C 123.402344 175.808594 121.140625 172.515625 117.648438 171.285156 C 114.359375 170.050781 110.453125 171.078125 108.191406 173.75 C 105.109375 177.453125 105.519531 182.804688 109.015625 186.09375 C 112.714844 189.179688 118.058594 188.769531 121.347656 185.066406 Z M 118.265625 178.894531 Z M 111.070312 178.894531 L 111.070312 178.484375 C 111.070312 178.277344 111.277344 177.867188 111.277344 177.660156 L 111.480469 177.25 C 111.480469 177.042969 111.6875 177.042969 111.6875 176.835938 C 111.894531 176.632812 112.097656 176.425781 112.304688 176.21875 L 112.507812 176.015625 C 112.304688 176.21875 112.507812 176.015625 112.714844 176.015625 C 112.921875 175.808594 113.332031 175.808594 113.535156 175.601562 C 113.535156 175.601562 112.921875 175.808594 113.332031 175.601562 L 113.742188 175.398438 L 113.949219 175.398438 C 113.949219 175.398438 113.949219 175.398438 114.152344 175.398438 C 114.152344 175.398438 114.359375 175.398438 114.359375 175.398438 L 115.179688 175.398438 L 116.210938 175.601562 C 116.414062 175.601562 116.621094 175.808594 116.621094 175.808594 L 116.824219 176.425781 L 117.441406 177.042969 L 117.648438 177.453125 L 117.851562 177.867188 C 118.058594 178.277344 118.058594 178.484375 118.058594 178.6875 C 118.058594 178.894531 117.851562 179.101562 117.851562 179.304688 C 117.851562 179.511719 117.851562 179.511719 117.851562 179.71875 C 117.851562 179.921875 117.648438 180.335938 117.648438 180.539062 C 117.648438 180.539062 117.648438 180.746094 117.648438 180.746094 L 117.238281 181.570312 C 117.238281 181.570312 117.03125 181.773438 117.03125 181.773438 C 117.03125 181.773438 116.824219 181.980469 116.824219 181.980469 C 116.621094 181.980469 116.414062 182.390625 116.210938 182.390625 L 115.796875 182.597656 L 114.976562 182.804688 C 114.976562 182.804688 114.769531 182.804688 114.769531 182.804688 C 114.769531 182.804688 114.769531 182.804688 114.566406 182.804688 C 114.359375 182.804688 114.152344 182.804688 113.742188 182.804688 L 113.332031 182.597656 L 113.125 182.597656 C 112.714844 182.390625 113.332031 182.597656 113.332031 182.597656 C 113.125 182.390625 112.921875 182.390625 112.714844 182.1875 L 112.304688 181.980469 C 111.894531 181.570312 111.894531 181.570312 111.6875 181.363281 L 111.480469 180.953125 L 111.277344 180.746094 L 111.277344 180.539062 C 111.277344 180.335938 111.277344 180.335938 111.277344 180.539062 C 111.277344 180.335938 111.070312 180.128906 111.070312 179.921875 C 111.070312 179.71875 111.070312 179.71875 111.070312 179.511719 C 111.070312 179.511719 111.070312 179.101562 111.070312 178.894531 Z M 111.6875 177.042969 C 111.6875 176.835938 111.6875 176.835938 111.6875 177.042969 Z M 111.6875 177.042969 " fill-opacity="1" fill-rule="nonzero"/><path fill="#000000" d="M 114.769531 183.007812 C 114.976562 183.007812 114.976562 183.007812 114.769531 183.007812 L 114.976562 183.007812 C 114.976562 182.804688 114.769531 182.804688 114.769531 183.007812 Z M 114.769531 183.007812 " fill-opacity="1" fill-rule="nonzero"/></svg>