<?xml version="1.0" encoding="UTF-8"?><svg id="Layer_1" xmlns="http://www.w3.org/2000/svg" viewBox="0 0 303.32 157.68"><defs><style>.cls-1{fill:#76ac86;}.cls-2{fill:#d1f9e0;}.cls-3{fill:#fce4ae;}.cls-4{font-family:Sora-SemiBold, Sora;font-size:14.04px;font-weight:600;}</style></defs><rect class="cls-2" width="157.68" height="157.68" rx="9.34" ry="9.34"/><path class="cls-1" d="M121.16,109.16h-2.51v-4.4c0-5.34-4.3-9.64-9.64-9.64h-28.18v-9.53c0-1.05-.84-1.89-1.89-1.89s-1.89.84-1.89,1.89v9.53h-28.18c-5.34,0-9.64,4.3-9.64,9.64v4.4h-2.52c-4.19,0-7.54,3.35-7.54,7.54v6.18c0,4.19,3.35,7.54,7.54,7.54h8.8c4.19,0,7.54-3.35,7.54-7.54v-6.18c0-4.19-3.35-7.54-7.54-7.54h-2.51v-4.4c0-3.25,2.62-5.76,5.76-5.76h28.18v10.27h-2.51c-4.19,0-7.54,3.35-7.54,7.54v6.18c0,4.19,3.35,7.54,7.54,7.54h8.8c4.19,0,7.54-3.35,7.54-7.54v-6.18c0-4.19-3.35-7.54-7.54-7.54h-2.51v-10.27h28.18c3.25,0,5.76,2.62,5.76,5.76v4.4h-2.51c-4.19,0-7.54,3.35-7.54,7.54v6.18c0,4.19,3.35,7.54,7.54,7.54h8.8c4.19,0,7.54-3.35,7.54-7.54v-6.18c.21-4.19-3.14-7.54-7.33-7.54ZM45.53,113.04c2.1,0,3.67,1.68,3.67,3.67v6.18c0,2.1-1.68,3.67-3.67,3.67h-8.8c-2.1,0-3.67-1.68-3.67-3.67v-6.18c0-2.1,1.68-3.67,3.67-3.67h8.8ZM83.34,113.04c2.1,0,3.67,1.68,3.67,3.67v6.18c0,2.1-1.68,3.67-3.67,3.67h-8.8c-2.1,0-3.67-1.68-3.67-3.67v-6.18c0-2.1,1.68-3.67,3.67-3.67h8.8ZM124.82,122.88c0,2.1-1.68,3.67-3.67,3.67h-8.8c-2.1,0-3.67-1.68-3.67-3.67v-6.18c0-2.1,1.68-3.67,3.67-3.67h8.8c2.1,0,3.67,1.68,3.67,3.67v6.18Z"/><path class="cls-1" d="M78.94,79.41c22.84,0,40.85-20.22,41.69-21.16.63-.73.63-1.78,0-2.51-.84-.84-18.86-21.06-41.69-21.06s-40.85,20.22-41.69,21.16c-.63.73-.63,1.78,0,2.51.84.84,18.86,21.06,41.69,21.06ZM116.55,57.1c-2.83,2.93-10.58,10.16-20.74,14.67,3.46-3.98,5.55-9.01,5.55-14.67s-2.1-10.68-5.55-14.67c10.06,4.51,17.81,11.73,20.74,14.67ZM78.94,38.56c10.27,0,18.54,8.27,18.54,18.54s-8.27,18.54-18.54,18.54-18.54-8.27-18.54-18.54,8.27-18.54,18.54-18.54ZM62.07,42.43c-3.46,3.88-5.55,9.01-5.55,14.67s2.1,10.68,5.55,14.67c-10.16-4.51-17.91-11.73-20.74-14.67,2.93-2.93,10.69-10.16,20.74-14.67Z"/><path class="cls-1" d="M78.94,67.26c5.65,0,10.27-4.61,10.27-10.27s-4.61-10.27-10.27-10.27-10.27,4.61-10.27,10.27,4.61,10.27,10.27,10.27ZM78.94,50.71c3.56,0,6.39,2.83,6.39,6.39s-2.83,6.39-6.39,6.39-6.39-2.83-6.39-6.39,2.83-6.39,6.39-6.39Z"/><rect class="cls-3" x="132.66" y="72.61" width="170.67" height="30.53" rx="14.57" ry="14.57"/><text class="cls-4" transform="translate(146.4 91.79)"><tspan x="0" y="0">Human Supervision</tspan></text></svg>