<svg xmlns="http://www.w3.org/2000/svg" xmlns:xlink="http://www.w3.org/1999/xlink" width="628" zoomAndPan="magnify" viewBox="0 0 470.87997 470.999988" height="628" preserveAspectRatio="xMidYMid meet" version="1.0"><defs><clipPath id="6af0054e2c"><path d="M 0 0.0585938 L 470.761719 0.0585938 L 470.761719 470.9375 L 0 470.9375 Z M 0 0.0585938 " clip-rule="nonzero"/></clipPath><clipPath id="dc49adb73d"><path d="M 8 8 L 462.203125 8 L 462.203125 462.261719 L 8 462.261719 Z M 8 8 " clip-rule="nonzero"/></clipPath><clipPath id="91a5a022ca"><path d="M 34.171875 8.738281 L 436.707031 8.738281 C 450.789062 8.738281 462.203125 20.152344 462.203125 34.230469 L 462.203125 436.769531 C 462.203125 450.847656 450.789062 462.261719 436.707031 462.261719 L 34.171875 462.261719 C 20.09375 462.261719 8.679688 450.847656 8.679688 436.769531 L 8.679688 34.230469 C 8.679688 20.152344 20.09375 8.738281 34.171875 8.738281 Z M 34.171875 8.738281 " clip-rule="nonzero"/></clipPath><clipPath id="85468d5dd5"><path d="M 244 98.675781 L 424 98.675781 L 424 279 L 244 279 Z M 244 98.675781 " clip-rule="nonzero"/></clipPath><clipPath id="59b572bfa0"><path d="M 47.089844 124.757812 L 282.765625 124.757812 L 282.765625 372.257812 L 47.089844 372.257812 Z M 47.089844 124.757812 " clip-rule="nonzero"/></clipPath></defs><g clip-path="url(#6af0054e2c)"><path fill="#ffffff" d="M 0 0.0585938 L 470.878906 0.0585938 L 470.878906 470.941406 L 0 470.941406 Z M 0 0.0585938 " fill-opacity="1" fill-rule="nonzero"/><path fill="#ffffff" d="M 0 0.0585938 L 470.878906 0.0585938 L 470.878906 470.941406 L 0 470.941406 Z M 0 0.0585938 " fill-opacity="1" fill-rule="nonzero"/></g><g clip-path="url(#dc49adb73d)"><g clip-path="url(#91a5a022ca)"><path fill="#fdf3f9" d="M 8.679688 8.738281 L 462.203125 8.738281 L 462.203125 462.261719 L 8.679688 462.261719 Z M 8.679688 8.738281 " fill-opacity="1" fill-rule="nonzero"/></g></g><g clip-path="url(#85468d5dd5)"><path fill="#fad02c" d="M 333.613281 98.839844 C 283.570312 99.007812 243.578125 139.699219 244.230469 189.734375 C 244.289062 194.773438 244.769531 199.769531 245.675781 204.722656 C 246.582031 209.679688 247.894531 214.523438 249.621094 219.253906 C 251.34375 223.988281 253.453125 228.542969 255.949219 232.917969 C 258.441406 237.292969 261.289062 241.429688 264.480469 245.324219 C 264.984375 245.941406 265.386719 246.621094 265.6875 247.359375 C 265.988281 248.097656 266.171875 248.863281 266.242188 249.65625 C 266.3125 250.449219 266.261719 251.234375 266.09375 252.015625 C 265.929688 252.792969 265.648438 253.53125 265.261719 254.226562 L 257.535156 268.074219 C 255.390625 271.910156 258.882812 276.449219 263.144531 275.367188 L 289.3125 268.703125 C 290.226562 268.472656 291.152344 268.402344 292.085938 268.5 C 293.023438 268.59375 293.917969 268.847656 294.761719 269.261719 C 300.550781 272.074219 306.570312 274.234375 312.824219 275.742188 C 319.078125 277.253906 325.421875 278.078125 331.855469 278.214844 C 382.164062 279.351562 423.460938 239.148438 423.621094 188.824219 C 423.773438 139.050781 383.390625 98.671875 333.613281 98.839844 Z M 333.921875 267.183594 C 332.632812 267.183594 331.347656 267.152344 330.0625 267.089844 C 328.777344 267.027344 327.492188 266.933594 326.210938 266.804688 C 324.929688 266.679688 323.65625 266.523438 322.382812 266.335938 C 321.109375 266.144531 319.839844 265.925781 318.578125 265.675781 C 317.316406 265.421875 316.058594 265.140625 314.8125 264.828125 C 313.5625 264.515625 312.324219 264.171875 311.089844 263.800781 C 309.859375 263.425781 308.636719 263.023438 307.425781 262.589844 C 306.214844 262.15625 305.015625 261.691406 303.824219 261.199219 C 302.636719 260.707031 301.460938 260.183594 300.296875 259.636719 C 299.132812 259.085938 297.984375 258.507812 296.847656 257.898438 C 295.710938 257.292969 294.59375 256.660156 293.488281 255.996094 C 292.386719 255.335938 291.296875 254.648438 290.226562 253.929688 C 289.15625 253.214844 288.105469 252.476562 287.070312 251.707031 C 286.039062 250.941406 285.023438 250.152344 284.027344 249.332031 C 283.035156 248.515625 282.058594 247.675781 281.105469 246.8125 C 280.152344 245.949219 279.21875 245.0625 278.308594 244.152344 C 277.398438 243.242188 276.511719 242.308594 275.648438 241.355469 C 274.785156 240.402344 273.945312 239.425781 273.125 238.433594 C 272.308594 237.4375 271.519531 236.421875 270.753906 235.390625 C 269.984375 234.355469 269.246094 233.304688 268.53125 232.234375 C 267.8125 231.164062 267.125 230.074219 266.464844 228.972656 C 265.800781 227.867188 265.167969 226.75 264.5625 225.613281 C 263.953125 224.476562 263.375 223.328125 262.824219 222.164062 C 262.277344 221 261.753906 219.824219 261.261719 218.636719 C 260.769531 217.445312 260.304688 216.246094 259.871094 215.035156 C 259.4375 213.824219 259.035156 212.601562 258.660156 211.367188 C 258.289062 210.136719 257.945312 208.898438 257.632812 207.648438 C 257.320312 206.398438 257.039062 205.144531 256.785156 203.882812 C 256.535156 202.621094 256.316406 201.351562 256.125 200.078125 C 255.9375 198.804688 255.78125 197.527344 255.652344 196.246094 C 255.527344 194.96875 255.433594 193.683594 255.371094 192.398438 C 255.304688 191.113281 255.273438 189.828125 255.273438 188.539062 C 255.273438 145.105469 290.488281 109.894531 333.921875 109.894531 C 377.1875 109.894531 412.292969 144.832031 412.566406 188.035156 C 412.839844 231.382812 377.269531 267.183594 333.921875 267.183594 Z M 333.921875 267.183594 " fill-opacity="1" fill-rule="nonzero"/></g><path fill="#fad02c" d="M 319.863281 150.304688 L 319.902344 150.375 L 324.59375 159.679688 C 324.84375 160.179688 325.054688 160.695312 325.222656 161.230469 C 325.390625 161.765625 325.515625 162.308594 325.597656 162.863281 C 325.679688 163.417969 325.714844 163.976562 325.707031 164.535156 C 325.695312 165.097656 325.644531 165.652344 325.542969 166.203125 C 325.445312 166.753906 325.304688 167.296875 325.117188 167.824219 C 324.933594 168.351562 324.703125 168.863281 324.4375 169.355469 C 324.167969 169.847656 323.863281 170.3125 323.519531 170.757812 C 323.175781 171.199219 322.796875 171.613281 322.386719 171.992188 C 321.980469 172.371094 321.605469 172.78125 321.261719 173.21875 C 320.917969 173.660156 320.613281 174.125 320.347656 174.613281 C 320.078125 175.101562 319.851562 175.605469 319.664062 176.132812 C 319.476562 176.65625 319.335938 177.191406 319.234375 177.742188 C 319.132812 178.289062 319.078125 178.839844 319.066406 179.398438 C 319.054688 179.957031 319.085938 180.507812 319.164062 181.0625 C 319.242188 181.613281 319.363281 182.15625 319.527344 182.6875 C 319.691406 183.21875 319.898438 183.734375 320.144531 184.234375 C 322.960938 189.886719 327.839844 197.683594 335.285156 203.304688 C 336.121094 203.9375 337.027344 204.4375 338.011719 204.796875 C 338.996094 205.15625 340.011719 205.363281 341.058594 205.417969 C 342.105469 205.472656 343.136719 205.371094 344.152344 205.117188 C 345.167969 204.859375 346.125 204.460938 347.019531 203.917969 L 350.039062 202.082031 C 351.414062 201.246094 352.898438 200.753906 354.5 200.605469 C 356.097656 200.457031 357.652344 200.671875 359.152344 201.242188 L 371.160156 205.804688 C 371.800781 206.050781 372.410156 206.351562 372.988281 206.714844 C 373.566406 207.078125 374.105469 207.496094 374.605469 207.964844 C 375.101562 208.433594 375.550781 208.945312 375.945312 209.503906 C 376.34375 210.0625 376.679688 210.652344 376.960938 211.277344 C 377.242188 211.898438 377.457031 212.546875 377.609375 213.210938 C 377.765625 213.878906 377.851562 214.554688 377.871094 215.238281 C 377.890625 215.921875 377.84375 216.601562 377.730469 217.273438 C 377.617188 217.949219 377.4375 218.605469 377.195312 219.246094 C 377.054688 219.613281 376.894531 219.96875 376.714844 220.320312 L 373.386719 226.769531 C 373.117188 227.289062 372.808594 227.785156 372.453125 228.253906 C 372.101562 228.722656 371.710938 229.160156 371.285156 229.5625 C 370.859375 229.964844 370.402344 230.328125 369.914062 230.65625 C 369.425781 230.980469 368.910156 231.265625 368.375 231.503906 C 367.839844 231.742188 367.289062 231.933594 366.71875 232.082031 C 366.148438 232.226562 365.574219 232.324219 364.988281 232.371094 C 364.402344 232.421875 363.820312 232.421875 363.234375 232.371094 C 362.648438 232.320312 362.070312 232.222656 361.503906 232.074219 C 342.644531 227.195312 297.703125 210.234375 294.082031 158.953125 C 294.007812 157.933594 294.085938 156.929688 294.308594 155.933594 C 294.53125 154.9375 294.894531 153.996094 295.394531 153.105469 C 295.894531 152.214844 296.511719 151.417969 297.246094 150.710938 C 297.984375 150.003906 298.804688 149.414062 299.710938 148.949219 L 305.835938 145.800781 C 306.445312 145.488281 307.078125 145.238281 307.734375 145.050781 C 308.390625 144.863281 309.0625 144.742188 309.742188 144.683594 C 310.425781 144.628906 311.105469 144.640625 311.785156 144.71875 C 312.464844 144.792969 313.132812 144.9375 313.78125 145.148438 C 314.433594 145.355469 315.058594 145.625 315.65625 145.957031 C 316.253906 146.289062 316.816406 146.679688 317.335938 147.121094 C 317.859375 147.5625 318.332031 148.050781 318.757812 148.585938 C 319.183594 149.125 319.550781 149.695312 319.863281 150.304688 Z M 319.863281 150.304688 " fill-opacity="1" fill-rule="nonzero"/><g clip-path="url(#59b572bfa0)"><path fill="#000000" d="M 172.265625 124.757812 L 70.292969 124.757812 C 69.535156 124.757812 68.777344 124.796875 68.023438 124.871094 C 67.269531 124.945312 66.519531 125.058594 65.777344 125.207031 C 65.035156 125.355469 64.300781 125.539062 63.574219 125.757812 C 62.851562 125.980469 62.136719 126.234375 61.4375 126.523438 C 60.738281 126.8125 60.054688 127.136719 59.386719 127.496094 C 58.71875 127.851562 58.070312 128.242188 57.4375 128.660156 C 56.808594 129.082031 56.199219 129.535156 55.613281 130.011719 C 55.027344 130.492188 54.46875 131 53.933594 131.539062 C 53.398438 132.074219 52.886719 132.632812 52.40625 133.21875 C 51.925781 133.804688 51.476562 134.410156 51.054688 135.039062 C 50.632812 135.667969 50.242188 136.316406 49.886719 136.984375 C 49.527344 137.652344 49.203125 138.335938 48.914062 139.035156 C 48.625 139.734375 48.367188 140.445312 48.148438 141.171875 C 47.925781 141.894531 47.742188 142.628906 47.59375 143.371094 C 47.445312 144.113281 47.335938 144.859375 47.257812 145.613281 C 47.183594 146.367188 47.144531 147.121094 47.144531 147.878906 L 47.144531 349.136719 C 47.144531 349.894531 47.183594 350.648438 47.257812 351.402344 C 47.335938 352.15625 47.445312 352.902344 47.59375 353.644531 C 47.742188 354.386719 47.925781 355.121094 48.148438 355.84375 C 48.367188 356.570312 48.625 357.28125 48.914062 357.980469 C 49.203125 358.679688 49.527344 359.363281 49.886719 360.03125 C 50.242188 360.699219 50.632812 361.347656 51.054688 361.976562 C 51.476562 362.605469 51.925781 363.210938 52.40625 363.796875 C 52.886719 364.382812 53.398438 364.941406 53.933594 365.476562 C 54.46875 366.011719 55.027344 366.519531 55.613281 367 C 56.199219 367.480469 56.808594 367.933594 57.4375 368.355469 C 58.070312 368.773438 58.71875 369.164062 59.386719 369.519531 C 60.054688 369.878906 60.738281 370.203125 61.4375 370.492188 C 62.136719 370.78125 62.851562 371.035156 63.574219 371.257812 C 64.300781 371.476562 65.035156 371.660156 65.777344 371.808594 C 66.519531 371.957031 67.269531 372.070312 68.023438 372.144531 C 68.777344 372.21875 69.535156 372.257812 70.292969 372.257812 L 172.265625 372.257812 C 173.027344 372.257812 173.78125 372.21875 174.535156 372.144531 C 175.289062 372.070312 176.039062 371.957031 176.78125 371.808594 C 177.523438 371.660156 178.257812 371.476562 178.984375 371.257812 C 179.707031 371.035156 180.421875 370.78125 181.121094 370.492188 C 181.820312 370.203125 182.503906 369.878906 183.175781 369.519531 C 183.84375 369.164062 184.492188 368.773438 185.121094 368.355469 C 185.75 367.933594 186.359375 367.480469 186.945312 367.003906 C 187.53125 366.523438 188.089844 366.015625 188.628906 365.476562 C 189.164062 364.941406 189.671875 364.382812 190.152344 363.796875 C 190.632812 363.210938 191.085938 362.605469 191.503906 361.976562 C 191.925781 361.347656 192.316406 360.699219 192.675781 360.03125 C 193.03125 359.363281 193.355469 358.679688 193.644531 357.980469 C 193.9375 357.28125 194.191406 356.570312 194.414062 355.84375 C 194.632812 355.121094 194.816406 354.386719 194.964844 353.644531 C 195.113281 352.902344 195.226562 352.15625 195.300781 351.402344 C 195.375 350.648438 195.414062 349.894531 195.414062 349.136719 L 195.414062 320.265625 L 270.792969 320.265625 C 271.578125 320.265625 272.355469 320.1875 273.125 320.03125 C 273.894531 319.878906 274.644531 319.652344 275.371094 319.351562 C 276.09375 319.050781 276.785156 318.683594 277.4375 318.246094 C 278.089844 317.808594 278.695312 317.316406 279.25 316.761719 C 279.804688 316.207031 280.300781 315.601562 280.738281 314.949219 C 281.171875 314.296875 281.542969 313.609375 281.84375 312.882812 C 282.144531 312.160156 282.371094 311.414062 282.527344 310.644531 C 282.679688 309.875 282.757812 309.097656 282.757812 308.3125 L 282.757812 172.257812 C 282.757812 171.472656 282.679688 170.695312 282.527344 169.925781 C 282.371094 169.15625 282.144531 168.410156 281.84375 167.683594 C 281.542969 166.960938 281.171875 166.269531 280.738281 165.617188 C 280.300781 164.964844 279.804688 164.363281 279.25 163.808594 C 278.695312 163.253906 278.089844 162.757812 277.4375 162.320312 C 276.785156 161.886719 276.09375 161.515625 275.371094 161.214844 C 274.644531 160.914062 273.894531 160.6875 273.125 160.535156 C 272.355469 160.378906 271.578125 160.304688 270.792969 160.300781 L 195.414062 160.300781 L 195.414062 147.878906 C 195.414062 147.121094 195.375 146.367188 195.300781 145.613281 C 195.226562 144.859375 195.113281 144.113281 194.964844 143.371094 C 194.816406 142.628906 194.632812 141.894531 194.410156 141.167969 C 194.191406 140.445312 193.9375 139.734375 193.644531 139.035156 C 193.355469 138.335938 193.03125 137.652344 192.671875 136.984375 C 192.316406 136.316406 191.925781 135.667969 191.503906 135.039062 C 191.085938 134.410156 190.632812 133.800781 190.152344 133.21875 C 189.671875 132.632812 189.164062 132.070312 188.628906 131.535156 C 188.089844 131 187.53125 130.492188 186.945312 130.011719 C 186.359375 129.53125 185.75 129.082031 185.121094 128.660156 C 184.492188 128.242188 183.84375 127.851562 183.171875 127.496094 C 182.503906 127.136719 181.820312 126.8125 181.121094 126.523438 C 180.421875 126.234375 179.707031 125.980469 178.984375 125.757812 C 178.257812 125.539062 177.523438 125.355469 176.78125 125.207031 C 176.039062 125.058594 175.289062 124.945312 174.535156 124.871094 C 173.78125 124.796875 173.027344 124.757812 172.265625 124.757812 Z M 172.265625 364.523438 L 70.292969 364.523438 C 69.28125 364.523438 68.28125 364.421875 67.289062 364.226562 C 66.296875 364.027344 65.332031 363.734375 64.398438 363.347656 C 63.464844 362.960938 62.578125 362.488281 61.738281 361.925781 C 60.898438 361.363281 60.121094 360.726562 59.40625 360.011719 C 58.691406 359.296875 58.050781 358.519531 57.488281 357.679688 C 56.925781 356.839844 56.453125 355.953125 56.066406 355.023438 C 55.675781 354.089844 55.382812 353.128906 55.1875 352.136719 C 54.988281 351.144531 54.890625 350.144531 54.886719 349.136719 L 54.886719 337.261719 L 187.671875 337.261719 L 187.671875 349.136719 C 187.671875 350.144531 187.570312 351.144531 187.375 352.136719 C 187.175781 353.128906 186.882812 354.089844 186.496094 355.023438 C 186.109375 355.953125 185.632812 356.839844 185.070312 357.679688 C 184.507812 358.519531 183.871094 359.296875 183.15625 360.011719 C 182.441406 360.726562 181.664062 361.363281 180.820312 361.925781 C 179.980469 362.488281 179.09375 362.960938 178.160156 363.347656 C 177.226562 363.734375 176.261719 364.027344 175.273438 364.226562 C 174.28125 364.421875 173.277344 364.523438 172.265625 364.523438 Z M 187.671875 329.527344 L 54.886719 329.527344 L 54.886719 147.878906 C 54.886719 146.871094 54.988281 145.871094 55.1875 144.878906 C 55.382812 143.886719 55.675781 142.925781 56.066406 141.992188 C 56.453125 141.0625 56.925781 140.175781 57.488281 139.335938 C 58.050781 138.496094 58.691406 137.71875 59.40625 137.003906 C 60.121094 136.289062 60.898438 135.652344 61.738281 135.089844 C 62.578125 134.527344 63.464844 134.054688 64.398438 133.667969 C 65.332031 133.28125 66.296875 132.988281 67.289062 132.789062 C 68.28125 132.59375 69.28125 132.492188 70.292969 132.492188 L 172.265625 132.492188 C 173.277344 132.492188 174.28125 132.59375 175.273438 132.789062 C 176.261719 132.988281 177.226562 133.28125 178.160156 133.667969 C 179.09375 134.054688 179.980469 134.527344 180.820312 135.089844 C 181.664062 135.652344 182.441406 136.289062 183.15625 137.003906 C 183.871094 137.71875 184.507812 138.496094 185.070312 139.335938 C 185.632812 140.175781 186.109375 141.058594 186.496094 141.992188 C 186.882812 142.925781 187.175781 143.886719 187.375 144.878906 C 187.570312 145.871094 187.671875 146.871094 187.671875 147.878906 L 187.671875 160.304688 L 94.160156 160.304688 C 93.375 160.304688 92.597656 160.382812 91.828125 160.535156 C 91.058594 160.6875 90.308594 160.917969 89.585938 161.21875 C 88.859375 161.515625 88.171875 161.886719 87.515625 162.320312 C 86.863281 162.757812 86.261719 163.253906 85.703125 163.808594 C 85.148438 164.363281 84.652344 164.964844 84.21875 165.617188 C 83.78125 166.269531 83.410156 166.960938 83.109375 167.683594 C 82.808594 168.410156 82.582031 169.15625 82.429688 169.925781 C 82.273438 170.695312 82.195312 171.472656 82.195312 172.257812 L 82.195312 308.3125 C 82.195312 309.097656 82.273438 309.875 82.429688 310.644531 C 82.582031 311.414062 82.808594 312.160156 83.109375 312.882812 C 83.410156 313.609375 83.78125 314.296875 84.214844 314.949219 C 84.652344 315.601562 85.148438 316.207031 85.703125 316.761719 C 86.261719 317.316406 86.863281 317.808594 87.515625 318.246094 C 88.167969 318.683594 88.859375 319.050781 89.585938 319.351562 C 90.308594 319.652344 91.058594 319.878906 91.828125 320.03125 C 92.597656 320.1875 93.375 320.265625 94.160156 320.265625 L 187.671875 320.265625 Z M 270.792969 312.53125 L 94.160156 312.53125 C 93.882812 312.53125 93.609375 312.503906 93.339844 312.449219 C 93.066406 312.394531 92.800781 312.3125 92.546875 312.207031 C 92.289062 312.101562 92.046875 311.972656 91.816406 311.816406 C 91.585938 311.664062 91.371094 311.488281 91.175781 311.292969 C 90.980469 311.097656 90.804688 310.882812 90.652344 310.65625 C 90.496094 310.425781 90.367188 310.179688 90.261719 309.925781 C 90.15625 309.667969 90.074219 309.40625 90.019531 309.132812 C 89.964844 308.863281 89.9375 308.589844 89.9375 308.3125 L 89.9375 196.898438 L 275.015625 196.898438 L 275.015625 308.3125 C 275.015625 308.589844 274.988281 308.863281 274.933594 309.132812 C 274.878906 309.40625 274.796875 309.667969 274.691406 309.925781 C 274.585938 310.179688 274.457031 310.425781 274.300781 310.65625 C 274.148438 310.882812 273.972656 311.097656 273.777344 311.292969 C 273.582031 311.488281 273.367188 311.664062 273.136719 311.816406 C 272.90625 311.972656 272.664062 312.101562 272.40625 312.207031 C 272.152344 312.3125 271.886719 312.394531 271.617188 312.449219 C 271.34375 312.503906 271.070312 312.53125 270.792969 312.53125 Z M 275.015625 172.257812 L 275.015625 189.164062 L 89.9375 189.164062 L 89.9375 172.257812 C 89.9375 171.980469 89.964844 171.703125 90.019531 171.433594 C 90.074219 171.160156 90.15625 170.898438 90.261719 170.640625 C 90.367188 170.386719 90.496094 170.144531 90.652344 169.914062 C 90.804688 169.683594 90.980469 169.46875 91.175781 169.273438 C 91.371094 169.078125 91.585938 168.902344 91.816406 168.75 C 92.046875 168.59375 92.289062 168.464844 92.546875 168.359375 C 92.800781 168.253906 93.066406 168.171875 93.335938 168.117188 C 93.609375 168.0625 93.882812 168.039062 94.160156 168.035156 L 270.792969 168.035156 C 271.070312 168.039062 271.34375 168.0625 271.617188 168.117188 C 271.886719 168.171875 272.152344 168.253906 272.40625 168.359375 C 272.664062 168.464844 272.90625 168.59375 273.136719 168.75 C 273.367188 168.902344 273.582031 169.078125 273.777344 169.273438 C 273.972656 169.46875 274.148438 169.683594 274.300781 169.914062 C 274.457031 170.144531 274.585938 170.386719 274.691406 170.640625 C 274.800781 170.898438 274.878906 171.160156 274.933594 171.433594 C 274.988281 171.703125 275.015625 171.980469 275.015625 172.257812 Z M 94.050781 147.175781 C 94.050781 146.660156 94.148438 146.167969 94.34375 145.695312 C 94.539062 145.222656 94.820312 144.800781 95.183594 144.441406 C 95.546875 144.078125 95.964844 143.796875 96.4375 143.601562 C 96.914062 143.40625 97.40625 143.308594 97.917969 143.308594 C 98.433594 143.308594 98.925781 143.40625 99.402344 143.601562 C 99.875 143.796875 100.292969 144.074219 100.65625 144.4375 C 101.019531 144.800781 101.300781 145.21875 101.496094 145.691406 C 101.691406 146.164062 101.792969 146.660156 101.792969 147.171875 C 101.792969 147.683594 101.695312 148.179688 101.496094 148.652344 C 101.300781 149.125 101.023438 149.542969 100.660156 149.90625 C 100.296875 150.269531 99.878906 150.550781 99.40625 150.746094 C 98.929688 150.941406 98.4375 151.039062 97.921875 151.042969 C 97.40625 151.042969 96.914062 150.941406 96.4375 150.746094 C 95.964844 150.550781 95.546875 150.269531 95.183594 149.910156 C 94.820312 149.546875 94.539062 149.128906 94.34375 148.652344 C 94.148438 148.179688 94.050781 147.6875 94.050781 147.175781 Z M 107.996094 147.175781 C 107.996094 146.660156 108.09375 146.167969 108.292969 145.695312 C 108.488281 145.21875 108.769531 144.800781 109.132812 144.441406 C 109.492188 144.078125 109.914062 143.796875 110.386719 143.601562 C 110.859375 143.40625 111.355469 143.308594 111.867188 143.308594 L 144.640625 143.308594 C 145.152344 143.308594 145.644531 143.40625 146.121094 143.601562 C 146.59375 143.796875 147.011719 144.078125 147.375 144.441406 C 147.738281 144.800781 148.019531 145.21875 148.214844 145.695312 C 148.414062 146.167969 148.511719 146.660156 148.511719 147.175781 C 148.511719 147.6875 148.414062 148.179688 148.214844 148.652344 C 148.019531 149.128906 147.738281 149.546875 147.375 149.910156 C 147.011719 150.269531 146.59375 150.550781 146.121094 150.746094 C 145.644531 150.941406 145.152344 151.042969 144.640625 151.042969 L 111.867188 151.042969 C 111.355469 151.042969 110.859375 150.941406 110.386719 150.746094 C 109.910156 150.550781 109.492188 150.269531 109.128906 149.910156 C 108.765625 149.546875 108.488281 149.128906 108.289062 148.652344 C 108.09375 148.179688 107.996094 147.6875 107.996094 147.175781 Z M 121.28125 340.984375 C 120.628906 340.984375 119.984375 341.046875 119.34375 341.171875 C 118.707031 341.300781 118.085938 341.488281 117.484375 341.738281 C 116.882812 341.984375 116.308594 342.292969 115.769531 342.652344 C 115.226562 343.015625 114.726562 343.425781 114.265625 343.886719 C 113.804688 344.34375 113.394531 344.84375 113.03125 345.386719 C 112.667969 345.925781 112.363281 346.5 112.113281 347.101562 C 111.867188 347.699219 111.675781 348.320312 111.550781 348.957031 C 111.421875 349.597656 111.359375 350.242188 111.359375 350.890625 C 111.359375 351.542969 111.421875 352.1875 111.550781 352.824219 C 111.675781 353.464844 111.867188 354.082031 112.113281 354.683594 C 112.363281 355.285156 112.667969 355.855469 113.03125 356.398438 C 113.394531 356.9375 113.804688 357.4375 114.265625 357.898438 C 114.726562 358.359375 115.226562 358.769531 115.769531 359.132812 C 116.308594 359.492188 116.882812 359.796875 117.484375 360.046875 C 118.085938 360.296875 118.707031 360.484375 119.34375 360.613281 C 119.984375 360.738281 120.628906 360.800781 121.28125 360.800781 C 121.929688 360.800781 122.578125 360.738281 123.214844 360.613281 C 123.855469 360.484375 124.472656 360.296875 125.074219 360.046875 C 125.679688 359.796875 126.25 359.492188 126.792969 359.132812 C 127.332031 358.769531 127.832031 358.359375 128.292969 357.898438 C 128.753906 357.4375 129.167969 356.9375 129.527344 356.398438 C 129.890625 355.855469 130.195312 355.285156 130.445312 354.683594 C 130.695312 354.082031 130.882812 353.464844 131.007812 352.824219 C 131.136719 352.1875 131.199219 351.542969 131.199219 350.890625 C 131.199219 350.242188 131.136719 349.597656 131.007812 348.960938 C 130.878906 348.320312 130.691406 347.703125 130.441406 347.101562 C 130.191406 346.5 129.886719 345.929688 129.523438 345.390625 C 129.164062 344.847656 128.75 344.347656 128.289062 343.886719 C 127.832031 343.429688 127.328125 343.019531 126.789062 342.65625 C 126.246094 342.292969 125.675781 341.988281 125.074219 341.738281 C 124.472656 341.492188 123.851562 341.300781 123.214844 341.175781 C 122.574219 341.046875 121.929688 340.984375 121.28125 340.984375 Z M 121.28125 353.066406 C 120.992188 353.066406 120.714844 353.011719 120.445312 352.902344 C 120.179688 352.792969 119.945312 352.632812 119.738281 352.429688 C 119.535156 352.226562 119.378906 351.992188 119.269531 351.726562 C 119.15625 351.457031 119.101562 351.179688 119.101562 350.890625 C 119.101562 350.605469 119.15625 350.328125 119.269531 350.058594 C 119.378906 349.792969 119.535156 349.558594 119.738281 349.355469 C 119.945312 349.148438 120.179688 348.992188 120.445312 348.882812 C 120.714844 348.773438 120.992188 348.71875 121.28125 348.71875 C 121.570312 348.71875 121.847656 348.773438 122.113281 348.882812 C 122.378906 348.992188 122.617188 349.148438 122.820312 349.355469 C 123.023438 349.558594 123.179688 349.792969 123.292969 350.058594 C 123.402344 350.328125 123.457031 350.605469 123.457031 350.890625 C 123.457031 351.179688 123.402344 351.457031 123.289062 351.722656 C 123.179688 351.992188 123.023438 352.226562 122.820312 352.429688 C 122.613281 352.632812 122.378906 352.789062 122.113281 352.902344 C 121.847656 353.011719 121.570312 353.066406 121.28125 353.066406 Z M 104.160156 178.597656 C 104.160156 178.085938 104.257812 177.59375 104.453125 177.121094 C 104.648438 176.644531 104.929688 176.226562 105.292969 175.863281 C 105.65625 175.503906 106.074219 175.222656 106.546875 175.027344 C 107.023438 174.832031 107.515625 174.730469 108.03125 174.730469 C 108.542969 174.730469 109.039062 174.832031 109.511719 175.027344 C 109.984375 175.222656 110.40625 175.503906 110.765625 175.863281 C 111.128906 176.226562 111.410156 176.644531 111.605469 177.121094 C 111.804688 177.59375 111.902344 178.085938 111.902344 178.597656 C 111.902344 179.113281 111.804688 179.605469 111.605469 180.078125 C 111.410156 180.554688 111.128906 180.972656 110.765625 181.335938 C 110.40625 181.695312 109.984375 181.976562 109.511719 182.171875 C 109.039062 182.367188 108.542969 182.46875 108.03125 182.46875 C 107.515625 182.46875 107.023438 182.367188 106.546875 182.171875 C 106.074219 181.976562 105.65625 181.695312 105.292969 181.335938 C 104.929688 180.972656 104.648438 180.554688 104.453125 180.078125 C 104.257812 179.605469 104.160156 179.113281 104.160156 178.597656 Z M 120.292969 178.597656 C 120.292969 178.085938 120.390625 177.59375 120.585938 177.121094 C 120.78125 176.644531 121.0625 176.226562 121.425781 175.863281 C 121.789062 175.503906 122.207031 175.222656 122.679688 175.027344 C 123.15625 174.832031 123.648438 174.730469 124.164062 174.730469 C 124.675781 174.730469 125.171875 174.832031 125.644531 175.027344 C 126.117188 175.222656 126.539062 175.503906 126.898438 175.863281 C 127.261719 176.226562 127.542969 176.644531 127.738281 177.121094 C 127.9375 177.59375 128.035156 178.085938 128.035156 178.597656 C 128.035156 179.113281 127.9375 179.605469 127.738281 180.078125 C 127.542969 180.554688 127.261719 180.972656 126.898438 181.335938 C 126.539062 181.695312 126.117188 181.976562 125.644531 182.171875 C 125.171875 182.367188 124.675781 182.46875 124.164062 182.46875 C 123.648438 182.46875 123.15625 182.367188 122.679688 182.171875 C 122.207031 181.976562 121.789062 181.695312 121.425781 181.335938 C 121.0625 180.972656 120.78125 180.554688 120.585938 180.078125 C 120.390625 179.605469 120.292969 179.113281 120.292969 178.597656 Z M 136.425781 178.597656 C 136.425781 178.085938 136.523438 177.59375 136.71875 177.121094 C 136.914062 176.644531 137.195312 176.226562 137.558594 175.863281 C 137.921875 175.503906 138.339844 175.222656 138.8125 175.027344 C 139.289062 174.832031 139.78125 174.730469 140.296875 174.730469 C 140.808594 174.730469 141.304688 174.832031 141.777344 175.027344 C 142.25 175.222656 142.671875 175.503906 143.03125 175.863281 C 143.394531 176.226562 143.675781 176.644531 143.871094 177.121094 C 144.070312 177.59375 144.167969 178.085938 144.167969 178.597656 C 144.167969 179.113281 144.070312 179.605469 143.871094 180.078125 C 143.675781 180.554688 143.394531 180.972656 143.03125 181.335938 C 142.671875 181.695312 142.25 181.976562 141.777344 182.171875 C 141.304688 182.367188 140.808594 182.46875 140.296875 182.46875 C 139.78125 182.46875 139.289062 182.367188 138.8125 182.171875 C 138.339844 181.976562 137.921875 181.695312 137.558594 181.335938 C 137.195312 180.972656 136.914062 180.554688 136.71875 180.078125 C 136.523438 179.605469 136.425781 179.113281 136.425781 178.597656 Z M 213.523438 178.597656 C 213.523438 178.085938 213.625 177.59375 213.820312 177.121094 C 214.015625 176.644531 214.296875 176.226562 214.660156 175.867188 C 215.019531 175.503906 215.441406 175.222656 215.914062 175.027344 C 216.386719 174.832031 216.882812 174.734375 217.394531 174.730469 C 217.910156 174.730469 218.402344 174.832031 218.875 175.027344 C 219.351562 175.222656 219.769531 175.5 220.132812 175.863281 C 220.496094 176.226562 220.777344 176.644531 220.972656 177.117188 C 221.167969 177.589844 221.265625 178.085938 221.265625 178.597656 C 221.269531 179.109375 221.167969 179.605469 220.972656 180.078125 C 220.777344 180.550781 220.496094 180.96875 220.136719 181.332031 C 219.773438 181.695312 219.355469 181.976562 218.878906 182.171875 C 218.40625 182.367188 217.914062 182.464844 217.398438 182.46875 L 217.394531 182.46875 C 216.882812 182.46875 216.390625 182.367188 215.914062 182.171875 C 215.441406 181.976562 215.023438 181.695312 214.660156 181.335938 C 214.296875 180.972656 214.015625 180.554688 213.820312 180.078125 C 213.625 179.605469 213.523438 179.113281 213.523438 178.597656 Z M 224.730469 178.597656 C 224.730469 178.085938 224.828125 177.59375 225.023438 177.121094 C 225.222656 176.644531 225.5 176.226562 225.863281 175.863281 C 226.226562 175.503906 226.644531 175.222656 227.121094 175.027344 C 227.59375 174.832031 228.089844 174.730469 228.601562 174.730469 L 254.929688 174.730469 C 255.441406 174.730469 255.9375 174.832031 256.410156 175.027344 C 256.882812 175.222656 257.304688 175.503906 257.664062 175.863281 C 258.027344 176.226562 258.308594 176.644531 258.503906 177.121094 C 258.703125 177.59375 258.800781 178.085938 258.800781 178.597656 C 258.800781 179.113281 258.703125 179.605469 258.503906 180.078125 C 258.308594 180.554688 258.027344 180.972656 257.664062 181.335938 C 257.304688 181.695312 256.882812 181.976562 256.410156 182.171875 C 255.9375 182.367188 255.441406 182.46875 254.929688 182.46875 L 228.601562 182.46875 C 228.089844 182.46875 227.59375 182.367188 227.121094 182.171875 C 226.644531 181.976562 226.226562 181.695312 225.863281 181.335938 C 225.5 180.972656 225.222656 180.554688 225.023438 180.078125 C 224.828125 179.605469 224.730469 179.113281 224.730469 178.597656 Z M 203.496094 178.597656 C 203.496094 178.085938 203.59375 177.59375 203.792969 177.121094 C 203.988281 176.644531 204.265625 176.226562 204.628906 175.863281 C 204.992188 175.503906 205.414062 175.222656 205.886719 175.027344 C 206.359375 174.832031 206.855469 174.730469 207.367188 174.730469 C 207.882812 174.730469 208.375 174.832031 208.847656 175.027344 C 209.324219 175.222656 209.742188 175.503906 210.105469 175.863281 C 210.46875 176.226562 210.746094 176.644531 210.945312 177.121094 C 211.140625 177.59375 211.238281 178.085938 211.238281 178.597656 C 211.238281 179.113281 211.140625 179.605469 210.945312 180.078125 C 210.746094 180.554688 210.46875 180.972656 210.105469 181.335938 C 209.742188 181.695312 209.324219 181.976562 208.847656 182.171875 C 208.375 182.367188 207.882812 182.46875 207.367188 182.46875 C 206.855469 182.46875 206.359375 182.367188 205.886719 182.171875 C 205.410156 181.976562 204.992188 181.695312 204.628906 181.335938 C 204.265625 180.972656 203.988281 180.554688 203.792969 180.078125 C 203.59375 179.605469 203.496094 179.113281 203.496094 178.597656 Z M 220.9375 241.328125 C 220.941406 241.878906 220.992188 242.421875 221.101562 242.960938 C 221.210938 243.5 221.367188 244.023438 221.578125 244.53125 C 221.789062 245.039062 222.050781 245.523438 222.355469 245.980469 C 222.660156 246.4375 223.007812 246.859375 223.398438 247.25 C 223.789062 247.636719 224.210938 247.984375 224.667969 248.292969 C 225.125 248.597656 225.609375 248.855469 226.117188 249.066406 C 226.625 249.277344 227.148438 249.4375 227.691406 249.542969 C 228.230469 249.652344 228.773438 249.707031 229.324219 249.707031 L 241.761719 249.707031 C 242.289062 249.710938 242.8125 249.738281 243.335938 249.792969 C 243.859375 249.847656 244.378906 249.925781 244.894531 250.03125 C 245.414062 250.136719 245.921875 250.265625 246.425781 250.421875 C 246.929688 250.574219 247.421875 250.753906 247.90625 250.957031 C 248.394531 251.160156 248.867188 251.386719 249.332031 251.636719 C 249.792969 251.886719 250.246094 252.160156 250.679688 252.453125 C 251.117188 252.746094 251.539062 253.058594 251.945312 253.394531 C 252.351562 253.730469 252.738281 254.082031 253.109375 254.457031 C 253.480469 254.828125 253.835938 255.21875 254.167969 255.628906 C 254.5 256.035156 254.8125 256.457031 255.105469 256.894531 C 255.394531 257.332031 255.664062 257.785156 255.914062 258.246094 C 256.160156 258.710938 256.382812 259.1875 256.585938 259.671875 C 256.785156 260.160156 256.960938 260.65625 257.113281 261.15625 C 257.265625 261.660156 257.394531 262.171875 257.496094 262.6875 C 257.597656 263.203125 257.675781 263.722656 257.726562 264.246094 C 257.777344 264.769531 257.804688 265.292969 257.804688 265.820312 C 257.804688 266.34375 257.777344 266.871094 257.726562 267.394531 C 257.675781 267.917969 257.597656 268.4375 257.496094 268.953125 C 257.394531 269.46875 257.265625 269.976562 257.113281 270.480469 C 256.960938 270.984375 256.785156 271.480469 256.585938 271.964844 C 256.382812 272.453125 256.160156 272.925781 255.914062 273.390625 C 255.664062 273.855469 255.394531 274.304688 255.105469 274.746094 C 254.8125 275.183594 254.5 275.605469 254.167969 276.011719 C 253.835938 276.417969 253.480469 276.808594 253.109375 277.183594 C 252.738281 277.554688 252.351562 277.910156 251.945312 278.242188 C 251.539062 278.578125 251.117188 278.894531 250.679688 279.1875 C 250.246094 279.480469 249.792969 279.753906 249.332031 280 C 248.867188 280.25 248.394531 280.476562 247.90625 280.679688 C 247.421875 280.882812 246.929688 281.0625 246.425781 281.21875 C 245.921875 281.375 245.414062 281.503906 244.894531 281.609375 C 244.378906 281.714844 243.859375 281.792969 243.335938 281.847656 C 242.8125 281.902344 242.289062 281.929688 241.761719 281.933594 L 217.066406 281.933594 C 216.554688 281.933594 216.058594 281.835938 215.585938 281.636719 C 215.113281 281.441406 214.691406 281.164062 214.332031 280.800781 C 213.96875 280.4375 213.6875 280.019531 213.492188 279.546875 C 213.292969 279.070312 213.195312 278.578125 213.195312 278.066406 C 213.195312 277.550781 213.292969 277.058594 213.492188 276.585938 C 213.6875 276.113281 213.96875 275.695312 214.332031 275.332031 C 214.691406 274.96875 215.113281 274.6875 215.585938 274.492188 C 216.058594 274.296875 216.554688 274.199219 217.066406 274.199219 L 241.761719 274.199219 C 242.308594 274.195312 242.851562 274.136719 243.390625 274.027344 C 243.925781 273.914062 244.445312 273.753906 244.953125 273.542969 C 245.457031 273.328125 245.9375 273.070312 246.390625 272.765625 C 246.84375 272.457031 247.265625 272.109375 247.652344 271.722656 C 248.039062 271.332031 248.382812 270.910156 248.683594 270.453125 C 248.988281 270 249.246094 269.515625 249.453125 269.011719 C 249.660156 268.503906 249.820312 267.984375 249.925781 267.445312 C 250.03125 266.910156 250.085938 266.367188 250.085938 265.820312 C 250.085938 265.273438 250.03125 264.730469 249.925781 264.191406 C 249.820312 263.65625 249.660156 263.132812 249.453125 262.628906 C 249.246094 262.121094 248.988281 261.640625 248.683594 261.183594 C 248.382812 260.726562 248.039062 260.304688 247.652344 259.917969 C 247.265625 259.527344 246.84375 259.179688 246.390625 258.875 C 245.9375 258.570312 245.457031 258.308594 244.953125 258.097656 C 244.445312 257.882812 243.925781 257.722656 243.390625 257.613281 C 242.851562 257.503906 242.308594 257.445312 241.761719 257.441406 L 229.324219 257.441406 C 228.800781 257.4375 228.273438 257.410156 227.75 257.355469 C 227.226562 257.300781 226.707031 257.222656 226.191406 257.117188 C 225.675781 257.011719 225.167969 256.882812 224.664062 256.726562 C 224.160156 256.570312 223.664062 256.394531 223.179688 256.1875 C 222.695312 255.984375 222.21875 255.761719 221.757812 255.511719 C 221.292969 255.261719 220.84375 254.988281 220.40625 254.695312 C 219.96875 254.402344 219.546875 254.085938 219.144531 253.753906 C 218.738281 253.417969 218.347656 253.0625 217.976562 252.691406 C 217.605469 252.316406 217.253906 251.929688 216.921875 251.519531 C 216.585938 251.113281 216.273438 250.691406 215.984375 250.253906 C 215.691406 249.816406 215.421875 249.363281 215.175781 248.898438 C 214.929688 248.433594 214.703125 247.960938 214.503906 247.472656 C 214.300781 246.988281 214.125 246.492188 213.972656 245.988281 C 213.820312 245.484375 213.695312 244.976562 213.589844 244.460938 C 213.488281 243.945312 213.414062 243.425781 213.359375 242.902344 C 213.308594 242.378906 213.285156 241.855469 213.285156 241.328125 C 213.285156 240.800781 213.308594 240.277344 213.359375 239.753906 C 213.414062 239.230469 213.488281 238.710938 213.589844 238.195312 C 213.695312 237.679688 213.820312 237.167969 213.972656 236.667969 C 214.125 236.164062 214.300781 235.667969 214.503906 235.183594 C 214.703125 234.695312 214.929688 234.21875 215.175781 233.757812 C 215.421875 233.292969 215.691406 232.839844 215.984375 232.402344 C 216.273438 231.964844 216.585938 231.542969 216.921875 231.136719 C 217.253906 230.726562 217.605469 230.339844 217.976562 229.964844 C 218.347656 229.59375 218.738281 229.238281 219.144531 228.902344 C 219.546875 228.570312 219.96875 228.253906 220.40625 227.960938 C 220.84375 227.667969 221.292969 227.394531 221.757812 227.144531 C 222.21875 226.894531 222.695312 226.667969 223.179688 226.464844 C 223.664062 226.261719 224.160156 226.085938 224.664062 225.929688 C 225.167969 225.773438 225.675781 225.644531 226.191406 225.539062 C 226.707031 225.433594 227.226562 225.355469 227.75 225.300781 C 228.273438 225.246094 228.800781 225.21875 229.324219 225.214844 L 254.019531 225.214844 C 254.53125 225.214844 255.027344 225.3125 255.5 225.507812 C 255.972656 225.707031 256.394531 225.984375 256.753906 226.347656 C 257.117188 226.710938 257.398438 227.128906 257.59375 227.601562 C 257.792969 228.074219 257.890625 228.570312 257.890625 229.082031 C 257.890625 229.59375 257.792969 230.089844 257.59375 230.5625 C 257.398438 231.035156 257.117188 231.453125 256.753906 231.816406 C 256.394531 232.179688 255.972656 232.457031 255.5 232.65625 C 255.027344 232.851562 254.53125 232.949219 254.019531 232.949219 L 229.324219 232.949219 C 228.773438 232.949219 228.226562 233.003906 227.6875 233.113281 C 227.148438 233.21875 226.625 233.378906 226.117188 233.589844 C 225.609375 233.800781 225.125 234.058594 224.667969 234.363281 C 224.210938 234.671875 223.785156 235.019531 223.398438 235.40625 C 223.007812 235.796875 222.660156 236.21875 222.355469 236.675781 C 222.050781 237.132812 221.789062 237.617188 221.578125 238.125 C 221.367188 238.632812 221.210938 239.15625 221.101562 239.695312 C 220.992188 240.234375 220.941406 240.777344 220.9375 241.328125 Z M 134.523438 229.976562 C 134.378906 229.621094 134.183594 229.292969 133.941406 228.996094 C 133.699219 228.699219 133.417969 228.445312 133.097656 228.230469 C 132.78125 228.015625 132.4375 227.851562 132.070312 227.742188 C 131.703125 227.628906 131.324219 227.574219 130.941406 227.574219 C 130.554688 227.574219 130.179688 227.628906 129.8125 227.742188 C 129.445312 227.851562 129.101562 228.015625 128.78125 228.230469 C 128.464844 228.445312 128.183594 228.699219 127.941406 228.996094 C 127.695312 229.292969 127.503906 229.621094 127.359375 229.976562 L 107.351562 278.878906 C 107.15625 279.355469 107.0625 279.847656 107.0625 280.363281 C 107.066406 280.875 107.167969 281.367188 107.363281 281.839844 C 107.5625 282.3125 107.84375 282.730469 108.210938 283.09375 C 108.574219 283.453125 108.996094 283.730469 109.46875 283.925781 C 109.945312 284.117188 110.441406 284.214844 110.953125 284.210938 C 111.46875 284.210938 111.960938 284.109375 112.433594 283.910156 C 112.90625 283.710938 113.324219 283.429688 113.6875 283.066406 C 114.046875 282.699219 114.324219 282.28125 114.519531 281.804688 L 119.523438 269.574219 L 142.359375 269.574219 L 147.363281 281.804688 C 147.457031 282.042969 147.574219 282.269531 147.714844 282.484375 C 147.851562 282.699219 148.011719 282.898438 148.191406 283.078125 C 148.371094 283.261719 148.5625 283.425781 148.773438 283.570312 C 148.988281 283.714844 149.210938 283.835938 149.445312 283.9375 C 149.679688 284.039062 149.921875 284.113281 150.171875 284.164062 C 150.425781 284.21875 150.675781 284.242188 150.933594 284.246094 C 151.1875 284.246094 151.441406 284.222656 151.695312 284.175781 C 151.945312 284.128906 152.1875 284.054688 152.425781 283.957031 C 152.664062 283.863281 152.886719 283.742188 153.101562 283.601562 C 153.3125 283.460938 153.511719 283.300781 153.691406 283.121094 C 153.875 282.9375 154.035156 282.742188 154.175781 282.53125 C 154.320312 282.316406 154.441406 282.09375 154.539062 281.859375 C 154.636719 281.621094 154.710938 281.378906 154.757812 281.128906 C 154.808594 280.875 154.832031 280.625 154.832031 280.367188 C 154.832031 280.113281 154.804688 279.859375 154.753906 279.609375 C 154.703125 279.359375 154.628906 279.117188 154.53125 278.878906 Z M 122.6875 261.839844 L 130.941406 241.664062 L 139.195312 261.839844 Z M 184.007812 227.570312 L 165.589844 227.570312 C 165.078125 227.570312 164.585938 227.667969 164.109375 227.867188 C 163.636719 228.0625 163.21875 228.339844 162.855469 228.703125 C 162.492188 229.066406 162.210938 229.484375 162.015625 229.957031 C 161.816406 230.433594 161.71875 230.925781 161.71875 231.4375 L 161.71875 280.34375 C 161.71875 280.855469 161.816406 281.351562 162.015625 281.824219 C 162.210938 282.296875 162.492188 282.714844 162.855469 283.078125 C 163.214844 283.441406 163.636719 283.722656 164.109375 283.917969 C 164.585938 284.113281 165.078125 284.210938 165.589844 284.210938 L 184.007812 284.210938 C 184.734375 284.210938 185.464844 284.175781 186.191406 284.101562 C 186.917969 284.03125 187.636719 283.921875 188.351562 283.78125 C 189.066406 283.636719 189.773438 283.460938 190.472656 283.246094 C 191.171875 283.035156 191.855469 282.789062 192.53125 282.511719 C 193.203125 282.230469 193.863281 281.917969 194.507812 281.574219 C 195.148438 281.230469 195.773438 280.855469 196.382812 280.453125 C 196.988281 280.046875 197.574219 279.613281 198.136719 279.152344 C 198.703125 278.6875 199.242188 278.199219 199.757812 277.683594 C 200.273438 277.167969 200.761719 276.628906 201.226562 276.066406 C 201.6875 275.503906 202.125 274.917969 202.527344 274.3125 C 202.933594 273.707031 203.308594 273.082031 203.652344 272.4375 C 203.996094 271.796875 204.308594 271.136719 204.589844 270.464844 C 204.867188 269.792969 205.113281 269.105469 205.328125 268.410156 C 205.539062 267.710938 205.71875 267.003906 205.859375 266.289062 C 206.003906 265.574219 206.109375 264.855469 206.183594 264.128906 C 206.253906 263.40625 206.292969 262.679688 206.292969 261.949219 L 206.292969 249.835938 C 206.292969 249.105469 206.253906 248.378906 206.183594 247.652344 C 206.109375 246.925781 206.003906 246.207031 205.859375 245.492188 C 205.714844 244.777344 205.539062 244.070312 205.328125 243.375 C 205.113281 242.675781 204.867188 241.992188 204.589844 241.320312 C 204.308594 240.644531 203.996094 239.988281 203.652344 239.34375 C 203.308594 238.703125 202.933594 238.078125 202.527344 237.472656 C 202.121094 236.867188 201.6875 236.28125 201.226562 235.71875 C 200.761719 235.152344 200.273438 234.613281 199.757812 234.097656 C 199.242188 233.582031 198.703125 233.09375 198.136719 232.632812 C 197.574219 232.171875 196.988281 231.734375 196.382812 231.332031 C 195.773438 230.925781 195.148438 230.550781 194.507812 230.207031 C 193.863281 229.863281 193.203125 229.550781 192.53125 229.273438 C 191.855469 228.992188 191.171875 228.746094 190.472656 228.535156 C 189.773438 228.324219 189.066406 228.144531 188.351562 228.003906 C 187.636719 227.859375 186.917969 227.753906 186.191406 227.679688 C 185.464844 227.609375 184.734375 227.570312 184.007812 227.570312 Z M 198.550781 261.949219 C 198.546875 262.902344 198.453125 263.847656 198.265625 264.78125 C 198.082031 265.71875 197.804688 266.625 197.4375 267.507812 C 197.074219 268.386719 196.625 269.222656 196.09375 270.015625 C 195.5625 270.808594 194.960938 271.542969 194.285156 272.21875 C 193.609375 272.890625 192.875 273.492188 192.082031 274.023438 C 191.289062 274.554688 190.449219 275 189.570312 275.367188 C 188.6875 275.734375 187.777344 276.007812 186.84375 276.195312 C 185.90625 276.382812 184.960938 276.476562 184.007812 276.476562 L 169.460938 276.476562 L 169.460938 235.304688 L 184.007812 235.304688 C 184.960938 235.308594 185.90625 235.402344 186.84375 235.585938 C 187.777344 235.773438 188.6875 236.050781 189.570312 236.414062 C 190.453125 236.78125 191.289062 237.230469 192.082031 237.757812 C 192.875 238.289062 193.609375 238.890625 194.285156 239.566406 C 194.960938 240.238281 195.5625 240.972656 196.09375 241.765625 C 196.625 242.558594 197.074219 243.394531 197.4375 244.277344 C 197.804688 245.15625 198.082031 246.066406 198.265625 247 C 198.453125 247.9375 198.546875 248.878906 198.550781 249.835938 Z M 198.550781 261.949219 " fill-opacity="1" fill-rule="nonzero"/></g></svg>