<svg xmlns="http://www.w3.org/2000/svg" xmlns:xlink="http://www.w3.org/1999/xlink" width="628" zoomAndPan="magnify" viewBox="0 0 470.87997 470.999988" height="628" preserveAspectRatio="xMidYMid meet" version="1.0"><defs><clipPath id="094178500e"><path d="M 0 0.0585938 L 470.761719 0.0585938 L 470.761719 470.9375 L 0 470.9375 Z M 0 0.0585938 " clip-rule="nonzero"/></clipPath><clipPath id="ac1f0a8ee0"><path d="M 8 8 L 462.203125 8 L 462.203125 462.261719 L 8 462.261719 Z M 8 8 " clip-rule="nonzero"/></clipPath><clipPath id="c064e3845a"><path d="M 34.171875 8.738281 L 436.707031 8.738281 C 450.789062 8.738281 462.203125 20.152344 462.203125 34.230469 L 462.203125 436.769531 C 462.203125 450.847656 450.789062 462.261719 436.707031 462.261719 L 34.171875 462.261719 C 20.09375 462.261719 8.679688 450.847656 8.679688 436.769531 L 8.679688 34.230469 C 8.679688 20.152344 20.09375 8.738281 34.171875 8.738281 Z M 34.171875 8.738281 " clip-rule="nonzero"/></clipPath><clipPath id="31294f608b"><path d="M 235.441406 100.558594 L 291 100.558594 L 291 156 L 235.441406 156 Z M 235.441406 100.558594 " clip-rule="nonzero"/></clipPath><clipPath id="ab93aaf4de"><path d="M 367 100.558594 L 423.640625 100.558594 L 423.640625 156 L 367 156 Z M 367 100.558594 " clip-rule="nonzero"/></clipPath><clipPath id="0496ab9b04"><path d="M 235.441406 232 L 291 232 L 291 288.761719 L 235.441406 288.761719 Z M 235.441406 232 " clip-rule="nonzero"/></clipPath><clipPath id="acbe2e30f5"><path d="M 276 100.558594 L 361 100.558594 L 361 205 L 276 205 Z M 276 100.558594 " clip-rule="nonzero"/></clipPath><clipPath id="61ea16237e"><path d="M 346 100.558594 L 361 100.558594 L 361 115 L 346 115 Z M 346 100.558594 " clip-rule="nonzero"/></clipPath><clipPath id="c645db2b4a"><path d="M 235.441406 177 L 284 177 L 284 227 L 235.441406 227 Z M 235.441406 177 " clip-rule="nonzero"/></clipPath><clipPath id="4c9217a420"><path d="M 235.441406 169 L 243 169 L 243 178 L 235.441406 178 Z M 235.441406 169 " clip-rule="nonzero"/></clipPath><clipPath id="d12c4dcbfb"><path d="M 318 281 L 340 281 L 340 288.761719 L 318 288.761719 Z M 318 281 " clip-rule="nonzero"/></clipPath><clipPath id="713ebc8d90"><path d="M 297 267 L 319 267 L 319 288.761719 L 297 288.761719 Z M 297 267 " clip-rule="nonzero"/></clipPath><clipPath id="2ade2aa277"><path d="M 354 184 L 423.640625 184 L 423.640625 261 L 354 261 Z M 354 184 " clip-rule="nonzero"/></clipPath><clipPath id="70711b607d"><path d="M 340 261 L 368 261 L 368 288.761719 L 340 288.761719 Z M 340 261 " clip-rule="nonzero"/></clipPath><clipPath id="3fb83a906a"><path d="M 388 274 L 403 274 L 403 288.761719 L 388 288.761719 Z M 388 274 " clip-rule="nonzero"/></clipPath><clipPath id="70dd01249a"><path d="M 416.277344 267.015625 L 423.640625 267.015625 L 423.640625 274.53125 L 416.277344 274.53125 Z M 416.277344 267.015625 " clip-rule="nonzero"/></clipPath><clipPath id="04cd02f12d"><path d="M 416.652344 162.933594 L 423.640625 162.933594 L 423.640625 170 L 416.652344 170 Z M 416.652344 162.933594 " clip-rule="nonzero"/></clipPath><clipPath id="fdc575d8e6"><path d="M 47.089844 130 L 240 130 L 240 274 L 47.089844 274 Z M 47.089844 130 " clip-rule="nonzero"/></clipPath><clipPath id="43ad3779d0"><path d="M 70 180 L 257 180 L 257 329.351562 L 70 329.351562 Z M 70 180 " clip-rule="nonzero"/></clipPath><clipPath id="5d7648a0c0"><path d="M 224.722656 234 L 357.4375 234 L 357.4375 369.5 L 224.722656 369.5 Z M 224.722656 234 " clip-rule="nonzero"/></clipPath></defs><g clip-path="url(#094178500e)"><path fill="#ffffff" d="M 0 0.0585938 L 470.878906 0.0585938 L 470.878906 470.941406 L 0 470.941406 Z M 0 0.0585938 " fill-opacity="1" fill-rule="nonzero"/><path fill="#ffffff" d="M 0 0.0585938 L 470.878906 0.0585938 L 470.878906 470.941406 L 0 470.941406 Z M 0 0.0585938 " fill-opacity="1" fill-rule="nonzero"/></g><g clip-path="url(#ac1f0a8ee0)"><g clip-path="url(#c064e3845a)"><path fill="#f6f4ff" d="M 8.679688 8.738281 L 462.203125 8.738281 L 462.203125 462.261719 L 8.679688 462.261719 Z M 8.679688 8.738281 " fill-opacity="1" fill-rule="nonzero"/></g></g><path fill="#ffd815" d="M 276.929688 114.582031 L 249.566406 114.582031 L 249.566406 141.945312 L 276.929688 141.945312 L 276.929688 114.582031 " fill-opacity="1" fill-rule="nonzero"/><g clip-path="url(#31294f608b)"><path fill="#ffd815" d="M 283.941406 148.957031 L 242.554688 148.957031 L 242.554688 107.570312 L 283.941406 107.570312 Z M 290.953125 100.558594 L 235.542969 100.558594 L 235.542969 155.96875 L 290.953125 155.96875 L 290.953125 100.558594 " fill-opacity="1" fill-rule="nonzero"/></g><path fill="#ffd815" d="M 409.359375 114.582031 L 381.992188 114.582031 L 381.992188 141.945312 L 409.359375 141.945312 L 409.359375 114.582031 " fill-opacity="1" fill-rule="nonzero"/><g clip-path="url(#ab93aaf4de)"><path fill="#ffd815" d="M 416.367188 148.957031 L 374.984375 148.957031 L 374.984375 107.570312 L 416.367188 107.570312 Z M 423.378906 100.558594 L 367.96875 100.558594 L 367.96875 155.96875 L 423.378906 155.96875 L 423.378906 100.558594 " fill-opacity="1" fill-rule="nonzero"/></g><path fill="#ffd815" d="M 249.566406 274.375 L 276.929688 274.375 L 276.929688 247.007812 L 249.566406 247.007812 L 249.566406 274.375 " fill-opacity="1" fill-rule="nonzero"/><g clip-path="url(#0496ab9b04)"><path fill="#ffd815" d="M 242.554688 240 L 283.941406 240 L 283.941406 281.382812 L 242.554688 281.382812 Z M 235.542969 288.394531 L 290.953125 288.394531 L 290.953125 232.984375 L 235.542969 232.984375 L 235.542969 288.394531 " fill-opacity="1" fill-rule="nonzero"/></g><g clip-path="url(#acbe2e30f5)"><path fill="#ffd815" d="M 319.042969 121.566406 L 319.042969 127.921875 L 326.054688 127.921875 L 326.054688 121.566406 L 332.957031 121.566406 L 332.957031 135.578125 L 325.964844 135.578125 L 325.964844 135.589844 L 318.964844 135.589844 L 318.964844 141.945312 L 311.964844 141.945312 L 311.964844 127.921875 L 304.953125 127.921875 L 304.953125 121.566406 Z M 339.953125 148.957031 L 325.964844 148.957031 L 325.964844 142.589844 L 332.960938 142.589844 L 332.960938 135.589844 L 339.953125 135.589844 Z M 297.945312 169.992188 L 276.929688 169.992188 L 276.929688 177.003906 L 297.945312 177.003906 L 297.945312 184.015625 L 304.945312 184.015625 L 304.945312 204.996094 L 311.957031 204.996094 L 311.957031 177.003906 L 325.964844 177.003906 L 325.964844 169.992188 L 304.953125 169.992188 L 304.953125 141.945312 L 311.964844 141.945312 L 311.964844 148.957031 L 318.964844 148.957031 L 318.964844 155.96875 L 311.964844 155.96875 L 311.964844 169.992188 L 318.964844 169.992188 L 318.964844 155.96875 L 325.964844 155.96875 L 325.964844 155.953125 L 339.953125 155.953125 L 339.953125 170.003906 L 332.960938 170.003906 L 332.960938 177.003906 L 347.089844 177.003906 L 347.089844 190.367188 L 354.089844 190.367188 L 354.089844 169.992188 L 347.089844 169.992188 L 347.089844 170.003906 L 346.964844 170.003906 L 346.964844 128.578125 L 353.972656 128.578125 L 353.972656 135.578125 L 360.984375 135.578125 L 360.984375 121.582031 L 360.371094 121.582031 L 360.371094 121.566406 L 346.964844 121.566406 L 346.964844 114.582031 L 304.953125 114.582031 L 304.953125 107.570312 L 339.957031 107.570312 L 339.957031 100.558594 L 297.96875 100.558594 L 297.96875 107.566406 L 297.945312 107.566406 L 297.945312 169.992188 " fill-opacity="1" fill-rule="nonzero"/></g><g clip-path="url(#61ea16237e)"><path fill="#ffd815" d="M 360.976562 114.582031 L 360.976562 100.558594 L 353.976562 100.558594 L 353.976562 107.585938 L 346.964844 107.585938 L 346.964844 114.582031 L 360.976562 114.582031 " fill-opacity="1" fill-rule="nonzero"/></g><g clip-path="url(#c645db2b4a)"><path fill="#ffd815" d="M 242.554688 184.015625 L 235.542969 184.015625 L 235.542969 191.03125 L 242.554688 191.03125 L 242.554688 204.996094 L 262.917969 204.996094 L 262.917969 212.007812 L 242.554688 212.007812 L 242.554688 219.019531 L 263.574219 219.019531 L 263.574219 226.03125 L 283.941406 226.03125 L 283.941406 219.019531 L 269.917969 219.019531 L 269.917969 197.984375 L 249.550781 197.984375 L 249.550781 191.03125 L 269.917969 191.03125 L 269.917969 184.015625 L 276.929688 184.015625 L 276.929688 177.003906 L 242.554688 177.003906 L 242.554688 184.015625 " fill-opacity="1" fill-rule="nonzero"/></g><g clip-path="url(#4c9217a420)"><path fill="#ffd815" d="M 242.542969 169.992188 L 235.542969 169.992188 L 235.542969 177.003906 L 242.542969 177.003906 L 242.542969 169.992188 " fill-opacity="1" fill-rule="nonzero"/></g><path fill="#ffd815" d="M 290.953125 219.019531 L 297.949219 219.019531 L 297.949219 204.996094 L 283.953125 204.996094 L 283.953125 212.007812 L 290.953125 212.007812 L 290.953125 219.019531 " fill-opacity="1" fill-rule="nonzero"/><path fill="#ffd815" d="M 242.554688 162.980469 L 242.554688 169.992188 L 249.550781 169.992188 L 249.550781 162.980469 L 242.554688 162.980469 " fill-opacity="1" fill-rule="nonzero"/><path fill="#ffd815" d="M 269.917969 162.980469 L 269.917969 169.992188 L 276.917969 169.992188 L 276.917969 162.980469 L 269.917969 162.980469 " fill-opacity="1" fill-rule="nonzero"/><path fill="#ffd815" d="M 332.960938 162.980469 L 325.964844 162.980469 L 325.964844 169.992188 L 332.960938 169.992188 L 332.960938 162.980469 " fill-opacity="1" fill-rule="nonzero"/><path fill="#ffd815" d="M 347.089844 190.367188 L 340.078125 190.367188 L 340.078125 219.019531 L 347.089844 219.019531 L 347.089844 190.367188 " fill-opacity="1" fill-rule="nonzero"/><path fill="#ffd815" d="M 318.953125 212.007812 L 318.953125 205.027344 L 325.933594 205.027344 L 325.933594 198.015625 L 318.9375 198.015625 L 318.9375 204.996094 L 311.957031 204.996094 L 311.957031 212.007812 L 318.953125 212.007812 " fill-opacity="1" fill-rule="nonzero"/><path fill="#ffd815" d="M 318.957031 184.007812 L 318.957031 191.019531 L 325.957031 191.019531 L 325.957031 198.035156 L 332.953125 198.035156 L 332.953125 184.007812 L 318.957031 184.007812 " fill-opacity="1" fill-rule="nonzero"/><path fill="#ffd815" d="M 297.949219 191.03125 L 283.949219 191.03125 L 283.949219 184.019531 L 276.953125 184.019531 L 276.953125 198.042969 L 297.949219 198.042969 L 297.949219 191.03125 " fill-opacity="1" fill-rule="nonzero"/><path fill="#ffd815" d="M 276.917969 212.007812 L 276.917969 204.996094 L 269.917969 204.996094 L 269.917969 212.007812 L 276.917969 212.007812 " fill-opacity="1" fill-rule="nonzero"/><path fill="#ffd815" d="M 381.453125 197.378906 L 381.453125 204.394531 L 388.449219 204.394531 L 388.449219 197.378906 L 395.449219 197.378906 L 395.449219 190.367188 L 388.449219 190.367188 L 388.449219 183.355469 L 381.453125 183.355469 L 381.453125 190.367188 L 388.449219 190.367188 L 388.449219 197.378906 L 381.453125 197.378906 " fill-opacity="1" fill-rule="nonzero"/><path fill="#ffd815" d="M 361.027344 247.015625 L 354.015625 247.015625 L 354.015625 261.011719 L 354.628906 261.011719 L 354.628906 261.023438 L 368.035156 261.023438 L 368.035156 254.011719 L 361.027344 254.011719 L 361.027344 247.015625 " fill-opacity="1" fill-rule="nonzero"/><path fill="#ffd815" d="M 354.101562 219.019531 L 347.101562 219.019531 L 347.101562 226.03125 L 354.101562 226.03125 L 354.101562 233.042969 L 361.097656 233.042969 L 361.097656 219.019531 L 354.101562 219.019531 " fill-opacity="1" fill-rule="nonzero"/><path fill="#ffd815" d="M 332.953125 254.015625 L 325.953125 254.015625 L 325.953125 261.027344 L 339.949219 261.027344 L 339.949219 260.414062 L 339.964844 260.414062 L 339.964844 247.011719 L 332.953125 247.011719 L 332.953125 254.015625 " fill-opacity="1" fill-rule="nonzero"/><g clip-path="url(#d12c4dcbfb)"><path fill="#ffd815" d="M 318.964844 288.421875 L 339.984375 288.421875 L 339.984375 281.410156 L 318.964844 281.410156 L 318.964844 288.421875 " fill-opacity="1" fill-rule="nonzero"/></g><g clip-path="url(#713ebc8d90)"><path fill="#ffd815" d="M 311.957031 274.375 L 311.957031 274.402344 L 304.941406 274.402344 L 304.941406 281.40625 L 297.945312 281.40625 L 297.945312 288.421875 L 311.941406 288.421875 L 311.941406 287.808594 L 311.957031 287.808594 L 311.957031 281.386719 L 318.953125 281.386719 L 318.953125 267.359375 L 311.957031 267.359375 L 311.957031 274.375 " fill-opacity="1" fill-rule="nonzero"/></g><path fill="#ffd815" d="M 297.945312 267.390625 L 297.945312 274.402344 L 304.941406 274.402344 L 304.941406 267.390625 L 297.945312 267.390625 " fill-opacity="1" fill-rule="nonzero"/><path fill="#ffd815" d="M 354.101562 155.960938 L 361.097656 155.960938 L 361.097656 142.589844 L 354.101562 142.589844 L 354.101562 155.960938 " fill-opacity="1" fill-rule="nonzero"/><path fill="#ffd815" d="M 332.9375 205.019531 L 325.941406 205.019531 L 325.941406 212.03125 L 332.9375 212.03125 L 332.9375 205.019531 " fill-opacity="1" fill-rule="nonzero"/><g clip-path="url(#2ade2aa277)"><path fill="#ffd815" d="M 423.390625 246.410156 L 416.378906 246.410156 L 416.378906 239.457031 L 416.375 239.457031 L 416.375 232.441406 L 396.011719 232.441406 L 396.011719 225.429688 L 416.375 225.429688 L 416.375 218.417969 L 395.476562 218.417969 L 395.476562 211.40625 L 402.476562 211.40625 L 402.476562 204.394531 L 395.476562 204.394531 L 395.476562 211.40625 L 381.453125 211.40625 L 381.453125 190.367188 L 374.65625 190.367188 L 374.65625 184.015625 L 367.660156 184.015625 L 367.660156 190.367188 L 354.089844 190.367188 L 354.089844 197.378906 L 374.453125 197.378906 L 374.453125 204.394531 L 354.089844 204.394531 L 354.089844 211.40625 L 361.097656 211.40625 L 361.097656 219.019531 L 368.097656 219.019531 L 368.097656 211.40625 L 375.109375 211.40625 L 375.109375 218.417969 L 389.015625 218.417969 L 389.015625 239.457031 L 409.378906 239.457031 L 409.378906 246.410156 L 389.015625 246.410156 L 389.015625 253.421875 L 374.992188 253.421875 L 374.992188 260.433594 L 409.367188 260.433594 L 409.367188 253.421875 L 423.390625 253.421875 L 423.390625 246.410156 " fill-opacity="1" fill-rule="nonzero"/></g><g clip-path="url(#70711b607d)"><path fill="#ffd815" d="M 353.996094 281.363281 L 347.023438 281.363281 L 347.023438 275.039062 L 347.597656 275.039062 L 347.597656 275.054688 L 360.878906 275.054688 L 360.878906 281.363281 Z M 361.003906 268.039062 L 354 268.039062 L 354 261.042969 L 347.023438 261.042969 L 347.023438 261.035156 L 340.027344 261.035156 L 340.027344 268.046875 L 346.984375 268.046875 L 346.984375 274.371094 L 340.027344 274.371094 L 340.027344 281.382812 L 347.015625 281.382812 L 347.015625 288.375 L 360.992188 288.375 L 360.992188 281.492188 L 367.878906 281.492188 L 367.878906 274.476562 L 361.003906 274.476562 L 361.003906 268.039062 " fill-opacity="1" fill-rule="nonzero"/></g><path fill="#ffd815" d="M 332.972656 274.394531 L 332.972656 267.382812 L 325.976562 267.382812 L 325.976562 274.394531 L 332.972656 274.394531 " fill-opacity="1" fill-rule="nonzero"/><g clip-path="url(#3fb83a906a)"><path fill="#ffd815" d="M 395.449219 281.40625 L 388.449219 281.40625 L 388.449219 288.421875 L 402.445312 288.421875 L 402.445312 287.808594 L 402.460938 287.808594 L 402.460938 274.402344 L 395.449219 274.402344 L 395.449219 281.40625 " fill-opacity="1" fill-rule="nonzero"/></g><g clip-path="url(#70dd01249a)"><path fill="#ffd815" d="M 416.480469 274.394531 L 423.476562 274.394531 L 423.476562 267.382812 L 416.480469 267.382812 L 416.480469 274.394531 " fill-opacity="1" fill-rule="nonzero"/></g><path fill="#ffd815" d="M 374.992188 274.394531 L 382.003906 274.394531 L 382.003906 267.382812 L 374.992188 267.382812 L 374.992188 274.394531 " fill-opacity="1" fill-rule="nonzero"/><path fill="#ffd815" d="M 416.691406 169.984375 L 402.675781 169.984375 L 402.675781 162.980469 L 395.675781 162.980469 L 395.675781 169.984375 L 382.214844 169.984375 L 382.214844 162.980469 L 375.21875 162.980469 L 375.21875 162.988281 L 354.089844 162.988281 L 354.089844 169.984375 L 367.660156 169.984375 L 367.660156 176.996094 L 402.476562 176.996094 L 402.476562 183.355469 L 409.472656 183.355469 L 409.472656 176.996094 L 416.691406 176.996094 L 416.691406 169.984375 " fill-opacity="1" fill-rule="nonzero"/><g clip-path="url(#04cd02f12d)"><path fill="#ffd815" d="M 416.691406 162.980469 L 416.691406 169.992188 L 423.691406 169.992188 L 423.691406 162.980469 L 416.691406 162.980469 " fill-opacity="1" fill-rule="nonzero"/></g><path fill="#ffd815" d="M 402.476562 211.40625 L 409.472656 211.40625 L 409.472656 204.394531 L 416.46875 204.394531 L 416.46875 197.378906 L 409.472656 197.378906 L 409.472656 204.394531 L 402.476562 204.394531 L 402.476562 211.40625 " fill-opacity="1" fill-rule="nonzero"/><path fill="#ffd815" d="M 409.472656 190.367188 L 402.476562 190.367188 L 402.476562 197.378906 L 409.472656 197.378906 L 409.472656 190.367188 " fill-opacity="1" fill-rule="nonzero"/><path fill="#ffd815" d="M 360.664062 177.003906 L 360.664062 184.015625 L 367.660156 184.015625 L 367.660156 177.003906 L 360.664062 177.003906 " fill-opacity="1" fill-rule="nonzero"/><path fill="#ffd815" d="M 382.003906 233.042969 L 382.003906 226.046875 L 367.976562 226.046875 L 367.976562 240 L 354.078125 240 L 354.078125 233.042969 L 347.082031 233.042969 L 347.082031 240 L 339.964844 240 L 339.964844 226.03125 L 332.953125 226.03125 L 332.953125 233.042969 L 318.953125 233.042969 L 318.953125 226.03125 L 325.953125 226.03125 L 325.953125 219.019531 L 311.953125 219.019531 L 311.953125 212.007812 L 304.957031 212.007812 L 304.957031 226.03125 L 311.957031 226.03125 L 311.957031 233.042969 L 297.976562 233.042969 L 297.976562 240.058594 L 304.953125 240.058594 L 304.953125 247.011719 L 311.949219 247.011719 L 311.949219 240.058594 L 318.9375 240.058594 L 318.9375 254.023438 L 304.949219 254.023438 L 304.949219 247.011719 L 297.953125 247.011719 L 297.953125 261.035156 L 318.949219 261.035156 L 318.949219 254.023438 L 325.933594 254.023438 L 325.933594 240.058594 L 339.964844 240.058594 L 339.964844 247.011719 L 368.023438 247.011719 L 368.023438 240.042969 L 374.992188 240.042969 L 374.992188 247.011719 L 382.003906 247.011719 L 382.003906 240 L 374.992188 240 L 374.992188 233.042969 L 382.003906 233.042969 " fill-opacity="1" fill-rule="nonzero"/><g clip-path="url(#fdc575d8e6)"><path fill="#000000" d="M 239.191406 181.296875 L 228.101562 140.324219 C 226.199219 133.308594 218.902344 129.132812 211.820312 131.011719 L 57.542969 171.925781 C 54.085938 172.84375 51.207031 175.035156 49.433594 178.097656 C 47.671875 181.140625 47.207031 184.683594 48.128906 188.078125 L 70.71875 271.515625 C 71.117188 272.992188 72.457031 273.964844 73.921875 273.964844 C 74.210938 273.964844 74.5 273.925781 74.792969 273.847656 C 76.5625 273.371094 77.613281 271.550781 77.132812 269.785156 L 54.542969 186.347656 C 54.089844 184.667969 54.320312 182.914062 55.1875 181.410156 C 56.074219 179.882812 57.515625 178.789062 59.25 178.328125 L 213.523438 137.414062 C 217.078125 136.476562 220.738281 138.550781 221.6875 142.050781 L 232.777344 183.027344 C 233.257812 184.792969 235.078125 185.839844 236.851562 185.359375 C 238.621094 184.882812 239.671875 183.0625 239.191406 181.296875 Z M 239.191406 181.296875 " fill-opacity="1" fill-rule="nonzero"/></g><g clip-path="url(#43ad3779d0)"><path fill="#000000" d="M 243.695312 180.257812 L 84.214844 180.257812 C 76.890625 180.257812 70.925781 186.214844 70.925781 193.53125 L 70.925781 316.078125 C 70.925781 323.398438 76.890625 329.351562 84.214844 329.351562 L 243.695312 329.351562 C 251.023438 329.351562 256.984375 323.398438 256.984375 316.078125 L 256.984375 193.535156 C 256.984375 186.214844 251.023438 180.257812 243.695312 180.257812 Z M 250.339844 316.078125 C 250.339844 319.742188 247.359375 322.726562 243.695312 322.726562 L 84.214844 322.726562 C 80.554688 322.726562 77.574219 319.742188 77.574219 316.078125 L 77.574219 193.535156 C 77.574219 189.867188 80.554688 186.882812 84.214844 186.882812 L 243.695312 186.882812 C 247.359375 186.882812 250.339844 189.867188 250.339844 193.53125 Z M 250.339844 316.078125 " fill-opacity="1" fill-rule="nonzero"/></g><path fill="#000000" d="M 147.34375 246.523438 L 90.863281 246.523438 C 89.027344 246.523438 87.539062 248.007812 87.539062 249.835938 L 87.539062 282.96875 C 87.539062 284.796875 89.027344 286.28125 90.863281 286.28125 L 147.34375 286.28125 C 149.175781 286.28125 150.667969 284.796875 150.667969 282.96875 L 150.667969 249.835938 C 150.667969 248.007812 149.175781 246.523438 147.34375 246.523438 Z M 144.023438 279.652344 L 94.183594 279.652344 L 94.183594 253.148438 L 144.023438 253.148438 Z M 144.023438 279.652344 " fill-opacity="1" fill-rule="nonzero"/><path fill="#000000" d="M 157.308594 256.464844 L 240.371094 256.464844 L 240.371094 249.835938 L 157.308594 249.835938 Z M 157.308594 256.464844 " fill-opacity="1" fill-rule="nonzero"/><path fill="#000000" d="M 157.308594 282.96875 L 240.371094 282.96875 L 240.371094 276.339844 L 157.308594 276.339844 Z M 157.308594 282.96875 " fill-opacity="1" fill-rule="nonzero"/><path fill="#000000" d="M 157.308594 269.714844 L 240.371094 269.714844 L 240.371094 263.089844 L 157.308594 263.089844 Z M 157.308594 269.714844 " fill-opacity="1" fill-rule="nonzero"/><path fill="#000000" d="M 90.859375 296.222656 L 240.371094 296.222656 L 240.371094 289.59375 L 90.859375 289.59375 Z M 90.859375 296.222656 " fill-opacity="1" fill-rule="nonzero"/><path fill="#000000" d="M 90.859375 309.472656 L 240.371094 309.472656 L 240.371094 302.847656 L 90.859375 302.847656 Z M 90.859375 309.472656 " fill-opacity="1" fill-rule="nonzero"/><path fill="#000000" d="M 112.808594 204.289062 C 112.753906 203.902344 112.625 203.566406 112.417969 203.28125 C 112.214844 202.992188 111.910156 202.765625 111.507812 202.597656 C 111.105469 202.425781 110.554688 202.339844 109.859375 202.339844 C 109.230469 202.339844 108.734375 202.425781 108.371094 202.597656 C 108.007812 202.765625 107.734375 202.992188 107.550781 203.28125 C 107.367188 203.566406 107.25 203.902344 107.195312 204.289062 C 107.140625 204.679688 107.109375 205.089844 107.109375 205.53125 L 107.109375 222.492188 L 106.617188 222.492188 L 100.101562 204.875 C 99.921875 204.398438 99.679688 203.972656 99.382812 203.605469 C 99.109375 203.292969 98.757812 203.003906 98.328125 202.738281 C 97.894531 202.46875 97.339844 202.335938 96.65625 202.335938 L 93.949219 202.335938 C 93.183594 202.335938 92.59375 202.46875 92.175781 202.738281 C 91.757812 203.003906 91.457031 203.359375 91.265625 203.800781 C 91.074219 204.242188 90.960938 204.746094 90.925781 205.3125 C 90.894531 205.878906 90.878906 206.453125 90.878906 207.039062 L 90.878906 227.765625 C 90.878906 228.203125 90.902344 228.613281 90.957031 229 C 91.011719 229.386719 91.140625 229.726562 91.347656 230.015625 C 91.550781 230.296875 91.859375 230.527344 92.269531 230.695312 C 92.679688 230.867188 93.238281 230.953125 93.949219 230.953125 C 94.578125 230.953125 95.074219 230.867188 95.4375 230.695312 C 95.796875 230.527344 96.074219 230.296875 96.257812 230.015625 C 96.441406 229.726562 96.5625 229.386719 96.617188 229 C 96.667969 228.613281 96.695312 228.203125 96.695312 227.765625 L 96.695312 210.800781 L 97.1875 210.800781 L 103.378906 227.519531 C 103.472656 227.792969 103.605469 228.128906 103.777344 228.519531 C 103.949219 228.917969 104.179688 229.296875 104.46875 229.65625 C 104.753906 230.019531 105.113281 230.328125 105.542969 230.578125 C 105.972656 230.828125 106.507812 230.953125 107.152344 230.953125 L 109.855469 230.953125 C 110.609375 230.953125 111.191406 230.820312 111.609375 230.558594 C 112.027344 230.289062 112.328125 229.9375 112.511719 229.496094 C 112.695312 229.050781 112.804688 228.550781 112.835938 227.992188 C 112.871094 227.433594 112.890625 226.851562 112.890625 226.253906 L 112.890625 205.53125 C 112.890625 205.089844 112.863281 204.679688 112.808594 204.289062 Z M 112.808594 204.289062 " fill-opacity="1" fill-rule="nonzero"/><path fill="#000000" d="M 134.824219 216.453125 C 134.769531 215.886719 134.648438 215.328125 134.457031 214.777344 C 134.261719 214.226562 133.976562 213.6875 133.59375 213.171875 C 133.210938 212.65625 132.691406 212.199219 132.035156 211.800781 C 131.378906 211.410156 130.5625 211.085938 129.585938 210.84375 C 128.605469 210.597656 127.429688 210.472656 126.050781 210.472656 C 125.640625 210.472656 125.152344 210.496094 124.582031 210.535156 C 124.015625 210.578125 123.417969 210.679688 122.789062 210.839844 C 122.160156 211.007812 121.539062 211.253906 120.925781 211.589844 C 120.3125 211.921875 119.757812 212.386719 119.265625 212.988281 C 118.773438 213.585938 118.375 214.335938 118.066406 215.234375 C 117.757812 216.132812 117.605469 217.230469 117.605469 218.527344 L 117.605469 223.316406 C 117.605469 224.71875 117.835938 225.898438 118.304688 226.871094 C 118.765625 227.835938 119.390625 228.621094 120.179688 229.21875 C 120.964844 229.820312 121.871094 230.253906 122.894531 230.527344 C 123.917969 230.800781 124.996094 230.941406 126.132812 230.957031 C 126.992188 230.957031 127.921875 230.882812 128.910156 230.730469 C 129.902344 230.582031 130.816406 230.332031 131.667969 229.976562 C 132.515625 229.625 133.21875 229.148438 133.777344 228.558594 C 134.339844 227.960938 134.621094 227.226562 134.621094 226.339844 C 134.621094 225.914062 134.542969 225.574219 134.394531 225.308594 C 134.242188 225.042969 134.042969 224.832031 133.800781 224.683594 C 133.550781 224.53125 133.265625 224.429688 132.945312 224.375 C 132.625 224.320312 132.296875 224.292969 131.953125 224.292969 C 131.242188 224.292969 130.683594 224.359375 130.28125 224.488281 C 129.878906 224.617188 129.566406 224.777344 129.339844 224.964844 C 129.117188 225.160156 128.933594 225.363281 128.796875 225.582031 C 128.660156 225.796875 128.507812 226.003906 128.339844 226.195312 C 128.164062 226.382812 127.933594 226.542969 127.640625 226.671875 C 127.34375 226.804688 126.925781 226.867188 126.378906 226.867188 C 125.902344 226.867188 125.496094 226.773438 125.171875 226.582031 C 124.839844 226.390625 124.578125 226.148438 124.378906 225.84375 C 124.183594 225.542969 124.042969 225.21875 123.957031 224.863281 C 123.878906 224.507812 123.835938 224.167969 123.835938 223.839844 L 123.835938 221.878906 L 131.996094 221.878906 C 132.71875 221.878906 133.28125 221.785156 133.675781 221.59375 C 134.070312 221.402344 134.363281 221.175781 134.546875 220.910156 C 134.730469 220.644531 134.839844 220.363281 134.863281 220.070312 C 134.890625 219.777344 134.90625 219.519531 134.90625 219.300781 L 134.90625 218.039062 C 134.910156 217.542969 134.878906 217.019531 134.824219 216.453125 Z M 123.835938 218.8125 L 123.835938 217.378906 C 123.835938 217.152344 123.855469 216.886719 123.898438 216.585938 C 123.9375 216.285156 124.039062 216 124.207031 215.734375 C 124.371094 215.472656 124.613281 215.25 124.933594 215.074219 C 125.253906 214.894531 125.695312 214.808594 126.253906 214.808594 C 126.925781 214.808594 127.441406 214.894531 127.804688 215.074219 C 128.164062 215.253906 128.429688 215.511719 128.601562 215.851562 C 128.773438 216.1875 128.875 216.609375 128.910156 217.109375 C 128.941406 217.605469 128.960938 218.171875 128.960938 218.816406 L 123.835938 218.816406 Z M 123.835938 218.8125 " fill-opacity="1" fill-rule="nonzero"/><path fill="#000000" d="M 164.605469 212.457031 C 164.507812 212.089844 164.351562 211.761719 164.132812 211.476562 C 163.914062 211.191406 163.636719 210.957031 163.292969 210.78125 C 162.949219 210.601562 162.535156 210.515625 162.042969 210.515625 C 161.566406 210.515625 161.152344 210.597656 160.816406 210.769531 C 160.472656 210.941406 160.175781 211.164062 159.933594 211.445312 C 159.6875 211.722656 159.480469 212.042969 159.304688 212.394531 C 159.132812 212.75 158.996094 213.121094 158.886719 213.5 L 156.589844 221.511719 L 156.261719 221.511719 L 154.089844 215.746094 C 153.691406 214.671875 153.238281 213.921875 152.726562 213.511719 C 152.214844 213.09375 151.632812 212.886719 150.972656 212.886719 C 150.316406 212.886719 149.707031 213.09375 149.140625 213.511719 C 148.570312 213.925781 148.117188 214.675781 147.773438 215.75 L 145.890625 221.515625 L 145.5625 221.515625 L 142.980469 213.5 C 142.855469 213.121094 142.707031 212.75 142.53125 212.394531 C 142.351562 212.042969 142.140625 211.726562 141.894531 211.445312 C 141.648438 211.164062 141.375 210.945312 141.0625 210.773438 C 140.753906 210.601562 140.410156 210.515625 140.027344 210.515625 C 139.480469 210.515625 139.023438 210.597656 138.65625 210.761719 C 138.285156 210.921875 137.988281 211.144531 137.761719 211.421875 C 137.539062 211.707031 137.375 212.027344 137.269531 212.394531 C 137.167969 212.761719 137.117188 213.144531 137.117188 213.539062 C 137.117188 213.910156 137.167969 214.28125 137.269531 214.652344 C 137.375 215.027344 137.488281 215.378906 137.609375 215.707031 L 142.203125 227.765625 C 142.503906 228.570312 142.792969 229.1875 143.0625 229.617188 C 143.339844 230.042969 143.605469 230.359375 143.875 230.554688 C 144.140625 230.753906 144.40625 230.871094 144.671875 230.90625 C 144.9375 230.9375 145.21875 230.953125 145.523438 230.953125 C 145.796875 230.953125 146.058594 230.9375 146.300781 230.90625 C 146.550781 230.867188 146.792969 230.753906 147.03125 230.554688 C 147.269531 230.359375 147.515625 230.042969 147.769531 229.617188 C 148.019531 229.1875 148.296875 228.570312 148.601562 227.765625 L 150.8125 220.410156 L 151.140625 220.410156 L 153.269531 227.765625 C 153.574219 228.570312 153.859375 229.1875 154.132812 229.617188 C 154.40625 230.042969 154.675781 230.359375 154.941406 230.554688 C 155.207031 230.753906 155.476562 230.871094 155.742188 230.90625 C 156.007812 230.9375 156.289062 230.953125 156.589844 230.953125 C 156.863281 230.953125 157.125 230.9375 157.371094 230.90625 C 157.617188 230.867188 157.863281 230.753906 158.109375 230.554688 C 158.355469 230.359375 158.605469 230.042969 158.855469 229.617188 C 159.109375 229.1875 159.394531 228.570312 159.707031 227.765625 L 164.257812 215.707031 C 164.378906 215.351562 164.492188 215 164.59375 214.652344 C 164.699219 214.308594 164.75 213.949219 164.75 213.582031 C 164.75 213.199219 164.699219 212.824219 164.605469 212.457031 Z M 164.605469 212.457031 " fill-opacity="1" fill-rule="nonzero"/><path fill="#000000" d="M 181.832031 222.644531 C 181.46875 221.984375 181 221.402344 180.425781 220.898438 C 179.855469 220.394531 179.21875 219.957031 178.519531 219.578125 C 177.824219 219.203125 177.140625 218.855469 176.472656 218.527344 C 176.03125 218.320312 175.613281 218.117188 175.210938 217.914062 C 174.808594 217.710938 174.453125 217.5 174.144531 217.289062 C 173.835938 217.078125 173.59375 216.859375 173.417969 216.628906 C 173.242188 216.394531 173.148438 216.140625 173.148438 215.867188 C 173.148438 215.570312 173.207031 215.328125 173.308594 215.132812 C 173.410156 214.945312 173.542969 214.789062 173.714844 214.675781 C 173.890625 214.5625 174.078125 214.480469 174.292969 214.429688 C 174.503906 214.382812 174.726562 214.359375 174.957031 214.359375 C 175.515625 214.359375 175.992188 214.496094 176.378906 214.765625 C 176.769531 215.042969 176.976562 215.4375 177.003906 215.953125 C 177.003906 216.144531 177.058594 216.34375 177.160156 216.546875 C 177.265625 216.75 177.410156 216.933594 177.601562 217.097656 C 177.792969 217.261719 178.023438 217.398438 178.289062 217.507812 C 178.554688 217.617188 178.851562 217.671875 179.179688 217.671875 C 179.5625 217.65625 179.929688 217.621094 180.285156 217.558594 C 180.640625 217.496094 180.960938 217.390625 181.238281 217.234375 C 181.519531 217.074219 181.742188 216.863281 181.914062 216.597656 C 182.085938 216.332031 182.171875 215.996094 182.171875 215.585938 C 182.171875 215.34375 182.15625 215.042969 182.121094 214.6875 C 182.089844 214.335938 181.996094 213.964844 181.851562 213.574219 C 181.710938 213.1875 181.492188 212.800781 181.195312 212.421875 C 180.902344 212.039062 180.5 211.695312 179.988281 211.386719 C 179.476562 211.082031 178.832031 210.832031 178.058594 210.640625 C 177.289062 210.453125 176.347656 210.355469 175.242188 210.355469 L 174.914062 210.355469 C 173.683594 210.378906 172.589844 210.492188 171.628906 210.683594 C 170.664062 210.875 169.84375 211.1875 169.175781 211.632812 C 168.507812 212.074219 168 212.652344 167.652344 213.371094 C 167.300781 214.085938 167.125 214.972656 167.125 216.039062 C 167.125 216.761719 167.285156 217.402344 167.597656 217.96875 C 167.914062 218.535156 168.320312 219.042969 168.828125 219.492188 C 169.332031 219.941406 169.898438 220.351562 170.519531 220.71875 C 171.140625 221.085938 171.761719 221.433594 172.375 221.761719 C 172.867188 222.03125 173.347656 222.300781 173.820312 222.566406 C 174.292969 222.832031 174.710938 223.109375 175.082031 223.394531 C 175.449219 223.683594 175.746094 223.992188 175.972656 224.324219 C 176.195312 224.660156 176.3125 225.015625 176.3125 225.398438 C 176.3125 225.84375 176.140625 226.210938 175.808594 226.492188 C 175.472656 226.769531 175.039062 226.910156 174.507812 226.910156 C 174.25 226.910156 173.980469 226.894531 173.707031 226.859375 C 173.433594 226.828125 173.1875 226.753906 172.960938 226.65625 C 172.734375 226.550781 172.550781 226.417969 172.40625 226.253906 C 172.261719 226.09375 172.183594 225.875 172.171875 225.597656 C 172.144531 224.785156 171.910156 224.191406 171.472656 223.824219 C 171.035156 223.453125 170.472656 223.269531 169.792969 223.269531 C 168.847656 223.269531 168.148438 223.460938 167.6875 223.84375 C 167.234375 224.226562 167.003906 224.824219 167.003906 225.644531 C 167.003906 225.984375 167.042969 226.355469 167.125 226.753906 C 167.210938 227.160156 167.351562 227.566406 167.554688 227.972656 C 167.761719 228.382812 168.046875 228.773438 168.40625 229.148438 C 168.769531 229.519531 169.230469 229.855469 169.792969 230.148438 C 170.351562 230.441406 171.019531 230.675781 171.800781 230.855469 C 172.578125 231.03125 173.492188 231.121094 174.546875 231.121094 C 175.078125 231.121094 175.644531 231.082031 176.246094 231.007812 C 176.84375 230.929688 177.4375 230.804688 178.019531 230.628906 C 178.601562 230.453125 179.152344 230.214844 179.679688 229.914062 C 180.203125 229.613281 180.667969 229.234375 181.0625 228.78125 C 181.457031 228.320312 181.773438 227.78125 182.015625 227.152344 C 182.257812 226.527344 182.375 225.804688 182.375 224.984375 C 182.375 224.085938 182.191406 223.308594 181.832031 222.644531 Z M 181.832031 222.644531 " fill-opacity="1" fill-rule="nonzero"/><path fill="#000000" d="M 323.214844 349.515625 L 241.847656 349.515625 C 237.621094 349.515625 234.1875 346.070312 234.1875 341.84375 L 234.1875 283 C 234.1875 278.765625 237.628906 275.328125 241.847656 275.328125 L 323.214844 275.328125 C 327.441406 275.328125 330.875 278.773438 330.875 283 L 330.875 341.84375 C 330.875 346.070312 327.441406 349.515625 323.214844 349.515625 Z M 241.847656 280.441406 C 240.4375 280.441406 239.292969 281.589844 239.292969 283 L 239.292969 341.84375 C 239.292969 343.253906 240.4375 344.402344 241.847656 344.402344 L 323.214844 344.402344 C 324.625 344.402344 325.769531 343.253906 325.769531 341.84375 L 325.769531 283 C 325.769531 281.589844 324.625 280.441406 323.214844 280.441406 Z M 241.847656 280.441406 " fill-opacity="1" fill-rule="nonzero"/><g clip-path="url(#5d7648a0c0)"><path fill="#000000" d="M 342.148438 265.09375 L 299.476562 265.09375 C 298.992188 263.375 298.210938 261.804688 297.175781 260.433594 L 319.992188 238.476562 C 321.007812 237.496094 321.039062 235.882812 320.058594 234.859375 C 319.078125 233.835938 317.464844 233.808594 316.449219 234.78125 L 293.394531 256.976562 C 291.238281 255.632812 288.695312 254.859375 285.984375 254.859375 C 283.207031 254.859375 280.617188 255.679688 278.429688 257.085938 L 255.261719 234.78125 C 254.246094 233.808594 252.632812 233.835938 251.652344 234.859375 C 250.671875 235.875 250.707031 237.496094 251.71875 238.476562 L 274.699219 260.59375 C 273.71875 261.929688 272.96875 263.445312 272.496094 265.09375 L 240.035156 265.09375 C 231.59375 265.09375 224.722656 271.976562 224.722656 280.441406 L 224.722656 344.402344 C 224.722656 352.027344 230.308594 358.351562 237.585938 359.535156 L 236.75 365.300781 L 236.722656 365.667969 C 236.722656 367.785156 238.34375 369.507812 240.339844 369.507812 L 248.847656 369.507812 C 250.765625 369.507812 252.347656 367.910156 252.460938 365.894531 L 253.351562 359.75 L 328.835938 359.75 L 329.726562 365.894531 C 329.835938 367.910156 331.414062 369.507812 333.339844 369.507812 L 341.847656 369.507812 C 343.839844 369.507812 345.464844 367.785156 345.464844 365.667969 L 344.59375 359.535156 C 351.878906 358.359375 357.464844 352.027344 357.464844 344.402344 L 357.464844 280.441406 C 357.464844 271.976562 350.59375 265.09375 342.148438 265.09375 Z M 285.992188 259.972656 C 289.53125 259.972656 292.632812 262.039062 294.070312 265.085938 L 277.910156 265.085938 C 279.347656 262.039062 282.441406 259.972656 285.992188 259.972656 Z M 247.523438 364.386719 L 242.046875 364.386719 L 242.714844 359.75 L 248.191406 359.75 Z M 334.664062 364.386719 L 333.996094 359.75 L 339.46875 359.75 L 340.140625 364.386719 Z M 352.363281 344.402344 C 352.363281 350.050781 347.785156 354.636719 342.148438 354.636719 L 240.035156 354.636719 C 234.410156 354.636719 229.824219 350.050781 229.824219 344.402344 L 229.824219 280.441406 C 229.824219 274.792969 234.402344 270.207031 240.035156 270.207031 L 342.148438 270.207031 C 347.777344 270.207031 352.363281 274.792969 352.363281 280.441406 Z M 352.363281 344.402344 " fill-opacity="1" fill-rule="nonzero"/></g><path fill="#000000" d="M 341.085938 295.949219 C 336.859375 295.949219 333.429688 292.503906 333.429688 288.273438 C 333.429688 284.039062 336.867188 280.601562 341.085938 280.601562 C 345.3125 280.601562 348.742188 284.046875 348.742188 288.273438 C 348.742188 292.507812 345.3125 295.949219 341.085938 295.949219 Z M 341.085938 285.722656 C 339.675781 285.722656 338.53125 286.871094 338.53125 288.28125 C 338.53125 289.691406 339.675781 290.839844 341.085938 290.839844 C 342.496094 290.839844 343.640625 289.691406 343.640625 288.28125 C 343.640625 286.871094 342.496094 285.722656 341.085938 285.722656 Z M 341.085938 285.722656 " fill-opacity="1" fill-rule="nonzero"/><path fill="#000000" d="M 341.085938 313.539062 C 336.859375 313.539062 333.429688 310.09375 333.429688 305.863281 C 333.429688 301.628906 336.867188 298.191406 341.085938 298.191406 C 345.3125 298.191406 348.742188 301.636719 348.742188 305.863281 C 348.742188 310.101562 345.3125 313.539062 341.085938 313.539062 Z M 341.085938 303.304688 C 339.675781 303.304688 338.53125 304.453125 338.53125 305.863281 C 338.53125 307.277344 339.675781 308.425781 341.085938 308.425781 C 342.496094 308.425781 343.640625 307.277344 343.640625 305.863281 C 343.640625 304.453125 342.496094 303.304688 341.085938 303.304688 Z M 341.085938 303.304688 " fill-opacity="1" fill-rule="nonzero"/><path fill="#000000" d="M 346.195312 323.773438 L 335.984375 323.773438 C 334.574219 323.773438 333.429688 322.632812 333.429688 321.214844 C 333.429688 319.800781 334.574219 318.652344 335.984375 318.652344 L 346.195312 318.652344 C 347.605469 318.652344 348.75 319.796875 348.75 321.214844 C 348.742188 322.632812 347.605469 323.773438 346.195312 323.773438 Z M 346.195312 323.773438 " fill-opacity="1" fill-rule="nonzero"/><path fill="#000000" d="M 346.195312 334.007812 L 335.984375 334.007812 C 334.574219 334.007812 333.429688 332.867188 333.429688 331.449219 C 333.429688 330.035156 334.574219 328.886719 335.984375 328.886719 L 346.195312 328.886719 C 347.605469 328.886719 348.75 330.03125 348.75 331.449219 C 348.742188 332.859375 347.605469 334.007812 346.195312 334.007812 Z M 346.195312 334.007812 " fill-opacity="1" fill-rule="nonzero"/><path fill="#000000" d="M 346.195312 344.238281 L 335.984375 344.238281 C 334.574219 344.238281 333.429688 343.09375 333.429688 341.675781 C 333.429688 340.265625 334.574219 339.117188 335.984375 339.117188 L 346.195312 339.117188 C 347.605469 339.117188 348.75 340.257812 348.75 341.675781 C 348.742188 343.09375 347.605469 344.238281 346.195312 344.238281 Z M 346.195312 344.238281 " fill-opacity="1" fill-rule="nonzero"/><path fill="#000000" d="M 272.105469 330.910156 C 271.414062 330.910156 270.714844 330.734375 270.09375 330.382812 C 268.804688 329.65625 267.996094 328.277344 267.996094 326.792969 L 267.996094 298.050781 C 267.996094 296.566406 268.796875 295.1875 270.09375 294.460938 C 271.386719 293.734375 272.980469 293.761719 274.246094 294.535156 L 297.707031 308.910156 C 298.9375 309.664062 299.675781 310.980469 299.675781 312.425781 C 299.675781 313.871094 298.9375 315.1875 297.707031 315.941406 L 274.246094 330.3125 C 273.589844 330.707031 272.851562 330.910156 272.105469 330.910156 Z M 272.917969 328.121094 L 272.945312 328.121094 Z M 271.585938 325.933594 C 271.585938 325.941406 271.585938 325.941406 271.585938 325.933594 Z M 273.097656 299.832031 L 273.097656 325.003906 L 293.648438 312.417969 Z M 273.097656 299.832031 " fill-opacity="1" fill-rule="nonzero"/></svg>