<svg xmlns="http://www.w3.org/2000/svg" xmlns:xlink="http://www.w3.org/1999/xlink" width="628" zoomAndPan="magnify" viewBox="0 0 470.87997 470.999988" height="628" preserveAspectRatio="xMidYMid meet" version="1.0"><defs><clipPath id="d67a0b0adb"><path d="M 0 0.0585938 L 470.761719 0.0585938 L 470.761719 470.9375 L 0 470.9375 Z M 0 0.0585938 " clip-rule="nonzero"/></clipPath><clipPath id="77fa64161f"><path d="M 8 8 L 462.203125 8 L 462.203125 462.261719 L 8 462.261719 Z M 8 8 " clip-rule="nonzero"/></clipPath><clipPath id="d5ae511dcb"><path d="M 34.171875 8.738281 L 436.707031 8.738281 C 450.789062 8.738281 462.203125 20.152344 462.203125 34.230469 L 462.203125 436.769531 C 462.203125 450.847656 450.789062 462.261719 436.707031 462.261719 L 34.171875 462.261719 C 20.09375 462.261719 8.679688 450.847656 8.679688 436.769531 L 8.679688 34.230469 C 8.679688 20.152344 20.09375 8.738281 34.171875 8.738281 Z M 34.171875 8.738281 " clip-rule="nonzero"/></clipPath><clipPath id="7827606cd3"><path d="M 306 211 L 392 211 L 392 296.804688 L 306 296.804688 Z M 306 211 " clip-rule="nonzero"/></clipPath><clipPath id="3158406a40"><path d="M 217.160156 83.859375 L 346 83.859375 L 346 212 L 217.160156 212 Z M 217.160156 83.859375 " clip-rule="nonzero"/></clipPath><clipPath id="b884f45af7"><path d="M 47.089844 119 L 305.773438 119 L 305.773438 379 L 47.089844 379 Z M 47.089844 119 " clip-rule="nonzero"/></clipPath></defs><g clip-path="url(#d67a0b0adb)"><path fill="#ffffff" d="M 0 0.0585938 L 470.878906 0.0585938 L 470.878906 470.941406 L 0 470.941406 Z M 0 0.0585938 " fill-opacity="1" fill-rule="nonzero"/><path fill="#ffffff" d="M 0 0.0585938 L 470.878906 0.0585938 L 470.878906 470.941406 L 0 470.941406 Z M 0 0.0585938 " fill-opacity="1" fill-rule="nonzero"/></g><g clip-path="url(#77fa64161f)"><g clip-path="url(#d5ae511dcb)"><path fill="#fff8ef" d="M 8.679688 8.738281 L 462.203125 8.738281 L 462.203125 462.261719 L 8.679688 462.261719 Z M 8.679688 8.738281 " fill-opacity="1" fill-rule="nonzero"/></g></g><path fill="#fad02c" d="M 423.738281 172.726562 C 423.738281 171.679688 423.6875 170.632812 423.582031 169.589844 C 423.480469 168.546875 423.328125 167.511719 423.121094 166.484375 C 422.917969 165.457031 422.664062 164.441406 422.359375 163.4375 C 422.054688 162.4375 421.703125 161.449219 421.300781 160.484375 C 420.902344 159.515625 420.453125 158.570312 419.960938 157.644531 C 419.464844 156.71875 418.929688 155.824219 418.347656 154.953125 C 417.765625 154.082031 417.140625 153.238281 416.476562 152.429688 C 415.8125 151.621094 415.109375 150.84375 414.367188 150.101562 C 413.625 149.363281 412.851562 148.660156 412.039062 147.996094 C 411.230469 147.332031 410.390625 146.707031 409.519531 146.125 C 408.648438 145.542969 407.75 145.003906 406.824219 144.511719 C 405.902344 144.015625 404.957031 143.570312 403.988281 143.167969 C 403.019531 142.765625 402.035156 142.414062 401.03125 142.109375 C 400.027344 141.804688 399.015625 141.550781 397.984375 141.347656 C 396.957031 141.144531 395.921875 140.988281 394.878906 140.886719 C 393.835938 140.785156 392.792969 140.734375 391.746094 140.734375 C 390.695312 140.734375 389.652344 140.785156 388.609375 140.886719 C 387.566406 140.988281 386.53125 141.144531 385.503906 141.347656 C 384.476562 141.550781 383.460938 141.804688 382.457031 142.109375 C 381.453125 142.414062 380.46875 142.765625 379.5 143.167969 C 378.535156 143.570312 377.585938 144.015625 376.664062 144.511719 C 375.738281 145.003906 374.839844 145.542969 373.96875 146.125 C 373.097656 146.707031 372.257812 147.332031 371.449219 147.996094 C 370.640625 148.660156 369.863281 149.363281 369.121094 150.101562 C 368.382812 150.84375 367.679688 151.621094 367.015625 152.429688 C 366.347656 153.238281 365.726562 154.082031 365.144531 154.953125 C 364.5625 155.824219 364.023438 156.71875 363.53125 157.644531 C 363.035156 158.570312 362.589844 159.515625 362.1875 160.484375 C 361.785156 161.449219 361.433594 162.4375 361.128906 163.4375 C 360.824219 164.441406 360.570312 165.457031 360.367188 166.484375 C 360.164062 167.511719 360.007812 168.546875 359.90625 169.589844 C 359.804688 170.632812 359.753906 171.679688 359.75 172.726562 C 359.753906 173.773438 359.804688 174.820312 359.90625 175.863281 C 360.007812 176.90625 360.164062 177.941406 360.367188 178.96875 C 360.570312 179.996094 360.824219 181.011719 361.128906 182.011719 C 361.433594 183.015625 361.785156 184 362.1875 184.96875 C 362.589844 185.9375 363.035156 186.882812 363.53125 187.808594 C 364.023438 188.730469 364.5625 189.628906 365.144531 190.5 C 365.726562 191.371094 366.347656 192.210938 367.015625 193.023438 C 367.679688 193.832031 368.382812 194.605469 369.121094 195.347656 C 369.863281 196.089844 370.640625 196.792969 371.449219 197.457031 C 372.257812 198.121094 373.097656 198.746094 373.96875 199.328125 C 374.839844 199.910156 375.738281 200.445312 376.664062 200.941406 C 377.585938 201.433594 378.535156 201.882812 379.5 202.285156 C 380.46875 202.683594 381.453125 203.035156 382.457031 203.339844 C 383.460938 203.644531 384.476562 203.898438 385.503906 204.105469 C 386.53125 204.308594 387.566406 204.460938 388.609375 204.566406 C 389.652344 204.667969 390.695312 204.71875 391.746094 204.71875 C 392.792969 204.71875 393.835938 204.667969 394.878906 204.566406 C 395.921875 204.460938 396.957031 204.308594 397.984375 204.105469 C 399.015625 203.898438 400.027344 203.644531 401.03125 203.339844 C 402.035156 203.035156 403.019531 202.683594 403.988281 202.285156 C 404.957031 201.882812 405.902344 201.433594 406.824219 200.941406 C 407.75 200.445312 408.648438 199.910156 409.519531 199.328125 C 410.390625 198.746094 411.230469 198.121094 412.039062 197.457031 C 412.851562 196.792969 413.625 196.089844 414.367188 195.347656 C 415.109375 194.605469 415.8125 193.832031 416.476562 193.023438 C 417.140625 192.210938 417.765625 191.371094 418.347656 190.5 C 418.929688 189.628906 419.464844 188.730469 419.960938 187.808594 C 420.453125 186.882812 420.902344 185.9375 421.300781 184.96875 C 421.703125 184 422.054688 183.015625 422.359375 182.011719 C 422.664062 181.011719 422.917969 179.996094 423.121094 178.96875 C 423.328125 177.941406 423.480469 176.90625 423.582031 175.863281 C 423.6875 174.820312 423.738281 173.773438 423.738281 172.726562 Z M 398.851562 158.507812 L 405.960938 158.507812 L 405.960938 165.617188 L 398.851562 165.617188 Z M 377.523438 158.507812 L 384.632812 158.507812 L 384.632812 165.617188 L 377.523438 165.617188 Z M 373.96875 176.28125 L 381.082031 176.28125 C 381.082031 176.984375 381.148438 177.675781 381.285156 178.363281 C 381.421875 179.050781 381.625 179.71875 381.890625 180.363281 C 382.160156 181.011719 382.488281 181.625 382.878906 182.207031 C 383.265625 182.789062 383.707031 183.328125 384.203125 183.824219 C 384.699219 184.320312 385.238281 184.761719 385.820312 185.148438 C 386.402344 185.539062 387.015625 185.867188 387.664062 186.136719 C 388.3125 186.402344 388.976562 186.605469 389.664062 186.742188 C 390.351562 186.878906 391.042969 186.945312 391.746094 186.945312 C 392.445312 186.945312 393.136719 186.878906 393.824219 186.742188 C 394.511719 186.605469 395.179688 186.402344 395.824219 186.136719 C 396.472656 185.867188 397.085938 185.539062 397.667969 185.148438 C 398.25 184.761719 398.789062 184.320312 399.285156 183.824219 C 399.78125 183.328125 400.222656 182.789062 400.613281 182.207031 C 401 181.625 401.328125 181.011719 401.597656 180.363281 C 401.863281 179.71875 402.066406 179.050781 402.203125 178.363281 C 402.339844 177.675781 402.410156 176.984375 402.410156 176.28125 L 409.515625 176.28125 C 409.507812 176.859375 409.472656 177.433594 409.40625 178.007812 C 409.34375 178.582031 409.253906 179.152344 409.132812 179.714844 C 409.011719 180.28125 408.867188 180.835938 408.691406 181.386719 C 408.519531 181.9375 408.320312 182.476562 408.09375 183.007812 C 407.867188 183.539062 407.613281 184.058594 407.339844 184.5625 C 407.0625 185.070312 406.761719 185.5625 406.4375 186.039062 C 406.109375 186.515625 405.765625 186.976562 405.394531 187.417969 C 405.023438 187.863281 404.636719 188.285156 404.222656 188.691406 C 403.8125 189.097656 403.382812 189.480469 402.933594 189.84375 C 402.488281 190.207031 402.023438 190.546875 401.542969 190.867188 C 401.058594 191.183594 400.5625 191.476562 400.054688 191.746094 C 399.542969 192.019531 399.023438 192.261719 398.488281 192.480469 C 397.953125 192.699219 397.410156 192.890625 396.859375 193.058594 C 396.304688 193.222656 395.746094 193.363281 395.179688 193.476562 C 394.613281 193.585938 394.042969 193.671875 393.46875 193.726562 C 392.894531 193.78125 392.320312 193.808594 391.742188 193.808594 C 391.167969 193.808594 390.589844 193.78125 390.015625 193.726562 C 389.441406 193.671875 388.871094 193.585938 388.304688 193.476562 C 387.738281 193.363281 387.179688 193.222656 386.628906 193.058594 C 386.074219 192.890625 385.53125 192.699219 385 192.480469 C 384.464844 192.261719 383.941406 192.019531 383.433594 191.746094 C 382.921875 191.476562 382.425781 191.183594 381.945312 190.867188 C 381.464844 190.546875 381 190.207031 380.550781 189.84375 C 380.101562 189.480469 379.671875 189.097656 379.261719 188.691406 C 378.851562 188.285156 378.460938 187.863281 378.089844 187.417969 C 377.722656 186.976562 377.375 186.515625 377.050781 186.039062 C 376.726562 185.5625 376.425781 185.070312 376.148438 184.5625 C 375.871094 184.058594 375.621094 183.539062 375.394531 183.007812 C 375.167969 182.476562 374.964844 181.9375 374.792969 181.386719 C 374.621094 180.835938 374.472656 180.28125 374.351562 179.714844 C 374.234375 179.152344 374.140625 178.582031 374.078125 178.007812 C 374.015625 177.433594 373.976562 176.859375 373.96875 176.28125 Z M 373.96875 176.28125 " fill-opacity="1" fill-rule="nonzero"/><g clip-path="url(#7827606cd3)"><path fill="#fad02c" d="M 349.085938 297.144531 C 350.484375 297.144531 351.878906 297.074219 353.269531 296.9375 C 354.660156 296.800781 356.039062 296.597656 357.410156 296.324219 C 358.78125 296.050781 360.132812 295.710938 361.46875 295.304688 C 362.808594 294.902344 364.121094 294.429688 365.410156 293.894531 C 366.703125 293.363281 367.964844 292.765625 369.195312 292.105469 C 370.429688 291.449219 371.625 290.730469 372.785156 289.953125 C 373.949219 289.179688 375.070312 288.347656 376.148438 287.460938 C 377.230469 286.574219 378.261719 285.636719 379.25 284.648438 C 380.238281 283.660156 381.175781 282.628906 382.0625 281.546875 C 382.949219 280.46875 383.78125 279.347656 384.554688 278.183594 C 385.332031 277.023438 386.050781 275.828125 386.707031 274.59375 C 387.367188 273.363281 387.964844 272.101562 388.496094 270.808594 C 389.03125 269.519531 389.503906 268.207031 389.90625 266.867188 C 390.3125 265.53125 390.652344 264.179688 390.925781 262.808594 C 391.199219 261.4375 391.402344 260.058594 391.539062 258.667969 C 391.675781 257.277344 391.746094 255.882812 391.746094 254.484375 C 391.746094 253.089844 391.675781 251.695312 391.539062 250.304688 C 391.402344 248.914062 391.199219 247.535156 390.925781 246.164062 C 390.652344 244.792969 390.3125 243.441406 389.90625 242.105469 C 389.503906 240.765625 389.03125 239.453125 388.496094 238.164062 C 387.964844 236.871094 387.367188 235.609375 386.707031 234.378906 C 386.050781 233.144531 385.332031 231.949219 384.554688 230.789062 C 383.78125 229.625 382.949219 228.503906 382.0625 227.425781 C 381.175781 226.34375 380.238281 225.3125 379.25 224.324219 C 378.261719 223.335938 377.230469 222.398438 376.148438 221.511719 C 375.070312 220.625 373.949219 219.792969 372.785156 219.019531 C 371.625 218.242188 370.429688 217.523438 369.195312 216.867188 C 367.964844 216.207031 366.703125 215.609375 365.410156 215.078125 C 364.121094 214.542969 362.808594 214.070312 361.46875 213.667969 C 360.132812 213.261719 358.78125 212.921875 357.410156 212.648438 C 356.039062 212.375 354.660156 212.171875 353.269531 212.035156 C 351.878906 211.898438 350.484375 211.828125 349.085938 211.828125 C 347.691406 211.828125 346.296875 211.898438 344.90625 212.035156 C 343.515625 212.171875 342.136719 212.375 340.765625 212.648438 C 339.394531 212.921875 338.042969 213.261719 336.703125 213.667969 C 335.367188 214.070312 334.054688 214.542969 332.761719 215.078125 C 331.472656 215.609375 330.210938 216.207031 328.980469 216.867188 C 327.746094 217.523438 326.550781 218.242188 325.390625 219.019531 C 324.226562 219.792969 323.105469 220.625 322.027344 221.511719 C 320.945312 222.398438 319.914062 223.335938 318.925781 224.324219 C 317.9375 225.3125 317 226.34375 316.113281 227.425781 C 315.226562 228.503906 314.394531 229.625 313.621094 230.789062 C 312.84375 231.949219 312.125 233.144531 311.46875 234.378906 C 310.808594 235.609375 310.210938 236.871094 309.675781 238.164062 C 309.144531 239.453125 308.671875 240.765625 308.265625 242.105469 C 307.863281 243.441406 307.523438 244.792969 307.25 246.164062 C 306.976562 247.535156 306.773438 248.914062 306.636719 250.304688 C 306.5 251.695312 306.429688 253.089844 306.429688 254.484375 C 306.429688 255.882812 306.5 257.277344 306.636719 258.667969 C 306.773438 260.058594 306.976562 261.4375 307.25 262.808594 C 307.523438 264.179688 307.863281 265.53125 308.265625 266.867188 C 308.671875 268.207031 309.144531 269.519531 309.675781 270.808594 C 310.210938 272.101562 310.808594 273.363281 311.46875 274.59375 C 312.125 275.828125 312.84375 277.023438 313.621094 278.183594 C 314.394531 279.347656 315.226562 280.46875 316.113281 281.546875 C 317 282.628906 317.9375 283.660156 318.925781 284.648438 C 319.914062 285.636719 320.945312 286.574219 322.027344 287.460938 C 323.105469 288.347656 324.226562 289.179688 325.386719 289.953125 C 326.550781 290.730469 327.746094 291.449219 328.980469 292.105469 C 330.210938 292.765625 331.472656 293.363281 332.761719 293.894531 C 334.054688 294.429688 335.367188 294.902344 336.703125 295.304688 C 338.042969 295.710938 339.394531 296.050781 340.765625 296.324219 C 342.136719 296.597656 343.515625 296.800781 344.90625 296.9375 C 346.296875 297.074219 347.691406 297.144531 349.085938 297.144531 Z M 327.671875 239.609375 C 328.203125 239.027344 328.792969 238.503906 329.429688 238.046875 C 330.070312 237.585938 330.753906 237.195312 331.472656 236.878906 C 332.195312 236.558594 332.941406 236.320312 333.714844 236.15625 C 334.484375 235.996094 335.265625 235.914062 336.054688 235.914062 C 336.839844 235.914062 337.621094 235.996094 338.394531 236.15625 C 339.164062 236.320312 339.910156 236.558594 340.632812 236.878906 C 341.355469 237.195312 342.035156 237.585938 342.675781 238.046875 C 343.316406 238.503906 343.902344 239.027344 344.433594 239.609375 L 349.085938 244.554688 L 353.742188 239.609375 C 354.273438 239.027344 354.859375 238.503906 355.5 238.046875 C 356.140625 237.585938 356.820312 237.199219 357.542969 236.878906 C 358.265625 236.5625 359.011719 236.320312 359.78125 236.160156 C 360.550781 235.996094 361.332031 235.914062 362.121094 235.914062 C 362.910156 235.914062 363.6875 235.996094 364.460938 236.160156 C 365.230469 236.320312 365.976562 236.5625 366.699219 236.878906 C 367.417969 237.199219 368.101562 237.585938 368.742188 238.046875 C 369.382812 238.503906 369.96875 239.027344 370.5 239.609375 C 371.050781 240.210938 371.542969 240.855469 371.976562 241.550781 C 372.410156 242.242188 372.773438 242.972656 373.070312 243.730469 C 373.367188 244.492188 373.589844 245.277344 373.742188 246.078125 C 373.894531 246.882812 373.96875 247.691406 373.96875 248.507812 C 373.96875 249.328125 373.894531 250.136719 373.742188 250.9375 C 373.589844 251.742188 373.367188 252.523438 373.070312 253.285156 C 372.773438 254.046875 372.410156 254.773438 371.976562 255.46875 C 371.542969 256.160156 371.050781 256.808594 370.5 257.410156 L 349.085938 280.160156 L 327.671875 257.410156 C 327.121094 256.808594 326.628906 256.160156 326.195312 255.46875 C 325.761719 254.773438 325.398438 254.046875 325.101562 253.285156 C 324.804688 252.523438 324.582031 251.742188 324.429688 250.9375 C 324.277344 250.136719 324.203125 249.328125 324.203125 248.507812 C 324.203125 247.691406 324.277344 246.882812 324.429688 246.078125 C 324.582031 245.277344 324.804688 244.492188 325.101562 243.730469 C 325.398438 242.972656 325.761719 242.242188 326.195312 241.550781 C 326.628906 240.855469 327.121094 240.210938 327.671875 239.609375 Z M 327.671875 239.609375 " fill-opacity="1" fill-rule="nonzero"/></g><path fill="#fad02c" d="M 260.214844 226.046875 C 259.285156 226.046875 258.355469 226.09375 257.429688 226.183594 C 256.503906 226.273438 255.582031 226.410156 254.667969 226.59375 C 253.753906 226.773438 252.851562 227 251.960938 227.273438 C 251.070312 227.542969 250.195312 227.855469 249.332031 228.210938 C 248.472656 228.566406 247.632812 228.964844 246.808594 229.40625 C 245.988281 229.84375 245.191406 230.324219 244.417969 230.839844 C 243.640625 231.359375 242.894531 231.910156 242.175781 232.503906 C 241.453125 233.09375 240.765625 233.71875 240.105469 234.375 C 239.449219 235.035156 238.824219 235.726562 238.234375 236.445312 C 237.640625 237.164062 237.085938 237.910156 236.570312 238.6875 C 236.050781 239.460938 235.574219 240.257812 235.136719 241.082031 C 234.695312 241.902344 234.296875 242.742188 233.941406 243.601562 C 233.585938 244.464844 233.273438 245.339844 233 246.230469 C 232.730469 247.121094 232.503906 248.023438 232.324219 248.9375 C 232.140625 249.851562 232.003906 250.773438 231.914062 251.699219 C 231.824219 252.625 231.777344 253.554688 231.777344 254.484375 C 231.777344 255.417969 231.824219 256.347656 231.914062 257.273438 C 232.003906 258.199219 232.140625 259.121094 232.324219 260.035156 C 232.503906 260.949219 232.730469 261.851562 233 262.742188 C 233.273438 263.632812 233.585938 264.507812 233.941406 265.371094 C 234.296875 266.230469 234.695312 267.070312 235.136719 267.890625 C 235.574219 268.714844 236.050781 269.511719 236.570312 270.285156 C 237.085938 271.0625 237.640625 271.808594 238.234375 272.527344 C 238.824219 273.246094 239.449219 273.9375 240.105469 274.597656 C 240.765625 275.253906 241.453125 275.878906 242.175781 276.46875 C 242.894531 277.0625 243.640625 277.613281 244.417969 278.132812 C 245.191406 278.648438 245.988281 279.128906 246.808594 279.566406 C 247.632812 280.007812 248.472656 280.402344 249.332031 280.761719 C 250.195312 281.117188 251.070312 281.429688 251.960938 281.699219 C 252.851562 281.972656 253.753906 282.199219 254.667969 282.378906 C 255.582031 282.5625 256.503906 282.699219 257.429688 282.789062 C 258.355469 282.878906 259.285156 282.925781 260.214844 282.925781 C 261.148438 282.925781 262.078125 282.878906 263.003906 282.789062 C 263.929688 282.699219 264.851562 282.5625 265.765625 282.378906 C 266.679688 282.199219 267.582031 281.972656 268.472656 281.699219 C 269.363281 281.429688 270.238281 281.117188 271.101562 280.761719 C 271.960938 280.402344 272.800781 280.007812 273.621094 279.566406 C 274.445312 279.128906 275.242188 278.648438 276.015625 278.132812 C 276.789062 277.613281 277.539062 277.0625 278.257812 276.46875 C 278.976562 275.878906 279.667969 275.253906 280.324219 274.597656 C 280.984375 273.9375 281.609375 273.246094 282.199219 272.527344 C 282.792969 271.808594 283.34375 271.0625 283.863281 270.285156 C 284.378906 269.511719 284.859375 268.714844 285.296875 267.890625 C 285.738281 267.070312 286.132812 266.230469 286.492188 265.371094 C 286.847656 264.507812 287.160156 263.632812 287.429688 262.742188 C 287.703125 261.851562 287.925781 260.949219 288.109375 260.035156 C 288.289062 259.121094 288.425781 258.199219 288.519531 257.273438 C 288.609375 256.347656 288.65625 255.417969 288.65625 254.484375 C 288.65625 253.554688 288.609375 252.625 288.519531 251.699219 C 288.429688 250.773438 288.292969 249.851562 288.109375 248.9375 C 287.929688 248.023438 287.703125 247.121094 287.433594 246.230469 C 287.160156 245.339844 286.847656 244.464844 286.492188 243.601562 C 286.136719 242.742188 285.738281 241.902344 285.296875 241.078125 C 284.859375 240.257812 284.382812 239.460938 283.863281 238.683594 C 283.347656 237.910156 282.792969 237.164062 282.203125 236.445312 C 281.609375 235.722656 280.984375 235.035156 280.328125 234.375 C 279.667969 233.71875 278.980469 233.09375 278.257812 232.5 C 277.539062 231.910156 276.792969 231.355469 276.015625 230.839844 C 275.242188 230.320312 274.445312 229.84375 273.625 229.402344 C 272.800781 228.964844 271.960938 228.566406 271.101562 228.210938 C 270.238281 227.855469 269.363281 227.542969 268.472656 227.269531 C 267.582031 227 266.679688 226.773438 265.765625 226.59375 C 264.851562 226.410156 263.929688 226.273438 263.003906 226.183594 C 262.078125 226.09375 261.148438 226.046875 260.214844 226.046875 Z M 274.4375 258.039062 L 263.773438 258.039062 L 263.773438 268.703125 L 256.664062 268.703125 L 256.664062 258.039062 L 246 258.039062 L 246 250.933594 L 256.664062 250.933594 L 256.664062 240.269531 L 263.773438 240.269531 L 263.773438 250.933594 L 274.4375 250.933594 Z M 274.4375 258.039062 " fill-opacity="1" fill-rule="nonzero"/><g clip-path="url(#3158406a40)"><path fill="#fad02c" d="M 345.53125 147.84375 C 345.53125 146.796875 345.503906 145.75 345.453125 144.703125 C 345.402344 143.65625 345.324219 142.613281 345.222656 141.570312 C 345.121094 140.53125 344.992188 139.492188 344.839844 138.453125 C 344.683594 137.417969 344.503906 136.386719 344.300781 135.359375 C 344.097656 134.332031 343.867188 133.3125 343.613281 132.296875 C 343.359375 131.28125 343.078125 130.273438 342.777344 129.269531 C 342.472656 128.265625 342.144531 127.273438 341.789062 126.289062 C 341.4375 125.300781 341.0625 124.324219 340.660156 123.355469 C 340.257812 122.390625 339.835938 121.433594 339.386719 120.484375 C 338.941406 119.539062 338.46875 118.605469 337.976562 117.679688 C 337.480469 116.757812 336.964844 115.847656 336.425781 114.949219 C 335.890625 114.050781 335.328125 113.164062 334.746094 112.296875 C 334.164062 111.425781 333.5625 110.570312 332.9375 109.726562 C 332.316406 108.886719 331.671875 108.0625 331.007812 107.25 C 330.34375 106.441406 329.660156 105.648438 328.957031 104.875 C 328.253906 104.097656 327.53125 103.339844 326.789062 102.597656 C 326.050781 101.859375 325.292969 101.136719 324.515625 100.433594 C 323.738281 99.730469 322.945312 99.046875 322.136719 98.382812 C 321.328125 97.71875 320.503906 97.074219 319.660156 96.449219 C 318.820312 95.824219 317.964844 95.222656 317.09375 94.640625 C 316.222656 94.058594 315.339844 93.5 314.441406 92.960938 C 313.542969 92.421875 312.632812 91.90625 311.707031 91.414062 C 310.785156 90.917969 309.847656 90.449219 308.902344 90 C 307.957031 89.554688 307 89.128906 306.03125 88.730469 C 305.0625 88.328125 304.085938 87.949219 303.101562 87.597656 C 302.113281 87.246094 301.121094 86.917969 300.117188 86.613281 C 299.117188 86.308594 298.109375 86.03125 297.09375 85.777344 C 296.078125 85.519531 295.054688 85.292969 294.027344 85.085938 C 293 84.882812 291.96875 84.703125 290.933594 84.550781 C 289.898438 84.398438 288.859375 84.269531 287.816406 84.167969 C 286.773438 84.0625 285.730469 83.988281 284.683594 83.933594 C 283.640625 83.882812 282.59375 83.859375 281.546875 83.859375 C 280.496094 83.859375 279.453125 83.882812 278.40625 83.933594 C 277.359375 83.988281 276.316406 84.0625 275.273438 84.167969 C 274.230469 84.269531 273.191406 84.398438 272.15625 84.550781 C 271.121094 84.703125 270.089844 84.882812 269.0625 85.085938 C 268.035156 85.292969 267.011719 85.519531 265.996094 85.777344 C 264.980469 86.03125 263.972656 86.308594 262.972656 86.613281 C 261.96875 86.917969 260.976562 87.246094 259.988281 87.597656 C 259.003906 87.949219 258.027344 88.328125 257.058594 88.730469 C 256.089844 89.128906 255.132812 89.554688 254.1875 90 C 253.242188 90.449219 252.304688 90.917969 251.382812 91.414062 C 250.457031 91.90625 249.546875 92.421875 248.648438 92.960938 C 247.75 93.5 246.867188 94.058594 245.996094 94.640625 C 245.125 95.222656 244.269531 95.824219 243.429688 96.449219 C 242.585938 97.074219 241.761719 97.71875 240.953125 98.382812 C 240.144531 99.046875 239.351562 99.730469 238.574219 100.433594 C 237.800781 101.136719 237.039062 101.859375 236.300781 102.597656 C 235.558594 103.339844 234.839844 104.097656 234.132812 104.875 C 233.429688 105.648438 232.746094 106.441406 232.082031 107.25 C 231.417969 108.0625 230.773438 108.886719 230.152344 109.726562 C 229.527344 110.570312 228.925781 111.425781 228.34375 112.296875 C 227.761719 113.164062 227.199219 114.050781 226.664062 114.949219 C 226.125 115.847656 225.609375 116.757812 225.113281 117.679688 C 224.621094 118.605469 224.148438 119.539062 223.703125 120.484375 C 223.253906 121.433594 222.832031 122.390625 222.429688 123.355469 C 222.027344 124.324219 221.652344 125.300781 221.300781 126.289062 C 220.945312 127.273438 220.617188 128.265625 220.316406 129.269531 C 220.011719 130.273438 219.730469 131.28125 219.476562 132.296875 C 219.222656 133.3125 218.992188 134.332031 218.789062 135.359375 C 218.585938 136.386719 218.40625 137.417969 218.25 138.453125 C 218.097656 139.492188 217.96875 140.53125 217.867188 141.570312 C 217.765625 142.613281 217.6875 143.65625 217.636719 144.703125 C 217.585938 145.75 217.558594 146.796875 217.558594 147.84375 C 217.558594 148.890625 217.585938 149.9375 217.636719 150.984375 C 217.6875 152.027344 217.765625 153.074219 217.867188 154.117188 C 217.96875 155.15625 218.097656 156.195312 218.25 157.230469 C 218.40625 158.269531 218.585938 159.300781 218.789062 160.328125 C 218.992188 161.355469 219.222656 162.375 219.476562 163.390625 C 219.730469 164.40625 220.011719 165.414062 220.316406 166.417969 C 220.617188 167.417969 220.945312 168.414062 221.300781 169.398438 C 221.652344 170.386719 222.027344 171.363281 222.429688 172.328125 C 222.832031 173.296875 223.253906 174.253906 223.703125 175.199219 C 224.148438 176.148438 224.621094 177.082031 225.113281 178.007812 C 225.609375 178.929688 226.125 179.839844 226.664062 180.738281 C 227.199219 181.636719 227.761719 182.519531 228.34375 183.390625 C 228.925781 184.261719 229.527344 185.117188 230.152344 185.960938 C 230.773438 186.800781 231.417969 187.625 232.082031 188.4375 C 232.746094 189.246094 233.429688 190.039062 234.132812 190.8125 C 234.839844 191.589844 235.558594 192.347656 236.300781 193.089844 C 237.039062 193.828125 237.800781 194.550781 238.574219 195.253906 C 239.351562 195.957031 240.144531 196.640625 240.953125 197.304688 C 241.761719 197.96875 242.585938 198.613281 243.429688 199.238281 C 244.269531 199.859375 245.125 200.464844 245.996094 201.046875 C 246.867188 201.628906 247.75 202.1875 248.648438 202.726562 C 249.546875 203.265625 250.457031 203.78125 251.382812 204.273438 C 252.304688 204.765625 253.242188 205.238281 254.1875 205.6875 C 255.132812 206.132812 256.089844 206.558594 257.058594 206.957031 C 258.027344 207.359375 259.003906 207.734375 259.988281 208.089844 C 260.976562 208.441406 261.96875 208.769531 262.972656 209.074219 C 263.972656 209.378906 264.980469 209.65625 265.996094 209.910156 C 267.011719 210.167969 268.035156 210.394531 269.0625 210.601562 C 270.089844 210.804688 271.121094 210.984375 272.15625 211.136719 C 273.191406 211.289062 274.230469 211.417969 275.273438 211.519531 C 276.316406 211.625 277.359375 211.699219 278.40625 211.753906 C 279.453125 211.804688 280.496094 211.828125 281.546875 211.828125 C 282.59375 211.828125 283.640625 211.804688 284.683594 211.753906 C 285.730469 211.699219 286.773438 211.625 287.816406 211.519531 C 288.859375 211.417969 289.898438 211.289062 290.933594 211.136719 C 291.96875 210.984375 293 210.804688 294.027344 210.601562 C 295.054688 210.394531 296.078125 210.167969 297.09375 209.910156 C 298.109375 209.65625 299.117188 209.378906 300.117188 209.074219 C 301.121094 208.769531 302.113281 208.441406 303.101562 208.089844 C 304.085938 207.734375 305.0625 207.359375 306.03125 206.957031 C 307 206.558594 307.957031 206.132812 308.902344 205.6875 C 309.847656 205.238281 310.785156 204.765625 311.707031 204.273438 C 312.632812 203.78125 313.542969 203.265625 314.441406 202.726562 C 315.339844 202.1875 316.222656 201.628906 317.09375 201.046875 C 317.964844 200.464844 318.820312 199.859375 319.660156 199.238281 C 320.503906 198.613281 321.328125 197.96875 322.136719 197.304688 C 322.945312 196.640625 323.738281 195.957031 324.515625 195.253906 C 325.292969 194.550781 326.050781 193.828125 326.789062 193.089844 C 327.53125 192.347656 328.253906 191.589844 328.957031 190.8125 C 329.660156 190.039062 330.34375 189.246094 331.007812 188.4375 C 331.671875 187.625 332.316406 186.800781 332.9375 185.960938 C 333.5625 185.117188 334.164062 184.261719 334.746094 183.390625 C 335.328125 182.519531 335.890625 181.636719 336.425781 180.738281 C 336.964844 179.839844 337.480469 178.929688 337.976562 178.007812 C 338.46875 177.082031 338.941406 176.148438 339.386719 175.199219 C 339.835938 174.253906 340.257812 173.296875 340.660156 172.328125 C 341.0625 171.363281 341.4375 170.386719 341.789062 169.398438 C 342.144531 168.414062 342.472656 167.417969 342.777344 166.417969 C 343.078125 165.414062 343.359375 164.40625 343.613281 163.390625 C 343.867188 162.375 344.097656 161.355469 344.300781 160.328125 C 344.503906 159.300781 344.683594 158.269531 344.839844 157.230469 C 344.992188 156.195312 345.121094 155.15625 345.222656 154.117188 C 345.324219 153.074219 345.402344 152.027344 345.453125 150.984375 C 345.503906 149.9375 345.53125 148.890625 345.53125 147.84375 Z M 256.664062 172.726562 C 256.664062 173.195312 256.574219 173.652344 256.390625 174.085938 C 256.210938 174.523438 255.957031 174.90625 255.621094 175.238281 C 255.289062 175.574219 254.90625 175.832031 254.46875 176.011719 C 254.035156 176.191406 253.582031 176.28125 253.109375 176.28125 L 242.445312 176.28125 C 241.972656 176.28125 241.519531 176.191406 241.082031 176.011719 C 240.648438 175.832031 240.261719 175.574219 239.929688 175.242188 C 239.597656 174.90625 239.339844 174.523438 239.160156 174.085938 C 238.976562 173.652344 238.886719 173.199219 238.886719 172.726562 L 238.886719 133.625 C 238.886719 133.152344 238.976562 132.699219 239.160156 132.265625 C 239.339844 131.828125 239.597656 131.445312 239.929688 131.109375 C 240.261719 130.777344 240.648438 130.519531 241.082031 130.339844 C 241.519531 130.160156 241.972656 130.070312 242.445312 130.070312 L 253.109375 130.070312 C 253.582031 130.070312 254.035156 130.160156 254.46875 130.339844 C 254.90625 130.519531 255.289062 130.777344 255.621094 131.113281 C 255.957031 131.445312 256.210938 131.828125 256.390625 132.265625 C 256.574219 132.699219 256.664062 133.15625 256.664062 133.625 Z M 324.203125 160.285156 C 324.203125 160.636719 324.167969 160.984375 324.101562 161.328125 C 324.03125 161.671875 323.929688 162.003906 323.796875 162.328125 C 323.664062 162.648438 323.496094 162.957031 323.304688 163.25 C 323.109375 163.539062 322.886719 163.808594 322.640625 164.058594 C 322.394531 164.304688 322.125 164.523438 321.832031 164.71875 C 321.542969 164.914062 321.234375 165.078125 320.910156 165.210938 C 320.585938 165.347656 320.253906 165.449219 319.910156 165.515625 C 319.566406 165.585938 319.21875 165.617188 318.871094 165.617188 L 315.316406 165.617188 C 315.667969 165.617188 316.011719 165.652344 316.355469 165.722656 C 316.699219 165.789062 317.035156 165.890625 317.355469 166.023438 C 317.679688 166.160156 317.988281 166.324219 318.277344 166.515625 C 318.570312 166.710938 318.839844 166.933594 319.085938 167.179688 C 319.335938 167.429688 319.554688 167.695312 319.75 167.988281 C 319.945312 168.28125 320.109375 168.585938 320.242188 168.910156 C 320.375 169.234375 320.476562 169.566406 320.546875 169.910156 C 320.613281 170.253906 320.648438 170.601562 320.648438 170.949219 C 320.648438 171.300781 320.613281 171.648438 320.546875 171.992188 C 320.476562 172.335938 320.375 172.667969 320.242188 172.992188 C 320.109375 173.316406 319.945312 173.621094 319.75 173.914062 C 319.554688 174.203125 319.335938 174.472656 319.085938 174.722656 C 318.839844 174.96875 318.570312 175.191406 318.277344 175.382812 C 317.988281 175.578125 317.679688 175.742188 317.355469 175.875 C 317.035156 176.011719 316.699219 176.113281 316.355469 176.179688 C 316.011719 176.25 315.667969 176.28125 315.316406 176.28125 L 270.878906 176.28125 L 266.816406 172.734375 L 263.773438 172.734375 L 263.773438 133.625 L 271.6875 133.625 C 272.40625 133.625 273.121094 133.570312 273.832031 133.460938 C 274.542969 133.355469 275.242188 133.191406 275.929688 132.976562 C 276.613281 132.761719 277.28125 132.5 277.929688 132.183594 C 278.574219 131.867188 279.191406 131.503906 279.785156 131.09375 C 280.375 130.683594 280.933594 130.230469 281.457031 129.738281 C 281.976562 129.242188 282.460938 128.710938 282.902344 128.144531 C 283.34375 127.578125 283.742188 126.980469 284.09375 126.351562 C 284.445312 125.722656 284.746094 125.074219 285 124.398438 L 290.453125 109.863281 C 290.609375 109.433594 290.808594 109.023438 291.042969 108.628906 C 291.28125 108.238281 291.550781 107.875 291.855469 107.535156 C 292.164062 107.195312 292.496094 106.886719 292.863281 106.609375 C 293.226562 106.332031 293.613281 106.09375 294.023438 105.894531 C 294.433594 105.691406 294.859375 105.527344 295.300781 105.40625 C 295.742188 105.285156 296.191406 105.207031 296.644531 105.171875 C 297.101562 105.136719 297.558594 105.144531 298.011719 105.195312 C 298.464844 105.246094 298.910156 105.339844 299.347656 105.472656 C 299.785156 105.609375 300.203125 105.785156 300.609375 106 C 301.011719 106.214844 301.390625 106.46875 301.746094 106.757812 C 302.101562 107.042969 302.425781 107.363281 302.71875 107.710938 C 303.015625 108.0625 303.273438 108.4375 303.496094 108.835938 C 303.71875 109.234375 303.902344 109.652344 304.046875 110.085938 C 304.191406 110.519531 304.292969 110.964844 304.351562 111.417969 C 304.414062 111.871094 304.429688 112.324219 304.402344 112.78125 C 304.375 113.238281 304.304688 113.6875 304.191406 114.128906 L 299.320312 133.625 L 325.980469 133.625 C 326.332031 133.625 326.675781 133.660156 327.019531 133.726562 C 327.363281 133.796875 327.699219 133.898438 328.019531 134.03125 C 328.34375 134.164062 328.652344 134.328125 328.941406 134.523438 C 329.234375 134.71875 329.503906 134.941406 329.75 135.1875 C 330 135.433594 330.21875 135.703125 330.414062 135.996094 C 330.609375 136.285156 330.773438 136.59375 330.90625 136.917969 C 331.039062 137.242188 331.140625 137.574219 331.210938 137.917969 C 331.277344 138.261719 331.3125 138.609375 331.3125 138.957031 C 331.3125 139.308594 331.277344 139.65625 331.210938 140 C 331.140625 140.339844 331.039062 140.675781 330.90625 141 C 330.773438 141.320312 330.609375 141.628906 330.414062 141.921875 C 330.21875 142.210938 330 142.480469 329.75 142.726562 C 329.503906 142.976562 329.234375 143.195312 328.941406 143.390625 C 328.652344 143.585938 328.34375 143.75 328.019531 143.882812 C 327.699219 144.019531 327.363281 144.121094 327.019531 144.1875 C 326.675781 144.253906 326.332031 144.289062 325.980469 144.289062 L 322.425781 144.289062 C 322.777344 144.289062 323.125 144.324219 323.46875 144.390625 C 323.8125 144.460938 324.144531 144.5625 324.46875 144.695312 C 324.789062 144.828125 325.097656 144.992188 325.390625 145.1875 C 325.679688 145.382812 325.949219 145.605469 326.199219 145.851562 C 326.445312 146.097656 326.664062 146.367188 326.859375 146.660156 C 327.054688 146.949219 327.21875 147.257812 327.351562 147.582031 C 327.488281 147.90625 327.589844 148.238281 327.65625 148.582031 C 327.726562 148.925781 327.757812 149.273438 327.757812 149.621094 C 327.757812 149.972656 327.726562 150.320312 327.65625 150.664062 C 327.589844 151.003906 327.488281 151.339844 327.351562 151.664062 C 327.21875 151.984375 327.054688 152.292969 326.859375 152.585938 C 326.664062 152.875 326.445312 153.144531 326.199219 153.390625 C 325.949219 153.640625 325.679688 153.859375 325.390625 154.054688 C 325.097656 154.25 324.789062 154.414062 324.46875 154.546875 C 324.144531 154.683594 323.8125 154.785156 323.46875 154.851562 C 323.125 154.921875 322.777344 154.953125 322.425781 154.953125 L 318.871094 154.953125 C 319.21875 154.953125 319.566406 154.988281 319.910156 155.058594 C 320.253906 155.125 320.585938 155.226562 320.910156 155.359375 C 321.234375 155.492188 321.542969 155.660156 321.832031 155.851562 C 322.125 156.046875 322.394531 156.269531 322.640625 156.515625 C 322.886719 156.761719 323.109375 157.03125 323.304688 157.324219 C 323.496094 157.613281 323.664062 157.921875 323.796875 158.246094 C 323.929688 158.570312 324.03125 158.902344 324.101562 159.246094 C 324.167969 159.589844 324.203125 159.9375 324.203125 160.285156 Z M 324.203125 160.285156 " fill-opacity="1" fill-rule="nonzero"/></g><g clip-path="url(#b884f45af7)"><path fill="#333333" d="M 176.429688 119.457031 C 166.503906 119.457031 158.644531 127.546875 158.644531 137.390625 C 158.644531 141.460938 159.949219 145.167969 162.214844 148.203125 C 153.953125 153.101562 148.519531 162.160156 148.519531 172.519531 L 148.519531 176.542969 C 148.519531 185.601562 155.75 192.816406 164.617188 192.816406 L 188.242188 192.816406 C 197.109375 192.816406 204.34375 185.554688 204.34375 176.542969 L 204.34375 172.519531 C 204.34375 162.160156 198.90625 153.101562 190.644531 148.203125 C 192.933594 145.167969 194.214844 141.460938 194.214844 137.390625 C 194.214844 127.546875 186.355469 119.457031 176.429688 119.457031 Z M 176.429688 128.085938 C 181.4375 128.085938 185.589844 132.179688 185.589844 137.390625 C 185.589844 142.605469 181.4375 146.71875 176.429688 146.71875 C 171.421875 146.71875 167.246094 142.605469 167.246094 137.390625 C 167.246094 132.179688 171.421875 128.085938 176.429688 128.085938 Z M 169.875 154.070312 C 171.960938 154.921875 174.160156 155.328125 176.429688 155.328125 C 178.699219 155.328125 180.71875 154.96875 183.007812 154.070312 C 190.285156 156.71875 195.71875 163.867188 195.71875 172.519531 L 195.71875 176.542969 C 195.71875 180.746094 192.441406 184.183594 188.242188 184.183594 L 164.617188 184.183594 C 160.417969 184.183594 157.140625 180.746094 157.140625 176.542969 L 157.140625 172.519531 C 157.140625 163.734375 162.753906 156.585938 169.875 154.070312 Z M 124.46875 176.453125 C 123.773438 176.5 123.121094 176.699219 122.558594 177.058594 C 89.058594 196.410156 68.644531 231.945312 68.644531 270.488281 C 68.734375 276.242188 77.109375 276.21875 77.269531 270.488281 C 77.269531 235.023438 96.152344 202.277344 126.847656 184.542969 C 130.644531 182.320312 129.207031 176.429688 124.46875 176.453125 Z M 228.078125 176.453125 C 223.496094 176.789062 222.394531 182.320312 226.011719 184.542969 C 256.707031 202.277344 275.59375 235.023438 275.59375 270.488281 C 275.59375 276.242188 284.238281 276.242188 284.238281 270.488281 C 284.238281 231.945312 263.667969 196.320312 230.324219 177.058594 C 229.695312 176.679688 228.996094 176.476562 228.078125 176.453125 Z M 176.429688 201.445312 C 138.097656 201.445312 107.425781 232.664062 107.425781 270.488281 C 107.425781 308.3125 138.078125 339.53125 176.429688 339.53125 C 214.804688 339.53125 245.390625 308.425781 245.390625 270.488281 C 245.390625 232.503906 214.761719 201.445312 176.429688 201.445312 Z M 163.71875 211.425781 C 156.738281 217.808594 150.988281 225.269531 146.675781 233.539062 C 142.589844 231.628906 138.683594 229.335938 134.957031 226.640625 C 142.859375 219.15625 152.828125 213.785156 163.71875 211.425781 Z M 189.140625 211.445312 C 200.054688 213.785156 210.023438 219.132812 217.90625 226.59375 C 214.175781 229.3125 210.269531 231.652344 206.183594 233.585938 C 201.871094 225.3125 196.125 217.808594 189.140625 211.445312 Z M 180.71875 215.535156 C 187.859375 221.46875 193.789062 228.753906 198.121094 236.777344 C 192.507812 238.617188 186.648438 239.789062 180.71875 240.148438 Z M 172.097656 215.605469 L 172.097656 240.167969 C 166.191406 239.789062 160.328125 238.640625 154.738281 236.796875 C 159.050781 228.773438 164.976562 221.515625 172.097656 215.605469 Z M 129.117188 233 C 133.539062 236.304688 138.1875 239.136719 143.105469 241.449219 C 140.050781 249.273438 138.210938 257.585938 137.738281 266.171875 L 116.25 266.171875 C 117.125 253.675781 121.773438 242.238281 129.117188 233 Z M 223.765625 233.023438 C 231.085938 242.257812 235.734375 253.675781 236.609375 266.171875 L 215.097656 266.171875 C 214.648438 257.585938 212.828125 249.273438 209.753906 241.429688 C 214.671875 239.136719 219.34375 236.304688 223.765625 233.023438 Z M 151.101562 244.6875 C 157.835938 247 164.933594 248.371094 172.097656 248.777344 L 172.097656 266.171875 L 146.386719 266.171875 C 146.835938 258.710938 148.429688 251.496094 151.101562 244.6875 Z M 201.757812 244.6875 C 204.410156 251.496094 206.027344 258.6875 206.476562 266.171875 L 180.71875 266.171875 L 180.71875 248.800781 C 187.90625 248.394531 194.976562 247 201.757812 244.6875 Z M 116.226562 274.804688 L 137.738281 274.804688 C 138.210938 283.410156 140.050781 291.726562 143.128906 299.570312 C 138.210938 301.863281 133.519531 304.695312 129.09375 307.976562 C 121.773438 298.738281 117.101562 287.320312 116.226562 274.804688 Z M 146.386719 274.804688 L 172.097656 274.804688 L 172.097656 292.199219 C 164.933594 292.601562 157.859375 293.996094 151.101562 296.3125 C 148.429688 289.480469 146.835938 282.285156 146.386719 274.804688 Z M 180.71875 274.804688 L 206.476562 274.804688 C 206.027344 282.285156 204.433594 289.480469 201.757812 296.3125 C 195 293.996094 187.882812 292.582031 180.71875 292.199219 Z M 215.097656 274.804688 L 236.609375 274.804688 C 235.734375 287.320312 231.0625 298.714844 223.742188 307.976562 C 219.34375 304.671875 214.648438 301.863281 209.730469 299.570312 C 212.808594 291.726562 214.648438 283.410156 215.097656 274.804688 Z M 81.578125 287.75 C 69.65625 287.75 60.023438 297.433594 60.023438 309.300781 C 60.023438 314.628906 61.953125 319.527344 65.1875 323.304688 C 54.410156 329.125 47.089844 340.632812 47.089844 353.847656 L 47.089844 358.882812 C 47.089844 369.578125 55.644531 378.367188 66.511719 378.367188 L 96.667969 378.367188 C 107.359375 378.367188 116.046875 369.78125 116.046875 358.882812 L 116.046875 353.847656 C 116.046875 340.632812 108.816406 329.167969 97.972656 323.324219 C 101.203125 319.550781 103.136719 314.652344 103.136719 309.300781 C 103.136719 297.433594 93.503906 287.75 81.578125 287.75 Z M 271.28125 288.984375 C 259.3125 288.984375 249.722656 298.695312 249.722656 310.558594 C 249.722656 315.527344 251.363281 320.042969 254.214844 323.707031 C 243.726562 329.664062 236.765625 341.058594 236.765625 353.847656 L 236.765625 358.882812 C 236.765625 369.578125 245.367188 378.367188 256.191406 378.367188 L 286.371094 378.367188 C 297.238281 378.367188 305.773438 369.578125 305.773438 358.882812 L 305.773438 353.847656 C 305.773438 340.921875 298.832031 329.664062 288.347656 323.707031 C 291.222656 320.042969 292.859375 315.4375 292.859375 310.558594 C 292.859375 298.695312 283.226562 288.984375 271.28125 288.984375 Z M 81.578125 296.378906 C 88.652344 296.378906 94.511719 302.109375 94.511719 309.300781 C 94.511719 316.515625 88.699219 322.269531 81.578125 322.269531 C 74.484375 322.269531 68.644531 316.515625 68.644531 309.300781 C 68.644531 302.109375 74.503906 296.378906 81.578125 296.378906 Z M 271.28125 297.613281 C 278.355469 297.613281 284.238281 303.347656 284.238281 310.558594 C 284.238281 317.753906 278.355469 323.527344 271.28125 323.527344 C 264.207031 323.527344 258.347656 317.753906 258.347656 310.558594 C 258.347656 303.347656 264.207031 297.613281 271.28125 297.613281 Z M 172.097656 300.828125 L 172.097656 325.417969 C 164.976562 319.503906 159.050781 312.222656 154.738281 304.199219 C 160.328125 302.378906 166.191406 301.210938 172.097656 300.828125 Z M 180.71875 300.828125 C 186.648438 301.210938 192.484375 302.355469 198.097656 304.199219 C 193.789062 312.222656 187.90625 319.484375 180.765625 325.394531 Z M 146.675781 307.4375 C 150.988281 315.683594 156.738281 323.167969 163.699219 329.527344 C 152.671875 327.167969 142.835938 321.84375 134.957031 314.359375 C 138.683594 311.660156 142.589844 309.347656 146.675781 307.4375 Z M 206.183594 307.4375 C 210.269531 309.347656 214.199219 311.660156 217.925781 314.382812 C 210.15625 321.753906 200.144531 327.191406 189.117188 329.550781 C 196.125 323.144531 201.871094 315.683594 206.183594 307.4375 Z M 89.953125 329.214844 C 100.015625 332.585938 107.425781 342.273438 107.425781 353.847656 L 107.425781 358.882812 C 107.425781 364.859375 102.710938 369.738281 96.667969 369.738281 L 66.511719 369.738281 C 60.539062 369.738281 55.710938 364.972656 55.710938 358.882812 L 55.710938 353.847656 C 55.710938 342.273438 63.097656 332.609375 73.203125 329.214844 C 75.742188 330.269531 78.683594 330.898438 81.578125 330.898438 C 84.5 330.898438 87.417969 330.269531 89.953125 329.214844 Z M 261.445312 329.753906 C 264.363281 331.238281 267.800781 332.160156 271.28125 332.160156 C 274.761719 332.160156 278.195312 331.257812 281.117188 329.753906 C 290.414062 333.507812 297.148438 342.8125 297.148438 353.847656 L 297.148438 358.882812 C 297.148438 364.972656 292.320312 369.738281 286.371094 369.738281 L 256.191406 369.738281 C 250.285156 369.738281 245.390625 364.972656 245.390625 358.882812 L 245.390625 353.847656 C 245.390625 342.8125 252.304688 333.441406 261.445312 329.753906 Z M 136.503906 361.894531 C 132.035156 362.320312 131.070312 368.386719 135.246094 370.1875 C 161.609375 381.085938 191.207031 381.085938 217.589844 370.1875 C 221.925781 368.296875 220.644531 362.183594 216.242188 361.894531 C 215.570312 361.894531 214.917969 361.914062 214.3125 362.230469 C 190.039062 372.253906 162.800781 372.253906 138.527344 362.230469 C 137.875 361.9375 137.222656 361.847656 136.503906 361.894531 " fill-opacity="1" fill-rule="nonzero"/></g></svg>